<?xml version="1.0" encoding="UTF-8"?>
<!DOCTYPE svg PUBLIC "-//W3C//DTD SVG 1.1//EN" "http://www.w3.org/Graphics/SVG/1.1/DTD/svg11.dtd">
<svg xmlns="http://www.w3.org/2000/svg" version="1.1" width="530px" height="530px" style="shape-rendering:geometricPrecision; text-rendering:geometricPrecision; image-rendering:optimizeQuality; fill-rule:evenodd; clip-rule:evenodd" xmlns:xlink="http://www.w3.org/1999/xlink">
<g><path style="opacity:1" fill="#980d00" d="M -0.5,-0.5 C 176.167,-0.5 352.833,-0.5 529.5,-0.5C 529.5,176.167 529.5,352.833 529.5,529.5C 352.833,529.5 176.167,529.5 -0.5,529.5C -0.5,352.833 -0.5,176.167 -0.5,-0.5 Z"/></g>
<g><path style="opacity:1" fill="#892a1f" d="M 277.5,157.5 C 276.539,159.265 276.205,161.265 276.5,163.5C 274.801,158.82 275.634,154.487 279,150.5C 279.494,148.866 279.66,147.199 279.5,145.5C 277.801,145.34 276.134,145.506 274.5,146C 269.271,149.695 265.938,154.528 264.5,160.5C 264.167,160.5 263.833,160.5 263.5,160.5C 263.555,156.818 264.555,153.485 266.5,150.5C 269.28,148.592 271.947,146.425 274.5,144C 278.483,142.752 280.817,144.086 281.5,148C 281,150.5 280.5,153 280,155.5C 279.292,156.381 278.458,157.047 277.5,157.5 Z"/></g>
<g><path style="opacity:1" fill="#8f241a" d="M 255.5,153.5 C 255.5,156.5 255.5,159.5 255.5,162.5C 249.026,154.072 248.859,145.406 255,136.5C 255.495,134.527 255.662,132.527 255.5,130.5C 253.379,130.325 251.379,130.659 249.5,131.5C 251.527,129.153 254.194,127.819 257.5,127.5C 257.665,130.518 257.498,133.518 257,136.5C 253.784,141.633 252.284,147.299 252.5,153.5C 253.5,153.5 254.5,153.5 255.5,153.5 Z"/></g>
<g><path style="opacity:1" fill="#f6d9d2" d="M 255.5,162.5 C 258.929,174.451 256.263,184.784 247.5,193.5C 245.49,195.171 243.157,195.838 240.5,195.5C 240.5,194.167 240.5,192.833 240.5,191.5C 240.5,190.5 240.5,189.5 240.5,188.5C 244.089,184.528 245.256,179.861 244,174.5C 241.633,170.147 239.3,165.813 237,161.5C 235.344,153.521 236.677,146.188 241,139.5C 243.705,136.964 246.205,134.297 248.5,131.5C 248.833,131.5 249.167,131.5 249.5,131.5C 251.379,130.659 253.379,130.325 255.5,130.5C 255.662,132.527 255.495,134.527 255,136.5C 248.859,145.406 249.026,154.072 255.5,162.5 Z"/></g>
<g><path style="opacity:1" fill="#8c2920" d="M 243.5,143.5 C 245.119,146.548 246.119,149.881 246.5,153.5C 247.363,155.421 248.029,157.421 248.5,159.5C 247.25,159.423 246.417,158.756 246,157.5C 244.927,153.916 244.26,150.25 244,146.5C 243.333,147.167 242.667,147.833 242,148.5C 241.333,152.167 241.333,155.833 242,159.5C 243.903,161.441 244.736,163.774 244.5,166.5C 239.342,160.673 238.175,154.006 241,146.5C 241.377,145.058 242.21,144.058 243.5,143.5 Z"/></g>
<g><path style="opacity:1" fill="#873c38" d="M 246.5,153.5 C 246.119,149.881 245.119,146.548 243.5,143.5C 245.388,140.101 247.888,137.101 251,134.5C 250.537,137.77 249.204,140.77 247,143.5C 246.502,146.817 246.335,150.15 246.5,153.5 Z"/></g>
<g><path style="opacity:1" fill="#901307" d="M 248.5,159.5 C 250.346,161.03 251.346,163.03 251.5,165.5C 251.826,169.884 251.492,174.217 250.5,178.5C 249.686,176.234 249.186,173.9 249,171.5C 247.483,169.76 245.983,168.094 244.5,166.5C 244.736,163.774 243.903,161.441 242,159.5C 241.333,155.833 241.333,152.167 242,148.5C 242.667,147.833 243.333,147.167 244,146.5C 244.26,150.25 244.927,153.916 246,157.5C 246.417,158.756 247.25,159.423 248.5,159.5 Z"/></g>
<g><path style="opacity:1" fill="#8b1e15" d="M 346.5,173.5 C 346.167,173.5 345.833,173.5 345.5,173.5C 343.666,169.838 341.333,166.504 338.5,163.5C 327.111,174.227 315.444,184.561 303.5,194.5C 302.5,194.5 301.5,194.5 300.5,194.5C 303.987,193.612 305.32,191.279 304.5,187.5C 305.873,187.657 307.207,187.49 308.5,187C 311.927,183.647 315.594,180.814 319.5,178.5C 319.5,176.833 319.5,175.167 319.5,173.5C 323.421,172.943 326.755,171.11 329.5,168C 330.448,167.517 331.448,167.351 332.5,167.5C 332.5,166.5 332.5,165.5 332.5,164.5C 334.594,163.758 336.761,163.091 339,162.5C 341.187,162.788 343.354,163.122 345.5,163.5C 345.5,162.167 345.5,160.833 345.5,159.5C 346.5,159.5 347.5,159.5 348.5,159.5C 348.5,161.167 348.5,162.833 348.5,164.5C 347.5,164.5 346.5,164.5 345.5,164.5C 345.704,167.518 346.037,170.518 346.5,173.5 Z"/></g>
<g><path style="opacity:1" fill="#8b271c" d="M 248.5,131.5 C 246.205,134.297 243.705,136.964 241,139.5C 236.677,146.188 235.344,153.521 237,161.5C 239.3,165.813 241.633,170.147 244,174.5C 245.256,179.861 244.089,184.528 240.5,188.5C 240.36,184.836 241.027,181.336 242.5,178C 239.217,172.15 236.717,165.984 235,159.5C 234.447,152.8 234.78,146.133 236,139.5C 238,137.833 240,136.167 242,134.5C 242.92,131.692 242.087,129.525 239.5,128C 243.046,127.207 244.88,128.707 245,132.5C 246.011,131.663 247.178,131.33 248.5,131.5 Z"/></g>
<g><path style="opacity:1" fill="#852920" d="M 251.5,165.5 C 252.222,165.918 252.722,166.584 253,167.5C 254.018,176.776 251.351,184.776 245,191.5C 245.967,187.364 247.134,183.197 248.5,179C 247.862,174.588 246.529,170.422 244.5,166.5C 245.983,168.094 247.483,169.76 249,171.5C 249.186,173.9 249.686,176.234 250.5,178.5C 251.492,174.217 251.826,169.884 251.5,165.5 Z"/></g>
<g><path style="opacity:1" fill="#951309" d="M 364.5,189.5 C 364.201,185.895 363.035,182.561 361,179.5C 360.329,178.748 359.496,178.414 358.5,178.5C 353.75,177.945 350.083,179.611 347.5,183.5C 345.604,184.466 343.604,184.799 341.5,184.5C 341.719,185.675 341.386,186.675 340.5,187.5C 338.142,188.154 336.475,189.487 335.5,191.5C 332.684,194.948 329.017,197.282 324.5,198.5C 321.575,199.639 318.575,200.139 315.5,200C 316.665,198.008 317.998,196.175 319.5,194.5C 320.833,194.5 322.167,194.5 323.5,194.5C 323.5,193.5 323.5,192.5 323.5,191.5C 324.873,191.657 326.207,191.49 327.5,191C 330.287,189.127 332.954,187.294 335.5,185.5C 335.5,184.5 335.5,183.5 335.5,182.5C 339.713,181.292 342.713,178.625 344.5,174.5C 344.5,173.833 344.833,173.5 345.5,173.5C 345.833,173.5 346.167,173.5 346.5,173.5C 346.821,175.048 347.821,175.715 349.5,175.5C 349.181,173.25 349.681,171.25 351,169.5C 351.497,172.146 351.664,174.813 351.5,177.5C 353.808,177.086 356.142,176.753 358.5,176.5C 361.47,177.426 364.47,178.092 367.5,178.5C 367.551,180.57 366.885,182.403 365.5,184C 367.13,186.428 366.797,188.261 364.5,189.5 Z"/></g>
<g><path style="opacity:1" fill="#f7d9d1" d="M 345.5,173.5 C 344.833,173.5 344.5,173.833 344.5,174.5C 335.541,180.468 327.207,187.134 319.5,194.5C 314.617,197.109 310.284,200.443 306.5,204.5C 305.609,205.11 304.609,205.443 303.5,205.5C 303.5,204.5 303.5,203.5 303.5,202.5C 310.167,196.833 316.833,191.167 323.5,185.5C 329.754,181.582 335.421,176.915 340.5,171.5C 339.652,169.717 338.319,169.217 336.5,170C 331.605,175.064 326.605,179.897 321.5,184.5C 316.205,188.46 311.205,192.793 306.5,197.5C 306.649,196.448 306.483,195.448 306,194.5C 305.329,195.252 304.496,195.586 303.5,195.5C 303.5,195.167 303.5,194.833 303.5,194.5C 315.444,184.561 327.111,174.227 338.5,163.5C 341.333,166.504 343.666,169.838 345.5,173.5 Z"/></g>
<g><path style="opacity:1" fill="#7e2f29" d="M 323.5,185.5 C 322.508,185.672 321.842,185.338 321.5,184.5C 326.605,179.897 331.605,175.064 336.5,170C 338.319,169.217 339.652,169.717 340.5,171.5C 335.421,176.915 329.754,181.582 323.5,185.5 Z"/></g>
<g><path style="opacity:1" fill="#87221a" d="M 358.5,178.5 C 353.342,182.137 348.009,185.637 342.5,189C 340.35,190.411 338.016,191.245 335.5,191.5C 336.475,189.487 338.142,188.154 340.5,187.5C 341.386,186.675 341.719,185.675 341.5,184.5C 343.604,184.799 345.604,184.466 347.5,183.5C 350.083,179.611 353.75,177.945 358.5,178.5 Z"/></g>
<g><path style="opacity:1" fill="#f7dbd5" d="M 276.5,163.5 C 281.825,172.888 281.825,182.222 276.5,191.5C 274.611,192.604 272.945,193.937 271.5,195.5C 269.833,195.5 268.167,195.5 266.5,195.5C 266.517,193.435 266.85,191.435 267.5,189.5C 268.727,187.368 269.727,185.034 270.5,182.5C 269.061,178.629 267.394,174.962 265.5,171.5C 265.5,171.167 265.5,170.833 265.5,170.5C 264.793,167.214 264.46,163.881 264.5,160.5C 265.938,154.528 269.271,149.695 274.5,146C 276.134,145.506 277.801,145.34 279.5,145.5C 279.66,147.199 279.494,148.866 279,150.5C 275.634,154.487 274.801,158.82 276.5,163.5 Z"/></g>
<g><path style="opacity:1" fill="#87261d" d="M 271.5,156.5 C 271.338,158.527 271.505,160.527 272,162.5C 273.513,166.188 275.013,169.855 276.5,173.5C 276.816,176.978 276.316,180.312 275,183.5C 274.768,182.263 274.268,181.263 273.5,180.5C 271.969,176.433 270.136,172.433 268,168.5C 267.192,164.973 267.359,161.64 268.5,158.5C 269.5,157.833 270.5,157.167 271.5,156.5 Z"/></g>
<g><path style="opacity:1" fill="#7a4f49" d="M 271.5,156.5 C 270.5,157.167 269.5,157.833 268.5,158.5C 269.373,156.114 270.873,154.114 273,152.5C 273.348,154.14 272.848,155.473 271.5,156.5 Z"/></g>
<g><path style="opacity:1" fill="#f6d7d1" d="M 358.5,178.5 C 359.496,178.414 360.329,178.748 361,179.5C 363.035,182.561 364.201,185.895 364.5,189.5C 350.857,195.655 337.523,202.322 324.5,209.5C 324.953,208.542 325.619,207.708 326.5,207C 325.552,206.517 324.552,206.351 323.5,206.5C 335.612,199.608 347.945,192.941 360.5,186.5C 360.081,185.328 359.415,184.328 358.5,183.5C 346.472,190.512 334.472,197.512 322.5,204.5C 322.179,202.952 321.179,202.285 319.5,202.5C 321.167,201.167 322.833,199.833 324.5,198.5C 329.017,197.282 332.684,194.948 335.5,191.5C 338.016,191.245 340.35,190.411 342.5,189C 348.009,185.637 353.342,182.137 358.5,178.5 Z"/></g>
<g><path style="opacity:1" fill="#7e4b4b" d="M 321.5,184.5 C 321.842,185.338 322.508,185.672 323.5,185.5C 316.833,191.167 310.167,196.833 303.5,202.5C 302.102,204.109 300.435,204.942 298.5,205C 301.036,202.295 303.703,199.795 306.5,197.5C 311.205,192.793 316.205,188.46 321.5,184.5 Z"/></g>
<g><path style="opacity:1" fill="#8f1b12" d="M 255.5,162.5 C 257.097,163.737 258.263,165.404 259,167.5C 259.667,173.5 259.667,179.5 259,185.5C 257.159,187.159 255.992,189.159 255.5,191.5C 254.448,191.351 253.448,191.517 252.5,192C 253.787,193.786 255.287,193.953 257,192.5C 260.405,194.967 259.905,196.3 255.5,196.5C 255.843,198.483 255.176,199.817 253.5,200.5C 253.799,199.24 253.799,198.073 253.5,197C 252.391,196.362 251.225,195.862 250,195.5C 246.698,197.139 243.198,197.806 239.5,197.5C 239.205,195.265 239.539,193.265 240.5,191.5C 240.5,192.833 240.5,194.167 240.5,195.5C 243.157,195.838 245.49,195.171 247.5,193.5C 256.263,184.784 258.929,174.451 255.5,162.5 Z"/></g>
<g><path style="opacity:1" fill="#8b2721" d="M 344.5,174.5 C 342.713,178.625 339.713,181.292 335.5,182.5C 335.5,183.5 335.5,184.5 335.5,185.5C 332.954,187.294 330.287,189.127 327.5,191C 326.207,191.49 324.873,191.657 323.5,191.5C 323.5,192.5 323.5,193.5 323.5,194.5C 322.167,194.5 320.833,194.5 319.5,194.5C 327.207,187.134 335.541,180.468 344.5,174.5 Z"/></g>
<g><path style="opacity:1" fill="#7c3733" d="M 323.5,206.5 C 321.5,207.167 319.5,207.833 317.5,208.5C 317.5,208.167 317.5,207.833 317.5,207.5C 319.332,206.752 320.999,205.752 322.5,204.5C 334.472,197.512 346.472,190.512 358.5,183.5C 359.415,184.328 360.081,185.328 360.5,186.5C 347.945,192.941 335.612,199.608 323.5,206.5 Z"/></g>
<g><path style="opacity:1" fill="#842920" d="M 300.5,194.5 C 301.5,194.5 302.5,194.5 303.5,194.5C 303.5,194.833 303.5,195.167 303.5,195.5C 300.192,198.471 296.859,201.471 293.5,204.5C 286.833,204.167 280.167,203.833 273.5,203.5C 261.523,202.234 249.523,202.234 237.5,203.5C 227.487,204.668 217.487,206.002 207.5,207.5C 207.5,206.5 207.5,205.5 207.5,204.5C 216.225,204.326 224.891,203.493 233.5,202C 250.525,201.224 267.525,201.391 284.5,202.5C 287.753,201.753 291.086,201.753 294.5,202.5C 296.479,199.836 298.479,197.17 300.5,194.5 Z"/></g>
<g><path style="opacity:1" fill="#85231c" d="M 319.5,194.5 C 317.998,196.175 316.665,198.008 315.5,200C 318.575,200.139 321.575,199.639 324.5,198.5C 322.833,199.833 321.167,201.167 319.5,202.5C 316.339,203.913 313.339,205.58 310.5,207.5C 308.027,207.912 306.694,206.912 306.5,204.5C 310.284,200.443 314.617,197.109 319.5,194.5 Z"/></g>
<g><path style="opacity:1" fill="#f2d8cf" d="M 273.5,203.5 C 273.082,204.222 272.416,204.722 271.5,205C 265.833,205.167 260.167,205.333 254.5,205.5C 248.458,205.496 242.792,204.829 237.5,203.5C 249.523,202.234 261.523,202.234 273.5,203.5 Z"/></g>
<g><path style="opacity:1" fill="#913d39" d="M 274.5,207.5 C 272.167,207.5 269.833,207.5 267.5,207.5C 252.101,207.264 236.768,207.931 221.5,209.5C 226.212,207.845 231.212,207.012 236.5,207C 249.34,206.173 262.007,206.34 274.5,207.5 Z"/></g>
<g><path style="opacity:1" fill="#b18178" d="M 284.5,207.5 C 286.288,207.215 287.955,207.548 289.5,208.5C 289.145,209.522 288.478,210.189 287.5,210.5C 286.9,209.1 285.9,208.1 284.5,207.5 Z"/></g>
<g><path style="opacity:1" fill="#871d15" d="M 267.5,207.5 C 269.833,207.5 272.167,207.5 274.5,207.5C 277.833,207.5 281.167,207.5 284.5,207.5C 285.9,208.1 286.9,209.1 287.5,210.5C 286.373,211.122 285.373,211.955 284.5,213C 276.195,212.868 268.361,214.702 261,218.5C 258.28,217.767 255.78,216.767 253.5,215.5C 256.85,215.665 260.183,215.498 263.5,215C 265.808,213.064 268.475,212.231 271.5,212.5C 271.5,211.5 271.5,210.5 271.5,209.5C 269.62,209.771 268.287,209.104 267.5,207.5 Z"/></g>
<g><path style="opacity:1" fill="#985346" d="M 217.5,209.5 C 217.389,210.117 217.056,210.617 216.5,211C 212.13,211.737 207.796,212.57 203.5,213.5C 207.734,211.045 212.4,209.711 217.5,209.5 Z"/></g>
<g><path style="opacity:1" fill="#8f1409" d="M 267.5,207.5 C 268.287,209.104 269.62,209.771 271.5,209.5C 271.5,210.5 271.5,211.5 271.5,212.5C 268.475,212.231 265.808,213.064 263.5,215C 260.183,215.498 256.85,215.665 253.5,215.5C 240.66,212.56 227.993,213.226 215.5,217.5C 210.175,218.496 204.842,219.496 199.5,220.5C 199.15,217.547 200.15,215.213 202.5,213.5C 202.833,213.5 203.167,213.5 203.5,213.5C 207.796,212.57 212.13,211.737 216.5,211C 217.056,210.617 217.389,210.117 217.5,209.5C 218.833,209.5 220.167,209.5 221.5,209.5C 236.768,207.931 252.101,207.264 267.5,207.5 Z"/></g>
<g><path style="opacity:1" fill="#f8e6e1" d="M 306.5,197.5 C 303.703,199.795 301.036,202.295 298.5,205C 300.435,204.942 302.102,204.109 303.5,202.5C 303.5,203.5 303.5,204.5 303.5,205.5C 303.881,206.931 304.881,207.764 306.5,208C 308.066,208.765 309.399,208.598 310.5,207.5C 313.339,205.58 316.339,203.913 319.5,202.5C 321.179,202.285 322.179,202.952 322.5,204.5C 320.999,205.752 319.332,206.752 317.5,207.5C 313.194,209.988 308.861,212.488 304.5,215C 309.337,213.915 313.67,211.748 317.5,208.5C 319.5,207.833 321.5,207.167 323.5,206.5C 324.552,206.351 325.552,206.517 326.5,207C 325.619,207.708 324.953,208.542 324.5,209.5C 322.577,209.795 320.91,210.628 319.5,212C 321.141,213.129 322.141,214.629 322.5,216.5C 322.5,218.833 322.5,221.167 322.5,223.5C 320.801,223.66 319.134,223.494 317.5,223C 318.756,222.583 319.423,221.75 319.5,220.5C 319.671,215.506 317.338,213.672 312.5,215C 311.429,215.852 310.429,216.685 309.5,217.5C 307.577,217.795 305.91,218.628 304.5,220C 307.309,221.741 310.309,222.908 313.5,223.5C 312.685,225.302 311.185,226.302 309,226.5C 307.493,225.445 305.993,224.445 304.5,223.5C 302.368,223.554 301.035,224.554 300.5,226.5C 301.9,227.1 302.9,228.1 303.5,229.5C 300.833,229.833 298.167,230.167 295.5,230.5C 294.325,230.719 293.325,230.386 292.5,229.5C 293.993,228.859 294.993,227.859 295.5,226.5C 299.941,222.923 299.275,220.923 293.5,220.5C 292.167,220.5 290.833,220.5 289.5,220.5C 289.5,219.5 289.5,218.5 289.5,217.5C 287.901,217.232 286.568,217.566 285.5,218.5C 278.354,221.242 271.354,224.242 264.5,227.5C 264.5,226.167 263.833,225.5 262.5,225.5C 262.5,225.167 262.5,224.833 262.5,224.5C 267.479,222.346 272.479,220.179 277.5,218C 275.5,217.333 273.5,217.333 271.5,218C 267.249,219.631 263.249,221.464 259.5,223.5C 256.366,224.901 253.366,226.568 250.5,228.5C 249.957,228.56 249.624,228.893 249.5,229.5C 250.833,229.833 252.167,230.167 253.5,230.5C 256.492,229.632 259.492,229.132 262.5,229C 261.542,230.147 261.875,231.147 263.5,232C 257.5,232.667 251.5,232.667 245.5,232C 244.244,231.583 243.577,230.75 243.5,229.5C 240.358,228.21 237.025,227.21 233.5,226.5C 226.648,225.33 219.815,223.997 213,222.5C 211.188,222.493 209.688,223.16 208.5,224.5C 210.291,225.17 211.958,225.837 213.5,226.5C 208.968,227.616 204.635,226.782 200.5,224C 202.744,223.95 204.411,223.117 205.5,221.5C 208.989,220.342 212.322,219.009 215.5,217.5C 227.993,213.226 240.66,212.56 253.5,215.5C 255.78,216.767 258.28,217.767 261,218.5C 268.361,214.702 276.195,212.868 284.5,213C 285.373,211.955 286.373,211.122 287.5,210.5C 288.478,210.189 289.145,209.522 289.5,208.5C 287.955,207.548 286.288,207.215 284.5,207.5C 283.048,206.698 281.382,206.198 279.5,206C 284.351,205.826 289.018,205.326 293.5,204.5C 296.859,201.471 300.192,198.471 303.5,195.5C 304.496,195.586 305.329,195.252 306,194.5C 306.483,195.448 306.649,196.448 306.5,197.5 Z"/></g>
<g><path style="opacity:1" fill="#b1a29f" d="M 317.5,207.5 C 317.5,207.833 317.5,208.167 317.5,208.5C 313.67,211.748 309.337,213.915 304.5,215C 308.861,212.488 313.194,209.988 317.5,207.5 Z"/></g>
<g><path style="opacity:1" fill="#7a3c38" d="M 298.5,209.5 C 300.429,209.231 302.095,209.731 303.5,211C 300.31,214.281 296.643,215.781 292.5,215.5C 294.854,213.812 296.854,211.812 298.5,209.5 Z"/></g>
<g><path style="opacity:1" fill="#915f5c" d="M 306.5,204.5 C 306.694,206.912 308.027,207.912 310.5,207.5C 309.399,208.598 308.066,208.765 306.5,208C 304.881,207.764 303.881,206.931 303.5,205.5C 304.609,205.443 305.609,205.11 306.5,204.5 Z"/></g>
<g><path style="opacity:1" fill="#892417" d="M 319.5,220.5 C 318.167,220.833 316.833,221.167 315.5,221.5C 313.5,221.5 311.5,221.5 309.5,221.5C 309.5,220.167 309.5,218.833 309.5,217.5C 310.429,216.685 311.429,215.852 312.5,215C 317.338,213.672 319.671,215.506 319.5,220.5 Z"/></g>
<g><path style="opacity:1" fill="#8a3730" d="M 202.5,213.5 C 200.15,215.213 199.15,217.547 199.5,220.5C 204.842,219.496 210.175,218.496 215.5,217.5C 212.322,219.009 208.989,220.342 205.5,221.5C 201.526,223.423 198.526,222.423 196.5,218.5C 197.931,216.062 199.931,214.396 202.5,213.5 Z"/></g>
<g><path style="opacity:1" fill="#89281f" d="M 206.5,207.5 C 202.349,209.452 198.349,211.786 194.5,214.5C 193.552,219.435 193.219,224.435 193.5,229.5C 192.883,229.389 192.383,229.056 192,228.5C 191.171,223.467 191.338,218.467 192.5,213.5C 196.644,210.296 201.311,208.296 206.5,207.5 Z"/></g>
<g><path style="opacity:1" fill="#960f05" d="M 266.5,150.5 C 264.555,153.485 263.555,156.818 263.5,160.5C 263.336,163.187 263.503,165.854 264,168.5C 264.278,169.416 264.778,170.082 265.5,170.5C 265.5,170.833 265.5,171.167 265.5,171.5C 266.957,177.4 267.623,183.4 267.5,189.5C 266.85,191.435 266.517,193.435 266.5,195.5C 268.167,195.5 269.833,195.5 271.5,195.5C 274.204,195.33 275.871,193.997 276.5,191.5C 281.825,182.222 281.825,172.888 276.5,163.5C 276.205,161.265 276.539,159.265 277.5,157.5C 277.064,160.364 277.897,162.697 280,164.5C 280.494,162.866 280.66,161.199 280.5,159.5C 281.5,159.5 282.5,159.5 283.5,159.5C 283.34,161.199 283.506,162.866 284,164.5C 287.866,167.108 288.366,170.275 285.5,174C 287.687,179.683 288.02,185.516 286.5,191.5C 285.679,188.553 285.179,185.553 285,182.5C 282.416,185.411 280.25,188.577 278.5,192C 283.502,191.477 285.835,193.644 285.5,198.5C 284.5,198.5 283.5,198.5 282.5,198.5C 282.527,200.199 283.194,201.533 284.5,202.5C 267.525,201.391 250.525,201.224 233.5,202C 224.891,203.493 216.225,204.326 207.5,204.5C 207.5,205.5 207.5,206.5 207.5,207.5C 207.167,207.5 206.833,207.5 206.5,207.5C 201.311,208.296 196.644,210.296 192.5,213.5C 191.338,218.467 191.171,223.467 192,228.5C 192.383,229.056 192.883,229.389 193.5,229.5C 192.372,236.163 194.038,241.83 198.5,246.5C 203.066,254.069 208.399,261.069 214.5,267.5C 214.833,268.833 215.167,270.167 215.5,271.5C 214.417,271.539 213.417,271.873 212.5,272.5C 212.891,271.282 212.224,270.448 210.5,270C 211.706,268.982 211.373,268.482 209.5,268.5C 207.971,268.529 206.804,269.196 206,270.5C 204.16,269.167 203.66,269.334 204.5,271C 202.19,271.497 199.857,271.663 197.5,271.5C 197.657,270.127 197.49,268.793 197,267.5C 192.973,264.746 192.64,261.746 196,258.5C 197.883,259.653 198.716,261.319 198.5,263.5C 194.661,263.612 194.661,264.279 198.5,265.5C 199.808,262.294 200.475,258.96 200.5,255.5C 195.733,255.649 193.4,253.316 193.5,248.5C 189.603,249.544 186.436,248.211 184,244.5C 183.176,248.186 184.509,250.852 188,252.5C 188.914,254.289 189.747,256.123 190.5,258C 190.167,258.833 189.833,259.667 189.5,260.5C 187.783,259.332 187.116,257.665 187.5,255.5C 185.833,255.5 184.167,255.5 182.5,255.5C 182.333,244.828 182.5,234.161 183,223.5C 184.281,223.619 185.448,223.119 186.5,222C 185.185,220.605 185.519,219.605 187.5,219C 186.549,218.282 186.383,217.449 187,216.5C 188.135,216.273 189.302,215.94 190.5,215.5C 189.011,214.02 187.345,213.187 185.5,213C 186.249,211.266 186.749,209.433 187,207.5C 188.667,206.833 190.333,206.167 192,205.5C 193.707,206.459 195.541,207.125 197.5,207.5C 199.108,205.738 201.108,204.572 203.5,204C 211.309,203.811 218.976,202.811 226.5,201C 224.137,200.411 223.137,198.911 223.5,196.5C 226.572,196.183 229.572,196.516 232.5,197.5C 232.167,198.167 231.833,198.833 231.5,199.5C 238.803,200.497 246.137,200.831 253.5,200.5C 255.176,199.817 255.843,198.483 255.5,196.5C 259.905,196.3 260.405,194.967 257,192.5C 255.287,193.953 253.787,193.786 252.5,192C 253.448,191.517 254.448,191.351 255.5,191.5C 255.992,189.159 257.159,187.159 259,185.5C 259.667,179.5 259.667,173.5 259,167.5C 258.263,165.404 257.097,163.737 255.5,162.5C 255.5,159.5 255.5,156.5 255.5,153.5C 257.539,154.911 258.539,156.911 258.5,159.5C 259.5,159.5 260.5,159.5 261.5,159.5C 261.759,155.622 263.426,152.622 266.5,150.5 Z"/></g>
<g><path style="opacity:1" fill="#90463c" d="M 276.5,191.5 C 275.871,193.997 274.204,195.33 271.5,195.5C 272.945,193.937 274.611,192.604 276.5,191.5 Z"/></g>
<g><path style="opacity:1" fill="#8b5a55" d="M 276.5,173.5 C 278.614,179.989 277.114,185.656 272,190.5C 271.833,190.167 271.667,189.833 271.5,189.5C 273.13,186.724 273.797,183.724 273.5,180.5C 274.268,181.263 274.768,182.263 275,183.5C 276.316,180.312 276.816,176.978 276.5,173.5 Z"/></g>
<g><path style="opacity:1" fill="#832c27" d="M 265.5,171.5 C 267.394,174.962 269.061,178.629 270.5,182.5C 269.727,185.034 268.727,187.368 267.5,189.5C 267.623,183.4 266.957,177.4 265.5,171.5 Z"/></g>
<g><path style="opacity:1" fill="#c98983" d="M 263.5,160.5 C 263.833,160.5 264.167,160.5 264.5,160.5C 264.46,163.881 264.793,167.214 265.5,170.5C 264.778,170.082 264.278,169.416 264,168.5C 263.503,165.854 263.336,163.187 263.5,160.5 Z"/></g>
<g><path style="opacity:1" fill="#89271d" d="M 364.5,189.5 C 361.939,194.76 357.605,197.26 351.5,197C 344.073,200.702 337.406,205.369 331.5,211C 328.974,210.368 326.474,210.535 324,211.5C 324.94,215.51 325.44,219.677 325.5,224C 324.674,230.487 323.841,236.987 323,243.5C 318.21,251.691 312.377,259.191 305.5,266C 304.906,266.464 304.239,266.631 303.5,266.5C 317.75,252.695 324.083,236.028 322.5,216.5C 322.141,214.629 321.141,213.129 319.5,212C 320.91,210.628 322.577,209.795 324.5,209.5C 337.523,202.322 350.857,195.655 364.5,189.5 Z"/></g>
<g><path style="opacity:1" fill="#8a2b26" d="M 193.5,229.5 C 194.778,235.18 196.445,240.846 198.5,246.5C 194.038,241.83 192.372,236.163 193.5,229.5 Z"/></g>
<g><path style="opacity:1" fill="#8b1c13" d="M 214.5,267.5 C 218.472,269.822 222.472,272.155 226.5,274.5C 227.487,277.768 227.82,281.102 227.5,284.5C 226.504,284.586 225.671,284.252 225,283.5C 222.954,278.574 219.788,274.574 215.5,271.5C 215.167,270.167 214.833,268.833 214.5,267.5 Z"/></g>
<g><path style="opacity:1" fill="#863227" d="M 296.5,271.5 C 294.923,273.584 293.09,275.584 291,277.5C 291.03,280.361 290.197,282.695 288.5,284.5C 286.774,277.191 289.441,272.857 296.5,271.5 Z"/></g>
<g><path style="opacity:1" fill="#f7d9d5" d="M 237.5,203.5 C 242.792,204.829 248.458,205.496 254.5,205.5C 260.167,205.333 265.833,205.167 271.5,205C 272.416,204.722 273.082,204.222 273.5,203.5C 280.167,203.833 286.833,204.167 293.5,204.5C 289.018,205.326 284.351,205.826 279.5,206C 281.382,206.198 283.048,206.698 284.5,207.5C 281.167,207.5 277.833,207.5 274.5,207.5C 262.007,206.34 249.34,206.173 236.5,207C 231.212,207.012 226.212,207.845 221.5,209.5C 220.167,209.5 218.833,209.5 217.5,209.5C 212.4,209.711 207.734,211.045 203.5,213.5C 203.167,213.5 202.833,213.5 202.5,213.5C 199.931,214.396 197.931,216.062 196.5,218.5C 198.526,222.423 201.526,223.423 205.5,221.5C 204.411,223.117 202.744,223.95 200.5,224C 204.635,226.782 208.968,227.616 213.5,226.5C 220.089,227.812 226.756,228.479 233.5,228.5C 236.625,229.479 239.958,229.813 243.5,229.5C 243.577,230.75 244.244,231.583 245.5,232C 251.5,232.667 257.5,232.667 263.5,232C 261.875,231.147 261.542,230.147 262.5,229C 259.492,229.132 256.492,229.632 253.5,230.5C 252.167,230.167 250.833,229.833 249.5,229.5C 249.624,228.893 249.957,228.56 250.5,228.5C 252.288,229.622 254.288,229.789 256.5,229C 258.391,227.558 260.391,226.391 262.5,225.5C 263.833,225.5 264.5,226.167 264.5,227.5C 264.389,228.117 264.056,228.617 263.5,229C 266.833,229.667 270.167,229.667 273.5,229C 277.261,226.235 281.261,223.902 285.5,222C 288.97,219.877 288.97,218.71 285.5,218.5C 286.568,217.566 287.901,217.232 289.5,217.5C 289.5,218.5 289.5,219.5 289.5,220.5C 290.833,220.5 292.167,220.5 293.5,220.5C 292.167,221.5 290.833,222.5 289.5,223.5C 279.825,228.09 280.492,229.59 291.5,228C 292.737,227.768 293.737,227.268 294.5,226.5C 294.833,226.5 295.167,226.5 295.5,226.5C 294.993,227.859 293.993,228.859 292.5,229.5C 293.325,230.386 294.325,230.719 295.5,230.5C 266.168,235.027 236.835,234.36 207.5,228.5C 204.328,227.554 201.328,226.221 198.5,224.5C 197.68,233.22 199.68,241.22 204.5,248.5C 206.088,252.41 208.421,255.743 211.5,258.5C 223.686,271.082 238.686,277.416 256.5,277.5C 263.792,277.549 270.792,276.549 277.5,274.5C 290.157,272.143 300.157,265.81 307.5,255.5C 312.076,250.349 315.076,244.349 316.5,237.5C 318.711,233.437 319.378,229.104 318.5,224.5C 313.643,226.63 308.643,228.297 303.5,229.5C 302.9,228.1 301.9,227.1 300.5,226.5C 302.308,226.509 303.975,226.009 305.5,225C 304.944,224.617 304.611,224.117 304.5,223.5C 305.993,224.445 307.493,225.445 309,226.5C 311.185,226.302 312.685,225.302 313.5,223.5C 314.5,223.167 315.167,222.5 315.5,221.5C 316.833,221.167 318.167,220.833 319.5,220.5C 319.423,221.75 318.756,222.583 317.5,223C 319.134,223.494 320.801,223.66 322.5,223.5C 322.5,221.167 322.5,218.833 322.5,216.5C 324.083,236.028 317.75,252.695 303.5,266.5C 300.883,267.786 298.55,269.453 296.5,271.5C 289.441,272.857 286.774,277.191 288.5,284.5C 287.833,284.5 287.5,284.833 287.5,285.5C 284.603,286.129 281.936,287.129 279.5,288.5C 269.194,289.371 258.86,289.704 248.5,289.5C 241.064,289.481 234.064,287.814 227.5,284.5C 227.82,281.102 227.487,277.768 226.5,274.5C 222.472,272.155 218.472,269.822 214.5,267.5C 208.399,261.069 203.066,254.069 198.5,246.5C 196.445,240.846 194.778,235.18 193.5,229.5C 193.219,224.435 193.552,219.435 194.5,214.5C 198.349,211.786 202.349,209.452 206.5,207.5C 206.833,207.5 207.167,207.5 207.5,207.5C 217.487,206.002 227.487,204.668 237.5,203.5 Z"/></g>
<g><path style="opacity:1" fill="#a87774" d="M 282.5,277.5 C 283.209,276.596 284.209,276.263 285.5,276.5C 286.01,279.388 285.344,281.721 283.5,283.5C 285.179,280.988 284.845,278.988 282.5,277.5 Z"/></g>
<g><path style="opacity:1" fill="#862a21" d="M 211.5,258.5 C 213.886,259.373 215.886,260.873 217.5,263C 219.473,263.495 221.473,263.662 223.5,263.5C 223.5,264.833 223.5,266.167 223.5,267.5C 227.005,266.891 229.672,268.058 231.5,271C 234.525,271.133 237.192,272.133 239.5,274C 252.141,275.774 264.808,275.941 277.5,274.5C 270.792,276.549 263.792,277.549 256.5,277.5C 238.686,277.416 223.686,271.082 211.5,258.5 Z"/></g>
<g><path style="opacity:1" fill="#980d02" d="M 316.5,237.5 C 313.503,243.441 310.503,249.441 307.5,255.5C 300.157,265.81 290.157,272.143 277.5,274.5C 264.808,275.941 252.141,275.774 239.5,274C 237.192,272.133 234.525,271.133 231.5,271C 229.672,268.058 227.005,266.891 223.5,267.5C 223.5,266.167 223.5,264.833 223.5,263.5C 221.473,263.662 219.473,263.495 217.5,263C 215.886,260.873 213.886,259.373 211.5,258.5C 208.421,255.743 206.088,252.41 204.5,248.5C 204.221,245.882 203.554,243.382 202.5,241C 203.167,240.667 203.833,240.333 204.5,240C 202.667,239.5 201.5,238.333 201,236.5C 200.503,234.19 200.337,231.857 200.5,229.5C 203.482,229.963 206.482,230.296 209.5,230.5C 245.427,237.05 281.094,236.383 316.5,228.5C 316.5,231.5 316.5,234.5 316.5,237.5 Z"/></g>
<g><path style="opacity:1" fill="#822c23" d="M 316.5,237.5 C 315.076,244.349 312.076,250.349 307.5,255.5C 310.503,249.441 313.503,243.441 316.5,237.5 Z"/></g>
<g><path style="opacity:1" fill="#833028" d="M 316.5,237.5 C 316.5,234.5 316.5,231.5 316.5,228.5C 281.094,236.383 245.427,237.05 209.5,230.5C 208.833,229.833 208.167,229.167 207.5,228.5C 236.835,234.36 266.168,235.027 295.5,230.5C 298.167,230.167 300.833,229.833 303.5,229.5C 308.643,228.297 313.643,226.63 318.5,224.5C 319.378,229.104 318.711,233.437 316.5,237.5 Z"/></g>
<g><path style="opacity:1" fill="#842215" d="M 207.5,228.5 C 208.167,229.167 208.833,229.833 209.5,230.5C 206.482,230.296 203.482,229.963 200.5,229.5C 200.337,231.857 200.503,234.19 201,236.5C 201.5,238.333 202.667,239.5 204.5,240C 203.833,240.333 203.167,240.667 202.5,241C 203.554,243.382 204.221,245.882 204.5,248.5C 199.68,241.22 197.68,233.22 198.5,224.5C 201.328,226.221 204.328,227.554 207.5,228.5 Z"/></g>
<g><path style="opacity:1" fill="#86625f" d="M 233.5,226.5 C 237.025,227.21 240.358,228.21 243.5,229.5C 239.958,229.813 236.625,229.479 233.5,228.5C 233.5,227.833 233.5,227.167 233.5,226.5 Z"/></g>
<g><path style="opacity:1" fill="#893530" d="M 289.5,223.5 C 288.402,224.397 288.402,225.23 289.5,226C 291.134,226.494 292.801,226.66 294.5,226.5C 293.737,227.268 292.737,227.768 291.5,228C 280.492,229.59 279.825,228.09 289.5,223.5 Z"/></g>
<g><path style="opacity:1" fill="#7f3933" d="M 233.5,226.5 C 233.5,227.167 233.5,227.833 233.5,228.5C 226.756,228.479 220.089,227.812 213.5,226.5C 211.958,225.837 210.291,225.17 208.5,224.5C 209.688,223.16 211.188,222.493 213,222.5C 219.815,223.997 226.648,225.33 233.5,226.5 Z"/></g>
<g><path style="opacity:1" fill="#866864" d="M 304.5,223.5 C 304.611,224.117 304.944,224.617 305.5,225C 303.975,226.009 302.308,226.509 300.5,226.5C 301.035,224.554 302.368,223.554 304.5,223.5 Z"/></g>
<g><path style="opacity:1" fill="#8b1709" d="M 289.5,223.5 C 291.167,223.5 292.833,223.5 294.5,223.5C 294.5,224.5 294.5,225.5 294.5,226.5C 292.801,226.66 291.134,226.494 289.5,226C 288.402,225.23 288.402,224.397 289.5,223.5 Z"/></g>
<g><path style="opacity:1" fill="#7f312d" d="M 259.5,223.5 C 260.791,223.263 261.791,223.596 262.5,224.5C 262.5,224.833 262.5,225.167 262.5,225.5C 260.391,226.391 258.391,227.558 256.5,229C 254.288,229.789 252.288,229.622 250.5,228.5C 253.366,226.568 256.366,224.901 259.5,223.5 Z"/></g>
<g><path style="opacity:1" fill="#852b21" d="M 285.5,218.5 C 288.97,218.71 288.97,219.877 285.5,222C 281.261,223.902 277.261,226.235 273.5,229C 270.167,229.667 266.833,229.667 263.5,229C 264.056,228.617 264.389,228.117 264.5,227.5C 271.354,224.242 278.354,221.242 285.5,218.5 Z"/></g>
<g><path style="opacity:1" fill="#802e2f" d="M 293.5,220.5 C 299.275,220.923 299.941,222.923 295.5,226.5C 295.167,226.5 294.833,226.5 294.5,226.5C 294.5,225.5 294.5,224.5 294.5,223.5C 292.833,223.5 291.167,223.5 289.5,223.5C 290.833,222.5 292.167,221.5 293.5,220.5 Z"/></g>
<g><path style="opacity:1" fill="#7e4746" d="M 262.5,224.5 C 261.791,223.596 260.791,223.263 259.5,223.5C 263.249,221.464 267.249,219.631 271.5,218C 273.5,217.333 275.5,217.333 277.5,218C 272.479,220.179 267.479,222.346 262.5,224.5 Z"/></g>
<g><path style="opacity:1" fill="#8a4843" d="M 309.5,217.5 C 309.5,218.833 309.5,220.167 309.5,221.5C 311.5,221.5 313.5,221.5 315.5,221.5C 315.167,222.5 314.5,223.167 313.5,223.5C 310.309,222.908 307.309,221.741 304.5,220C 305.91,218.628 307.577,217.795 309.5,217.5 Z"/></g>
<g><path style="opacity:1" fill="#7e4e4c" d="M 239.5,218.5 C 241.966,217.366 244.633,217.199 247.5,218C 250.5,219 253.5,220 256.5,221C 255.892,221.87 255.059,222.37 254,222.5C 249.286,220.65 244.453,219.316 239.5,218.5 Z"/></g>
<g><path style="opacity:1" fill="#854743" d="M 224.5,218.5 C 230.254,219.188 235.921,220.355 241.5,222C 244.155,222.727 246.488,223.894 248.5,225.5C 248,225.833 247.5,226.167 247,226.5C 238.835,224.667 230.668,222.833 222.5,221C 222.167,220.667 221.833,220.333 221.5,220C 222.737,219.768 223.737,219.268 224.5,218.5 Z"/></g>
<g><path style="opacity:1" fill="#8e2618" d="M 282.5,277.5 C 284.845,278.988 285.179,280.988 283.5,283.5C 268.931,286.728 254.265,287.228 239.5,285C 236.851,284.548 234.351,283.714 232,282.5C 231.192,280.421 231.359,278.421 232.5,276.5C 240.283,279.929 248.45,281.262 257,280.5C 265.702,280.91 274.202,279.91 282.5,277.5 Z"/></g>
<g><path style="opacity:1" fill="#872015" d="M 227.5,284.5 C 234.064,287.814 241.064,289.481 248.5,289.5C 257.324,290.657 266.324,290.824 275.5,290C 277.058,289.79 278.391,289.29 279.5,288.5C 281.936,287.129 284.603,286.129 287.5,285.5C 284.846,287.057 282.18,288.89 279.5,291C 264.143,291.764 248.809,291.431 233.5,290C 230.636,288.964 228.636,287.131 227.5,284.5 Z"/></g>
<g><path style="opacity:1" fill="#863930" d="M 279.5,288.5 C 278.391,289.29 277.058,289.79 275.5,290C 266.324,290.824 257.324,290.657 248.5,289.5C 258.86,289.704 269.194,289.371 279.5,288.5 Z"/></g>
<g><path style="opacity:1" fill="#8a1d13" d="M 302.5,316.5 C 302.833,316.5 303.167,316.5 303.5,316.5C 305.607,317.468 307.941,317.802 310.5,317.5C 310.813,313.958 310.479,310.625 309.5,307.5C 309.489,305.983 308.823,304.816 307.5,304C 305.19,303.503 302.857,303.337 300.5,303.5C 296.743,303.071 293.243,303.737 290,305.5C 288.039,312.474 288.039,319.474 290,326.5C 290.903,327.701 292.069,328.535 293.5,329C 296.817,329.498 300.15,329.665 303.5,329.5C 303.5,333.5 303.5,337.5 303.5,341.5C 303.5,342.5 303.5,343.5 303.5,344.5C 300.833,344.5 298.167,344.5 295.5,344.5C 295.5,342.167 295.5,339.833 295.5,337.5C 293.735,336.539 291.735,336.205 289.5,336.5C 295.803,334.556 295.47,332.222 288.5,329.5C 287.197,321.138 287.197,312.805 288.5,304.5C 292.629,300.653 297.629,298.653 303.5,298.5C 304,297.5 304.5,296.5 305,295.5C 307.364,299.187 309.698,302.854 312,306.5C 312.667,310.167 312.667,313.833 312,317.5C 309.638,319.769 306.971,320.102 304,318.5C 302.97,318.164 302.47,317.497 302.5,316.5 Z"/></g>
<g><path style="opacity:1" fill="#862015" d="M 141.5,350.5 C 138.991,335.453 136.158,320.453 133,305.5C 129.851,303.638 126.351,302.971 122.5,303.5C 121.474,310.02 120.141,316.353 118.5,322.5C 119.007,315.472 119.84,308.472 121,301.5C 122.822,299.955 124.989,299.288 127.5,299.5C 131.228,298.796 133.894,300.129 135.5,303.5C 136.735,318.504 139.402,333.171 143.5,347.5C 143.547,349.038 142.88,350.038 141.5,350.5 Z"/></g>
<g><path style="opacity:1" fill="#b16c61" d="M 223.5,302.5 C 223.795,304.735 223.461,306.735 222.5,308.5C 222.5,306.833 222.5,305.167 222.5,303.5C 216.167,303.5 209.833,303.5 203.5,303.5C 203.5,319.167 203.5,334.833 203.5,350.5C 202.504,334.675 202.17,318.675 202.5,302.5C 209.5,302.5 216.5,302.5 223.5,302.5 Z"/></g>
<g><path style="opacity:1" fill="#fbebe8" d="M 300.5,303.5 C 302.857,303.337 305.19,303.503 307.5,304C 308.823,304.816 309.489,305.983 309.5,307.5C 309.5,310.5 309.5,313.5 309.5,316.5C 307.5,316.5 305.5,316.5 303.5,316.5C 305.251,309.893 302.918,307.393 296.5,309C 295.368,313.413 295.201,317.913 296,322.5C 300.127,323.264 304.293,323.931 308.5,324.5C 310.058,328.447 310.724,332.614 310.5,337C 310.593,340.95 310.093,344.784 309,348.5C 308.25,349.126 307.416,349.626 306.5,350C 301.833,350.667 297.167,350.667 292.5,350C 290.859,348.871 289.859,347.371 289.5,345.5C 289.5,342.833 289.5,340.167 289.5,337.5C 291.5,337.5 293.5,337.5 295.5,337.5C 295.5,339.833 295.5,342.167 295.5,344.5C 298.167,344.5 300.833,344.5 303.5,344.5C 303.5,343.5 303.5,342.5 303.5,341.5C 304.627,342.122 305.627,342.955 306.5,344C 299.604,348.645 300.104,349.478 308,346.5C 309.406,340.558 309.739,334.558 309,328.5C 306.906,326.7 304.406,325.7 301.5,325.5C 299.004,326.53 296.837,325.863 295,323.5C 294.303,317.463 294.47,311.463 295.5,305.5C 297.698,305.88 299.365,305.213 300.5,303.5 Z"/></g>
<g><path style="opacity:1" fill="#831c12" d="M 223.5,300.5 C 223.5,301.167 223.5,301.833 223.5,302.5C 216.5,302.5 209.5,302.5 202.5,302.5C 202.17,318.675 202.504,334.675 203.5,350.5C 209.5,350.5 215.5,350.5 221.5,350.5C 215.021,351.491 208.354,351.824 201.5,351.5C 200.392,334.858 200.225,318.192 201,301.5C 201.956,300.106 203.289,299.439 205,299.5C 211.131,300.394 217.298,300.727 223.5,300.5 Z"/></g>
<g><path style="opacity:1" fill="#fdf4f1" d="M 222.5,308.5 C 218.167,308.5 213.833,308.5 209.5,308.5C 209.5,313.5 209.5,318.5 209.5,323.5C 213.167,323.5 216.833,323.5 220.5,323.5C 220.5,325.167 220.5,326.833 220.5,328.5C 216.833,328.5 213.167,328.5 209.5,328.5C 209.5,334.167 209.5,339.833 209.5,345.5C 214.167,345.5 218.833,345.5 223.5,345.5C 223.923,347.781 223.256,349.448 221.5,350.5C 215.5,350.5 209.5,350.5 203.5,350.5C 203.5,334.833 203.5,319.167 203.5,303.5C 209.833,303.5 216.167,303.5 222.5,303.5C 222.5,305.167 222.5,306.833 222.5,308.5 Z"/></g>
<g><path style="opacity:1" fill="#921006" d="M 223.5,300.5 C 226.665,299.964 229.331,300.797 231.5,303C 229.369,304.888 229.369,306.388 231.5,307.5C 234.427,306.468 237.093,304.968 239.5,303C 249.061,299.932 258.728,299.765 268.5,302.5C 268.5,303.5 268.5,304.5 268.5,305.5C 269.5,305.5 270.5,305.5 271.5,305.5C 272.055,318.279 272.055,331.112 271.5,344C 269.854,345.555 269.521,347.221 270.5,349C 268.183,350.782 266.516,352.949 265.5,355.5C 260.953,356.676 256.453,356.676 252,355.5C 251.667,356.167 251.333,356.833 251,357.5C 250.062,355.512 249.228,353.512 248.5,351.5C 253.844,351.666 259.177,351.499 264.5,351C 266.487,349.681 267.654,347.848 268,345.5C 268.667,332.5 268.667,319.5 268,306.5C 267.167,305 266,303.833 264.5,303C 259.648,302.185 254.981,302.352 250.5,303.5C 249.5,303.5 248.5,303.5 247.5,303.5C 245.857,303.48 244.524,304.147 243.5,305.5C 242.167,319.833 242.167,334.167 243.5,348.5C 244.855,349.188 245.855,350.188 246.5,351.5C 243.225,350.848 241.225,348.848 240.5,345.5C 241.646,333.546 241.812,321.546 241,309.5C 240.667,309.833 240.333,310.167 240,310.5C 239.517,309.552 239.351,308.552 239.5,307.5C 237.876,307.36 236.71,308.027 236,309.5C 234.16,308.167 233.66,308.334 234.5,310C 232.068,311.095 229.902,312.595 228,314.5C 223.245,311.802 218.079,310.802 212.5,311.5C 211.932,314.588 211.932,317.588 212.5,320.5C 214.131,318.941 214.964,316.941 215,314.5C 216.99,313.601 218.157,314.435 218.5,317C 217.926,318.607 217.26,320.107 216.5,321.5C 214.5,321.5 212.5,321.5 210.5,321.5C 210.5,317.5 210.5,313.5 210.5,309.5C 214.702,309.817 218.702,309.483 222.5,308.5C 223.461,306.735 223.795,304.735 223.5,302.5C 223.5,301.833 223.5,301.167 223.5,300.5 Z"/></g>
<g><path style="opacity:1" fill="#853630" d="M 303.5,316.5 C 303.167,316.5 302.833,316.5 302.5,316.5C 303.592,311.877 301.925,310.044 297.5,311C 296.378,314.409 296.211,317.909 297,321.5C 300.411,322.293 303.911,322.793 307.5,323C 308.056,323.383 308.389,323.883 308.5,324.5C 304.293,323.931 300.127,323.264 296,322.5C 295.201,317.913 295.368,313.413 296.5,309C 302.918,307.393 305.251,309.893 303.5,316.5 Z"/></g>
<g><path style="opacity:1" fill="#881d14" d="M 352.5,303.5 C 354.857,305.321 355.191,307.655 353.5,310.5C 349.893,311.489 346.226,311.823 342.5,311.5C 342.5,314.833 342.5,318.167 342.5,321.5C 345.059,321.198 347.393,321.532 349.5,322.5C 346.5,322.5 343.5,322.5 340.5,322.5C 340.5,318.167 340.5,313.833 340.5,309.5C 344.702,309.817 348.702,309.483 352.5,308.5C 352.5,306.833 352.5,305.167 352.5,303.5 Z"/></g>
<g><path style="opacity:1" fill="#7c2219" d="M 172.5,303.5 C 172.5,317.167 172.5,330.833 172.5,344.5C 170.5,344.5 168.5,344.5 166.5,344.5C 166.5,341.167 166.5,337.833 166.5,334.5C 164.167,334.5 161.833,334.5 159.5,334.5C 161.966,333.366 164.633,333.199 167.5,334C 167.704,336.621 167.704,339.455 167.5,342.5C 168.5,342.5 169.5,342.5 170.5,342.5C 171.023,329.34 171.689,316.34 172.5,303.5 Z"/></g>
<g><path style="opacity:1" fill="#faf1ed" d="M 141.5,350.5 C 139.167,350.5 136.833,350.5 134.5,350.5C 134.218,347.09 133.551,343.757 132.5,340.5C 129.232,339.513 125.898,339.18 122.5,339.5C 121.886,343.135 121.552,346.802 121.5,350.5C 119.167,350.5 116.833,350.5 114.5,350.5C 115.058,345.484 115.725,340.484 116.5,335.5C 117.709,331.382 118.376,327.049 118.5,322.5C 120.141,316.353 121.474,310.02 122.5,303.5C 126.351,302.971 129.851,303.638 133,305.5C 136.158,320.453 138.991,335.453 141.5,350.5 Z"/></g>
<g><path style="opacity:1" fill="#995a57" d="M 222.5,308.5 C 218.702,309.483 214.702,309.817 210.5,309.5C 210.5,313.5 210.5,317.5 210.5,321.5C 213.833,322.167 217.167,322.833 220.5,323.5C 216.833,323.5 213.167,323.5 209.5,323.5C 209.5,318.5 209.5,313.5 209.5,308.5C 213.833,308.5 218.167,308.5 222.5,308.5 Z"/></g>
<g><path style="opacity:1" fill="#dfa298" d="M 309.5,307.5 C 310.479,310.625 310.813,313.958 310.5,317.5C 307.941,317.802 305.607,317.468 303.5,316.5C 305.5,316.5 307.5,316.5 309.5,316.5C 309.5,313.5 309.5,310.5 309.5,307.5 Z"/></g>
<g><path style="opacity:1" fill="#7f2a21" d="M 131.5,333.5 C 128.612,334.01 126.279,333.344 124.5,331.5C 124.716,324.927 125.882,318.593 128,312.5C 129.586,319.44 130.753,326.44 131.5,333.5 Z"/></g>
<g><path style="opacity:1" fill="#813328" d="M 250.5,303.5 C 254.981,302.352 259.648,302.185 264.5,303C 266,303.833 267.167,305 268,306.5C 268.667,319.5 268.667,332.5 268,345.5C 267.654,347.848 266.487,349.681 264.5,351C 259.177,351.499 253.844,351.666 248.5,351.5C 247.833,351.5 247.167,351.5 246.5,351.5C 245.855,350.188 244.855,349.188 243.5,348.5C 242.167,334.167 242.167,319.833 243.5,305.5C 244.524,304.147 245.857,303.48 247.5,303.5C 246.531,304.309 245.698,305.309 245,306.5C 244.333,320.167 244.333,333.833 245,347.5C 245.833,348.333 246.667,349.167 247.5,350C 252.833,350.667 258.167,350.667 263.5,350C 264.333,349.167 265.167,348.333 266,347.5C 266.667,333.833 266.667,320.167 266,306.5C 265.5,305.333 264.667,304.5 263.5,304C 259.179,303.501 254.846,303.334 250.5,303.5 Z"/></g>
<g><path style="opacity:1" fill="#8b4b46" d="M 352.5,308.5 C 348.702,309.483 344.702,309.817 340.5,309.5C 340.5,313.833 340.5,318.167 340.5,322.5C 343.5,322.5 346.5,322.5 349.5,322.5C 351.256,323.552 351.923,325.219 351.5,327.5C 351.167,327.5 350.833,327.5 350.5,327.5C 350.5,326.167 350.5,324.833 350.5,323.5C 346.833,323.5 343.167,323.5 339.5,323.5C 339.5,318.5 339.5,313.5 339.5,308.5C 343.833,308.5 348.167,308.5 352.5,308.5 Z"/></g>
<g><path style="opacity:1" fill="#842319" d="M 394.5,324.5 C 392.645,317.718 391.311,310.718 390.5,303.5C 386.833,303.5 383.167,303.5 379.5,303.5C 377.609,316.036 375.276,328.37 372.5,340.5C 372.335,336.818 372.501,333.152 373,329.5C 375.168,319.643 377.335,309.81 379.5,300C 387.298,297.968 391.798,300.801 393,308.5C 393.977,313.793 394.477,319.126 394.5,324.5 Z"/></g>
<g><path style="opacity:1" fill="#fbeee9" d="M 332.5,303.5 C 339.167,303.5 345.833,303.5 352.5,303.5C 352.5,305.167 352.5,306.833 352.5,308.5C 348.167,308.5 343.833,308.5 339.5,308.5C 339.5,313.5 339.5,318.5 339.5,323.5C 343.167,323.5 346.833,323.5 350.5,323.5C 350.5,324.833 350.5,326.167 350.5,327.5C 350.5,327.833 350.5,328.167 350.5,328.5C 346.833,328.5 343.167,328.5 339.5,328.5C 339.5,334.167 339.5,339.833 339.5,345.5C 344.167,345.5 348.833,345.5 353.5,345.5C 353.5,347.167 353.5,348.833 353.5,350.5C 346.5,350.5 339.5,350.5 332.5,350.5C 332.5,334.833 332.5,319.167 332.5,303.5 Z"/></g>
<g><path style="opacity:1" fill="#f9f0ec" d="M 300.5,303.5 C 299.365,305.213 297.698,305.88 295.5,305.5C 294.47,311.463 294.303,317.463 295,323.5C 296.837,325.863 299.004,326.53 301.5,325.5C 304.406,325.7 306.906,326.7 309,328.5C 309.739,334.558 309.406,340.558 308,346.5C 300.104,349.478 299.604,348.645 306.5,344C 305.627,342.955 304.627,342.122 303.5,341.5C 303.5,337.5 303.5,333.5 303.5,329.5C 300.15,329.665 296.817,329.498 293.5,329C 292.069,328.535 290.903,327.701 290,326.5C 288.039,319.474 288.039,312.474 290,305.5C 293.243,303.737 296.743,303.071 300.5,303.5 Z"/></g>
<g><path style="opacity:1" fill="#76231c" d="M 332.5,303.5 C 332.5,319.167 332.5,334.833 332.5,350.5C 339.5,350.5 346.5,350.5 353.5,350.5C 353.5,348.833 353.5,347.167 353.5,345.5C 354.461,347.265 354.795,349.265 354.5,351.5C 346.833,351.5 339.167,351.5 331.5,351.5C 331.17,335.325 331.504,319.325 332.5,303.5 Z"/></g>
<g><path style="opacity:1" fill="#811d16" d="M 210.5,321.5 C 212.5,321.5 214.5,321.5 216.5,321.5C 223.425,320.572 225.259,323.239 222,329.5C 218.606,330.456 215.106,330.789 211.5,330.5C 211.5,334.833 211.5,339.167 211.5,343.5C 215.702,343.183 219.702,343.517 223.5,344.5C 219.167,344.5 214.833,344.5 210.5,344.5C 210.5,339.5 210.5,334.5 210.5,329.5C 214.042,329.813 217.375,329.479 220.5,328.5C 220.5,326.833 220.5,325.167 220.5,323.5C 217.167,322.833 213.833,322.167 210.5,321.5 Z"/></g>
<g><path style="opacity:1" fill="#af6d69" d="M 220.5,328.5 C 217.375,329.479 214.042,329.813 210.5,329.5C 210.5,334.5 210.5,339.5 210.5,344.5C 214.833,344.5 219.167,344.5 223.5,344.5C 223.5,344.833 223.5,345.167 223.5,345.5C 218.833,345.5 214.167,345.5 209.5,345.5C 209.5,339.833 209.5,334.167 209.5,328.5C 213.167,328.5 216.833,328.5 220.5,328.5 Z"/></g>
<g><path style="opacity:1" fill="#b07d7d" d="M 124.5,331.5 C 126.279,333.344 128.612,334.01 131.5,333.5C 129.052,334.473 126.385,334.806 123.5,334.5C 123.263,333.209 123.596,332.209 124.5,331.5 Z"/></g>
<g><path style="opacity:1" fill="#fbeeea" d="M 394.5,324.5 C 394.5,325.167 394.5,325.833 394.5,326.5C 395.962,334.478 397.296,342.478 398.5,350.5C 396.5,350.5 394.5,350.5 392.5,350.5C 391.596,349.791 391.263,348.791 391.5,347.5C 391.167,344.833 390.833,342.167 390.5,339.5C 386.833,339.5 383.167,339.5 379.5,339.5C 379.058,343.154 378.724,346.821 378.5,350.5C 376.167,350.5 373.833,350.5 371.5,350.5C 371.963,347.518 372.296,344.518 372.5,341.5C 372.5,341.167 372.5,340.833 372.5,340.5C 375.276,328.37 377.609,316.036 379.5,303.5C 383.167,303.5 386.833,303.5 390.5,303.5C 391.311,310.718 392.645,317.718 394.5,324.5 Z"/></g>
<g><path style="opacity:1" fill="#ac8682" d="M 381.5,331.5 C 383.279,333.344 385.612,334.01 388.5,333.5C 386.052,334.473 383.385,334.806 380.5,334.5C 380.263,333.209 380.596,332.209 381.5,331.5 Z"/></g>
<g><path style="opacity:1" fill="#86170b" d="M 383.5,319.5 C 384.693,319.97 385.36,320.97 385.5,322.5C 386.21,325.799 386.543,329.133 386.5,332.5C 385.5,332.5 384.5,332.5 383.5,332.5C 383.5,328.5 383.5,324.5 383.5,320.5C 383.5,320.167 383.5,319.833 383.5,319.5 Z"/></g>
<g><path style="opacity:1" fill="#793129" d="M 388.5,333.5 C 385.612,334.01 383.279,333.344 381.5,331.5C 381.43,327.575 382.097,323.909 383.5,320.5C 383.5,324.5 383.5,328.5 383.5,332.5C 384.5,332.5 385.5,332.5 386.5,332.5C 386.543,329.133 386.21,325.799 385.5,322.5C 385.36,320.97 384.693,319.97 383.5,319.5C 383.211,316.351 383.711,313.351 385,310.5C 386.587,318.111 387.754,325.778 388.5,333.5 Z"/></g>
<g><path style="opacity:1" fill="#d5918b" d="M 159.5,335.5 C 159.5,335.167 159.5,334.833 159.5,334.5C 161.833,334.5 164.167,334.5 166.5,334.5C 166.5,337.833 166.5,341.167 166.5,344.5C 165.523,341.713 165.19,338.713 165.5,335.5C 163.5,335.5 161.5,335.5 159.5,335.5 Z"/></g>
<g><path style="opacity:1" fill="#d68c83" d="M 289.5,336.5 C 291.735,336.205 293.735,336.539 295.5,337.5C 293.5,337.5 291.5,337.5 289.5,337.5C 289.5,340.167 289.5,342.833 289.5,345.5C 288.527,343.052 288.194,340.385 288.5,337.5C 288.5,336.833 288.833,336.5 289.5,336.5 Z"/></g>
<g><path style="opacity:1" fill="#f8eae5" d="M 247.5,303.5 C 248.5,303.5 249.5,303.5 250.5,303.5C 254.846,303.334 259.179,303.501 263.5,304C 264.667,304.5 265.5,305.333 266,306.5C 266.667,320.167 266.667,333.833 266,347.5C 265.167,348.333 264.333,349.167 263.5,350C 258.167,350.667 252.833,350.667 247.5,350C 246.667,349.167 245.833,348.333 245,347.5C 244.333,333.833 244.333,320.167 245,306.5C 245.698,305.309 246.531,304.309 247.5,303.5 Z"/></g>
<g><path style="opacity:1" fill="#7d2922" d="M 251.5,308.5 C 254.167,308.5 256.833,308.5 259.5,308.5C 259.5,320.5 259.5,332.5 259.5,344.5C 256.833,344.5 254.167,344.5 251.5,344.5C 251.5,332.5 251.5,320.5 251.5,308.5 Z"/></g>
<g><path style="opacity:1" fill="#930e05" d="M 252.5,310.5 C 254.467,310.261 256.301,310.594 258,311.5C 258.5,322.161 258.667,332.828 258.5,343.5C 256.5,343.5 254.5,343.5 252.5,343.5C 252.5,332.5 252.5,321.5 252.5,310.5 Z"/></g>
<g><path style="opacity:1" fill="#82261b" d="M 179.5,303.5 C 180.831,310.468 181.497,317.802 181.5,325.5C 181.439,334.192 181.106,342.859 180.5,351.5C 173.774,351.795 167.108,351.462 160.5,350.5C 156.791,346.283 155.458,341.283 156.5,335.5C 157.5,335.5 158.5,335.5 159.5,335.5C 157.008,348.839 162.341,353.672 175.5,350C 176.931,349.535 178.097,348.701 179,347.5C 179.5,332.837 179.667,318.17 179.5,303.5 Z"/></g>
<g><path style="opacity:1" fill="#a4645d" d="M 350.5,328.5 C 347.375,329.479 344.042,329.813 340.5,329.5C 340.5,334.5 340.5,339.5 340.5,344.5C 344.5,344.5 348.5,344.5 352.5,344.5C 353.167,344.5 353.5,344.833 353.5,345.5C 348.833,345.5 344.167,345.5 339.5,345.5C 339.5,339.833 339.5,334.167 339.5,328.5C 343.167,328.5 346.833,328.5 350.5,328.5 Z"/></g>
<g><path style="opacity:1" fill="#803229" d="M 391.5,347.5 C 389.915,346.526 388.915,345.026 388.5,343C 386.305,341.627 383.971,341.294 381.5,342C 380.568,345.085 379.901,348.252 379.5,351.5C 376.5,351.5 373.5,351.5 370.5,351.5C 370.159,347.84 370.825,344.507 372.5,341.5C 372.296,344.518 371.963,347.518 371.5,350.5C 373.833,350.5 376.167,350.5 378.5,350.5C 378.724,346.821 379.058,343.154 379.5,339.5C 383.167,339.5 386.833,339.5 390.5,339.5C 390.833,342.167 391.167,344.833 391.5,347.5 Z"/></g>
<g><path style="opacity:1" fill="#7c261f" d="M 308.5,324.5 C 309.75,324.577 310.583,325.244 311,326.5C 311.667,333.833 311.667,341.167 311,348.5C 310.167,349.333 309.333,350.167 308.5,351C 301.724,351.92 295.057,351.586 288.5,350C 287.178,345.733 287.178,341.566 288.5,337.5C 288.194,340.385 288.527,343.052 289.5,345.5C 289.859,347.371 290.859,348.871 292.5,350C 297.167,350.667 301.833,350.667 306.5,350C 307.416,349.626 308.25,349.126 309,348.5C 310.093,344.784 310.593,340.95 310.5,337C 310.724,332.614 310.058,328.447 308.5,324.5 Z"/></g>
<g><path style="opacity:1" fill="#7c1e18" d="M 350.5,327.5 C 350.833,327.5 351.167,327.5 351.5,327.5C 351.5,328.5 351.5,329.5 351.5,330.5C 348.167,330.5 344.833,330.5 341.5,330.5C 341.234,334.571 341.567,338.571 342.5,342.5C 345.977,343.167 349.311,343.834 352.5,344.5C 348.5,344.5 344.5,344.5 340.5,344.5C 340.5,339.5 340.5,334.5 340.5,329.5C 344.042,329.813 347.375,329.479 350.5,328.5C 350.5,328.167 350.5,327.833 350.5,327.5 Z"/></g>
<g><path style="opacity:1" fill="#fbe5e0" d="M 172.5,303.5 C 172.833,303.5 173.167,303.5 173.5,303.5C 172.976,316.086 173.642,328.586 175.5,341C 175.167,342.167 174.833,343.333 174.5,344.5C 170.128,345.791 169.794,347.124 173.5,348.5C 176.064,348.38 177.564,347.047 178,344.5C 178.5,330.837 178.667,317.171 178.5,303.5C 178.833,303.5 179.167,303.5 179.5,303.5C 179.667,318.17 179.5,332.837 179,347.5C 178.097,348.701 176.931,349.535 175.5,350C 162.341,353.672 157.008,348.839 159.5,335.5C 161.5,335.5 163.5,335.5 165.5,335.5C 165.19,338.713 165.523,341.713 166.5,344.5C 168.5,344.5 170.5,344.5 172.5,344.5C 172.5,330.833 172.5,317.167 172.5,303.5 Z"/></g>
<g><path style="opacity:1" fill="#fafaf6" d="M 173.5,303.5 C 175.167,303.5 176.833,303.5 178.5,303.5C 178.667,317.171 178.5,330.837 178,344.5C 177.564,347.047 176.064,348.38 173.5,348.5C 169.794,347.124 170.128,345.791 174.5,344.5C 174.833,343.333 175.167,342.167 175.5,341C 173.642,328.586 172.976,316.086 173.5,303.5 Z"/></g>
<g><path style="opacity:1" fill="#80261d" d="M 116.5,335.5 C 115.725,340.484 115.058,345.484 114.5,350.5C 116.833,350.5 119.167,350.5 121.5,350.5C 121.552,346.802 121.886,343.135 122.5,339.5C 125.898,339.18 129.232,339.513 132.5,340.5C 133.551,343.757 134.218,347.09 134.5,350.5C 133.17,349.168 131.503,348.335 129.5,348C 131.016,346.103 131.683,343.936 131.5,341.5C 124.428,340.921 121.428,344.254 122.5,351.5C 119.5,351.5 116.5,351.5 113.5,351.5C 113.671,346.804 114.171,342.137 115,337.5C 115.278,336.584 115.778,335.918 116.5,335.5 Z"/></g>
<g><path style="opacity:1" fill="#7b2621" d="M 394.5,326.5 C 395.315,327.429 396.148,328.429 397,329.5C 398.069,336.815 398.902,344.148 399.5,351.5C 396.941,351.802 394.607,351.468 392.5,350.5C 394.5,350.5 396.5,350.5 398.5,350.5C 397.296,342.478 395.962,334.478 394.5,326.5 Z"/></g>
</svg>
