<?xml version="1.0" encoding="UTF-8"?>
<!DOCTYPE svg PUBLIC "-//W3C//DTD SVG 1.1//EN" "http://www.w3.org/Graphics/SVG/1.1/DTD/svg11.dtd">
<svg xmlns="http://www.w3.org/2000/svg" version="1.1" width="720px" height="720px" style="shape-rendering:geometricPrecision; text-rendering:geometricPrecision; image-rendering:optimizeQuality; fill-rule:evenodd; clip-rule:evenodd" xmlns:xlink="http://www.w3.org/1999/xlink">
<g><path style="opacity:1" fill="#fefefe" d="M -0.5,-0.5 C 239.5,-0.5 479.5,-0.5 719.5,-0.5C 719.5,239.5 719.5,479.5 719.5,719.5C 479.5,719.5 239.5,719.5 -0.5,719.5C -0.5,479.5 -0.5,239.5 -0.5,-0.5 Z"/></g>
<g><path style="opacity:1" fill="#fcefd3" d="M 175.5,129.5 C 173.685,128.37 171.685,127.704 169.5,127.5C 169.167,127.5 168.833,127.5 168.5,127.5C 168.144,125.81 167.144,124.81 165.5,124.5C 162.701,122.597 159.701,120.931 156.5,119.5C 157.911,115.703 158.911,115.703 159.5,119.5C 166.69,120.051 172.023,123.384 175.5,129.5 Z"/></g>
<g><path style="opacity:1" fill="#f0fefe" d="M 153.5,119.5 C 153.5,191.5 153.5,263.5 153.5,335.5C 154.241,338.634 155.241,341.634 156.5,344.5C 151.53,346.859 149.196,345.359 149.5,340C 150.825,268.489 150.825,196.989 149.5,125.5C 149.77,122.383 150.937,119.717 153,117.5C 153.464,118.094 153.631,118.761 153.5,119.5 Z"/></g>
<g><path style="opacity:1" fill="#ee6a01" d="M 555.5,124.5 C 556.833,124.5 558.167,124.5 559.5,124.5C 559.5,195.833 559.5,267.167 559.5,338.5C 559.5,339.167 559.5,339.833 559.5,340.5C 557.436,340.687 555.436,341.187 553.5,342C 549.838,344.632 546.505,347.466 543.5,350.5C 543.5,350.833 543.5,351.167 543.5,351.5C 542.833,351.5 542.167,351.5 541.5,351.5C 535.802,354.266 529.802,356.433 523.5,358C 520.461,361.188 516.794,363.355 512.5,364.5C 511.614,365.325 511.281,366.325 511.5,367.5C 511.5,368.167 511.5,368.833 511.5,369.5C 506.388,368.963 502.721,370.963 500.5,375.5C 497.314,376.338 494.147,377.338 491,378.5C 488.824,379.516 487.657,381.182 487.5,383.5C 487.167,383.5 486.833,383.5 486.5,383.5C 482.237,384.953 477.904,386.453 473.5,388C 472.743,389.512 471.743,390.846 470.5,392C 467.417,393.139 464.417,394.472 461.5,396C 460.663,397.011 460.33,398.178 460.5,399.5C 459.833,399.5 459.167,399.5 458.5,399.5C 457.127,399.343 455.793,399.51 454.5,400C 451.664,401.391 449.331,403.224 447.5,405.5C 447.5,405.833 447.5,406.167 447.5,406.5C 442.521,406.984 438.188,408.818 434.5,412C 433.552,412.483 432.552,412.649 431.5,412.5C 431.5,413.5 431.5,414.5 431.5,415.5C 424.946,416.429 419.613,419.429 415.5,424.5C 409.76,424.4 405.427,426.733 402.5,431.5C 401.5,431.5 400.5,431.5 399.5,431.5C 399.843,433.483 399.176,434.817 397.5,435.5C 392.833,437.167 388.167,438.833 383.5,440.5C 383.281,439.325 383.614,438.325 384.5,437.5C 388.172,436.669 391.172,434.835 393.5,432C 389.514,431.501 385.514,431.334 381.5,431.5C 381.778,433.346 381.111,434.68 379.5,435.5C 378.333,368.502 378.167,301.502 379,234.5C 380.982,232.754 380.815,231.421 378.5,230.5C 377.264,231.246 375.93,231.579 374.5,231.5C 374.833,300.669 374.499,369.669 373.5,438.5C 373.5,369.167 373.5,299.833 373.5,230.5C 376.541,228.638 379.208,226.305 381.5,223.5C 382.492,223.672 383.158,223.338 383.5,222.5C 388.581,219.441 393.915,216.774 399.5,214.5C 404.826,214.346 409.159,212.179 412.5,208C 419.402,205.548 425.736,202.048 431.5,197.5C 433.423,196.692 435.423,196.192 437.5,196C 440.756,192.573 444.09,189.406 447.5,186.5C 448.539,184.469 450.205,183.136 452.5,182.5C 456.945,181.78 460.612,179.78 463.5,176.5C 463.5,176.167 463.5,175.833 463.5,175.5C 464.167,175.5 464.833,175.5 465.5,175.5C 469.954,174.438 474.288,172.772 478.5,170.5C 479.386,169.675 479.719,168.675 479.5,167.5C 479.5,167.167 479.5,166.833 479.5,166.5C 480.167,166.5 480.833,166.5 481.5,166.5C 485.167,166.836 488.5,166.003 491.5,164C 493.037,162.89 493.703,161.39 493.5,159.5C 494.167,159.5 494.833,159.5 495.5,159.5C 501.206,159.143 505.54,156.477 508.5,151.5C 511.848,150.713 515.182,149.879 518.5,149C 520.607,147.736 521.607,145.903 521.5,143.5C 523.795,142.525 525.795,141.192 527.5,139.5C 531.868,139.721 535.202,138.054 537.5,134.5C 537.5,134.167 537.5,133.833 537.5,133.5C 540.482,132.504 543.482,132.337 546.5,133C 548.607,131.736 549.607,129.903 549.5,127.5C 552.313,127.975 554.313,126.975 555.5,124.5 Z"/></g>
<g><path style="opacity:1" fill="#f4fcee" d="M 153.5,119.5 C 154.167,119.5 154.833,119.5 155.5,119.5C 154.843,191.64 154.176,263.64 153.5,335.5C 153.5,263.5 153.5,191.5 153.5,119.5 Z"/></g>
<g><path style="opacity:1" fill="#fef1d0" d="M 155.5,119.5 C 155.833,119.5 156.167,119.5 156.5,119.5C 156.167,193.335 156.501,267.002 157.5,340.5C 157.842,341.338 158.508,341.672 159.5,341.5C 163.534,344.179 167.534,346.845 171.5,349.5C 166.614,347.458 161.614,345.791 156.5,344.5C 155.241,341.634 154.241,338.634 153.5,335.5C 154.176,263.64 154.843,191.64 155.5,119.5 Z"/></g>
<g><path style="opacity:1" fill="#e2985e" d="M 156.5,119.5 C 159.701,120.931 162.701,122.597 165.5,124.5C 163.135,123.992 160.801,123.325 158.5,122.5C 157.5,195.164 157.167,267.83 157.5,340.5C 156.501,267.002 156.167,193.335 156.5,119.5 Z"/></g>
<g><path style="opacity:1" fill="#c4631b" d="M 165.5,124.5 C 167.144,124.81 168.144,125.81 168.5,127.5C 166.315,127.296 164.315,126.63 162.5,125.5C 161.432,124.566 160.099,124.232 158.5,124.5C 158.167,195.669 158.501,266.669 159.5,337.5C 159.5,338.833 159.5,340.167 159.5,341.5C 158.508,341.672 157.842,341.338 157.5,340.5C 157.167,267.83 157.5,195.164 158.5,122.5C 160.801,123.325 163.135,123.992 165.5,124.5 Z"/></g>
<g><path style="opacity:1" fill="#df6d1d" d="M 162.5,125.5 C 161.5,125.5 160.5,125.5 159.5,125.5C 159.5,196.167 159.5,266.833 159.5,337.5C 158.501,266.669 158.167,195.669 158.5,124.5C 160.099,124.232 161.432,124.566 162.5,125.5 Z"/></g>
<g><path style="opacity:1" fill="#ef6a01" d="M 162.5,125.5 C 164.315,126.63 166.315,127.296 168.5,127.5C 168.833,127.5 169.167,127.5 169.5,127.5C 169.178,129.722 169.845,131.556 171.5,133C 176.61,132.888 180.61,134.888 183.5,139C 186.055,140.444 188.721,141.611 191.5,142.5C 195.688,147.228 201.022,149.561 207.5,149.5C 209.906,151.235 212.24,153.235 214.5,155.5C 217.54,156.908 220.54,158.241 223.5,159.5C 224.5,159.5 225.5,159.5 226.5,159.5C 227.038,161.117 227.371,162.784 227.5,164.5C 235.4,168.145 243.4,171.811 251.5,175.5C 252.833,175.5 254.167,175.5 255.5,175.5C 255.5,175.833 255.5,176.167 255.5,176.5C 256.486,178.408 258.152,179.408 260.5,179.5C 262.838,183.739 266.505,185.739 271.5,185.5C 272.694,186.272 273.694,187.272 274.5,188.5C 275.344,190.759 277.011,191.759 279.5,191.5C 279.297,193.39 279.963,194.89 281.5,196C 286.718,197.099 291.385,199.265 295.5,202.5C 298.022,203.762 300.689,204.429 303.5,204.5C 303.5,205.5 303.5,206.5 303.5,207.5C 304.833,207.5 306.167,207.5 307.5,207.5C 308.167,207.5 308.833,207.5 309.5,207.5C 309.5,208.833 309.5,210.167 309.5,211.5C 312.587,213.017 315.921,213.684 319.5,213.5C 319.5,213.833 319.5,214.167 319.5,214.5C 322.52,217.538 325.854,220.372 329.5,223C 331.473,223.495 333.473,223.662 335.5,223.5C 335.5,224.5 335.5,225.5 335.5,226.5C 338.921,226.518 341.588,227.851 343.5,230.5C 343.987,231.473 344.487,232.473 345,233.5C 345.5,304.166 345.667,374.833 345.5,445.5C 343.486,445.608 341.82,444.942 340.5,443.5C 340.047,442.542 339.381,441.708 338.5,441C 333.797,440.817 330.13,438.817 327.5,435C 324.854,434.503 322.187,434.336 319.5,434.5C 319.5,433.5 319.5,432.5 319.5,431.5C 316.226,430.86 313.559,429.193 311.5,426.5C 308.914,425.52 306.247,425.187 303.5,425.5C 303.5,425.167 303.5,424.833 303.5,424.5C 303.5,423.5 303.5,422.5 303.5,421.5C 302.127,421.657 300.793,421.49 299.5,421C 296.898,418.869 294.232,417.035 291.5,415.5C 290.167,415.5 288.833,415.5 287.5,415.5C 284.687,415.975 282.687,414.975 281.5,412.5C 279.201,408.885 275.868,406.885 271.5,406.5C 271.5,406.167 271.5,405.833 271.5,405.5C 266.806,402.66 262.473,399.16 258.5,395C 253.129,395.648 249.129,393.648 246.5,389C 244.187,388.338 241.854,387.838 239.5,387.5C 238.191,384.549 235.857,383.216 232.5,383.5C 232.67,382.178 232.337,381.011 231.5,380C 228.854,379.503 226.187,379.336 223.5,379.5C 221.5,378.167 219.5,376.833 217.5,375.5C 215.017,372.259 211.684,370.592 207.5,370.5C 207.5,369.5 207.5,368.5 207.5,367.5C 205.392,365.941 203.059,364.608 200.5,363.5C 199.738,362.372 199.071,361.205 198.5,360C 194.171,359.023 189.838,358.19 185.5,357.5C 185.5,357.167 185.5,356.833 185.5,356.5C 183.552,352.247 180.219,350.58 175.5,351.5C 175.5,350.5 175.5,349.5 175.5,348.5C 171.437,346.632 167.437,344.465 163.5,342C 162.207,341.51 160.873,341.343 159.5,341.5C 159.5,340.167 159.5,338.833 159.5,337.5C 159.5,266.833 159.5,196.167 159.5,125.5C 160.5,125.5 161.5,125.5 162.5,125.5 Z"/></g>
<g><path style="opacity:1" fill="#d2671d" d="M 559.5,338.5 C 559.5,267.167 559.5,195.833 559.5,124.5C 558.167,124.5 556.833,124.5 555.5,124.5C 556.878,123.766 558.378,123.099 560,122.5C 560.333,122.833 560.667,123.167 561,123.5C 561.667,194.833 561.667,266.167 561,337.5C 560.617,338.056 560.117,338.389 559.5,338.5 Z"/></g>
<g><path style="opacity:1" fill="#e1965c" d="M 562.5,121.5 C 562.667,194.501 562.5,267.501 562,340.5C 561.329,341.252 560.496,341.586 559.5,341.5C 559.5,341.167 559.5,340.833 559.5,340.5C 559.5,339.833 559.5,339.167 559.5,338.5C 560.117,338.389 560.617,338.056 561,337.5C 561.667,266.167 561.667,194.833 561,123.5C 560.667,123.167 560.333,122.833 560,122.5C 558.378,123.099 556.878,123.766 555.5,124.5C 554.313,126.975 552.313,127.975 549.5,127.5C 552.779,123.853 556.779,121.186 561.5,119.5C 562.298,119.957 562.631,120.624 562.5,121.5 Z"/></g>
<g><path style="opacity:1" fill="#fee4ba" d="M 562.5,121.5 C 563.666,194.666 563.832,267.999 563,341.5C 561.989,342.337 560.822,342.67 559.5,342.5C 559.5,342.167 559.5,341.833 559.5,341.5C 560.496,341.586 561.329,341.252 562,340.5C 562.5,267.501 562.667,194.501 562.5,121.5 Z"/></g>
<g><path style="opacity:1" fill="#fef5db" d="M 565.5,335.5 C 565.631,339.221 564.631,342.554 562.5,345.5C 557.941,345.944 553.941,347.777 550.5,351C 548.19,351.497 545.857,351.663 543.5,351.5C 543.5,351.167 543.5,350.833 543.5,350.5C 548.523,347.322 553.857,344.655 559.5,342.5C 560.822,342.67 561.989,342.337 563,341.5C 563.832,267.999 563.666,194.666 562.5,121.5C 562.631,120.624 562.298,119.957 561.5,119.5C 556.779,121.186 552.779,123.853 549.5,127.5C 547.297,127.604 545.297,128.27 543.5,129.5C 543.238,128.022 543.571,126.689 544.5,125.5C 546.85,124.139 549.184,122.806 551.5,121.5C 553.993,120.226 556.659,119.56 559.5,119.5C 559.281,118.325 559.614,117.325 560.5,116.5C 561.814,117.313 562.981,118.313 564,119.5C 564.167,191.668 564.667,263.668 565.5,335.5 Z"/></g>
<g><path style="opacity:1" fill="#f5fbef" d="M 565.5,117.5 C 565.5,190.167 565.5,262.833 565.5,335.5C 564.667,263.668 564.167,191.668 564,119.5C 562.981,118.313 561.814,117.313 560.5,116.5C 559.614,117.325 559.281,118.325 559.5,119.5C 556.659,119.56 553.993,120.226 551.5,121.5C 554.752,119.743 557.252,117.076 559,113.5C 561.278,114.719 563.445,116.052 565.5,117.5 Z"/></g>
<g><path style="opacity:1" fill="#f5fefe" d="M 562.5,345.5 C 564.631,342.554 565.631,339.221 565.5,335.5C 565.5,262.833 565.5,190.167 565.5,117.5C 566.189,116.226 567.023,116.226 568,117.5C 568.5,119 569,120.5 569.5,122C 568.851,158.279 568.518,194.779 568.5,231.5C 568.513,266.918 569.18,302.252 570.5,337.5C 569.892,340.145 569.392,342.812 569,345.5C 566.545,346.743 565.378,348.743 565.5,351.5C 564.167,351.5 562.833,351.5 561.5,351.5C 561.833,349.5 562.167,347.5 562.5,345.5 Z"/></g>
<g><path style="opacity:1" fill="#f9ddbb" d="M 175.5,129.5 C 177.989,129.298 180.323,129.798 182.5,131C 185.86,133.662 188.86,136.496 191.5,139.5C 190.022,139.762 188.689,139.429 187.5,138.5C 184.047,134.706 180.047,131.706 175.5,129.5 Z"/></g>
<g><path style="opacity:1" fill="#d47f37" d="M 549.5,127.5 C 549.607,129.903 548.607,131.736 546.5,133C 543.482,132.337 540.482,132.504 537.5,133.5C 539.19,131.658 541.19,130.325 543.5,129.5C 545.297,128.27 547.297,127.604 549.5,127.5 Z"/></g>
<g><path style="opacity:1" fill="#fcedcf" d="M 543.5,129.5 C 541.19,130.325 539.19,131.658 537.5,133.5C 537.5,133.833 537.5,134.167 537.5,134.5C 533.691,135.332 530.357,136.999 527.5,139.5C 524.663,139.684 522.663,141.018 521.5,143.5C 520.5,143.5 519.5,143.5 518.5,143.5C 519.203,141.284 520.536,139.451 522.5,138C 526.166,136.667 529.833,135.334 533.5,134C 535.757,130.123 539.09,128.623 543.5,129.5 Z"/></g>
<g><path style="opacity:1" fill="#c67b3d" d="M 537.5,134.5 C 535.202,138.054 531.868,139.721 527.5,139.5C 530.357,136.999 533.691,135.332 537.5,134.5 Z"/></g>
<g><path style="opacity:1" fill="#f4d4ac" d="M 191.5,139.5 C 195.991,139.765 199.991,141.098 203.5,143.5C 203.5,144.5 203.5,145.5 203.5,146.5C 199.268,144.537 195.268,142.203 191.5,139.5 Z"/></g>
<g><path style="opacity:1" fill="#eca77a" d="M 527.5,139.5 C 525.795,141.192 523.795,142.525 521.5,143.5C 522.663,141.018 524.663,139.684 527.5,139.5 Z"/></g>
<g><path style="opacity:1" fill="#d67226" d="M 169.5,127.5 C 171.685,127.704 173.685,128.37 175.5,129.5C 180.047,131.706 184.047,134.706 187.5,138.5C 188.689,139.429 190.022,139.762 191.5,139.5C 195.268,142.203 199.268,144.537 203.5,146.5C 205.153,146.66 206.486,147.326 207.5,148.5C 207.5,148.833 207.5,149.167 207.5,149.5C 201.022,149.561 195.688,147.228 191.5,142.5C 188.721,141.611 186.055,140.444 183.5,139C 180.61,134.888 176.61,132.888 171.5,133C 169.845,131.556 169.178,129.722 169.5,127.5 Z"/></g>
<g><path style="opacity:1" fill="#d67932" d="M 518.5,143.5 C 519.5,143.5 520.5,143.5 521.5,143.5C 521.607,145.903 520.607,147.736 518.5,149C 515.182,149.879 511.848,150.713 508.5,151.5C 505.54,156.477 501.206,159.143 495.5,159.5C 496.077,156.355 498.077,154.855 501.5,155C 502.381,154.292 503.047,153.458 503.5,152.5C 509.028,150.242 514.028,147.242 518.5,143.5 Z"/></g>
<g><path style="opacity:1" fill="#fbefd7" d="M 207.5,149.5 C 207.5,149.167 207.5,148.833 207.5,148.5C 210.066,148.344 212.566,148.678 215,149.5C 217.898,152.688 221.398,153.855 225.5,153C 228.649,157.713 232.983,160.88 238.5,162.5C 239.386,163.325 239.719,164.325 239.5,165.5C 237.146,165.162 234.813,164.662 232.5,164C 230.905,161.898 228.905,160.398 226.5,159.5C 225.5,159.5 224.5,159.5 223.5,159.5C 219.25,154.694 213.917,151.361 207.5,149.5 Z"/></g>
<g><path style="opacity:1" fill="#cc7635" d="M 207.5,149.5 C 213.917,151.361 219.25,154.694 223.5,159.5C 220.54,158.241 217.54,156.908 214.5,155.5C 212.24,153.235 209.906,151.235 207.5,149.5 Z"/></g>
<g><path style="opacity:1" fill="#f6ebcd" d="M 503.5,152.5 C 503.047,153.458 502.381,154.292 501.5,155C 498.077,154.855 496.077,156.355 495.5,159.5C 494.833,159.5 494.167,159.5 493.5,159.5C 488.879,160.809 484.879,163.142 481.5,166.5C 480.833,166.5 480.167,166.5 479.5,166.5C 479.5,165.167 479.5,163.833 479.5,162.5C 482.864,161.439 486.197,160.439 489.5,159.5C 489.5,158.5 489.5,157.5 489.5,156.5C 494.336,155.538 499.003,154.204 503.5,152.5 Z"/></g>
<g><path style="opacity:1" fill="#d3772e" d="M 493.5,159.5 C 493.703,161.39 493.037,162.89 491.5,164C 488.5,166.003 485.167,166.836 481.5,166.5C 484.879,163.142 488.879,160.809 493.5,159.5 Z"/></g>
<g><path style="opacity:1" fill="#d3732a" d="M 226.5,159.5 C 228.905,160.398 230.905,161.898 232.5,164C 234.813,164.662 237.146,165.162 239.5,165.5C 239.5,166.833 240.167,167.5 241.5,167.5C 244.833,170.167 248.167,172.833 251.5,175.5C 243.4,171.811 235.4,168.145 227.5,164.5C 227.371,162.784 227.038,161.117 226.5,159.5 Z"/></g>
<g><path style="opacity:1" fill="#fbe1c1" d="M 241.5,167.5 C 245.625,169.383 249.959,171.05 254.5,172.5C 255.386,173.325 255.719,174.325 255.5,175.5C 254.167,175.5 252.833,175.5 251.5,175.5C 248.167,172.833 244.833,170.167 241.5,167.5 Z"/></g>
<g><path style="opacity:1" fill="#d47d3a" d="M 479.5,167.5 C 479.719,168.675 479.386,169.675 478.5,170.5C 474.288,172.772 469.954,174.438 465.5,175.5C 469.551,171.806 474.217,169.14 479.5,167.5 Z"/></g>
<g><path style="opacity:1" fill="#fdf0d8" d="M 463.5,175.5 C 463.5,175.833 463.5,176.167 463.5,176.5C 459.388,177.722 455.721,179.722 452.5,182.5C 450.205,183.136 448.539,184.469 447.5,186.5C 443.38,186.688 440.046,188.355 437.5,191.5C 437.744,188.737 439.077,186.571 441.5,185C 447.453,183.025 452.786,180.025 457.5,176C 459.473,175.505 461.473,175.338 463.5,175.5 Z"/></g>
<g><path style="opacity:1" fill="#d99a62" d="M 255.5,176.5 C 257.674,176.75 259.341,177.75 260.5,179.5C 258.152,179.408 256.486,178.408 255.5,176.5 Z"/></g>
<g><path style="opacity:1" fill="#e09a63" d="M 463.5,176.5 C 460.612,179.78 456.945,181.78 452.5,182.5C 455.721,179.722 459.388,177.722 463.5,176.5 Z"/></g>
<g><path style="opacity:1" fill="#d78a4a" d="M 260.5,179.5 C 262.967,179.755 264.967,180.755 266.5,182.5C 268.072,183.687 269.739,184.687 271.5,185.5C 266.505,185.739 262.838,183.739 260.5,179.5 Z"/></g>
<g><path style="opacity:1" fill="#fcebcf" d="M 266.5,182.5 C 272.051,182.215 276.717,184.048 280.5,188C 282.5,188.667 284.5,189.333 286.5,190C 287.337,191.011 287.67,192.178 287.5,193.5C 292.361,193.43 296.361,195.263 299.5,199C 301.957,200.562 304.624,201.562 307.5,202C 309.052,203.712 310.385,205.545 311.5,207.5C 310.833,207.5 310.167,207.5 309.5,207.5C 308.833,207.5 308.167,207.5 307.5,207.5C 306.965,205.554 305.632,204.554 303.5,204.5C 300.899,201.905 297.899,199.739 294.5,198C 287.452,195.405 280.785,192.238 274.5,188.5C 273.694,187.272 272.694,186.272 271.5,185.5C 269.739,184.687 268.072,183.687 266.5,182.5 Z"/></g>
<g><path style="opacity:1" fill="#ce752d" d="M 274.5,188.5 C 280.785,192.238 287.452,195.405 294.5,198C 297.899,199.739 300.899,201.905 303.5,204.5C 300.689,204.429 298.022,203.762 295.5,202.5C 291.385,199.265 286.718,197.099 281.5,196C 279.963,194.89 279.297,193.39 279.5,191.5C 277.011,191.759 275.344,190.759 274.5,188.5 Z"/></g>
<g><path style="opacity:1" fill="#fef1d3" d="M 435.5,191.5 C 428.798,195.847 422.131,200.18 415.5,204.5C 412.911,204.461 410.911,205.461 409.5,207.5C 406.167,209.167 402.833,210.833 399.5,212.5C 399.5,211.5 399.5,210.5 399.5,209.5C 403.76,208.827 407.093,206.661 409.5,203C 415.73,201.553 421.064,198.553 425.5,194C 428.89,193.256 432.223,192.423 435.5,191.5 Z"/></g>
<g><path style="opacity:1" fill="#b77b40" d="M 303.5,204.5 C 305.632,204.554 306.965,205.554 307.5,207.5C 306.167,207.5 304.833,207.5 303.5,207.5C 303.5,206.5 303.5,205.5 303.5,204.5 Z"/></g>
<g><path style="opacity:1" fill="#daad7c" d="M 415.5,204.5 C 413.819,206.008 411.819,207.008 409.5,207.5C 410.911,205.461 412.911,204.461 415.5,204.5 Z"/></g>
<g><path style="opacity:1" fill="#d4762b" d="M 447.5,186.5 C 444.09,189.406 440.756,192.573 437.5,196C 435.423,196.192 433.423,196.692 431.5,197.5C 425.736,202.048 419.402,205.548 412.5,208C 409.159,212.179 404.826,214.346 399.5,214.5C 399.5,214.167 399.5,213.833 399.5,213.5C 399.5,213.167 399.5,212.833 399.5,212.5C 402.833,210.833 406.167,209.167 409.5,207.5C 411.819,207.008 413.819,206.008 415.5,204.5C 422.131,200.18 428.798,195.847 435.5,191.5C 436.167,191.5 436.833,191.5 437.5,191.5C 440.046,188.355 443.38,186.688 447.5,186.5 Z"/></g>
<g><path style="opacity:1" fill="#d87e36" d="M 309.5,207.5 C 310.167,207.5 310.833,207.5 311.5,207.5C 312.635,208.474 313.635,209.641 314.5,211C 316.744,211.05 318.411,211.883 319.5,213.5C 315.921,213.684 312.587,213.017 309.5,211.5C 309.5,210.167 309.5,208.833 309.5,207.5 Z"/></g>
<g><path style="opacity:1" fill="#f4cca3" d="M 399.5,213.5 C 399.5,213.833 399.5,214.167 399.5,214.5C 393.915,216.774 388.581,219.441 383.5,222.5C 386.748,220.694 389.414,218.194 391.5,215C 394.014,213.748 396.68,213.248 399.5,213.5 Z"/></g>
<g><path style="opacity:1" fill="#fee6c8" d="M 319.5,214.5 C 319.5,214.167 319.5,213.833 319.5,213.5C 325.29,214.081 330.623,215.748 335.5,218.5C 335.5,219.833 335.5,221.167 335.5,222.5C 332.385,220.769 329.385,218.769 326.5,216.5C 324.199,215.675 321.865,215.008 319.5,214.5 Z"/></g>
<g><path style="opacity:1" fill="#d3742d" d="M 319.5,214.5 C 321.865,215.008 324.199,215.675 326.5,216.5C 329.385,218.769 332.385,220.769 335.5,222.5C 335.5,222.833 335.5,223.167 335.5,223.5C 333.473,223.662 331.473,223.495 329.5,223C 325.854,220.372 322.52,217.538 319.5,214.5 Z"/></g>
<g><path style="opacity:1" fill="#fee1c0" d="M 343.5,227.5 C 345.262,227.357 346.929,227.691 348.5,228.5C 349.832,302.666 349.832,376.666 348.5,450.5C 348.833,376.665 348.499,302.998 347.5,229.5C 345.847,229.34 344.514,228.674 343.5,227.5 Z"/></g>
<g><path style="opacity:1" fill="#fdf9e9" d="M 379.5,223.5 C 377.436,225.589 375.103,227.256 372.5,228.5C 371.504,228.414 370.671,228.748 370,229.5C 369.168,303.334 369.334,377.001 370.5,450.5C 372.664,450.279 374.33,449.279 375.5,447.5C 378.323,446.783 380.99,445.783 383.5,444.5C 383.5,445.5 383.5,446.5 383.5,447.5C 381.014,448.244 379.014,449.744 377.5,452C 374.132,452.543 370.799,452.376 367.5,451.5C 367.514,376.503 367.514,301.503 367.5,226.5C 371.685,226.102 375.685,225.102 379.5,223.5 Z"/></g>
<g><path style="opacity:1" fill="#fee0be" d="M 372.5,228.5 C 372.217,229.289 371.717,229.956 371,230.5C 370.5,303.833 370.333,377.166 370.5,450.5C 369.334,377.001 369.168,303.334 370,229.5C 370.671,228.748 371.504,228.414 372.5,228.5 Z"/></g>
<g><path style="opacity:1" fill="#dd6a11" d="M 343.5,230.5 C 344.496,230.414 345.329,230.748 346,231.5C 346.5,303.499 346.667,375.499 346.5,447.5C 345.5,447.5 344.5,447.5 343.5,447.5C 342.833,447.5 342.167,447.5 341.5,447.5C 341.167,446.167 340.833,444.833 340.5,443.5C 341.82,444.942 343.486,445.608 345.5,445.5C 345.667,374.833 345.5,304.166 345,233.5C 344.487,232.473 343.987,231.473 343.5,230.5 Z"/></g>
<g><path style="opacity:1" fill="#cb6f25" d="M 335.5,223.5 C 336.5,223.5 337.5,223.5 338.5,223.5C 339.984,225.074 341.651,226.407 343.5,227.5C 344.514,228.674 345.847,229.34 347.5,229.5C 347.833,302.335 347.499,375.002 346.5,447.5C 346.667,375.499 346.5,303.499 346,231.5C 345.329,230.748 344.496,230.414 343.5,230.5C 341.588,227.851 338.921,226.518 335.5,226.5C 335.5,225.5 335.5,224.5 335.5,223.5 Z"/></g>
<g><path style="opacity:1" fill="#c88955" d="M 347.5,229.5 C 348.499,302.998 348.833,376.665 348.5,450.5C 345.966,450.741 344.3,449.741 343.5,447.5C 344.5,447.5 345.5,447.5 346.5,447.5C 347.499,375.002 347.833,302.335 347.5,229.5 Z"/></g>
<g><path style="opacity:1" fill="#fef7e6" d="M 338.5,223.5 C 342.744,224.643 347.077,225.31 351.5,225.5C 350.208,300.912 350.208,376.245 351.5,451.5C 348.813,451.664 346.146,451.497 343.5,451C 341.421,449.36 339.088,448.194 336.5,447.5C 335.614,446.675 335.281,445.675 335.5,444.5C 337.745,445.096 339.745,446.096 341.5,447.5C 342.167,447.5 342.833,447.5 343.5,447.5C 344.3,449.741 345.966,450.741 348.5,450.5C 349.832,376.666 349.832,302.666 348.5,228.5C 346.929,227.691 345.262,227.357 343.5,227.5C 341.651,226.407 339.984,225.074 338.5,223.5 Z"/></g>
<g><path style="opacity:1" fill="#c5854e" d="M 379.5,223.5 C 380.167,223.5 380.833,223.5 381.5,223.5C 379.208,226.305 376.541,228.638 373.5,230.5C 372.681,233.305 372.181,236.305 372,239.5C 371.5,308.833 371.333,378.166 371.5,447.5C 372.833,447.5 374.167,447.5 375.5,447.5C 374.33,449.279 372.664,450.279 370.5,450.5C 370.333,377.166 370.5,303.833 371,230.5C 371.717,229.956 372.217,229.289 372.5,228.5C 375.103,227.256 377.436,225.589 379.5,223.5 Z"/></g>
<g><path style="opacity:1" fill="#d66d19" d="M 373.5,230.5 C 373.5,299.833 373.5,369.167 373.5,438.5C 373.187,441.247 373.52,443.914 374.5,446.5C 376.65,444.851 378.65,443.018 380.5,441C 381.448,440.517 382.448,440.351 383.5,440.5C 388.167,438.833 392.833,437.167 397.5,435.5C 392.801,438.181 388.135,440.847 383.5,443.5C 383.5,443.833 383.5,444.167 383.5,444.5C 380.99,445.783 378.323,446.783 375.5,447.5C 374.167,447.5 372.833,447.5 371.5,447.5C 371.333,378.166 371.5,308.833 372,239.5C 372.181,236.305 372.681,233.305 373.5,230.5 Z"/></g>
<g><path style="opacity:1" fill="#f26701" d="M 383.5,440.5 C 382.448,440.351 381.448,440.517 380.5,441C 378.65,443.018 376.65,444.851 374.5,446.5C 373.52,443.914 373.187,441.247 373.5,438.5C 374.499,369.669 374.833,300.669 374.5,231.5C 375.93,231.579 377.264,231.246 378.5,230.5C 380.815,231.421 380.982,232.754 379,234.5C 378.167,301.502 378.333,368.502 379.5,435.5C 381.111,434.68 381.778,433.346 381.5,431.5C 385.514,431.334 389.514,431.501 393.5,432C 391.172,434.835 388.172,436.669 384.5,437.5C 383.614,438.325 383.281,439.325 383.5,440.5 Z"/></g>
<g><path style="opacity:1" fill="#cc7631" d="M 159.5,341.5 C 160.873,341.343 162.207,341.51 163.5,342C 167.437,344.465 171.437,346.632 175.5,348.5C 175.5,349.5 175.5,350.5 175.5,351.5C 173.847,351.34 172.514,350.674 171.5,349.5C 167.534,346.845 163.534,344.179 159.5,341.5 Z"/></g>
<g><path style="opacity:1" fill="#cb6d22" d="M 559.5,340.5 C 559.5,340.833 559.5,341.167 559.5,341.5C 559.5,341.833 559.5,342.167 559.5,342.5C 553.857,344.655 548.523,347.322 543.5,350.5C 546.505,347.466 549.838,344.632 553.5,342C 555.436,341.187 557.436,340.687 559.5,340.5 Z"/></g>
<g><path style="opacity:1" fill="#d48c50" d="M 175.5,352.5 C 175.5,352.167 175.5,351.833 175.5,351.5C 180.219,350.58 183.552,352.247 185.5,356.5C 181.994,355.752 178.66,354.419 175.5,352.5 Z"/></g>
<g><path style="opacity:1" fill="#fbdbb3" d="M 541.5,351.5 C 542.167,351.5 542.833,351.5 543.5,351.5C 543.5,352.5 543.5,353.5 543.5,354.5C 540.779,354.963 538.112,355.629 535.5,356.5C 537.5,354.833 539.5,353.167 541.5,351.5 Z"/></g>
<g><path style="opacity:1" fill="#d96e1c" d="M 541.5,351.5 C 539.5,353.167 537.5,354.833 535.5,356.5C 529.511,358.491 524.177,361.491 519.5,365.5C 518.71,366.401 517.71,367.068 516.5,367.5C 514.833,367.5 513.167,367.5 511.5,367.5C 511.281,366.325 511.614,365.325 512.5,364.5C 516.794,363.355 520.461,361.188 523.5,358C 529.802,356.433 535.802,354.266 541.5,351.5 Z"/></g>
<g><path style="opacity:1" fill="#f8d7b2" d="M 535.5,356.5 C 535.719,357.675 535.386,358.675 534.5,359.5C 529.126,360.761 524.126,362.761 519.5,365.5C 524.177,361.491 529.511,358.491 535.5,356.5 Z"/></g>
<g><path style="opacity:1" fill="#feefd4" d="M 175.5,352.5 C 178.66,354.419 181.994,355.752 185.5,356.5C 185.5,356.833 185.5,357.167 185.5,357.5C 187.5,358.833 189.5,360.167 191.5,361.5C 190.127,361.657 188.793,361.49 187.5,361C 183.861,359.18 180.194,357.347 176.5,355.5C 175.614,354.675 175.281,353.675 175.5,352.5 Z"/></g>
<g><path style="opacity:1" fill="#d6782e" d="M 185.5,357.5 C 189.838,358.19 194.171,359.023 198.5,360C 199.071,361.205 199.738,362.372 200.5,363.5C 203.059,364.608 205.392,365.941 207.5,367.5C 205.5,367.5 203.5,367.5 201.5,367.5C 198.839,364.498 195.505,362.498 191.5,361.5C 189.5,360.167 187.5,358.833 185.5,357.5 Z"/></g>
<g><path style="opacity:1" fill="#fde1b7" d="M 191.5,361.5 C 195.505,362.498 198.839,364.498 201.5,367.5C 198.573,365.382 195.24,364.382 191.5,364.5C 191.5,363.5 191.5,362.5 191.5,361.5 Z"/></g>
<g><path style="opacity:1" fill="#da985d" d="M 207.5,370.5 C 211.684,370.592 215.017,372.259 217.5,375.5C 213.691,374.668 210.357,373.001 207.5,370.5 Z"/></g>
<g><path style="opacity:1" fill="#fae9c8" d="M 511.5,367.5 C 513.167,367.5 514.833,367.5 516.5,367.5C 516.703,369.39 516.037,370.89 514.5,372C 512.196,372.895 509.862,373.729 507.5,374.5C 506.352,376.149 505.019,377.649 503.5,379C 496.514,379.658 490.847,382.658 486.5,388C 484.19,388.497 481.857,388.663 479.5,388.5C 482.615,388.069 484.949,386.402 486.5,383.5C 486.833,383.5 487.167,383.5 487.5,383.5C 492.037,381.07 496.37,378.403 500.5,375.5C 504.346,373.745 508.013,371.745 511.5,369.5C 511.5,368.833 511.5,368.167 511.5,367.5 Z"/></g>
<g><path style="opacity:1" fill="#c87932" d="M 511.5,369.5 C 508.013,371.745 504.346,373.745 500.5,375.5C 502.721,370.963 506.388,368.963 511.5,369.5 Z"/></g>
<g><path style="opacity:1" fill="#c8732e" d="M 500.5,375.5 C 496.37,378.403 492.037,381.07 487.5,383.5C 487.657,381.182 488.824,379.516 491,378.5C 494.147,377.338 497.314,376.338 500.5,375.5 Z"/></g>
<g><path style="opacity:1" fill="#d87e3b" d="M 223.5,379.5 C 226.187,379.336 228.854,379.503 231.5,380C 232.337,381.011 232.67,382.178 232.5,383.5C 235.857,383.216 238.191,384.549 239.5,387.5C 233.664,385.831 228.331,383.165 223.5,379.5 Z"/></g>
<g><path style="opacity:1" fill="#d17830" d="M 239.5,387.5 C 241.854,387.838 244.187,388.338 246.5,389C 249.129,393.648 253.129,395.648 258.5,395C 262.473,399.16 266.806,402.66 271.5,405.5C 265.872,404.008 260.539,402.008 255.5,399.5C 255.719,398.325 255.386,397.325 254.5,396.5C 249.512,394.189 244.512,391.855 239.5,389.5C 239.5,388.833 239.5,388.167 239.5,387.5 Z"/></g>
<g><path style="opacity:1" fill="#fceed1" d="M 239.5,389.5 C 244.512,391.855 249.512,394.189 254.5,396.5C 255.386,397.325 255.719,398.325 255.5,399.5C 248.65,398.473 243.317,395.139 239.5,389.5 Z"/></g>
<g><path style="opacity:1" fill="#d1752e" d="M 486.5,383.5 C 484.949,386.402 482.615,388.069 479.5,388.5C 473.149,391.672 467.149,395.338 461.5,399.5C 461.167,399.5 460.833,399.5 460.5,399.5C 460.33,398.178 460.663,397.011 461.5,396C 464.417,394.472 467.417,393.139 470.5,392C 471.743,390.846 472.743,389.512 473.5,388C 477.904,386.453 482.237,384.953 486.5,383.5 Z"/></g>
<g><path style="opacity:1" fill="#fdebd0" d="M 479.5,388.5 C 479.5,389.5 479.5,390.5 479.5,391.5C 476.532,391.626 474.532,393.126 473.5,396C 469.772,398.027 465.772,399.193 461.5,399.5C 467.149,395.338 473.149,391.672 479.5,388.5 Z"/></g>
<g><path style="opacity:1" fill="#c56c28" d="M 458.5,399.5 C 455.279,402.278 451.612,404.278 447.5,405.5C 449.331,403.224 451.664,401.391 454.5,400C 455.793,399.51 457.127,399.343 458.5,399.5 Z"/></g>
<g><path style="opacity:1" fill="#fbecd3" d="M 458.5,399.5 C 459.167,399.5 459.833,399.5 460.5,399.5C 460.833,399.5 461.167,399.5 461.5,399.5C 460.039,402.255 457.705,404.088 454.5,405C 453.111,406.957 451.611,408.79 450,410.5C 446.272,410.885 443.106,412.385 440.5,415C 438.527,415.495 436.527,415.662 434.5,415.5C 438.028,411.3 442.361,408.3 447.5,406.5C 447.5,406.167 447.5,405.833 447.5,405.5C 451.612,404.278 455.279,402.278 458.5,399.5 Z"/></g>
<g><path style="opacity:1" fill="#c98145" d="M 271.5,406.5 C 275.868,406.885 279.201,408.885 281.5,412.5C 277.495,411.502 274.161,409.502 271.5,406.5 Z"/></g>
<g><path style="opacity:1" fill="#cd7128" d="M 447.5,406.5 C 442.361,408.3 438.028,411.3 434.5,415.5C 433.5,415.5 432.5,415.5 431.5,415.5C 431.5,414.5 431.5,413.5 431.5,412.5C 432.552,412.649 433.552,412.483 434.5,412C 438.188,408.818 442.521,406.984 447.5,406.5 Z"/></g>
<g><path style="opacity:1" fill="#cf7225" d="M 291.5,415.5 C 294.232,417.035 296.898,418.869 299.5,421C 300.793,421.49 302.127,421.657 303.5,421.5C 303.5,422.5 303.5,423.5 303.5,424.5C 301.447,424.598 299.78,423.931 298.5,422.5C 297.653,421.034 296.32,420.2 294.5,420C 293.252,418.6 292.252,417.1 291.5,415.5 Z"/></g>
<g><path style="opacity:1" fill="#c66e22" d="M 431.5,415.5 C 431.5,415.833 431.5,416.167 431.5,416.5C 425.857,418.655 420.523,421.322 415.5,424.5C 419.613,419.429 424.946,416.429 431.5,415.5 Z"/></g>
<g><path style="opacity:1" fill="#dc9d63" d="M 287.5,415.5 C 288.833,415.5 290.167,415.5 291.5,415.5C 292.252,417.1 293.252,418.6 294.5,420C 296.32,420.2 297.653,421.034 298.5,422.5C 294.046,421.374 290.379,419.041 287.5,415.5 Z"/></g>
<g><path style="opacity:1" fill="#fcedd5" d="M 431.5,416.5 C 431.762,417.978 431.429,419.311 430.5,420.5C 428.1,421.018 426.1,422.185 424.5,424C 421.647,425.43 418.647,426.263 415.5,426.5C 415.5,425.833 415.5,425.167 415.5,424.5C 420.523,421.322 425.857,418.655 431.5,416.5 Z"/></g>
<g><path style="opacity:1" fill="#d17c3b" d="M 303.5,425.5 C 306.247,425.187 308.914,425.52 311.5,426.5C 313.559,429.193 316.226,430.86 319.5,431.5C 319.5,432.5 319.5,433.5 319.5,434.5C 315.317,432.243 310.984,430.243 306.5,428.5C 305.694,427.272 304.694,426.272 303.5,425.5 Z"/></g>
<g><path style="opacity:1" fill="#d57124" d="M 415.5,424.5 C 415.5,425.167 415.5,425.833 415.5,426.5C 411.071,427.879 406.738,429.546 402.5,431.5C 405.427,426.733 409.76,424.4 415.5,424.5 Z"/></g>
<g><path style="opacity:1" fill="#f7e0bb" d="M 415.5,426.5 C 415.5,427.5 415.5,428.5 415.5,429.5C 411.24,430.181 407.574,432.015 404.5,435C 397.904,438.969 390.904,441.803 383.5,443.5C 388.135,440.847 392.801,438.181 397.5,435.5C 399.176,434.817 399.843,433.483 399.5,431.5C 400.5,431.5 401.5,431.5 402.5,431.5C 406.738,429.546 411.071,427.879 415.5,426.5 Z"/></g>
<g><path style="opacity:1" fill="#feefd4" d="M 306.5,428.5 C 310.984,430.243 315.317,432.243 319.5,434.5C 325.137,437.32 330.47,440.653 335.5,444.5C 332.934,444.656 330.434,444.322 328,443.5C 324.194,439.224 319.361,437.057 313.5,437C 311.393,435.736 310.393,433.903 310.5,431.5C 308.381,431.532 307.048,430.532 306.5,428.5 Z"/></g>
<g><path style="opacity:1" fill="#d2772b" d="M 319.5,434.5 C 322.187,434.336 324.854,434.503 327.5,435C 330.13,438.817 333.797,440.817 338.5,441C 339.381,441.708 340.047,442.542 340.5,443.5C 340.833,444.833 341.167,446.167 341.5,447.5C 339.745,446.096 337.745,445.096 335.5,444.5C 330.47,440.653 325.137,437.32 319.5,434.5 Z"/></g>
<g><path style="opacity:1" fill="#fdf4e4" d="M 401.5,511.5 C 399.631,509.365 398.964,506.698 399.5,503.5C 400.239,503.631 400.906,503.464 401.5,503C 403.868,500.688 405.868,498.188 407.5,495.5C 408.167,495.5 408.833,495.5 409.5,495.5C 411.167,493.167 413.167,491.167 415.5,489.5C 417.121,489.213 418.121,488.213 418.5,486.5C 416.833,486.167 415.167,485.833 413.5,485.5C 411.36,485.556 409.694,486.223 408.5,487.5C 405.479,489.854 402.812,492.521 400.5,495.5C 400.167,495.5 399.833,495.5 399.5,495.5C 400.958,491.997 402.958,488.663 405.5,485.5C 409.293,484.203 413.126,482.869 417,481.5C 424.07,483.392 425.57,487.226 421.5,493C 419.126,492.598 416.793,492.764 414.5,493.5C 413.396,494.631 413.729,495.465 415.5,496C 414.552,496.483 413.552,496.649 412.5,496.5C 412.5,497.5 412.5,498.5 412.5,499.5C 406.422,501.247 402.755,505.247 401.5,511.5 Z"/></g>
<g><path style="opacity:1" fill="#d2b69f" d="M 415.5,489.5 C 415.5,488.5 415.5,487.5 415.5,486.5C 413.05,486.298 410.717,486.631 408.5,487.5C 409.694,486.223 411.36,485.556 413.5,485.5C 415.167,485.833 416.833,486.167 418.5,486.5C 418.121,488.213 417.121,489.213 415.5,489.5 Z"/></g>
<g><path style="opacity:1" fill="#d47127" d="M 119.5,487.5 C 122.143,488.454 124.81,489.454 127.5,490.5C 127.5,492.167 127.5,493.833 127.5,495.5C 127.5,498.833 127.5,502.167 127.5,505.5C 125.615,507.053 124.615,509.053 124.5,511.5C 122.952,511.179 122.285,510.179 122.5,508.5C 114.856,509.48 107.189,509.647 99.5,509C 98.1955,508.196 97.5288,507.029 97.5,505.5C 98.327,502.217 98.6604,498.884 98.5,495.5C 97.1667,495.5 95.8333,495.5 94.5,495.5C 94.5,492.5 94.5,489.5 94.5,486.5C 103.017,486.174 111.35,486.507 119.5,487.5 Z"/></g>
<g><path style="opacity:1" fill="#e46d0f" d="M 119.5,487.5 C 119.804,488.15 120.137,488.817 120.5,489.5C 114.012,490.167 107.679,490.833 101.5,491.5C 100.833,491.5 100.5,491.833 100.5,492.5C 98.8333,492.5 97.1667,492.5 95.5,492.5C 95.5,490.833 95.5,489.167 95.5,487.5C 103.5,487.5 111.5,487.5 119.5,487.5 Z"/></g>
<g><path style="opacity:1" fill="#d86d1e" d="M 599.5,495.5 C 597.697,500.911 595.697,506.244 593.5,511.5C 594.055,507.988 593.388,504.988 591.5,502.5C 591.5,501.833 591.5,501.167 591.5,500.5C 591.5,499.833 591.5,499.167 591.5,498.5C 592.1,497.1 593.1,496.1 594.5,495.5C 596.002,493.232 597.335,490.732 598.5,488C 601.93,487.362 603.263,488.862 602.5,492.5C 601.5,492.5 600.5,492.5 599.5,492.5C 599.5,493.5 599.5,494.5 599.5,495.5 Z"/></g>
<g><path style="opacity:1" fill="#fbe2c5" d="M 607.5,491.5 C 606.399,490.152 605.399,488.652 604.5,487C 597.395,485.267 594.061,488.1 594.5,495.5C 593.1,496.1 592.1,497.1 591.5,498.5C 590.374,488.525 594.708,484.025 604.5,485C 606.838,486.508 607.838,488.675 607.5,491.5 Z"/></g>
<g><path style="opacity:1" fill="#d8a272" d="M 378.5,486.5 C 378.5,503.167 378.5,519.833 378.5,536.5C 380.167,536.5 381.833,536.5 383.5,536.5C 381.5,537.833 379.5,537.833 377.5,536.5C 377.17,519.658 377.503,502.992 378.5,486.5 Z"/></g>
<g><path style="opacity:1" fill="#d27b32" d="M 607.5,491.5 C 607.5,492.833 607.5,494.167 607.5,495.5C 606.325,495.281 605.325,495.614 604.5,496.5C 606.105,500.368 607.105,504.368 607.5,508.5C 606.685,507.571 605.852,506.571 605,505.5C 604.256,502.11 603.423,498.777 602.5,495.5C 601.5,495.5 600.5,495.5 599.5,495.5C 599.5,494.5 599.5,493.5 599.5,492.5C 600.5,492.5 601.5,492.5 602.5,492.5C 603.263,488.862 601.93,487.362 598.5,488C 597.335,490.732 596.002,493.232 594.5,495.5C 594.061,488.1 597.395,485.267 604.5,487C 605.399,488.652 606.399,490.152 607.5,491.5 Z"/></g>
<g><path style="opacity:1" fill="#de6c13" d="M 207.5,527.5 C 207.5,528.5 207.5,529.5 207.5,530.5C 214.648,531.492 221.981,531.825 229.5,531.5C 229.5,532.833 229.5,534.167 229.5,535.5C 220.249,535.818 211.083,535.485 202,534.5C 201.333,519.833 201.333,505.167 202,490.5C 203.356,489.62 204.856,489.286 206.5,489.5C 206.171,502.344 206.505,515.011 207.5,527.5 Z"/></g>
<g><path style="opacity:1" fill="#d08242" d="M 469.5,495.5 C 468.283,491.778 465.783,489.111 462,487.5C 459.091,488.429 457.925,490.429 458.5,493.5C 460.781,493.077 462.448,493.744 463.5,495.5C 462.833,495.5 462.167,495.5 461.5,495.5C 460.833,496.5 460.167,497.5 459.5,498.5C 459.5,497.5 459.5,496.5 459.5,495.5C 458.167,495.5 456.833,495.5 455.5,495.5C 455.808,487.344 459.808,484.677 467.5,487.5C 469.055,489.943 469.722,492.61 469.5,495.5 Z"/></g>
<g><path style="opacity:1" fill="#fef2dc" d="M 127.5,488.5 C 125.319,488.716 123.653,487.883 122.5,486C 112.839,485.5 103.172,485.334 93.5,485.5C 93.5,502.5 93.5,519.5 93.5,536.5C 92.2658,534.799 91.5992,532.799 91.5,530.5C 92.5348,515.445 92.5348,500.445 91.5,485.5C 92.3081,485.192 92.9747,484.692 93.5,484C 103.5,483.333 113.5,483.333 123.5,484C 125.751,484.748 127.084,486.248 127.5,488.5 Z"/></g>
<g><path style="opacity:1" fill="#d38443" d="M 207.5,486.5 C 207.5,500.167 207.5,513.833 207.5,527.5C 206.505,515.011 206.171,502.344 206.5,489.5C 204.856,489.286 203.356,489.62 202,490.5C 201.333,505.167 201.333,519.833 202,534.5C 211.083,535.485 220.249,535.818 229.5,535.5C 229.5,534.167 229.5,532.833 229.5,531.5C 221.981,531.825 214.648,531.492 207.5,530.5C 215.5,530.5 223.5,530.5 231.5,530.5C 231.5,532.5 231.5,534.5 231.5,536.5C 221.167,536.5 210.833,536.5 200.5,536.5C 200.5,519.833 200.5,503.167 200.5,486.5C 202.833,486.5 205.167,486.5 207.5,486.5 Z"/></g>
<g><path style="opacity:1" fill="#f06900" d="M 202.5,495.5 C 203.828,500.456 204.495,505.789 204.5,511.5C 204.167,516.833 203.833,522.167 203.5,527.5C 202.501,516.854 202.168,506.187 202.5,495.5 Z"/></g>
<g><path style="opacity:1" fill="#ecbc8e" d="M 309.5,485.5 C 310.11,486.391 310.443,487.391 310.5,488.5C 310.167,488.5 309.833,488.5 309.5,488.5C 309.389,487.883 309.056,487.383 308.5,487C 305.518,486.502 302.518,486.335 299.5,486.5C 299.5,503.167 299.5,519.833 299.5,536.5C 298.503,519.675 298.17,502.675 298.5,485.5C 302.167,485.5 305.833,485.5 309.5,485.5 Z"/></g>
<g><path style="opacity:1" fill="#bf7333" d="M 309.5,488.5 C 309.167,488.5 308.833,488.5 308.5,488.5C 308.167,488.5 307.833,488.5 307.5,488.5C 305.44,487.189 303.274,487.189 301,488.5C 300.333,503.5 300.333,518.5 301,533.5C 302.49,534.728 303.99,534.728 305.5,533.5C 305.5,534.5 305.5,535.5 305.5,536.5C 303.5,536.5 301.5,536.5 299.5,536.5C 299.5,519.833 299.5,503.167 299.5,486.5C 302.518,486.335 305.518,486.502 308.5,487C 309.056,487.383 309.389,487.883 309.5,488.5 Z"/></g>
<g><path style="opacity:1" fill="#feefd2" d="M 399.5,495.5 C 399.244,497.776 397.91,498.943 395.5,499C 392.369,503.133 388.869,506.966 385,510.5C 384.536,509.906 384.369,509.239 384.5,508.5C 384.5,501.167 384.5,493.833 384.5,486.5C 382.5,486.5 380.5,486.5 378.5,486.5C 377.503,502.992 377.17,519.658 377.5,536.5C 376.778,536.082 376.278,535.416 376,534.5C 375.333,518.833 375.333,503.167 376,487.5C 378.654,484.13 382.154,482.796 386.5,483.5C 386.975,487.143 387.308,490.81 387.5,494.5C 387.471,498.389 386.971,502.056 386,505.5C 389.159,502.544 392.325,499.544 395.5,496.5C 396.689,495.571 398.022,495.238 399.5,495.5 Z"/></g>
<g><path style="opacity:1" fill="#dda16c" d="M 552.5,486.5 C 552.83,503.009 552.496,519.342 551.5,535.5C 551.5,519.167 551.5,502.833 551.5,486.5C 549.856,486.286 548.356,486.62 547,487.5C 546.5,498.495 546.333,509.495 546.5,520.5C 546.5,521.167 546.167,521.5 545.5,521.5C 545.5,509.833 545.5,498.167 545.5,486.5C 547.833,485.167 550.167,485.167 552.5,486.5 Z"/></g>
<g><path style="opacity:1" fill="#fdebcc" d="M 552.5,486.5 C 553.444,502.349 553.944,518.349 554,534.5C 553.5,536.333 552.333,537.5 550.5,538C 548.19,538.497 545.857,538.663 543.5,538.5C 543.5,537.5 543.5,536.5 543.5,535.5C 546.307,536.657 548.974,536.657 551.5,535.5C 552.496,519.342 552.83,503.009 552.5,486.5 Z"/></g>
<g><path style="opacity:1" fill="#ca7d3e" d="M 415.5,489.5 C 413.167,491.167 411.167,493.167 409.5,495.5C 409.543,492.912 410.543,490.746 412.5,489C 407.678,488.494 405.011,490.66 404.5,495.5C 405.5,495.5 406.5,495.5 407.5,495.5C 405.868,498.188 403.868,500.688 401.5,503C 400.906,503.464 400.239,503.631 399.5,503.5C 399.5,502.5 399.5,501.5 399.5,500.5C 402.47,500.254 403.803,498.588 403.5,495.5C 402.5,495.5 401.5,495.5 400.5,495.5C 402.812,492.521 405.479,489.854 408.5,487.5C 410.717,486.631 413.05,486.298 415.5,486.5C 415.5,487.5 415.5,488.5 415.5,489.5 Z"/></g>
<g><path style="opacity:1" fill="#d86b17" d="M 409.5,495.5 C 408.833,495.5 408.167,495.5 407.5,495.5C 406.5,495.5 405.5,495.5 404.5,495.5C 405.011,490.66 407.678,488.494 412.5,489C 410.543,490.746 409.543,492.912 409.5,495.5 Z"/></g>
<g><path style="opacity:1" fill="#d56f23" d="M 521.5,490.5 C 526.977,496.974 531.644,503.974 535.5,511.5C 534.022,511.762 532.689,511.429 531.5,510.5C 530.863,508.697 529.697,507.364 528,506.5C 527.536,507.094 527.369,507.761 527.5,508.5C 524.49,505.126 521.49,501.792 518.5,498.5C 520.1,496.429 520.6,494.095 520,491.5C 518.556,489.845 516.722,489.178 514.5,489.5C 514.168,502.184 514.501,514.851 515.5,527.5C 516.167,522.015 516.833,516.681 517.5,511.5C 517.5,519.167 517.5,526.833 517.5,534.5C 515.833,534.5 514.167,534.5 512.5,534.5C 512.5,518.833 512.5,503.167 512.5,487.5C 516.112,486.924 519.112,487.924 521.5,490.5 Z"/></g>
<g><path style="opacity:1" fill="#fbf4de" d="M 127.5,488.5 C 132.584,488.384 134.917,490.884 134.5,496C 134.333,497.833 134.167,499.667 134,501.5C 131.292,504.197 129.459,507.363 128.5,511C 129.448,511.483 130.448,511.649 131.5,511.5C 131.629,513.216 131.962,514.883 132.5,516.5C 131.833,516.167 131.167,515.833 130.5,515.5C 128.873,513.536 126.873,512.203 124.5,511.5C 124.615,509.053 125.615,507.053 127.5,505.5C 128.972,503.883 129.639,501.883 129.5,499.5C 129.415,497.667 128.748,496.334 127.5,495.5C 127.5,493.833 127.5,492.167 127.5,490.5C 127.5,489.833 127.5,489.167 127.5,488.5 Z"/></g>
<g><path style="opacity:1" fill="#fff1d0" d="M 119.5,492.5 C 120.11,493.391 120.443,494.391 120.5,495.5C 114.812,493.358 108.978,493.025 103,494.5C 100.152,502.804 102.986,506.471 111.5,505.5C 118.52,505.813 121.853,502.48 121.5,495.5C 123.2,499.546 122.534,503.213 119.5,506.5C 113.5,506.5 107.5,506.5 101.5,506.5C 101.5,501.833 101.5,497.167 101.5,492.5C 107.5,492.5 113.5,492.5 119.5,492.5 Z"/></g>
<g><path style="opacity:1" fill="#f9fefa" d="M 120.5,495.5 C 120.833,495.5 121.167,495.5 121.5,495.5C 121.853,502.48 118.52,505.813 111.5,505.5C 102.986,506.471 100.152,502.804 103,494.5C 108.978,493.025 114.812,493.358 120.5,495.5 Z"/></g>
<g><path style="opacity:1" fill="#ec6b0a" d="M 518.5,498.5 C 518.5,499.167 518.5,499.833 518.5,500.5C 517.518,503.962 517.185,507.629 517.5,511.5C 516.833,516.681 516.167,522.015 515.5,527.5C 514.501,514.851 514.168,502.184 514.5,489.5C 516.722,489.178 518.556,489.845 520,491.5C 520.6,494.095 520.1,496.429 518.5,498.5 Z"/></g>
<g><path style="opacity:1" fill="#d68545" d="M 607.5,495.5 C 609.534,496.591 610.868,498.257 611.5,500.5C 611.5,501.5 611.5,502.5 611.5,503.5C 610.533,502.194 609.199,501.527 607.5,501.5C 607.5,499.5 607.5,497.5 607.5,495.5 Z"/></g>
<g><path style="opacity:1" fill="#c1824b" d="M 127.5,495.5 C 128.748,496.334 129.415,497.667 129.5,499.5C 129.639,501.883 128.972,503.883 127.5,505.5C 127.5,502.167 127.5,498.833 127.5,495.5 Z"/></g>
<g><path style="opacity:1" fill="#fce8c8" d="M 461.5,495.5 C 461.664,498.187 461.497,500.854 461,503.5C 459.067,506.893 457.9,510.559 457.5,514.5C 459.5,514.5 461.5,514.5 463.5,514.5C 464.312,512.257 464.979,509.924 465.5,507.5C 464.407,504.231 463.741,500.897 463.5,497.5C 466.604,502.471 468.937,507.804 470.5,513.5C 468.429,514.809 465.929,515.475 463,515.5C 460.071,515.475 457.571,514.809 455.5,513.5C 455.5,512.833 455.5,512.167 455.5,511.5C 457.101,507.285 458.435,502.952 459.5,498.5C 460.167,497.5 460.833,496.5 461.5,495.5 Z"/></g>
<g><path style="opacity:1" fill="#fdf2da" d="M 264.5,480.5 C 266.153,479.201 267.653,479.534 269,481.5C 269.192,499.858 269.692,518.191 270.5,536.5C 269.457,538.856 268.457,541.19 267.5,543.5C 266.022,543.762 264.689,543.429 263.5,542.5C 264.668,541.094 264.335,539.928 262.5,539C 261.101,538.405 259.768,538.572 258.5,539.5C 257.5,520.845 257.167,502.179 257.5,483.5C 260.564,483.856 263.231,483.023 265.5,481C 265.272,480.601 264.938,480.435 264.5,480.5 Z"/></g>
<g><path style="opacity:1" fill="#ca732d" d="M 267.5,486.5 C 267.5,503.167 267.5,519.833 267.5,536.5C 265.5,536.5 263.5,536.5 261.5,536.5C 261.5,519.833 261.5,503.167 261.5,486.5C 263.5,486.5 265.5,486.5 267.5,486.5 Z"/></g>
<g><path style="opacity:1" fill="#e7b17d" d="M 267.5,486.5 C 265.5,486.5 263.5,486.5 261.5,486.5C 261.5,503.167 261.5,519.833 261.5,536.5C 263.5,536.5 265.5,536.5 267.5,536.5C 265.393,537.468 263.059,537.802 260.5,537.5C 260.5,520.167 260.5,502.833 260.5,485.5C 263.059,485.198 265.393,485.532 267.5,486.5 Z"/></g>
<g><path style="opacity:1" fill="#e36b08" d="M 262.5,489.5 C 263.822,489.33 264.989,489.663 266,490.5C 266.5,504.829 266.667,519.163 266.5,533.5C 265.167,533.5 263.833,533.5 262.5,533.5C 262.5,518.833 262.5,504.167 262.5,489.5 Z"/></g>
<g><path style="opacity:1" fill="#f4fcf9" d="M 461.5,495.5 C 462.167,495.5 462.833,495.5 463.5,495.5C 463.5,496.167 463.5,496.833 463.5,497.5C 463.741,500.897 464.407,504.231 465.5,507.5C 464.979,509.924 464.312,512.257 463.5,514.5C 461.5,514.5 459.5,514.5 457.5,514.5C 457.9,510.559 459.067,506.893 461,503.5C 461.497,500.854 461.664,498.187 461.5,495.5 Z"/></g>
<g><path style="opacity:1" fill="#ca6b21" d="M 551.5,535.5 C 548.974,536.657 546.307,536.657 543.5,535.5C 543.5,535.167 543.5,534.833 543.5,534.5C 545.792,534.756 547.959,534.423 550,533.5C 550.5,518.504 550.667,503.504 550.5,488.5C 549.5,488.5 548.5,488.5 547.5,488.5C 547.828,499.346 547.494,510.013 546.5,520.5C 546.333,509.495 546.5,498.495 547,487.5C 548.356,486.62 549.856,486.286 551.5,486.5C 551.5,502.833 551.5,519.167 551.5,535.5 Z"/></g>
<g><path style="opacity:1" fill="#fde2b6" d="M 312.5,514.5 C 312.5,515.5 312.5,516.5 312.5,517.5C 311.883,517.389 311.383,517.056 311,516.5C 309.13,504.112 307.63,503.779 306.5,515.5C 306.891,522.843 307.057,530.176 307,537.5C 304.048,540.369 301.548,540.036 299.5,536.5C 301.5,536.5 303.5,536.5 305.5,536.5C 305.5,535.5 305.5,534.5 305.5,533.5C 305.168,520.816 305.501,508.149 306.5,495.5C 308.779,501.73 310.779,508.064 312.5,514.5 Z"/></g>
<g><path style="opacity:1" fill="#d97425" d="M 399.5,495.5 C 399.833,495.5 400.167,495.5 400.5,495.5C 401.5,495.5 402.5,495.5 403.5,495.5C 403.803,498.588 402.47,500.254 399.5,500.5C 399.5,501.5 399.5,502.5 399.5,503.5C 398.964,506.698 399.631,509.365 401.5,511.5C 404.517,514.198 406.517,517.531 407.5,521.5C 405.231,519.575 402.897,517.575 400.5,515.5C 399.571,516.689 399.238,518.022 399.5,519.5C 399.167,519.5 398.833,519.5 398.5,519.5C 397.309,514.635 394.309,511.968 389.5,511.5C 389.039,514.303 387.705,516.637 385.5,518.5C 384.833,518.5 384.167,518.5 383.5,518.5C 384.917,516.156 386.25,513.823 387.5,511.5C 386.167,511.5 384.833,511.5 383.5,511.5C 383.5,510.5 383.5,509.5 383.5,508.5C 383.833,508.5 384.167,508.5 384.5,508.5C 384.369,509.239 384.536,509.906 385,510.5C 388.869,506.966 392.369,503.133 395.5,499C 397.91,498.943 399.244,497.776 399.5,495.5 Z"/></g>
<g><path style="opacity:1" fill="#faf5e3" d="M 599.5,495.5 C 600.5,495.5 601.5,495.5 602.5,495.5C 603.423,498.777 604.256,502.11 605,505.5C 605.852,506.571 606.685,507.571 607.5,508.5C 607.5,509.5 607.5,510.5 607.5,511.5C 607.5,512.833 607.5,514.167 607.5,515.5C 602.833,515.5 598.167,515.5 593.5,515.5C 593.5,514.167 593.5,512.833 593.5,511.5C 595.697,506.244 597.697,500.911 599.5,495.5 Z"/></g>
<g><path style="opacity:1" fill="#d86e20" d="M 307.5,488.5 C 305.278,488.178 303.444,488.845 302,490.5C 301.5,504.496 301.333,518.496 301.5,532.5C 302.5,532.5 303.5,532.5 304.5,532.5C 304.537,519.488 304.203,506.488 303.5,493.5C 304.93,493.421 306.264,493.754 307.5,494.5C 308.466,492.604 308.799,490.604 308.5,488.5C 308.833,488.5 309.167,488.5 309.5,488.5C 309.833,488.5 310.167,488.5 310.5,488.5C 310.721,491.067 311.388,493.401 312.5,495.5C 312.677,499.708 314.01,503.374 316.5,506.5C 316.924,510.013 317.924,513.346 319.5,516.5C 320.432,520.294 321.765,523.961 323.5,527.5C 324.705,526.423 325.372,525.09 325.5,523.5C 327.399,519.699 328.732,515.699 329.5,511.5C 331.417,508.283 333.251,504.949 335,501.5C 335.49,500.207 335.657,498.873 335.5,497.5C 335.5,496.833 335.5,496.167 335.5,495.5C 337.369,497.635 338.036,500.302 337.5,503.5C 336.25,506.006 335.584,508.673 335.5,511.5C 333.926,513.102 333.259,515.102 333.5,517.5C 331.085,520.34 329.752,523.673 329.5,527.5C 328.194,530.142 327.194,532.975 326.5,536C 325.333,536.167 324.167,536.333 323,536.5C 321.319,536.392 320.152,535.725 319.5,534.5C 319.59,531.848 318.924,529.515 317.5,527.5C 317.167,527.5 316.833,527.5 316.5,527.5C 316.346,522.711 315.013,518.378 312.5,514.5C 310.779,508.064 308.779,501.73 306.5,495.5C 305.501,508.149 305.168,520.816 305.5,533.5C 303.99,534.728 302.49,534.728 301,533.5C 300.333,518.5 300.333,503.5 301,488.5C 303.274,487.189 305.44,487.189 307.5,488.5 Z"/></g>
<g><path style="opacity:1" fill="#d39c67" d="M 335.5,497.5 C 335.657,498.873 335.49,500.207 335,501.5C 333.251,504.949 331.417,508.283 329.5,511.5C 330.449,506.28 332.449,501.614 335.5,497.5 Z"/></g>
<g><path style="opacity:1" fill="#ecb172" d="M 312.5,495.5 C 314.204,498.939 315.538,502.605 316.5,506.5C 314.01,503.374 312.677,499.708 312.5,495.5 Z"/></g>
<g><path style="opacity:1" fill="#f0680a" d="M 307.5,488.5 C 307.833,488.5 308.167,488.5 308.5,488.5C 308.799,490.604 308.466,492.604 307.5,494.5C 306.264,493.754 304.93,493.421 303.5,493.5C 304.203,506.488 304.537,519.488 304.5,532.5C 303.5,532.5 302.5,532.5 301.5,532.5C 301.333,518.496 301.5,504.496 302,490.5C 303.444,488.845 305.278,488.178 307.5,488.5 Z"/></g>
<g><path style="opacity:1" fill="#f6bf8b" d="M 101.5,491.5 C 107.69,491.177 113.69,491.51 119.5,492.5C 113.5,492.5 107.5,492.5 101.5,492.5C 101.5,497.167 101.5,501.833 101.5,506.5C 107.5,506.5 113.5,506.5 119.5,506.5C 113.355,507.49 107.022,507.823 100.5,507.5C 100.5,502.5 100.5,497.5 100.5,492.5C 100.5,491.833 100.833,491.5 101.5,491.5 Z"/></g>
<g><path style="opacity:1" fill="#dd6e1d" d="M 455.5,495.5 C 456.833,495.5 458.167,495.5 459.5,495.5C 459.5,496.5 459.5,497.5 459.5,498.5C 458.435,502.952 457.101,507.285 455.5,511.5C 454.265,511.721 453.265,512.388 452.5,513.5C 452.167,512.5 451.833,511.5 451.5,510.5C 453.612,505.721 454.945,500.721 455.5,495.5 Z"/></g>
<g><path style="opacity:1" fill="#fef1dc" d="M 545.5,486.5 C 545.5,498.167 545.5,509.833 545.5,521.5C 545.719,522.675 545.386,523.675 544.5,524.5C 543.893,524.376 543.56,524.043 543.5,523.5C 542.657,519.156 540.324,515.823 536.5,513.5C 536.672,512.508 536.338,511.842 535.5,511.5C 531.644,503.974 526.977,496.974 521.5,490.5C 521.489,488.983 520.823,487.816 519.5,487C 516.854,486.503 514.187,486.336 511.5,486.5C 514.023,485.746 516.689,485.08 519.5,484.5C 521.524,486.358 523.691,488.025 526,489.5C 526.833,491.5 527.667,493.5 528.5,495.5C 531.778,495.482 535.111,495.815 538.5,496.5C 533.176,500.377 533.343,504.377 539,508.5C 538.992,512.307 540.492,515.307 543.5,517.5C 544.167,507.008 544.833,496.674 545.5,486.5 Z"/></g>
<g><path style="opacity:1" fill="#e36a10" d="M 94.5,495.5 C 95.8333,495.5 97.1667,495.5 98.5,495.5C 98.6604,498.884 98.327,502.217 97.5,505.5C 97.5288,507.029 98.1955,508.196 99.5,509C 107.189,509.647 114.856,509.48 122.5,508.5C 122.285,510.179 122.952,511.179 124.5,511.5C 126.873,512.203 128.873,513.536 130.5,515.5C 131.36,519.434 131.693,523.434 131.5,527.5C 131.167,527.5 130.833,527.5 130.5,527.5C 129.022,527.762 127.689,527.429 126.5,526.5C 129.615,519.091 127.281,515.091 119.5,514.5C 119.5,513.833 119.167,513.5 118.5,513.5C 116.085,512.186 113.252,511.519 110,511.5C 107.167,511.667 104.333,511.833 101.5,512C 100.667,512.833 99.8333,513.667 99,514.5C 98.501,518.821 98.3343,523.154 98.5,527.5C 97.1667,527.5 95.8333,527.5 94.5,527.5C 94.5,516.833 94.5,506.167 94.5,495.5 Z"/></g>
<g><path style="opacity:1" fill="#fdf4d9" d="M 339.5,498.5 C 340.495,510.989 340.829,523.656 340.5,536.5C 339.883,536.389 339.383,536.056 339,535.5C 338.5,527.507 338.334,519.507 338.5,511.5C 337.5,511.5 336.5,511.5 335.5,511.5C 335.584,508.673 336.25,506.006 337.5,503.5C 338.931,502.22 339.598,500.553 339.5,498.5 Z"/></g>
<g><path style="opacity:1" fill="#de9d66" d="M 611.5,503.5 C 613.267,505.792 614.267,508.458 614.5,511.5C 612.415,509.316 611.415,506.649 611.5,503.5 Z"/></g>
<g><path style="opacity:1" fill="#fdefda" d="M 611.5,500.5 C 613.738,503.271 615.905,506.271 618,509.5C 618.154,513.098 619.154,516.431 621,519.5C 621.497,522.146 621.664,524.813 621.5,527.5C 619.167,522.167 616.833,516.833 614.5,511.5C 614.267,508.458 613.267,505.792 611.5,503.5C 611.5,502.5 611.5,501.5 611.5,500.5 Z"/></g>
<g><path style="opacity:1" fill="#e7a174" d="M 473.5,503.5 C 475.38,505.755 476.38,508.422 476.5,511.5C 474.62,509.245 473.62,506.578 473.5,503.5 Z"/></g>
<g><path style="opacity:1" fill="#f4b785" d="M 127.5,488.5 C 127.5,489.167 127.5,489.833 127.5,490.5C 124.81,489.454 122.143,488.454 119.5,487.5C 111.35,486.507 103.017,486.174 94.5,486.5C 94.5,489.5 94.5,492.5 94.5,495.5C 94.5,506.167 94.5,516.833 94.5,527.5C 94.5,530.5 94.5,533.5 94.5,536.5C 94.1667,536.5 93.8333,536.5 93.5,536.5C 93.5,519.5 93.5,502.5 93.5,485.5C 103.172,485.334 112.839,485.5 122.5,486C 123.653,487.883 125.319,488.716 127.5,488.5 Z"/></g>
<g><path style="opacity:1" fill="#fef0da" d="M 164.5,479.5 C 167.572,479.183 170.572,479.516 173.5,480.5C 172.349,481.731 171.183,481.731 170,480.5C 170.601,499.467 170.601,518.467 170,537.5C 168.06,540.608 165.394,541.275 162,539.5C 160.566,537.78 159.733,535.78 159.5,533.5C 160.807,518.66 160.807,503.827 159.5,489C 159.772,484.956 161.439,481.789 164.5,479.5 Z"/></g>
<g><path style="opacity:1" fill="#cd8042" d="M 162.5,486.5 C 164.833,486.5 167.167,486.5 169.5,486.5C 169.667,502.503 169.5,518.503 169,534.5C 167.246,536.25 165.079,536.917 162.5,536.5C 162.5,519.833 162.5,503.167 162.5,486.5 Z"/></g>
<g><path style="opacity:1" fill="#e46909" d="M 164.5,488.5 C 165.496,488.414 166.329,488.748 167,489.5C 167.5,504.496 167.667,519.496 167.5,534.5C 166.167,534.5 164.833,534.5 163.5,534.5C 163.183,519.089 163.517,503.755 164.5,488.5 Z"/></g>
<g><path style="opacity:1" fill="#efbc8b" d="M 339.5,498.5 C 339.56,497.957 339.893,497.624 340.5,497.5C 341.499,507.478 341.832,517.478 341.5,527.5C 341.5,529.167 341.5,530.833 341.5,532.5C 341.5,533.833 341.5,535.167 341.5,536.5C 343.5,536.5 345.5,536.5 347.5,536.5C 345.167,537.833 342.833,537.833 340.5,536.5C 340.829,523.656 340.495,510.989 339.5,498.5 Z"/></g>
<g><path style="opacity:1" fill="#d6640f" d="M 341.5,532.5 C 341.5,530.833 341.5,529.167 341.5,527.5C 342.494,517.013 342.828,506.346 342.5,495.5C 343.021,507.149 343.854,518.816 345,530.5C 345.5,516.837 345.667,503.171 345.5,489.5C 341.092,489.062 339.425,491.062 340.5,495.5C 337.833,492.919 338.167,490.419 341.5,488C 343.112,487.28 344.612,487.446 346,488.5C 346.667,503.167 346.667,517.833 346,532.5C 344.51,533.728 343.01,533.728 341.5,532.5 Z"/></g>
<g><path style="opacity:1" fill="#b87038" d="M 378.5,486.5 C 380.5,486.5 382.5,486.5 384.5,486.5C 384.5,493.833 384.5,501.167 384.5,508.5C 384.167,508.5 383.833,508.5 383.5,508.5C 383.5,502.167 383.5,495.833 383.5,489.5C 382.721,487.073 381.554,487.073 380,489.5C 379.333,504.167 379.333,518.833 380,533.5C 380.71,534.973 381.876,535.64 383.5,535.5C 383.5,535.833 383.5,536.167 383.5,536.5C 381.833,536.5 380.167,536.5 378.5,536.5C 378.5,519.833 378.5,503.167 378.5,486.5 Z"/></g>
<g><path style="opacity:1" fill="#f06605" d="M 383.5,489.5 C 383.5,495.833 383.5,502.167 383.5,508.5C 383.5,509.5 383.5,510.5 383.5,511.5C 384.833,511.5 386.167,511.5 387.5,511.5C 386.25,513.823 384.917,516.156 383.5,518.5C 383.5,523.833 383.5,529.167 383.5,534.5C 382.542,534.047 381.708,533.381 381,532.5C 380.333,518.5 380.333,504.5 381,490.5C 381.671,489.748 382.504,489.414 383.5,489.5 Z"/></g>
<g><path style="opacity:1" fill="#f8ad69" d="M 511.5,486.5 C 514.187,486.336 516.854,486.503 519.5,487C 520.823,487.816 521.489,488.983 521.5,490.5C 519.112,487.924 516.112,486.924 512.5,487.5C 512.5,503.167 512.5,518.833 512.5,534.5C 512.5,535.167 512.5,535.833 512.5,536.5C 512.167,536.5 511.833,536.5 511.5,536.5C 511.5,519.833 511.5,503.167 511.5,486.5 Z"/></g>
<g><path style="opacity:1" fill="#ca7d40" d="M 518.5,500.5 C 518.5,512.5 518.5,524.5 518.5,536.5C 516.5,536.5 514.5,536.5 512.5,536.5C 512.5,535.833 512.5,535.167 512.5,534.5C 514.167,534.5 515.833,534.5 517.5,534.5C 517.5,526.833 517.5,519.167 517.5,511.5C 517.185,507.629 517.518,503.962 518.5,500.5 Z"/></g>
<g><path style="opacity:1" fill="#fcefd5" d="M 518.5,498.5 C 521.49,501.792 524.49,505.126 527.5,508.5C 527.5,509.5 527.5,510.5 527.5,511.5C 524.65,510.828 522.483,509.161 521,506.5C 520.509,516.192 520.509,525.859 521,535.5C 519.704,537.815 517.704,538.815 515,538.5C 513.319,538.392 512.152,537.725 511.5,536.5C 511.833,536.5 512.167,536.5 512.5,536.5C 514.5,536.5 516.5,536.5 518.5,536.5C 518.5,524.5 518.5,512.5 518.5,500.5C 518.5,499.833 518.5,499.167 518.5,498.5 Z"/></g>
<g><path style="opacity:1" fill="#d97d3b" d="M 454.5,495.5 C 454.833,495.5 455.167,495.5 455.5,495.5C 454.945,500.721 453.612,505.721 451.5,510.5C 451.833,511.5 452.167,512.5 452.5,513.5C 453.265,512.388 454.265,511.721 455.5,511.5C 455.5,512.167 455.5,512.833 455.5,513.5C 454.596,514.209 454.263,515.209 454.5,516.5C 453.735,516.077 452.902,515.743 452,515.5C 450.594,516.414 449.094,517.08 447.5,517.5C 447.5,516.167 447.5,514.833 447.5,513.5C 450.372,507.748 452.706,501.748 454.5,495.5 Z"/></g>
<g><path style="opacity:1" fill="#fdd3ad" d="M 335.5,511.5 C 335.741,513.898 335.074,515.898 333.5,517.5C 333.259,515.102 333.926,513.102 335.5,511.5 Z"/></g>
<g><path style="opacity:1" fill="#fbe1bd" d="M 398.5,519.5 C 396.246,518.746 394.413,517.413 393,515.5C 390.719,516.776 388.719,518.443 387,520.5C 386.758,524.43 385.925,528.097 384.5,531.5C 384.231,527.069 384.564,522.735 385.5,518.5C 387.705,516.637 389.039,514.303 389.5,511.5C 394.309,511.968 397.309,514.635 398.5,519.5 Z"/></g>
<g><path style="opacity:1" fill="#fdebd1" d="M 591.5,500.5 C 591.5,501.167 591.5,501.833 591.5,502.5C 591.5,502.833 591.5,503.167 591.5,503.5C 590.25,503.577 589.417,504.244 589,505.5C 586.873,510.749 585.04,516.082 583.5,521.5C 582.797,523.629 581.797,525.629 580.5,527.5C 580.167,527.5 579.833,527.5 579.5,527.5C 582.102,520.008 584.269,512.342 586,504.5C 587.531,502.703 589.364,501.37 591.5,500.5 Z"/></g>
<g><path style="opacity:1" fill="#cf7a37" d="M 591.5,503.5 C 589.695,508.715 588.195,514.048 587,519.5C 586.29,520.973 585.124,521.64 583.5,521.5C 585.04,516.082 586.873,510.749 589,505.5C 589.417,504.244 590.25,503.577 591.5,503.5 Z"/></g>
<g><path style="opacity:1" fill="#fddeb3" d="M 118.5,513.5 C 119.167,513.5 119.5,513.833 119.5,514.5C 121.091,515.219 122.591,516.219 124,517.5C 124.801,520.367 124.634,523.034 123.5,525.5C 123.997,521.137 122.331,517.971 118.5,516C 113.833,515.333 109.167,515.333 104.5,516C 104,516.5 103.5,517 103,517.5C 102.207,521.423 102.374,525.256 103.5,529C 110.055,529.975 116.388,529.475 122.5,527.5C 121.694,528.728 120.694,529.728 119.5,530.5C 113.681,531.653 107.681,531.819 101.5,531C 100.944,530.617 100.611,530.117 100.5,529.5C 100.195,524.238 100.529,519.072 101.5,514C 107.157,513.501 112.824,513.334 118.5,513.5 Z"/></g>
<g><path style="opacity:1" fill="#fdf4dd" d="M 447.5,513.5 C 447.5,514.833 447.5,516.167 447.5,517.5C 445.285,520.596 443.619,523.929 442.5,527.5C 441.251,530.087 440.251,532.754 439.5,535.5C 438.848,534.551 438.514,533.385 438.5,532C 439.719,528.635 440.719,525.135 441.5,521.5C 442.616,518.098 444.616,515.432 447.5,513.5 Z"/></g>
<g><path style="opacity:1" fill="#edb27e" d="M 455.5,513.5 C 457.571,514.809 460.071,515.475 463,515.5C 465.929,515.475 468.429,514.809 470.5,513.5C 471.404,514.209 471.737,515.209 471.5,516.5C 465.833,516.5 460.167,516.5 454.5,516.5C 454.263,515.209 454.596,514.209 455.5,513.5 Z"/></g>
<g><path style="opacity:1" fill="#f2b16f" d="M 312.5,514.5 C 315.013,518.378 316.346,522.711 316.5,527.5C 315.365,524.098 314.032,520.765 312.5,517.5C 312.5,516.5 312.5,515.5 312.5,514.5 Z"/></g>
<g><path style="opacity:1" fill="#e46911" d="M 535.5,511.5 C 536.338,511.842 536.672,512.508 536.5,513.5C 536.685,515.196 537.519,516.529 539,517.5C 539.494,519.134 539.66,520.801 539.5,522.5C 538.167,522.5 536.833,522.5 535.5,522.5C 534.241,518.975 532.241,515.975 529.5,513.5C 529.5,512.167 528.833,511.5 527.5,511.5C 527.5,510.5 527.5,509.5 527.5,508.5C 527.369,507.761 527.536,507.094 528,506.5C 529.697,507.364 530.863,508.697 531.5,510.5C 532.689,511.429 534.022,511.762 535.5,511.5 Z"/></g>
<g><path style="opacity:1" fill="#d27532" d="M 614.5,511.5 C 616.833,516.833 619.167,522.167 621.5,527.5C 623.123,530.215 623.79,533.215 623.5,536.5C 621.473,536.662 619.473,536.495 617.5,536C 616.748,535.329 616.414,534.496 616.5,533.5C 617.833,533.5 619.167,533.5 620.5,533.5C 619.592,527.877 617.759,522.543 615,517.5C 614.505,515.527 614.338,513.527 614.5,511.5 Z"/></g>
<g><path style="opacity:1" fill="#f9fcf6" d="M 123.5,525.5 C 123.672,526.492 123.338,527.158 122.5,527.5C 116.388,529.475 110.055,529.975 103.5,529C 102.374,525.256 102.207,521.423 103,517.5C 103.5,517 104,516.5 104.5,516C 109.167,515.333 113.833,515.333 118.5,516C 122.331,517.971 123.997,521.137 123.5,525.5 Z"/></g>
<g><path style="opacity:1" fill="#f66d0f" d="M 342.5,495.5 C 341.833,495.5 341.167,495.5 340.5,495.5C 339.425,491.062 341.092,489.062 345.5,489.5C 345.667,503.171 345.5,516.837 345,530.5C 343.854,518.816 343.021,507.149 342.5,495.5 Z"/></g>
<g><path style="opacity:1" fill="#ca7b39" d="M 347.5,536.5 C 345.5,536.5 343.5,536.5 341.5,536.5C 341.5,535.167 341.5,533.833 341.5,532.5C 343.01,533.728 344.51,533.728 346,532.5C 346.667,517.833 346.667,503.167 346,488.5C 344.612,487.446 343.112,487.28 341.5,488C 338.167,490.419 337.833,492.919 340.5,495.5C 341.167,495.5 341.833,495.5 342.5,495.5C 342.828,506.346 342.494,517.013 341.5,527.5C 341.832,517.478 341.499,507.478 340.5,497.5C 339.893,497.624 339.56,497.957 339.5,498.5C 339.598,500.553 338.931,502.22 337.5,503.5C 338.036,500.302 337.369,497.635 335.5,495.5C 335.597,487.398 339.597,484.065 347.5,485.5C 347.5,502.5 347.5,519.5 347.5,536.5 Z"/></g>
<g><path style="opacity:1" fill="#d56d1e" d="M 383.5,489.5 C 382.504,489.414 381.671,489.748 381,490.5C 380.333,504.5 380.333,518.5 381,532.5C 381.708,533.381 382.542,534.047 383.5,534.5C 383.5,534.833 383.5,535.167 383.5,535.5C 381.876,535.64 380.71,534.973 380,533.5C 379.333,518.833 379.333,504.167 380,489.5C 381.554,487.073 382.721,487.073 383.5,489.5 Z"/></g>
<g><path style="opacity:1" fill="#df6c17" d="M 469.5,495.5 C 471.025,498.079 472.359,500.746 473.5,503.5C 473.62,506.578 474.62,509.245 476.5,511.5C 478.267,513.792 479.267,516.458 479.5,519.5C 479.813,522.247 479.48,524.914 478.5,527.5C 477.534,525.604 477.201,523.604 477.5,521.5C 476.167,521.5 474.833,521.5 473.5,521.5C 470.016,520.835 466.349,520.501 462.5,520.5C 457.276,520.289 452.276,520.956 447.5,522.5C 447.5,520.833 447.5,519.167 447.5,517.5C 449.094,517.08 450.594,516.414 452,515.5C 452.902,515.743 453.735,516.077 454.5,516.5C 460.167,516.5 465.833,516.5 471.5,516.5C 471.737,515.209 471.404,514.209 470.5,513.5C 468.937,507.804 466.604,502.471 463.5,497.5C 463.5,496.833 463.5,496.167 463.5,495.5C 462.448,493.744 460.781,493.077 458.5,493.5C 457.925,490.429 459.091,488.429 462,487.5C 465.783,489.111 468.283,491.778 469.5,495.5 Z"/></g>
<g><path style="opacity:1" fill="#fdefd6" d="M 487.5,535.5 C 486.167,532.833 484.833,530.167 483.5,527.5C 482.696,524.558 481.362,521.891 479.5,519.5C 479.267,516.458 478.267,513.792 476.5,511.5C 476.38,508.422 475.38,505.755 473.5,503.5C 472.359,500.746 471.025,498.079 469.5,495.5C 469.722,492.61 469.055,489.943 467.5,487.5C 459.808,484.677 455.808,487.344 455.5,495.5C 455.167,495.5 454.833,495.5 454.5,495.5C 454.02,492.315 454.686,489.481 456.5,487C 465.933,481.548 471.267,484.381 472.5,495.5C 476.987,501.787 479.821,508.787 481,516.5C 485.447,522.005 487.613,528.339 487.5,535.5 Z"/></g>
<g><path style="opacity:1" fill="#e06c16" d="M 607.5,495.5 C 607.5,497.5 607.5,499.5 607.5,501.5C 609.199,501.527 610.533,502.194 611.5,503.5C 611.415,506.649 612.415,509.316 614.5,511.5C 614.338,513.527 614.505,515.527 615,517.5C 617.759,522.543 619.592,527.877 620.5,533.5C 619.167,533.5 617.833,533.5 616.5,533.5C 614.836,529.504 613.169,525.504 611.5,521.5C 604.345,520.345 597.012,520.178 589.5,521C 587.75,522.754 587.083,524.921 587.5,527.5C 586.833,529.5 586.167,531.5 585.5,533.5C 583.621,534.341 581.621,534.675 579.5,534.5C 579.993,532.194 580.326,529.861 580.5,527.5C 581.797,525.629 582.797,523.629 583.5,521.5C 585.124,521.64 586.29,520.973 587,519.5C 588.195,514.048 589.695,508.715 591.5,503.5C 591.5,503.167 591.5,502.833 591.5,502.5C 593.388,504.988 594.055,507.988 593.5,511.5C 591.744,512.552 591.077,514.219 591.5,516.5C 597.167,516.5 602.833,516.5 608.5,516.5C 608.784,514.585 608.451,512.919 607.5,511.5C 607.5,510.5 607.5,509.5 607.5,508.5C 607.105,504.368 606.105,500.368 604.5,496.5C 605.325,495.614 606.325,495.281 607.5,495.5 Z"/></g>
<g><path style="opacity:1" fill="#eaae75" d="M 593.5,511.5 C 593.5,512.833 593.5,514.167 593.5,515.5C 598.167,515.5 602.833,515.5 607.5,515.5C 607.5,514.167 607.5,512.833 607.5,511.5C 608.451,512.919 608.784,514.585 608.5,516.5C 602.833,516.5 597.167,516.5 591.5,516.5C 591.077,514.219 591.744,512.552 593.5,511.5 Z"/></g>
<g><path style="opacity:1" fill="#d4853f" d="M 611.5,521.5 C 604.492,521.334 597.492,521.5 590.5,522C 589.748,522.671 589.414,523.504 589.5,524.5C 588.833,525.5 588.167,526.5 587.5,527.5C 587.083,524.921 587.75,522.754 589.5,521C 597.012,520.178 604.345,520.345 611.5,521.5 Z"/></g>
<g><path style="opacity:1" fill="#e6ac7b" d="M 130.5,515.5 C 131.167,515.833 131.833,516.167 132.5,516.5C 132.5,516.833 132.5,517.167 132.5,517.5C 132.813,521.042 132.479,524.375 131.5,527.5C 131.693,523.434 131.36,519.434 130.5,515.5 Z"/></g>
<g><path style="opacity:1" fill="#b2875c" d="M 383.5,518.5 C 384.167,518.5 384.833,518.5 385.5,518.5C 384.564,522.735 384.231,527.069 384.5,531.5C 384.784,533.415 384.451,535.081 383.5,536.5C 383.5,536.167 383.5,535.833 383.5,535.5C 383.5,535.167 383.5,534.833 383.5,534.5C 383.5,529.167 383.5,523.833 383.5,518.5 Z"/></g>
<g><path style="opacity:1" fill="#e7a169" d="M 399.5,521.5 C 402.776,522.122 404.109,524.122 403.5,527.5C 402.623,525.272 401.29,523.272 399.5,521.5 Z"/></g>
<g><path style="opacity:1" fill="#f8c291" d="M 333.5,517.5 C 333.416,520.327 332.75,522.994 331.5,525.5C 330.833,526.167 330.167,526.833 329.5,527.5C 329.752,523.673 331.085,520.34 333.5,517.5 Z"/></g>
<g><path style="opacity:1" fill="#fcdeb6" d="M 319.5,516.5 C 320.496,516.414 321.329,516.748 322,517.5C 322.29,519.952 322.956,522.285 324,524.5C 324.383,523.944 324.883,523.611 325.5,523.5C 325.372,525.09 324.705,526.423 323.5,527.5C 321.765,523.961 320.432,520.294 319.5,516.5 Z"/></g>
<g><path style="opacity:1" fill="#d37b31" d="M 119.5,514.5 C 127.281,515.091 129.615,519.091 126.5,526.5C 127.689,527.429 129.022,527.762 130.5,527.5C 130.262,529.404 129.262,530.738 127.5,531.5C 127.631,530.624 127.298,529.957 126.5,529.5C 124.253,530.374 121.92,530.708 119.5,530.5C 120.694,529.728 121.694,528.728 122.5,527.5C 123.338,527.158 123.672,526.492 123.5,525.5C 124.634,523.034 124.801,520.367 124,517.5C 122.591,516.219 121.091,515.219 119.5,514.5 Z"/></g>
<g><path style="opacity:1" fill="#ce7837" d="M 407.5,521.5 C 409.914,522.911 411.581,524.911 412.5,527.5C 408.515,527.56 406.848,525.56 407.5,521.5 Z"/></g>
<g><path style="opacity:1" fill="#d5762e" d="M 447.5,517.5 C 447.5,519.167 447.5,520.833 447.5,522.5C 452.276,520.956 457.276,520.289 462.5,520.5C 466.349,520.501 470.016,520.835 473.5,521.5C 466.492,521.334 459.492,521.5 452.5,522C 451.131,523.719 450.131,525.552 449.5,527.5C 447.744,528.552 447.077,530.219 447.5,532.5C 447.5,533.5 447.5,534.5 447.5,535.5C 445.712,535.785 444.045,535.452 442.5,534.5C 441.947,532.273 441.947,529.939 442.5,527.5C 443.619,523.929 445.285,520.596 447.5,517.5 Z"/></g>
<g><path style="opacity:1" fill="#fbe6c7" d="M 529.5,513.5 C 532.241,515.975 534.241,518.975 535.5,522.5C 537.697,526.238 540.364,529.571 543.5,532.5C 543.5,533.167 543.5,533.833 543.5,534.5C 543.5,534.833 543.5,535.167 543.5,535.5C 539.588,534.256 537.588,531.589 537.5,527.5C 535.833,527.5 534.167,527.5 532.5,527.5C 532.648,522.506 531.648,517.839 529.5,513.5 Z"/></g>
<g><path style="opacity:1" fill="#cf7931" d="M 536.5,513.5 C 540.324,515.823 542.657,519.156 543.5,523.5C 542.5,523.5 541.5,523.5 540.5,523.5C 541.486,526.493 542.486,529.493 543.5,532.5C 540.364,529.571 537.697,526.238 535.5,522.5C 536.833,522.5 538.167,522.5 539.5,522.5C 539.66,520.801 539.494,519.134 539,517.5C 537.519,516.529 536.685,515.196 536.5,513.5 Z"/></g>
<g><path style="opacity:1" fill="#fdeacd" d="M 132.5,517.5 C 133.648,521.981 133.815,526.648 133,531.5C 130.365,534.33 127.199,535.996 123.5,536.5C 125.076,535.857 126.41,534.857 127.5,533.5C 127.5,532.833 127.5,532.167 127.5,531.5C 129.262,530.738 130.262,529.404 130.5,527.5C 130.833,527.5 131.167,527.5 131.5,527.5C 132.479,524.375 132.813,521.042 132.5,517.5 Z"/></g>
<g><path style="opacity:1" fill="#d5732b" d="M 479.5,519.5 C 481.362,521.891 482.696,524.558 483.5,527.5C 483.663,529.857 483.497,532.19 483,534.5C 481.989,535.337 480.822,535.67 479.5,535.5C 477.482,530.824 475.482,526.157 473.5,521.5C 474.833,521.5 476.167,521.5 477.5,521.5C 477.201,523.604 477.534,525.604 478.5,527.5C 479.48,524.914 479.813,522.247 479.5,519.5 Z"/></g>
<g><path style="opacity:1" fill="#ca9564" d="M 449.5,527.5 C 449.88,529.698 449.213,531.365 447.5,532.5C 447.077,530.219 447.744,528.552 449.5,527.5 Z"/></g>
<g><path style="opacity:1" fill="#fae1bc" d="M 405.5,529.5 C 406.803,531.142 408.136,532.809 409.5,534.5C 409.611,535.117 409.944,535.617 410.5,536C 413.146,536.497 415.813,536.664 418.5,536.5C 418.532,534.381 417.532,533.048 415.5,532.5C 415.5,532.167 415.5,531.833 415.5,531.5C 416.833,531.5 418.167,531.5 419.5,531.5C 419.5,533.5 419.5,535.5 419.5,537.5C 415.363,537.854 411.363,537.354 407.5,536C 405.771,534.211 405.104,532.044 405.5,529.5 Z"/></g>
<g><path style="opacity:1" fill="#e96a0e" d="M 543.5,534.5 C 543.5,533.833 543.5,533.167 543.5,532.5C 542.486,529.493 541.486,526.493 540.5,523.5C 541.5,523.5 542.5,523.5 543.5,523.5C 543.56,524.043 543.893,524.376 544.5,524.5C 545.386,523.675 545.719,522.675 545.5,521.5C 546.167,521.5 546.5,521.167 546.5,520.5C 547.494,510.013 547.828,499.346 547.5,488.5C 548.5,488.5 549.5,488.5 550.5,488.5C 550.667,503.504 550.5,518.504 550,533.5C 547.959,534.423 545.792,534.756 543.5,534.5 Z"/></g>
<g><path style="opacity:1" fill="#e36e1e" d="M 407.5,521.5 C 406.848,525.56 408.515,527.56 412.5,527.5C 414.262,528.262 415.262,529.596 415.5,531.5C 415.5,531.833 415.5,532.167 415.5,532.5C 415.5,533.5 415.5,534.5 415.5,535.5C 413.435,535.483 411.435,535.15 409.5,534.5C 408.136,532.809 406.803,531.142 405.5,529.5C 404.833,528.833 404.167,528.167 403.5,527.5C 404.109,524.122 402.776,522.122 399.5,521.5C 399.5,520.833 399.5,520.167 399.5,519.5C 399.238,518.022 399.571,516.689 400.5,515.5C 402.897,517.575 405.231,519.575 407.5,521.5 Z"/></g>
<g><path style="opacity:1" fill="#dd6a13" d="M 100.5,529.5 C 100.611,530.117 100.944,530.617 101.5,531C 107.681,531.819 113.681,531.653 119.5,530.5C 121.92,530.708 124.253,530.374 126.5,529.5C 127.298,529.957 127.631,530.624 127.5,531.5C 127.5,532.167 127.5,532.833 127.5,533.5C 125.421,533.971 123.421,534.637 121.5,535.5C 112.833,535.5 104.167,535.5 95.5,535.5C 95.1924,533.076 95.5258,530.743 96.5,528.5C 97.7362,529.246 99.0695,529.579 100.5,529.5 Z"/></g>
<g><path style="opacity:1" fill="#f4b988" d="M 127.5,533.5 C 126.41,534.857 125.076,535.857 123.5,536.5C 122.833,536.5 122.167,536.5 121.5,536.5C 121.5,536.167 121.5,535.833 121.5,535.5C 123.421,534.637 125.421,533.971 127.5,533.5 Z"/></g>
<g><path style="opacity:1" fill="#b57b4a" d="M 415.5,532.5 C 417.532,533.048 418.532,534.381 418.5,536.5C 415.813,536.664 413.146,536.497 410.5,536C 409.944,535.617 409.611,535.117 409.5,534.5C 411.435,535.15 413.435,535.483 415.5,535.5C 415.5,534.5 415.5,533.5 415.5,532.5 Z"/></g>
<g><path style="opacity:1" fill="#cd8e59" d="M 483.5,527.5 C 484.833,530.167 486.167,532.833 487.5,535.5C 487.389,536.117 487.056,536.617 486.5,537C 484.19,537.497 481.857,537.663 479.5,537.5C 479.5,536.833 479.5,536.167 479.5,535.5C 480.822,535.67 481.989,535.337 483,534.5C 483.497,532.19 483.663,529.857 483.5,527.5 Z"/></g>
<g><path style="opacity:1" fill="#fde1bf" d="M 611.5,521.5 C 613.169,525.504 614.836,529.504 616.5,533.5C 616.414,534.496 616.748,535.329 617.5,536C 619.473,536.495 621.473,536.662 623.5,536.5C 619.986,538.022 616.653,537.522 613.5,535C 612.925,531.131 611.592,527.631 609.5,524.5C 609.389,523.883 609.056,523.383 608.5,523C 602.833,522.333 597.167,522.333 591.5,523C 590.956,523.717 590.289,524.217 589.5,524.5C 589.414,523.504 589.748,522.671 590.5,522C 597.492,521.5 604.492,521.334 611.5,521.5 Z"/></g>
<g><path style="opacity:1" fill="#c98142" d="M 118.5,513.5 C 112.824,513.334 107.157,513.501 101.5,514C 100.529,519.072 100.195,524.238 100.5,529.5C 99.0695,529.579 97.7362,529.246 96.5,528.5C 95.5258,530.743 95.1924,533.076 95.5,535.5C 104.167,535.5 112.833,535.5 121.5,535.5C 121.5,535.833 121.5,536.167 121.5,536.5C 112.372,537.79 103.372,537.79 94.5,536.5C 94.5,533.5 94.5,530.5 94.5,527.5C 95.8333,527.5 97.1667,527.5 98.5,527.5C 98.3343,523.154 98.501,518.821 99,514.5C 99.8333,513.667 100.667,512.833 101.5,512C 104.333,511.833 107.167,511.667 110,511.5C 113.252,511.519 116.085,512.186 118.5,513.5 Z"/></g>
<g><path style="opacity:1" fill="#fdfbed" d="M 309.5,485.5 C 305.833,485.5 302.167,485.5 298.5,485.5C 298.17,502.675 298.503,519.675 299.5,536.5C 301.548,540.036 304.048,540.369 307,537.5C 307.057,530.176 306.891,522.843 306.5,515.5C 309.458,522.833 310.125,530.5 308.5,538.5C 307.588,540.743 305.922,541.743 303.5,541.5C 300.86,540.905 298.193,540.572 295.5,540.5C 295.5,541.5 295.5,542.5 295.5,543.5C 293.833,543.5 292.167,543.5 290.5,543.5C 290.523,541.073 291.023,538.74 292,536.5C 293.011,535.663 294.178,535.33 295.5,535.5C 296.786,518.514 296.786,501.514 295.5,484.5C 300.452,480.479 305.119,480.813 309.5,485.5 Z"/></g>
<g><path style="opacity:1" fill="#faf8e6" d="M 312.5,517.5 C 314.032,520.765 315.365,524.098 316.5,527.5C 316.833,527.5 317.167,527.5 317.5,527.5C 317.338,529.527 317.505,531.527 318,533.5C 318.383,534.056 318.883,534.389 319.5,534.5C 320.152,535.725 321.319,536.392 323,536.5C 324.167,536.333 325.333,536.167 326.5,536C 327.194,532.975 328.194,530.142 329.5,527.5C 330.167,526.833 330.833,526.167 331.5,525.5C 334.204,531.57 332.537,535.737 326.5,538C 323.5,538.333 320.5,538.667 317.5,539C 316.62,540.356 316.286,541.856 316.5,543.5C 314.5,543.5 312.5,543.5 310.5,543.5C 310.504,541.158 311.337,539.158 313,537.5C 313.665,530.805 313.498,524.138 312.5,517.5 Z"/></g>
<g><path style="opacity:1" fill="#eeb898" d="M 317.5,527.5 C 318.924,529.515 319.59,531.848 319.5,534.5C 318.883,534.389 318.383,534.056 318,533.5C 317.505,531.527 317.338,529.527 317.5,527.5 Z"/></g>
<g><path style="opacity:1" fill="#d39866" d="M 442.5,527.5 C 441.947,529.939 441.947,532.273 442.5,534.5C 444.045,535.452 445.712,535.785 447.5,535.5C 445.365,537.369 442.698,538.036 439.5,537.5C 439.5,536.833 439.5,536.167 439.5,535.5C 440.251,532.754 441.251,530.087 442.5,527.5 Z"/></g>
<g><path style="opacity:1" fill="#fde8cc" d="M 207.5,486.5 C 205.167,486.5 202.833,486.5 200.5,486.5C 200.5,503.167 200.5,519.833 200.5,536.5C 210.833,536.5 221.167,536.5 231.5,536.5C 231.5,534.5 231.5,532.5 231.5,530.5C 234.072,533.141 234.072,535.974 231.5,539C 222.34,538.261 213.173,538.428 204,539.5C 200.111,539.447 197.945,537.447 197.5,533.5C 198.304,517.525 198.804,501.525 199,485.5C 201.456,483.679 204.289,483.012 207.5,483.5C 207.5,484.5 207.5,485.5 207.5,486.5 Z"/></g>
<g><path style="opacity:1" fill="#fdf2db" d="M 473.5,521.5 C 475.482,526.157 477.482,530.824 479.5,535.5C 479.5,536.167 479.5,536.833 479.5,537.5C 477.956,537.297 476.622,536.63 475.5,535.5C 474.509,531.363 472.842,527.529 470.5,524C 464.843,523.501 459.176,523.334 453.5,523.5C 453.665,526.518 453.498,529.518 453,532.5C 450.566,535.795 448.899,539.462 448,543.5C 447.517,542.552 447.351,541.552 447.5,540.5C 446.167,540.5 444.833,540.5 443.5,540.5C 443.5,541.5 443.5,542.5 443.5,543.5C 441.712,543.785 440.045,543.452 438.5,542.5C 439.309,540.929 439.643,539.262 439.5,537.5C 442.698,538.036 445.365,537.369 447.5,535.5C 447.5,534.5 447.5,533.5 447.5,532.5C 449.213,531.365 449.88,529.698 449.5,527.5C 450.131,525.552 451.131,523.719 452.5,522C 459.492,521.5 466.492,521.334 473.5,521.5 Z"/></g>
<g><path style="opacity:1" fill="#faf5e8" d="M 609.5,524.5 C 603.491,524.334 597.491,524.501 591.5,525C 591.298,533.69 587.298,539.857 579.5,543.5C 576.45,543.03 576.117,542.197 578.5,541C 574.446,536.126 574.779,531.626 579.5,527.5C 578.841,530.455 578.508,533.455 578.5,536.5C 580.527,536.662 582.527,536.495 584.5,536C 585.252,535.329 585.586,534.496 585.5,533.5C 586.167,531.5 586.833,529.5 587.5,527.5C 588.167,526.5 588.833,525.5 589.5,524.5C 590.289,524.217 590.956,523.717 591.5,523C 597.167,522.333 602.833,522.333 608.5,523C 609.056,523.383 609.389,523.883 609.5,524.5 Z"/></g>
<g><path style="opacity:1" fill="#be814d" d="M 579.5,527.5 C 579.833,527.5 580.167,527.5 580.5,527.5C 580.326,529.861 579.993,532.194 579.5,534.5C 581.621,534.675 583.621,534.341 585.5,533.5C 585.586,534.496 585.252,535.329 584.5,536C 582.527,536.495 580.527,536.662 578.5,536.5C 578.508,533.455 578.841,530.455 579.5,527.5 Z"/></g>
</svg>
