<?xml version="1.0" encoding="UTF-8"?>
<!DOCTYPE svg PUBLIC "-//W3C//DTD SVG 1.1//EN" "http://www.w3.org/Graphics/SVG/1.1/DTD/svg11.dtd">
<svg xmlns="http://www.w3.org/2000/svg" version="1.1" width="83px" height="83px" style="shape-rendering:geometricPrecision; text-rendering:geometricPrecision; image-rendering:optimizeQuality; fill-rule:evenodd; clip-rule:evenodd" xmlns:xlink="http://www.w3.org/1999/xlink">
<g><path style="opacity:1" fill="#fcfcf9" d="M -0.5,-0.5 C 27.1667,-0.5 54.8333,-0.5 82.5,-0.5C 82.5,27.1667 82.5,54.8333 82.5,82.5C 54.8333,82.5 27.1667,82.5 -0.5,82.5C -0.5,54.8333 -0.5,27.1667 -0.5,-0.5 Z"/></g>
<g><path style="opacity:1" fill="#f7690a" d="M 15.5,11.5 C 26.1667,11.5 36.8333,11.5 47.5,11.5C 47.5,12.5 47.5,13.5 47.5,14.5C 44.4816,14.3354 41.4816,14.502 38.5,15C 41.0635,15.763 41.0635,16.263 38.5,16.5C 37.1508,16.1543 35.8175,15.821 34.5,15.5C 30.21,14.9874 26.3767,15.9874 23,18.5C 22.5172,19.448 22.3505,20.448 22.5,21.5C 21.5041,21.4142 20.6708,21.7476 20,22.5C 20.3626,24.7158 20.1959,26.8824 19.5,29C 20.0319,31.0197 21.3652,31.853 23.5,31.5C 23.5,35.8333 23.5,40.1667 23.5,44.5C 23.6716,45.4916 23.3382,46.1583 22.5,46.5C 19.8111,45.9618 17.1444,45.2951 14.5,44.5C 13.3344,34.1828 13.1677,23.8494 14,13.5C 14.7172,12.9558 15.2172,12.2891 15.5,11.5 Z"/></g>
<g><path style="opacity:1" fill="#ef782d" d="M 57.5,15.5 C 56.8826,15.6107 56.3826,15.944 56,16.5C 53.8788,14.5426 51.3788,14.0426 48.5,15C 47.9103,16.5095 47.2436,18.0095 46.5,19.5C 45.269,18.3493 45.269,17.1827 46.5,16C 41.7282,15.1896 40.3948,17.0229 42.5,21.5C 41.8333,21.5 41.1667,21.5 40.5,21.5C 40.1667,20.5 39.5,19.8333 38.5,19.5C 37.205,18.5116 35.8717,17.5116 34.5,16.5C 34.5,16.1667 34.5,15.8333 34.5,15.5C 35.8175,15.821 37.1508,16.1543 38.5,16.5C 41.0635,16.263 41.0635,15.763 38.5,15C 41.4816,14.502 44.4816,14.3354 47.5,14.5C 47.5,13.5 47.5,12.5 47.5,11.5C 36.8333,11.5 26.1667,11.5 15.5,11.5C 15.6107,10.8826 15.944,10.3826 16.5,10C 26.8333,9.33333 37.1667,9.33333 47.5,10C 51.4234,11.0079 54.7567,12.8412 57.5,15.5 Z"/></g>
<g><path style="opacity:1" fill="#b16539" d="M 34.5,15.5 C 34.5,15.8333 34.5,16.1667 34.5,16.5C 32.795,17.5353 31.1284,17.5353 29.5,16.5C 26.6677,17.6367 24.3344,19.3033 22.5,21.5C 22.3505,20.448 22.5172,19.448 23,18.5C 26.3767,15.9874 30.21,14.9874 34.5,15.5 Z"/></g>
<g><path style="opacity:1" fill="#cb682c" d="M 31.5,21.5 C 31.5,22.1667 31.1667,22.5 30.5,22.5C 29.1001,23.0998 28.1001,24.0998 27.5,25.5C 26.7893,23.1582 25.456,22.8249 23.5,24.5C 22.2617,24.19 22.2617,23.69 23.5,23C 25.6927,21.9356 27.6927,20.6023 29.5,19C 32.2189,18.4062 32.8856,19.2395 31.5,21.5 Z"/></g>
<g><path style="opacity:1" fill="#2b150f" d="M 34.5,20.5 C 35.5676,19.5655 36.901,19.2322 38.5,19.5C 39.5,19.8333 40.1667,20.5 40.5,21.5C 41.979,25.0563 44.3124,26.0563 47.5,24.5C 48.1667,24.5 48.8333,24.5 49.5,24.5C 49.5,25.1667 49.5,25.8333 49.5,26.5C 49.5,27.1667 49.1667,27.5 48.5,27.5C 46.3021,26.8347 43.9688,26.1681 41.5,25.5C 39.9571,22.6095 37.6238,20.9429 34.5,20.5 Z"/></g>
<g><path style="opacity:1" fill="#fdeed5" d="M 60.5,15.5 C 61.8471,16.1712 63.0138,16.1712 64,15.5C 65.2873,18.4285 67.2873,20.7618 70,22.5C 71.2886,25.3508 71.7886,28.3508 71.5,31.5C 70.5309,29.337 69.6976,27.0037 69,24.5C 66.0346,21.6059 63.2013,18.6059 60.5,15.5 Z"/></g>
<g><path style="opacity:1" fill="#af6027" d="M 47.5,24.5 C 51.3112,23.3547 55.3112,23.1881 59.5,24C 62.3589,25.6909 63.6923,28.1909 63.5,31.5C 60.8728,25.5188 56.2062,23.1855 49.5,24.5C 48.8333,24.5 48.1667,24.5 47.5,24.5 Z"/></g>
<g><path style="opacity:1" fill="#63230f" d="M 34.5,16.5 C 35.8717,17.5116 37.205,18.5116 38.5,19.5C 36.901,19.2322 35.5676,19.5655 34.5,20.5C 33.791,21.404 32.791,21.7373 31.5,21.5C 32.8856,19.2395 32.2189,18.4062 29.5,19C 27.6927,20.6023 25.6927,21.9356 23.5,23C 22.2617,23.69 22.2617,24.19 23.5,24.5C 23.5,25.1667 23.5,25.8333 23.5,26.5C 20.6215,29.0307 21.2881,30.0307 25.5,29.5C 25.5,31.8333 25.5,34.1667 25.5,36.5C 24.8333,39.1667 24.1667,41.8333 23.5,44.5C 23.5,40.1667 23.5,35.8333 23.5,31.5C 21.3652,31.853 20.0319,31.0197 19.5,29C 20.1959,26.8824 20.3626,24.7158 20,22.5C 20.6708,21.7476 21.5041,21.4142 22.5,21.5C 24.3344,19.3033 26.6677,17.6367 29.5,16.5C 31.1284,17.5353 32.795,17.5353 34.5,16.5 Z"/></g>
<g><path style="opacity:1" fill="#884527" d="M 40.5,21.5 C 41.1667,21.5 41.8333,21.5 42.5,21.5C 43.4006,23.7271 45.0672,24.7271 47.5,24.5C 44.3124,26.0563 41.979,25.0563 40.5,21.5 Z"/></g>
<g><path style="opacity:1" fill="#f2620d" d="M 27.5,25.5 C 27.5,25.8333 27.5,26.1667 27.5,26.5C 26.0387,27.6857 24.7054,27.6857 23.5,26.5C 23.5,25.8333 23.5,25.1667 23.5,24.5C 25.456,22.8249 26.7893,23.1582 27.5,25.5 Z"/></g>
<g><path style="opacity:1" fill="#ba642b" d="M 50.5,26.5 C 55.898,24.8318 59.5647,26.8318 61.5,32.5C 61.1667,33.1667 60.8333,33.8333 60.5,34.5C 58.396,33.4805 56.396,32.4805 54.5,31.5C 59.4721,30.807 59.4721,29.307 54.5,27C 53.2068,26.51 51.8734,26.3433 50.5,26.5 Z"/></g>
<g><path style="opacity:1" fill="#cc6e30" d="M 15.5,11.5 C 15.2172,12.2891 14.7172,12.9558 14,13.5C 13.1677,23.8494 13.3344,34.1828 14.5,44.5C 17.1444,45.2951 19.8111,45.9618 22.5,46.5C 19.3023,47.7 15.969,47.7 12.5,46.5C 12.3335,35.1618 12.5001,23.8284 13,12.5C 13.6708,11.7476 14.5041,11.4142 15.5,11.5 Z"/></g>
<g><path style="opacity:1" fill="#cb6b2b" d="M 23.5,26.5 C 24.7054,27.6857 26.0387,27.6857 27.5,26.5C 27.4326,27.9587 27.7659,29.2921 28.5,30.5C 26.6921,31.9179 26.0254,33.9179 26.5,36.5C 26.1667,36.5 25.8333,36.5 25.5,36.5C 25.5,34.1667 25.5,31.8333 25.5,29.5C 21.2881,30.0307 20.6215,29.0307 23.5,26.5 Z"/></g>
<g><path style="opacity:1" fill="#512514" d="M 30.5,22.5 C 29.2665,25.5352 29.2665,28.5352 30.5,31.5C 31.2186,33.7638 31.552,36.0971 31.5,38.5C 30.8333,37.8333 30.1667,37.1667 29.5,36.5C 29.1667,34.5 28.8333,32.5 28.5,30.5C 27.7659,29.2921 27.4326,27.9587 27.5,26.5C 27.5,26.1667 27.5,25.8333 27.5,25.5C 28.1001,24.0998 29.1001,23.0998 30.5,22.5 Z"/></g>
<g><path style="opacity:1" fill="#ebedeb" d="M 34.5,20.5 C 37.6238,20.9429 39.9571,22.6095 41.5,25.5C 43.9688,26.1681 46.3021,26.8347 48.5,27.5C 48.1667,28.1667 47.8333,28.8333 47.5,29.5C 46.3557,31.9272 44.3557,32.9272 41.5,32.5C 38.664,32.4095 35.9973,31.7429 33.5,30.5C 34.6594,32.2503 36.326,33.2503 38.5,33.5C 38.1583,34.3382 37.4916,34.6716 36.5,34.5C 34.2163,34.0248 32.2163,33.0248 30.5,31.5C 29.2665,28.5352 29.2665,25.5352 30.5,22.5C 31.1667,22.5 31.5,22.1667 31.5,21.5C 32.791,21.7373 33.791,21.404 34.5,20.5 Z"/></g>
<g><path style="opacity:1" fill="#463c3b" d="M 33.5,30.5 C 31.668,29.8595 31.3347,28.8595 32.5,27.5C 33.3857,28.325 33.719,29.325 33.5,30.5 Z"/></g>
<g><path style="opacity:1" fill="#3b3636" d="M 35.5,23.5 C 36.1894,22.2264 37.0228,22.2264 38,23.5C 38.7494,24.635 38.5827,25.635 37.5,26.5C 35.6978,25.7251 35.0311,24.7251 35.5,23.5 Z"/></g>
<g><path style="opacity:1" fill="#b86124" d="M 49.5,26.5 C 49.8333,26.5 50.1667,26.5 50.5,26.5C 50.1778,28.4752 50.1778,30.1418 50.5,31.5C 50.5,31.8333 50.5,32.1667 50.5,32.5C 49.5,32.5 48.5,32.5 47.5,32.5C 47.5,31.5 47.5,30.5 47.5,29.5C 47.8333,28.8333 48.1667,28.1667 48.5,27.5C 49.1667,27.5 49.5,27.1667 49.5,26.5 Z"/></g>
<g><path style="opacity:1" fill="#f4690c" d="M 50.5,26.5 C 51.8734,26.3433 53.2068,26.51 54.5,27C 59.4721,29.307 59.4721,30.807 54.5,31.5C 53.1667,31.5 51.8333,31.5 50.5,31.5C 50.1778,30.1418 50.1778,28.4752 50.5,26.5 Z"/></g>
<g><path style="opacity:1" fill="#341e1a" d="M 47.5,29.5 C 47.5,30.5 47.5,31.5 47.5,32.5C 48.5,32.5 49.5,32.5 50.5,32.5C 54.5,33.1667 54.5,33.8333 50.5,34.5C 50.5,36.5 50.5,38.5 50.5,40.5C 49.5,40.5 48.5,40.5 47.5,40.5C 45.6968,39.9536 44.0302,39.1203 42.5,38C 39.633,37.1993 36.9664,37.3659 34.5,38.5C 33.609,39.1098 32.609,39.4431 31.5,39.5C 31.5,39.1667 31.5,38.8333 31.5,38.5C 31.552,36.0971 31.2186,33.7638 30.5,31.5C 32.2163,33.0248 34.2163,34.0248 36.5,34.5C 40.0854,35.3108 43.5854,36.6441 47,38.5C 47.6172,37.5509 47.4506,36.7175 46.5,36C 43.8649,34.9758 41.1982,34.1425 38.5,33.5C 36.326,33.2503 34.6594,32.2503 33.5,30.5C 35.9973,31.7429 38.664,32.4095 41.5,32.5C 44.3557,32.9272 46.3557,31.9272 47.5,29.5 Z"/></g>
<g><path style="opacity:1" fill="#572210" d="M 49.5,24.5 C 56.2062,23.1855 60.8728,25.5188 63.5,31.5C 63.5,33.8333 63.5,36.1667 63.5,38.5C 59.5,37.5 55.5,36.5 51.5,35.5C 51.8076,37.924 51.4742,40.2573 50.5,42.5C 49.5832,41.8728 48.5832,41.5394 47.5,41.5C 47.5,41.1667 47.5,40.8333 47.5,40.5C 48.5,40.5 49.5,40.5 50.5,40.5C 50.5,38.5 50.5,36.5 50.5,34.5C 54.5,33.8333 54.5,33.1667 50.5,32.5C 50.5,32.1667 50.5,31.8333 50.5,31.5C 51.8333,31.5 53.1667,31.5 54.5,31.5C 56.396,32.4805 58.396,33.4805 60.5,34.5C 60.8333,33.8333 61.1667,33.1667 61.5,32.5C 59.5647,26.8318 55.898,24.8318 50.5,26.5C 50.1667,26.5 49.8333,26.5 49.5,26.5C 49.5,25.8333 49.5,25.1667 49.5,24.5 Z"/></g>
<g><path style="opacity:1" fill="#a7acb3" d="M 38.5,33.5 C 41.1982,34.1425 43.8649,34.9758 46.5,36C 47.4506,36.7175 47.6172,37.5509 47,38.5C 43.5854,36.6441 40.0854,35.3108 36.5,34.5C 37.4916,34.6716 38.1583,34.3382 38.5,33.5 Z"/></g>
<g><path style="opacity:1" fill="#eb7120" d="M 57.5,15.5 C 58.5,15.5 59.5,15.5 60.5,15.5C 63.2013,18.6059 66.0346,21.6059 69,24.5C 69.6976,27.0037 70.5309,29.337 71.5,31.5C 72.4419,36.8054 72.6086,42.1387 72,47.5C 71.1477,51.2641 69.6477,54.5974 67.5,57.5C 67.6465,54.5569 68.3132,51.7236 69.5,49C 67.9534,48.8139 66.9534,47.4806 66.5,45C 67.35,43.7141 68.5166,43.8808 70,45.5C 70.1667,44.1667 70.3333,42.8333 70.5,41.5C 69.2157,36.9121 68.3824,32.2455 68,27.5C 66.907,25.6508 65.5737,23.9842 64,22.5C 63.6667,22.8333 63.3333,23.1667 63,23.5C 62.6924,22.6919 62.1924,22.0253 61.5,21.5C 59.4648,20.9588 57.4648,20.2922 55.5,19.5C 56.6302,18.3777 57.2969,17.0443 57.5,15.5 Z"/></g>
<g><path style="opacity:1" fill="#c56729" d="M 47.5,40.5 C 47.5,40.8333 47.5,41.1667 47.5,41.5C 43.9014,40.3012 40.2347,39.3012 36.5,38.5C 36.2161,41.7766 36.5495,44.9433 37.5,48C 41.3951,49.2662 45.3951,49.7662 49.5,49.5C 45.3537,50.647 41.0204,50.8136 36.5,50C 34.7098,46.4172 34.0431,42.5839 34.5,38.5C 36.9664,37.3659 39.633,37.1993 42.5,38C 44.0302,39.1203 45.6968,39.9536 47.5,40.5 Z"/></g>
<g><path style="opacity:1" fill="#f66a0b" d="M 57.5,15.5 C 57.2969,17.0443 56.6302,18.3777 55.5,19.5C 57.4648,20.2922 59.4648,20.9588 61.5,21.5C 62.1924,22.0253 62.6924,22.6919 63,23.5C 63.3333,23.1667 63.6667,22.8333 64,22.5C 65.5737,23.9842 66.907,25.6508 68,27.5C 68.3824,32.2455 69.2157,36.9121 70.5,41.5C 70.3333,42.8333 70.1667,44.1667 70,45.5C 68.5166,43.8808 67.35,43.7141 66.5,45C 66.9534,47.4806 67.9534,48.8139 69.5,49C 68.3132,51.7236 67.6465,54.5569 67.5,57.5C 65.5,57.5 63.5,57.5 61.5,57.5C 60.5139,60.493 59.5139,63.493 58.5,66.5C 55.3714,66.9743 52.7047,68.3076 50.5,70.5C 43.1567,71.5235 35.8234,71.5235 28.5,70.5C 30.1076,67.8916 32.4409,66.5583 35.5,66.5C 39.5,66.5 43.5,66.5 47.5,66.5C 48.9217,66.2914 50.255,65.7914 51.5,65C 54.3874,62.1126 57.2208,59.2792 60,56.5C 61.9042,53.3779 62.5709,50.0445 62,46.5C 59.6612,44.9221 57.8278,45.2554 56.5,47.5C 55.8333,47.5 55.5,47.8333 55.5,48.5C 53.5648,49.1495 51.5648,49.4828 49.5,49.5C 45.3951,49.7662 41.3951,49.2662 37.5,48C 36.5495,44.9433 36.2161,41.7766 36.5,38.5C 40.2347,39.3012 43.9014,40.3012 47.5,41.5C 48.5832,41.5394 49.5832,41.8728 50.5,42.5C 51.4742,40.2573 51.8076,37.924 51.5,35.5C 55.5,36.5 59.5,37.5 63.5,38.5C 63.5,36.1667 63.5,33.8333 63.5,31.5C 63.6923,28.1909 62.3589,25.6909 59.5,24C 55.3112,23.1881 51.3112,23.3547 47.5,24.5C 45.0672,24.7271 43.4006,23.7271 42.5,21.5C 40.3948,17.0229 41.7282,15.1896 46.5,16C 45.269,17.1827 45.269,18.3493 46.5,19.5C 47.2436,18.0095 47.9103,16.5095 48.5,15C 51.3788,14.0426 53.8788,14.5426 56,16.5C 56.3826,15.944 56.8826,15.6107 57.5,15.5 Z"/></g>
<g><path style="opacity:1" fill="#461a09" d="M 25.5,36.5 C 25.8333,36.5 26.1667,36.5 26.5,36.5C 26.815,40.3714 26.4816,44.0381 25.5,47.5C 21.4731,49.3584 17.1398,50.0251 12.5,49.5C 12.5,48.5 12.5,47.5 12.5,46.5C 15.969,47.7 19.3023,47.7 22.5,46.5C 23.3382,46.1583 23.6716,45.4916 23.5,44.5C 24.1667,41.8333 24.8333,39.1667 25.5,36.5 Z"/></g>
<g><path style="opacity:1" fill="#f86a0b" d="M 28.5,30.5 C 28.8333,32.5 29.1667,34.5 29.5,36.5C 29.4744,39.8757 30.1411,43.0423 31.5,46C 31.3184,48.3428 30.3184,50.1761 28.5,51.5C 29.8262,52.6422 30.8262,53.9755 31.5,55.5C 31.5,56.8333 31.5,58.1667 31.5,59.5C 25.9752,60.4174 23.9752,58.4174 25.5,53.5C 24.5,53.5 23.5,53.5 22.5,53.5C 22.67,54.8221 22.3366,55.9887 21.5,57C 19.6698,57.1816 18.0031,56.6816 16.5,55.5C 14.31,54.6255 13.31,52.9589 13.5,50.5C 17.1817,50.6653 20.8484,50.4986 24.5,50C 25.2524,49.3292 25.5858,48.4959 25.5,47.5C 26.4816,44.0381 26.815,40.3714 26.5,36.5C 26.0254,33.9179 26.6921,31.9179 28.5,30.5 Z"/></g>
<g><path style="opacity:1" fill="#d46a26" d="M 29.5,36.5 C 30.1667,37.1667 30.8333,37.8333 31.5,38.5C 31.5,38.8333 31.5,39.1667 31.5,39.5C 32.3255,43.2853 32.9921,47.1186 33.5,51C 33.6932,53.0081 33.0265,54.5081 31.5,55.5C 30.8262,53.9755 29.8262,52.6422 28.5,51.5C 30.3184,50.1761 31.3184,48.3428 31.5,46C 30.1411,43.0423 29.4744,39.8757 29.5,36.5 Z"/></g>
<g><path style="opacity:1" fill="#ce6f2c" d="M 25.5,47.5 C 25.5858,48.4959 25.2524,49.3292 24.5,50C 20.8484,50.4986 17.1817,50.6653 13.5,50.5C 13.31,52.9589 14.31,54.6255 16.5,55.5C 15.1667,55.5 13.8333,55.5 12.5,55.5C 12.5,53.5 12.5,51.5 12.5,49.5C 17.1398,50.0251 21.4731,49.3584 25.5,47.5 Z"/></g>
<g><path style="opacity:1" fill="#fde9c5" d="M 71.5,31.5 C 72.821,34.5982 73.4877,38.0982 73.5,42C 73.3333,45.5 73.1667,49 73,52.5C 71.6189,54.6349 70.6189,56.9682 70,59.5C 68.27,61.0764 66.4367,62.4097 64.5,63.5C 65.5,61.5 66.5,59.5 67.5,57.5C 69.6477,54.5974 71.1477,51.2641 72,47.5C 72.6086,42.1387 72.4419,36.8054 71.5,31.5 Z"/></g>
<g><path style="opacity:1" fill="#7a2406" d="M 12.5,55.5 C 13.8333,55.5 15.1667,55.5 16.5,55.5C 15.8166,57.1765 14.4832,57.8432 12.5,57.5C 12.5,56.8333 12.5,56.1667 12.5,55.5 Z"/></g>
<g><path style="opacity:1" fill="#d26925" d="M 47.5,66.5 C 51.4702,63.3613 54.9702,59.6947 58,55.5C 59.5489,52.6883 60.3822,49.6883 60.5,46.5C 59.209,46.2627 58.209,46.596 57.5,47.5C 57.1667,47.5 56.8333,47.5 56.5,47.5C 57.8278,45.2554 59.6612,44.9221 62,46.5C 62.5709,50.0445 61.9042,53.3779 60,56.5C 57.2208,59.2792 54.3874,62.1126 51.5,65C 50.255,65.7914 48.9217,66.2914 47.5,66.5 Z"/></g>
<g><path style="opacity:1" fill="#3f1c10" d="M 34.5,38.5 C 34.0431,42.5839 34.7098,46.4172 36.5,50C 41.0204,50.8136 45.3537,50.647 49.5,49.5C 51.5648,49.4828 53.5648,49.1495 55.5,48.5C 54.3192,50.0672 52.6526,50.9005 50.5,51C 45.9805,51.1753 41.6472,51.6753 37.5,52.5C 35.9519,52.8212 35.2852,53.8212 35.5,55.5C 35.5,55.8333 35.5,56.1667 35.5,56.5C 34.0762,58.5145 33.4095,60.8478 33.5,63.5C 35.8333,63.5 38.1667,63.5 40.5,63.5C 41.8333,63.5 43.1667,63.5 44.5,63.5C 46.2838,63.1075 47.9505,62.4408 49.5,61.5C 52.0983,60.4722 52.0983,59.4722 49.5,58.5C 51.5138,58.6085 53.1805,57.9418 54.5,56.5C 55.1667,56.5 55.5,56.1667 55.5,55.5C 57.1042,54.713 57.7709,53.3797 57.5,51.5C 57.8333,50.8333 58.1667,50.1667 58.5,49.5C 59.7574,48.3774 59.4241,47.7107 57.5,47.5C 58.209,46.596 59.209,46.2627 60.5,46.5C 60.3822,49.6883 59.5489,52.6883 58,55.5C 54.9702,59.6947 51.4702,63.3613 47.5,66.5C 43.5,66.5 39.5,66.5 35.5,66.5C 34.0536,65.3871 32.3869,65.2204 30.5,66C 28.2707,68.4003 25.9374,70.567 23.5,72.5C 20.9407,72.8016 18.6074,72.4682 16.5,71.5C 22.9003,69.1475 27.9003,65.1475 31.5,59.5C 31.5,58.1667 31.5,56.8333 31.5,55.5C 33.0265,54.5081 33.6932,53.0081 33.5,51C 32.9921,47.1186 32.3255,43.2853 31.5,39.5C 32.609,39.4431 33.609,39.1098 34.5,38.5 Z"/></g>
<g><path style="opacity:1" fill="#e46b1b" d="M 35.5,56.5 C 37.8333,56.5 40.1667,56.5 42.5,56.5C 42.6061,59.0786 41.9395,61.412 40.5,63.5C 38.1667,63.5 35.8333,63.5 33.5,63.5C 33.4095,60.8478 34.0762,58.5145 35.5,56.5 Z"/></g>
<g><path style="opacity:1" fill="#7b767f" d="M 49.5,58.5 C 52.0983,59.4722 52.0983,60.4722 49.5,61.5C 48.3915,60.71 47.0581,60.21 45.5,60C 46.9007,59.5899 48.234,59.0899 49.5,58.5 Z"/></g>
<g><path style="opacity:1" fill="#81786c" d="M 53.5,54.5 C 54.4916,54.3284 55.1583,54.6618 55.5,55.5C 55.5,56.1667 55.1667,56.5 54.5,56.5C 54.44,55.9569 54.1067,55.6236 53.5,55.5C 51.2906,56.1062 49.124,56.7728 47,57.5C 46.4092,56.5165 46.7425,55.8499 48,55.5C 49.7659,54.7665 51.5992,54.4332 53.5,54.5 Z"/></g>
<g><path style="opacity:1" fill="#232732" d="M 57.5,51.5 C 57.7709,53.3797 57.1042,54.713 55.5,55.5C 55.1583,54.6618 54.4916,54.3284 53.5,54.5C 54.795,53.5116 56.1283,52.5116 57.5,51.5 Z"/></g>
<g><path style="opacity:1" fill="#e2e5e4" d="M 58.5,49.5 C 58.1667,50.1667 57.8333,50.8333 57.5,51.5C 56.1283,52.5116 54.795,53.5116 53.5,54.5C 51.5992,54.4332 49.7659,54.7665 48,55.5C 46.7425,55.8499 46.4092,56.5165 47,57.5C 49.124,56.7728 51.2906,56.1062 53.5,55.5C 54.1067,55.6236 54.44,55.9569 54.5,56.5C 53.1805,57.9418 51.5138,58.6085 49.5,58.5C 48.234,59.0899 46.9007,59.5899 45.5,60C 47.0581,60.21 48.3915,60.71 49.5,61.5C 47.9505,62.4408 46.2838,63.1075 44.5,63.5C 44.7683,60.8806 44.435,58.3806 43.5,56C 40.854,55.5026 38.1873,55.3359 35.5,55.5C 35.2852,53.8212 35.9519,52.8212 37.5,52.5C 44.7798,54.197 51.7798,53.197 58.5,49.5 Z"/></g>
<g><path style="opacity:1" fill="#271d1f" d="M 56.5,47.5 C 56.8333,47.5 57.1667,47.5 57.5,47.5C 59.4241,47.7107 59.7574,48.3774 58.5,49.5C 51.7798,53.197 44.7798,54.197 37.5,52.5C 41.6472,51.6753 45.9805,51.1753 50.5,51C 52.6526,50.9005 54.3192,50.0672 55.5,48.5C 55.5,47.8333 55.8333,47.5 56.5,47.5 Z"/></g>
<g><path style="opacity:1" fill="#ec7021" d="M 67.5,57.5 C 66.5,59.5 65.5,61.5 64.5,63.5C 60.3848,66.8909 55.7181,69.2243 50.5,70.5C 52.7047,68.3076 55.3714,66.9743 58.5,66.5C 59.5139,63.493 60.5139,60.493 61.5,57.5C 63.5,57.5 65.5,57.5 67.5,57.5 Z"/></g>
<g><path style="opacity:1" fill="#f4ddb4" d="M 35.5,56.5 C 35.5,56.1667 35.5,55.8333 35.5,55.5C 38.1873,55.3359 40.854,55.5026 43.5,56C 44.435,58.3806 44.7683,60.8806 44.5,63.5C 43.1667,63.5 41.8333,63.5 40.5,63.5C 41.9395,61.412 42.6061,59.0786 42.5,56.5C 40.1667,56.5 37.8333,56.5 35.5,56.5 Z"/></g>
<g><path style="opacity:1" fill="#eb6b15" d="M 31.5,59.5 C 27.9003,65.1475 22.9003,69.1475 16.5,71.5C 15.1667,70.5 13.8333,69.5 12.5,68.5C 12.5,64.8333 12.5,61.1667 12.5,57.5C 14.4832,57.8432 15.8166,57.1765 16.5,55.5C 18.0031,56.6816 19.6698,57.1816 21.5,57C 22.3366,55.9887 22.67,54.8221 22.5,53.5C 23.5,53.5 24.5,53.5 25.5,53.5C 23.9752,58.4174 25.9752,60.4174 31.5,59.5 Z"/></g>
<g><path style="opacity:1" fill="#fd6703" d="M 13.5,58.5 C 16.1667,58.5 18.8333,58.5 21.5,58.5C 21.5,59.5 21.5,60.5 21.5,61.5C 23.288,61.2148 24.9547,61.5481 26.5,62.5C 23.8929,63.3184 21.2263,63.8184 18.5,64C 17,64.8333 15.8333,66 15,67.5C 14.4978,64.4869 13.9978,61.4869 13.5,58.5 Z"/></g>
<g><path style="opacity:1" fill="#d27836" d="M 35.5,66.5 C 32.4409,66.5583 30.1076,67.8916 28.5,70.5C 35.8234,71.5235 43.1567,71.5235 50.5,70.5C 49.5,71.1667 48.5,71.8333 47.5,72.5C 39.5,72.5 31.5,72.5 23.5,72.5C 25.9374,70.567 28.2707,68.4003 30.5,66C 32.3869,65.2204 34.0536,65.3871 35.5,66.5 Z"/></g>
<g><path style="opacity:1" fill="#fcf0dc" d="M 12.5,68.5 C 13.8333,69.5 15.1667,70.5 16.5,71.5C 18.6074,72.4682 20.9407,72.8016 23.5,72.5C 31.5,72.5 39.5,72.5 47.5,72.5C 47.5,73.5 47.5,74.5 47.5,75.5C 41.8014,74.9978 36.1347,74.3311 30.5,73.5C 24.8955,74.4544 19.2289,74.7877 13.5,74.5C 13.4828,72.4352 13.1495,70.4352 12.5,68.5 Z"/></g>
</svg>
