<?xml version="1.0" encoding="UTF-8"?>
<!DOCTYPE svg PUBLIC "-//W3C//DTD SVG 1.1//EN" "http://www.w3.org/Graphics/SVG/1.1/DTD/svg11.dtd">
<svg xmlns="http://www.w3.org/2000/svg" version="1.1" width="83px" height="83px" style="shape-rendering:geometricPrecision; text-rendering:geometricPrecision; image-rendering:optimizeQuality; fill-rule:evenodd; clip-rule:evenodd" xmlns:xlink="http://www.w3.org/1999/xlink">
<g><path style="opacity:1" fill="#56a8ad" d="M -0.5,-0.5 C 19.5,-0.5 39.5,-0.5 59.5,-0.5C 53.1086,0.705853 46.7753,2.37252 40.5,4.5C 36.3914,3.8062 32.3914,2.8062 28.5,1.5C 28.5,2.5 28.5,3.5 28.5,4.5C 31.9606,6.07863 35.6273,7.07863 39.5,7.5C 43.4082,5.62679 47.4082,5.29345 51.5,6.5C 51.7093,7.08605 52.0426,7.58605 52.5,8C 51.0577,8.37675 50.0577,9.21009 49.5,10.5C 33.9992,6.41647 22.9992,11.7498 16.5,26.5C 12.1431,27.5236 9.4764,30.1902 8.5,34.5C 6.66754,35.2485 5.00087,36.2485 3.5,37.5C 2.55652,42.1001 2.22319,46.7668 2.5,51.5C 2.0276,53.5313 1.0276,55.1979 -0.5,56.5C -0.5,37.5 -0.5,18.5 -0.5,-0.5 Z"/></g>
<g><path style="opacity:1" fill="#56a8ac" d="M 59.5,-0.5 C 67.1667,-0.5 74.8333,-0.5 82.5,-0.5C 82.5,4.83333 82.5,10.1667 82.5,15.5C 81.5,15.5 80.5,15.5 79.5,15.5C 79.5,14.5 79.5,13.5 79.5,12.5C 75.3822,12.4355 71.3822,11.7688 67.5,10.5C 58.972,10.28 57.472,13.28 63,19.5C 63.49,20.7932 63.6567,22.1266 63.5,23.5C 61.9808,20.9795 60.3141,18.4795 58.5,16C 55.4721,14.1555 52.4721,12.3222 49.5,10.5C 50.0577,9.21009 51.0577,8.37675 52.5,8C 52.0426,7.58605 51.7093,7.08605 51.5,6.5C 47.4082,5.29345 43.4082,5.62679 39.5,7.5C 35.6273,7.07863 31.9606,6.07863 28.5,4.5C 28.5,3.5 28.5,2.5 28.5,1.5C 32.3914,2.8062 36.3914,3.8062 40.5,4.5C 46.7753,2.37252 53.1086,0.705853 59.5,-0.5 Z"/></g>
<g><path style="opacity:1" fill="#3f6b77" d="M 49.5,10.5 C 52.4721,12.3222 55.4721,14.1555 58.5,16C 60.3141,18.4795 61.9808,20.9795 63.5,23.5C 63.3505,24.552 63.5172,25.552 64,26.5C 68.6308,27.2984 71.4641,29.9651 72.5,34.5C 74.7534,35.2531 76.5867,36.5864 78,38.5C 79.4038,44.0438 79.9038,49.7104 79.5,55.5C 76.3752,56.4794 73.0419,56.8128 69.5,56.5C 69.0084,62.3249 66.0084,66.1582 60.5,68C 46.8333,68.6667 33.1667,68.6667 19.5,68C 18.4366,66.8118 17.1033,66.3118 15.5,66.5C 15.5,65.5 15.5,64.5 15.5,63.5C 14.2502,63.4226 13.4169,62.756 13,61.5C 12.5065,59.8659 12.3398,58.1992 12.5,56.5C 9.48162,56.6646 6.48162,56.498 3.5,56C 2.61983,54.6439 2.28649,53.1439 2.5,51.5C 2.22319,46.7668 2.55652,42.1001 3.5,37.5C 5.00087,36.2485 6.66754,35.2485 8.5,34.5C 9.4764,30.1902 12.1431,27.5236 16.5,26.5C 22.9992,11.7498 33.9992,6.41647 49.5,10.5 Z"/></g>
<g><path style="opacity:1" fill="#b4626d" d="M 47.5,13.5 C 44.9621,13.4928 42.4621,13.1595 40,12.5C 36.4555,13.4045 32.9555,14.4045 29.5,15.5C 35.1046,11.1752 41.1046,10.5086 47.5,13.5 Z"/></g>
<g><path style="opacity:1" fill="#d1b7c1" d="M 50.5,13.5 C 49.5,13.5 48.5,13.5 47.5,13.5C 41.1046,10.5086 35.1046,11.1752 29.5,15.5C 26.5726,16.7573 24.2393,18.7573 22.5,21.5C 21.7281,22.6935 20.7281,23.6935 19.5,24.5C 23.6072,15.6058 30.6072,10.9391 40.5,10.5C 44.2936,10.3229 47.6269,11.3229 50.5,13.5 Z"/></g>
<g><path style="opacity:1" fill="#c8b8c2" d="M 50.5,13.5 C 56.9136,16.0842 61.0802,20.7509 63,27.5C 64.8778,28.0527 66.3778,29.0527 67.5,30.5C 60.824,29.4991 54.1573,28.4991 47.5,27.5C 38.8089,27.368 30.1423,27.7013 21.5,28.5C 20.1667,28.5 18.8333,28.5 17.5,28.5C 17.6596,26.847 18.3263,25.5137 19.5,24.5C 19.5,25.5 19.5,26.5 19.5,27.5C 21.7354,27.7947 23.7354,27.4614 25.5,26.5C 32.8088,25.7516 40.1422,25.4183 47.5,25.5C 51.9647,27.3033 56.6314,27.6366 61.5,26.5C 61.0576,25.2613 60.3909,24.2613 59.5,23.5C 57.2054,19.5384 54.2054,16.2051 50.5,13.5 Z"/></g>
<g><path style="opacity:1" fill="#53acae" d="M 82.5,15.5 C 82.5,27.5 82.5,39.5 82.5,51.5C 81.8571,53.0764 80.8571,54.4097 79.5,55.5C 79.9038,49.7104 79.4038,44.0438 78,38.5C 76.5867,36.5864 74.7534,35.2531 72.5,34.5C 71.4641,29.9651 68.6308,27.2984 64,26.5C 63.5172,25.552 63.3505,24.552 63.5,23.5C 63.6567,22.1266 63.49,20.7932 63,19.5C 57.472,13.28 58.972,10.28 67.5,10.5C 71.3822,11.7688 75.3822,12.4355 79.5,12.5C 79.5,13.5 79.5,14.5 79.5,15.5C 80.5,15.5 81.5,15.5 82.5,15.5 Z"/></g>
<g><path style="opacity:1" fill="#c64e50" d="M 47.5,13.5 C 48.5,13.5 49.5,13.5 50.5,13.5C 54.2054,16.2051 57.2054,19.5384 59.5,23.5C 59.5,24.5 59.5,25.5 59.5,26.5C 55.5191,25.9791 51.5191,25.6458 47.5,25.5C 40.1422,25.4183 32.8088,25.7516 25.5,26.5C 23.8008,26.6602 22.1341,26.4935 20.5,26C 22.1066,24.951 22.7733,23.451 22.5,21.5C 24.2393,18.7573 26.5726,16.7573 29.5,15.5C 32.9555,14.4045 36.4555,13.4045 40,12.5C 42.4621,13.1595 44.9621,13.4928 47.5,13.5 Z"/></g>
<g><path style="opacity:1" fill="#ce7d7b" d="M 39.5,17.5 C 40.1712,18.8471 40.1712,20.0138 39.5,21C 37.1667,21.6667 34.8333,21.6667 32.5,21C 34.8418,19.6081 34.8418,18.7748 32.5,18.5C 32.811,17.5222 33.4777,16.8555 34.5,16.5C 36.3039,16.9857 37.9706,17.319 39.5,17.5 Z"/></g>
<g><path style="opacity:1" fill="#c55d61" d="M 32.5,18.5 C 34.8418,18.7748 34.8418,19.6081 32.5,21C 34.8333,21.6667 37.1667,21.6667 39.5,21C 40.1712,20.0138 40.1712,18.8471 39.5,17.5C 41.8257,16.8489 44.1591,16.1822 46.5,15.5C 47.5,15.8333 48.5,16.1667 49.5,16.5C 47.9137,18.1727 47.2471,20.1727 47.5,22.5C 41.4632,22.8293 35.4632,22.4959 29.5,21.5C 29.8457,20.3044 30.3457,20.3044 31,21.5C 31.5133,20.4734 32.0133,19.4734 32.5,18.5 Z"/></g>
<g><path style="opacity:1" fill="#af5b62" d="M 22.5,21.5 C 22.7733,23.451 22.1066,24.951 20.5,26C 22.1341,26.4935 23.8008,26.6602 25.5,26.5C 23.7354,27.4614 21.7354,27.7947 19.5,27.5C 19.5,26.5 19.5,25.5 19.5,24.5C 20.7281,23.6935 21.7281,22.6935 22.5,21.5 Z"/></g>
<g><path style="opacity:1" fill="#ae5665" d="M 59.5,23.5 C 60.3909,24.2613 61.0576,25.2613 61.5,26.5C 56.6314,27.6366 51.9647,27.3033 47.5,25.5C 51.5191,25.6458 55.5191,25.9791 59.5,26.5C 59.5,25.5 59.5,24.5 59.5,23.5 Z"/></g>
<g><path style="opacity:1" fill="#398da6" d="M 47.5,27.5 C 54.1573,28.4991 60.824,29.4991 67.5,30.5C 68.7298,32.2972 69.3964,34.2972 69.5,36.5C 63.2564,37.4578 56.923,37.7912 50.5,37.5C 50.3573,35.7376 50.6906,34.0709 51.5,32.5C 51.0431,31.7025 50.3764,31.3691 49.5,31.5C 43.0738,30.88 37.0738,31.5467 31.5,33.5C 36.4068,35.289 41.7401,36.1223 47.5,36C 46.5842,36.2784 45.9175,36.7784 45.5,37.5C 35.307,36.7995 25.1403,37.1328 15,38.5C 12.4713,34.7764 13.3046,32.2764 17.5,31C 27.6394,29.8026 37.6394,28.6359 47.5,27.5 Z"/></g>
<g><path style="opacity:1" fill="#99b78e" d="M 49.5,31.5 C 43.9262,33.4533 37.9262,34.12 31.5,33.5C 37.0738,31.5467 43.0738,30.88 49.5,31.5 Z"/></g>
<g><path style="opacity:1" fill="#478a8d" d="M 49.5,31.5 C 50.3764,31.3691 51.0431,31.7025 51.5,32.5C 50.6906,34.0709 50.3573,35.7376 50.5,37.5C 48.9504,38.7199 47.2837,38.7199 45.5,37.5C 45.9175,36.7784 46.5842,36.2784 47.5,36C 41.7401,36.1223 36.4068,35.289 31.5,33.5C 37.9262,34.12 43.9262,33.4533 49.5,31.5 Z"/></g>
<g><path style="opacity:1" fill="#3e7080" d="M 47.5,27.5 C 37.6394,28.6359 27.6394,29.8026 17.5,31C 13.3046,32.2764 12.4713,34.7764 15,38.5C 25.1403,37.1328 35.307,36.7995 45.5,37.5C 47.2837,38.7199 48.9504,38.7199 50.5,37.5C 56.923,37.7912 63.2564,37.4578 69.5,36.5C 70.209,37.404 71.209,37.7373 72.5,37.5C 69.9796,38.9182 67.3129,39.9182 64.5,40.5C 64.1667,40.5 63.8333,40.5 63.5,40.5C 61.1667,40.5 58.8333,40.5 56.5,40.5C 55.1667,40.5 53.8333,40.5 52.5,40.5C 51.8333,40.5 51.1667,40.5 50.5,40.5C 42.1604,39.7296 33.6604,39.0629 25,38.5C 19.6617,38.9799 14.495,39.6465 9.5,40.5C 9.5,43.1667 9.5,45.8333 9.5,48.5C 9.5,48.8333 9.5,49.1667 9.5,49.5C 10.8714,50.7868 12.7047,51.4535 15,51.5C 31.2781,51.699 47.4447,51.3657 63.5,50.5C 67.5282,51.6203 71.5282,51.6203 75.5,50.5C 75.5,51.5 75.5,52.5 75.5,53.5C 72.1667,53.5 68.8333,53.5 65.5,53.5C 48.1667,53.5 30.8333,53.5 13.5,53.5C 10.8333,53.5 8.16667,53.5 5.5,53.5C 5.33418,48.8215 5.50085,44.1548 6,39.5C 7.44425,37.8446 9.27759,37.178 11.5,37.5C 11.9439,31.2794 15.2773,28.2794 21.5,28.5C 30.1423,27.7013 38.8089,27.368 47.5,27.5 Z"/></g>
<g><path style="opacity:1" fill="#596573" d="M 72.5,37.5 C 73.4584,37.9528 74.2917,38.6195 75,39.5C 75.4986,43.1516 75.6653,46.8183 75.5,50.5C 71.5282,51.6203 67.5282,51.6203 63.5,50.5C 63.5,49.8333 63.5,49.1667 63.5,48.5C 63.8333,48.5 64.1667,48.5 64.5,48.5C 66.9664,49.6341 69.633,49.8007 72.5,49C 74.3959,47.1917 74.8959,45.025 74,42.5C 73.3292,41.7476 72.4959,41.4142 71.5,41.5C 70.791,40.596 69.791,40.2627 68.5,40.5C 67.8333,40.5 67.1667,40.5 66.5,40.5C 65.8333,40.5 65.1667,40.5 64.5,40.5C 67.3129,39.9182 69.9796,38.9182 72.5,37.5 Z"/></g>
<g><path style="opacity:1" fill="#727f8a" d="M 50.5,40.5 C 49.1667,40.5 47.8333,40.5 46.5,40.5C 45.5,40.5 44.5,40.5 43.5,40.5C 42.5,40.5 41.5,40.5 40.5,40.5C 39.1667,40.5 37.8333,40.5 36.5,40.5C 35.1667,40.5 33.8333,40.5 32.5,40.5C 31.8333,40.8333 31.1667,41.1667 30.5,41.5C 29.2921,40.7659 27.9587,40.4326 26.5,40.5C 25.8333,40.5 25.1667,40.5 24.5,40.5C 23.0413,40.4326 21.7079,40.7659 20.5,41.5C 19.8333,41.5 19.1667,41.5 18.5,41.5C 17.2921,40.7659 15.9587,40.4326 14.5,40.5C 13.8333,40.5 13.1667,40.5 12.5,40.5C 11.5,40.5 10.5,40.5 9.5,40.5C 14.495,39.6465 19.6617,38.9799 25,38.5C 33.6604,39.0629 42.1604,39.7296 50.5,40.5 Z"/></g>
<g><path style="opacity:1" fill="#f9f8f8" d="M 9.5,40.5 C 10.5,40.5 11.5,40.5 12.5,40.5C 12.5,43.1667 12.5,45.8333 12.5,48.5C 11.5,48.5 10.5,48.5 9.5,48.5C 9.5,45.8333 9.5,43.1667 9.5,40.5 Z"/></g>
<g><path style="opacity:1" fill="#f9efea" d="M 24.5,40.5 C 25.0356,43.6981 24.369,46.3647 22.5,48.5C 22.1667,48.5 21.8333,48.5 21.5,48.5C 20.6314,46.283 20.298,43.9496 20.5,41.5C 21.7079,40.7659 23.0413,40.4326 24.5,40.5 Z"/></g>
<g><path style="opacity:1" fill="#9c7276" d="M 24.5,40.5 C 25.1667,40.5 25.8333,40.5 26.5,40.5C 26.1936,43.3854 26.5269,46.0521 27.5,48.5C 25.8333,49.8333 24.1667,49.8333 22.5,48.5C 24.369,46.3647 25.0356,43.6981 24.5,40.5 Z"/></g>
<g><path style="opacity:1" fill="#fbf2eb" d="M 26.5,40.5 C 27.9587,40.4326 29.2921,40.7659 30.5,41.5C 30.8342,44.188 30.1675,46.5214 28.5,48.5C 28.1667,48.5 27.8333,48.5 27.5,48.5C 26.5269,46.0521 26.1936,43.3854 26.5,40.5 Z"/></g>
<g><path style="opacity:1" fill="#fbefeb" d="M 68.5,40.5 C 69.791,40.2627 70.791,40.596 71.5,41.5C 73.1693,44.4886 72.5026,46.8219 69.5,48.5C 68.52,45.9135 68.1866,43.2469 68.5,40.5 Z"/></g>
<g><path style="opacity:1" fill="#8bb9ce" d="M 17.5,28.5 C 18.8333,28.5 20.1667,28.5 21.5,28.5C 15.2773,28.2794 11.9439,31.2794 11.5,37.5C 9.27759,37.178 7.44425,37.8446 6,39.5C 5.50085,44.1548 5.33418,48.8215 5.5,53.5C 8.16667,53.5 10.8333,53.5 13.5,53.5C 13.5,54.1667 13.5,54.8333 13.5,55.5C 10.2234,55.7839 7.05675,55.4505 4,54.5C 3.33333,49.8333 3.33333,45.1667 4,40.5C 5.09705,37.7352 7.09705,36.0686 10,35.5C 10.4013,30.9324 12.9013,28.599 17.5,28.5 Z"/></g>
<g><path style="opacity:1" fill="#a77073" d="M 56.5,40.5 C 58.8333,40.5 61.1667,40.5 63.5,40.5C 62.1667,43.1667 62.1667,45.8333 63.5,48.5C 63.5,49.1667 63.5,49.8333 63.5,50.5C 60.9327,50.2785 58.5994,49.6118 56.5,48.5C 57.9778,48.762 59.3112,48.4287 60.5,47.5C 58.9019,45.3021 57.5686,42.9687 56.5,40.5 Z"/></g>
<g><path style="opacity:1" fill="#fbeeea" d="M 14.5,40.5 C 15.9587,40.4326 17.2921,40.7659 18.5,41.5C 19.0934,44.5959 18.0934,46.9292 15.5,48.5C 14.52,45.9135 14.1866,43.2469 14.5,40.5 Z"/></g>
<g><path style="opacity:1" fill="#fcf0ed" d="M 52.5,40.5 C 53.8333,40.5 55.1667,40.5 56.5,40.5C 57.5686,42.9687 58.9019,45.3021 60.5,47.5C 59.3112,48.4287 57.9778,48.762 56.5,48.5C 55.1667,45.8333 53.8333,43.1667 52.5,40.5 Z"/></g>
<g><path style="opacity:1" fill="#fbe8e9" d="M 63.5,40.5 C 63.8333,40.5 64.1667,40.5 64.5,40.5C 65.1667,40.5 65.8333,40.5 66.5,40.5C 67.0356,43.6981 66.369,46.3647 64.5,48.5C 64.1667,48.5 63.8333,48.5 63.5,48.5C 62.1667,45.8333 62.1667,43.1667 63.5,40.5 Z"/></g>
<g><path style="opacity:1" fill="#a36f76" d="M 12.5,40.5 C 13.1667,40.5 13.8333,40.5 14.5,40.5C 14.1866,43.2469 14.52,45.9135 15.5,48.5C 18.0934,46.9292 19.0934,44.5959 18.5,41.5C 19.1667,41.5 19.8333,41.5 20.5,41.5C 20.298,43.9496 20.6314,46.283 21.5,48.5C 17.6002,49.4299 13.6002,49.7633 9.5,49.5C 9.5,49.1667 9.5,48.8333 9.5,48.5C 10.5,48.5 11.5,48.5 12.5,48.5C 12.5,45.8333 12.5,43.1667 12.5,40.5 Z"/></g>
<g><path style="opacity:1" fill="#a5747d" d="M 66.5,40.5 C 67.1667,40.5 67.8333,40.5 68.5,40.5C 68.1866,43.2469 68.52,45.9135 69.5,48.5C 72.5026,46.8219 73.1693,44.4886 71.5,41.5C 72.4959,41.4142 73.3292,41.7476 74,42.5C 74.8959,45.025 74.3959,47.1917 72.5,49C 69.633,49.8007 66.9664,49.6341 64.5,48.5C 66.369,46.3647 67.0356,43.6981 66.5,40.5 Z"/></g>
<g><path style="opacity:1" fill="#af7178" d="M 32.5,40.5 C 33.3798,43.3837 34.7132,46.0503 36.5,48.5C 38.9747,45.8866 38.9747,43.22 36.5,40.5C 37.8333,40.5 39.1667,40.5 40.5,40.5C 40.5,43.1667 40.5,45.8333 40.5,48.5C 41.5,48.5 42.5,48.5 43.5,48.5C 43.5,45.8333 43.5,43.1667 43.5,40.5C 44.5,40.5 45.5,40.5 46.5,40.5C 46.5,43.1667 46.5,45.8333 46.5,48.5C 47.8333,48.5 49.1667,48.5 50.5,48.5C 50.5,45.8333 50.5,43.1667 50.5,40.5C 51.1667,40.5 51.8333,40.5 52.5,40.5C 53.8333,43.1667 55.1667,45.8333 56.5,48.5C 55.6009,49.4715 54.4343,50.1382 53,50.5C 46.8092,49.2301 40.6425,49.2301 34.5,50.5C 32.4705,49.8283 30.4705,49.1616 28.5,48.5C 30.1675,46.5214 30.8342,44.188 30.5,41.5C 31.1667,41.1667 31.8333,40.8333 32.5,40.5 Z"/></g>
<g><path style="opacity:1" fill="#faf2f2" d="M 32.5,40.5 C 33.8333,40.5 35.1667,40.5 36.5,40.5C 38.9747,43.22 38.9747,45.8866 36.5,48.5C 34.7132,46.0503 33.3798,43.3837 32.5,40.5 Z"/></g>
<g><path style="opacity:1" fill="#f7e9e7" d="M 46.5,40.5 C 47.8333,40.5 49.1667,40.5 50.5,40.5C 50.5,43.1667 50.5,45.8333 50.5,48.5C 49.1667,48.5 47.8333,48.5 46.5,48.5C 46.5,45.8333 46.5,43.1667 46.5,40.5 Z"/></g>
<g><path style="opacity:1" fill="#fcf5eb" d="M 40.5,40.5 C 41.5,40.5 42.5,40.5 43.5,40.5C 43.5,43.1667 43.5,45.8333 43.5,48.5C 42.5,48.5 41.5,48.5 40.5,48.5C 40.5,45.8333 40.5,43.1667 40.5,40.5 Z"/></g>
<g><path style="opacity:1" fill="#484c55" d="M 21.5,48.5 C 21.8333,48.5 22.1667,48.5 22.5,48.5C 24.1667,49.8333 25.8333,49.8333 27.5,48.5C 27.8333,48.5 28.1667,48.5 28.5,48.5C 30.4705,49.1616 32.4705,49.8283 34.5,50.5C 40.6425,49.2301 46.8092,49.2301 53,50.5C 54.4343,50.1382 55.6009,49.4715 56.5,48.5C 58.5994,49.6118 60.9327,50.2785 63.5,50.5C 47.4447,51.3657 31.2781,51.699 15,51.5C 12.7047,51.4535 10.8714,50.7868 9.5,49.5C 13.6002,49.7633 17.6002,49.4299 21.5,48.5 Z"/></g>
<g><path style="opacity:1" fill="#86bdcd" d="M 67.5,30.5 C 69.7582,34.2483 72.9248,37.2483 77,39.5C 77.8037,44.7513 77.637,49.918 76.5,55C 73.5184,55.498 70.5184,55.6646 67.5,55.5C 67.1583,54.6618 66.4916,54.3284 65.5,54.5C 65.5,54.1667 65.5,53.8333 65.5,53.5C 68.8333,53.5 72.1667,53.5 75.5,53.5C 75.5,52.5 75.5,51.5 75.5,50.5C 75.6653,46.8183 75.4986,43.1516 75,39.5C 74.2917,38.6195 73.4584,37.9528 72.5,37.5C 71.209,37.7373 70.209,37.404 69.5,36.5C 69.3964,34.2972 68.7298,32.2972 67.5,30.5 Z"/></g>
<g><path style="opacity:1" fill="#58a6ac" d="M 2.5,51.5 C 2.28649,53.1439 2.61983,54.6439 3.5,56C 6.48162,56.498 9.48162,56.6646 12.5,56.5C 12.3398,58.1992 12.5065,59.8659 13,61.5C 13.4169,62.756 14.2502,63.4226 15.5,63.5C 15.5,64.5 15.5,65.5 15.5,66.5C 17.1033,66.3118 18.4366,66.8118 19.5,68C 33.1667,68.6667 46.8333,68.6667 60.5,68C 66.0084,66.1582 69.0084,62.3249 69.5,56.5C 73.0419,56.8128 76.3752,56.4794 79.5,55.5C 80.8571,54.4097 81.8571,53.0764 82.5,51.5C 82.5,61.8333 82.5,72.1667 82.5,82.5C 54.8333,82.5 27.1667,82.5 -0.5,82.5C -0.5,73.8333 -0.5,65.1667 -0.5,56.5C 1.0276,55.1979 2.0276,53.5313 2.5,51.5 Z"/></g>
<g><path style="opacity:1" fill="#bf5757" d="M 15.5,55.5 C 32.5,55.5 49.5,55.5 66.5,55.5C 66.6081,60.0213 64.6081,63.188 60.5,65C 47.1667,65.6667 33.8333,65.6667 20.5,65C 19.5842,64.7216 18.9175,64.2216 18.5,63.5C 17.5,62.8333 16.5,62.1667 15.5,61.5C 15.5,59.5 15.5,57.5 15.5,55.5 Z"/></g>
<g><path style="opacity:1" fill="#b2b9c3" d="M 13.5,53.5 C 30.8333,53.5 48.1667,53.5 65.5,53.5C 65.5,53.8333 65.5,54.1667 65.5,54.5C 48.6583,54.1702 31.9916,54.5035 15.5,55.5C 15.5,57.5 15.5,59.5 15.5,61.5C 13.7202,60.0101 13.0535,58.0101 13.5,55.5C 13.5,54.8333 13.5,54.1667 13.5,53.5 Z"/></g>
<g><path style="opacity:1" fill="#ce4e54" d="M 18.5,63.5 C 21.519,62.2555 24.6856,62.2555 28,63.5C 29.7084,61.2833 31.7084,60.6166 34,61.5C 35.2613,61.2409 36.2613,60.5742 37,59.5C 38.2555,61.8534 39.9221,62.5201 42,61.5C 47.3231,63.1773 52.8231,64.0106 58.5,64C 45.1409,64.7583 31.8075,64.5917 18.5,63.5 Z"/></g>
<g><path style="opacity:1" fill="#d7b3b6" d="M 15.5,55.5 C 31.9916,54.5035 48.6583,54.1702 65.5,54.5C 66.4916,54.3284 67.1583,54.6618 67.5,55.5C 67.9571,60.4206 65.9571,63.9206 61.5,66C 47.5,66.6667 33.5,66.6667 19.5,66C 18.0161,65.3378 16.6828,64.5045 15.5,63.5C 15.5,62.8333 15.5,62.1667 15.5,61.5C 16.5,62.1667 17.5,62.8333 18.5,63.5C 18.9175,64.2216 19.5842,64.7216 20.5,65C 33.8333,65.6667 47.1667,65.6667 60.5,65C 64.6081,63.188 66.6081,60.0213 66.5,55.5C 49.5,55.5 32.5,55.5 15.5,55.5 Z"/></g>
</svg>
