<?xml version="1.0" encoding="UTF-8"?>
<!DOCTYPE svg PUBLIC "-//W3C//DTD SVG 1.1//EN" "http://www.w3.org/Graphics/SVG/1.1/DTD/svg11.dtd">
<svg xmlns="http://www.w3.org/2000/svg" version="1.1" width="83px" height="83px" style="shape-rendering:geometricPrecision; text-rendering:geometricPrecision; image-rendering:optimizeQuality; fill-rule:evenodd; clip-rule:evenodd" xmlns:xlink="http://www.w3.org/1999/xlink">
<g><path style="opacity:1" fill="#2c5d2a" d="M -0.5,-0.5 C 27.1667,-0.5 54.8333,-0.5 82.5,-0.5C 82.5,27.1667 82.5,54.8333 82.5,82.5C 54.8333,82.5 27.1667,82.5 -0.5,82.5C -0.5,54.8333 -0.5,27.1667 -0.5,-0.5 Z"/></g>
<g><path style="opacity:1" fill="#f5faf4" d="M 48.5,19.5 C 55.4941,20.5092 58.1608,24.5092 56.5,31.5C 55.5,31.8333 54.8333,32.5 54.5,33.5C 53.6236,33.6309 52.9569,33.2975 52.5,32.5C 51.9495,30.3432 51.2829,28.3432 50.5,26.5C 50.5,25.8333 50.1667,25.5 49.5,25.5C 49.44,24.9569 49.1067,24.6236 48.5,24.5C 47.5258,26.7427 47.1924,29.076 47.5,31.5C 50.9571,31.6672 51.2904,32.6672 48.5,34.5C 47.5481,36.0453 47.2148,37.712 47.5,39.5C 46.1667,39.5 44.8333,39.5 43.5,39.5C 43.5,32.8333 43.5,26.1667 43.5,19.5C 45.1667,19.5 46.8333,19.5 48.5,19.5 Z"/></g>
<g><path style="opacity:1" fill="#cfe2cd" d="M 48.5,18.5 C 48.5,18.8333 48.5,19.1667 48.5,19.5C 46.8333,19.5 45.1667,19.5 43.5,19.5C 43.5,26.1667 43.5,32.8333 43.5,39.5C 44.8333,39.5 46.1667,39.5 47.5,39.5C 47.2148,37.712 47.5481,36.0453 48.5,34.5C 51.2904,32.6672 50.9571,31.6672 47.5,31.5C 47.1924,29.076 47.5258,26.7427 48.5,24.5C 49.1067,24.6236 49.44,24.9569 49.5,25.5C 48.3871,26.9464 48.2204,28.6131 49,30.5C 50.1882,29.4366 50.6882,28.1033 50.5,26.5C 51.2829,28.3432 51.9495,30.3432 52.5,32.5C 52.9569,33.2975 53.6236,33.6309 54.5,33.5C 52.8984,35.0739 50.8984,35.7406 48.5,35.5C 48.5,37.1667 48.5,38.8333 48.5,40.5C 46.5,40.5 44.5,40.5 42.5,40.5C 42.5,37.5 42.5,34.5 42.5,31.5C 42.5,27.1667 42.5,22.8333 42.5,18.5C 44.5,18.5 46.5,18.5 48.5,18.5 Z"/></g>
<g><path style="opacity:1" fill="#365834" d="M 34.5,19.5 C 31.796,19.6696 30.1293,21.0029 29.5,23.5C 28.2921,24.2341 26.9587,24.5674 25.5,24.5C 21.2175,21.7879 17.0509,22.1213 13,25.5C 12.5007,30.4889 12.3341,35.4889 12.5,40.5C 14.5,40.5 16.5,40.5 18.5,40.5C 18.5,39.5 18.5,38.5 18.5,37.5C 20.1667,37.5 21.8333,37.5 23.5,37.5C 23.5,38.8333 23.5,40.1667 23.5,41.5C 25.5273,41.3379 27.5273,41.5045 29.5,42C 27.2922,42.1909 25.2922,42.6909 23.5,43.5C 21.8333,44.5 20.5,45.8333 19.5,47.5C 18.8333,46.1667 18.1667,44.8333 17.5,43.5C 16.1667,43.5 14.8333,43.5 13.5,43.5C 13.5,47.1667 13.5,50.8333 13.5,54.5C 12.5,54.5 11.5,54.5 10.5,54.5C 10.5,55.5 10.5,56.5 10.5,57.5C 9.84417,56.3784 9.51084,55.0451 9.5,53.5C 10.0182,50.2987 10.6849,47.1321 11.5,44C 10.4902,37.854 10.3235,31.6873 11,25.5C 12.5737,24.0158 13.907,22.3492 15,20.5C 18.7721,21.2736 22.6055,21.9402 26.5,22.5C 28.5318,21.4493 29.8652,19.7827 30.5,17.5C 32.0255,17.9943 33.3588,18.661 34.5,19.5 Z"/></g>
<g><path style="opacity:1" fill="#e8f2e7" d="M 25.5,24.5 C 27.09,30.9885 24.7567,35.3218 18.5,37.5C 18.5,38.5 18.5,39.5 18.5,40.5C 16.5,40.5 14.5,40.5 12.5,40.5C 12.3341,35.4889 12.5007,30.4889 13,25.5C 17.0509,22.1213 21.2175,21.7879 25.5,24.5 Z"/></g>
<g><path style="opacity:1" fill="#3d5344" d="M 18.5,27.5 C 19.5862,27.62 20.2528,28.2867 20.5,29.5C 20.1667,30.1667 19.8333,30.8333 19.5,31.5C 18.5713,30.3112 18.238,28.9778 18.5,27.5 Z"/></g>
<g><path style="opacity:1" fill="#edf3ed" d="M 34.5,19.5 C 35.1667,19.5 35.8333,19.5 36.5,19.5C 36.5,20.5 36.5,21.5 36.5,22.5C 38.7882,28.3187 40.4549,34.3187 41.5,40.5C 38.2746,40.5895 35.2746,39.9228 32.5,38.5C 29.9328,39.6636 27.2662,40.3303 24.5,40.5C 25.968,34.764 27.6346,29.0973 29.5,23.5C 30.1293,21.0029 31.796,19.6696 34.5,19.5 Z"/></g>
<g><path style="opacity:1" fill="#385c36" d="M 56.5,59.5 C 58.6074,58.5318 60.9407,58.1984 63.5,58.5C 69.5267,58.8171 71.8601,56.1505 70.5,50.5C 65.5808,48.4528 65.5808,47.4528 70.5,47.5C 70.5,46.1667 70.5,44.8333 70.5,43.5C 67.7212,43.2786 65.0545,43.612 62.5,44.5C 61.8333,44.5 61.1667,44.5 60.5,44.5C 59.0813,43.5489 57.4147,43.2155 55.5,43.5C 55.6677,48.5324 54.6677,48.6991 52.5,44C 51.2068,43.51 49.8734,43.3433 48.5,43.5C 46.7078,42.6909 44.7078,42.1909 42.5,42C 44.7078,41.8091 46.7078,41.3091 48.5,40.5C 48.5,38.8333 48.5,37.1667 48.5,35.5C 50.8984,35.7406 52.8984,35.0739 54.5,33.5C 54.8333,32.5 55.5,31.8333 56.5,31.5C 56.1958,34.5792 55.1958,37.4125 53.5,40C 56.6172,40.4678 59.6172,39.9678 62.5,38.5C 65.0672,39.6636 67.7338,40.3303 70.5,40.5C 69.5165,35.046 68.0165,29.7127 66,24.5C 63.9972,22.5424 61.8305,22.2091 59.5,23.5C 56.4605,20.4622 52.7938,18.7955 48.5,18.5C 46.5,18.5 44.5,18.5 42.5,18.5C 42.5,22.8333 42.5,27.1667 42.5,31.5C 40.2834,29.3811 38.95,26.7145 38.5,23.5C 38.0431,22.7025 37.3764,22.3691 36.5,22.5C 36.5,21.5 36.5,20.5 36.5,19.5C 39.4206,19.8541 41.7539,18.8541 43.5,16.5C 47.4452,17.2685 51.4452,17.7685 55.5,18C 57.1285,21.1499 59.4618,21.9832 62.5,20.5C 61.9264,18.9411 61.2598,17.4411 60.5,16C 61.448,15.5172 62.448,15.3505 63.5,15.5C 63.0217,18.2776 64.0217,20.2776 66.5,21.5C 68.2717,25.5758 70.105,29.5758 72,33.5C 72.6436,41.074 73.4769,48.574 74.5,56C 73.152,58.5134 71.152,60.3468 68.5,61.5C 64.6827,59.8036 60.6827,59.1369 56.5,59.5 Z"/></g>
<g><path style="opacity:1" fill="#edf6ec" d="M 56.5,31.5 C 58.2671,29.2084 59.2671,26.5418 59.5,23.5C 61.8305,22.2091 63.9972,22.5424 66,24.5C 68.0165,29.7127 69.5165,35.046 70.5,40.5C 67.7338,40.3303 65.0672,39.6636 62.5,38.5C 59.6172,39.9678 56.6172,40.4678 53.5,40C 55.1958,37.4125 56.1958,34.5792 56.5,31.5 Z"/></g>
<g><path style="opacity:1" fill="#5a6f5b" d="M 61.5,31.5 C 63.4646,31.9483 63.7979,32.9483 62.5,34.5C 61.6143,33.675 61.281,32.675 61.5,31.5 Z"/></g>
<g><path style="opacity:1" fill="#364935" d="M 49.5,25.5 C 50.1667,25.5 50.5,25.8333 50.5,26.5C 50.6882,28.1033 50.1882,29.4366 49,30.5C 48.2204,28.6131 48.3871,26.9464 49.5,25.5 Z"/></g>
<g><path style="opacity:1" fill="#485f47" d="M 48.5,19.5 C 48.5,19.1667 48.5,18.8333 48.5,18.5C 52.7938,18.7955 56.4605,20.4622 59.5,23.5C 59.2671,26.5418 58.2671,29.2084 56.5,31.5C 58.1608,24.5092 55.4941,20.5092 48.5,19.5 Z"/></g>
<g><path style="opacity:1" fill="#eef6ed" d="M 48.5,43.5 C 49.8734,43.3433 51.2068,43.51 52.5,44C 54.6677,48.6991 55.6677,48.5324 55.5,43.5C 57.4147,43.2155 59.0813,43.5489 60.5,44.5C 60.5,48.8333 60.5,53.1667 60.5,57.5C 57.1216,58.1089 55.1216,56.7756 54.5,53.5C 54.44,52.9569 54.1067,52.6236 53.5,52.5C 52.5481,54.0453 52.2148,55.712 52.5,57.5C 51.1667,57.5 49.8333,57.5 48.5,57.5C 48.5,52.8333 48.5,48.1667 48.5,43.5 Z"/></g>
<g><path style="opacity:1" fill="#eefaed" d="M 17.5,43.5 C 17.5,47.1667 17.5,50.8333 17.5,54.5C 17.4431,55.609 17.1098,56.609 16.5,57.5C 14.3888,58.7416 12.3888,58.7416 10.5,57.5C 10.5,56.5 10.5,55.5 10.5,54.5C 11.5,54.5 12.5,54.5 13.5,54.5C 13.5,50.8333 13.5,47.1667 13.5,43.5C 14.8333,43.5 16.1667,43.5 17.5,43.5 Z"/></g>
<g><path style="opacity:1" fill="#a1a69f" d="M 17.5,43.5 C 18.1667,44.8333 18.8333,46.1667 19.5,47.5C 19.5,49.1667 19.5,50.8333 19.5,52.5C 18.8333,53.1667 18.1667,53.8333 17.5,54.5C 17.5,50.8333 17.5,47.1667 17.5,43.5 Z"/></g>
<g><path style="opacity:1" fill="#ebf3eb" d="M 35.5,43.5 C 36.8333,43.5 38.1667,43.5 39.5,43.5C 39.5,45.1667 39.5,46.8333 39.5,48.5C 40.5,48.5 41.5,48.5 42.5,48.5C 42.5,46.8333 42.5,45.1667 42.5,43.5C 44.1667,43.5 45.8333,43.5 47.5,43.5C 47.5,48.1667 47.5,52.8333 47.5,57.5C 45.8333,57.5 44.1667,57.5 42.5,57.5C 42.5,55.8333 42.5,54.1667 42.5,52.5C 41.5,52.5 40.5,52.5 39.5,52.5C 39.5,54.1667 39.5,55.8333 39.5,57.5C 38.1667,57.5 36.8333,57.5 35.5,57.5C 35.5,52.8333 35.5,48.1667 35.5,43.5 Z"/></g>
<g><path style="opacity:1" fill="#e9f2e9" d="M 63.5,58.5 C 61.6495,57.1336 61.3162,55.467 62.5,53.5C 63.891,54.6446 65.2243,54.6446 66.5,53.5C 61.7349,51.9799 60.4015,48.9799 62.5,44.5C 65.0545,43.612 67.7212,43.2786 70.5,43.5C 70.5,44.8333 70.5,46.1667 70.5,47.5C 65.5808,47.4528 65.5808,48.4528 70.5,50.5C 71.8601,56.1505 69.5267,58.8171 63.5,58.5 Z"/></g>
<g><path style="opacity:1" fill="#eff8ee" d="M 23.5,43.5 C 28.3143,42.5729 31.6477,44.2396 33.5,48.5C 33.5,49.8333 33.5,51.1667 33.5,52.5C 31.7968,57.1867 28.4634,59.0201 23.5,58C 21.5359,56.549 20.2026,54.7157 19.5,52.5C 19.5,50.8333 19.5,49.1667 19.5,47.5C 20.5,45.8333 21.8333,44.5 23.5,43.5 Z"/></g>
<g><path style="opacity:1" fill="#b5bfb5" d="M 35.5,43.5 C 35.5,48.1667 35.5,52.8333 35.5,57.5C 34.8333,55.8333 34.1667,54.1667 33.5,52.5C 33.5,51.1667 33.5,49.8333 33.5,48.5C 34.1667,46.8333 34.8333,45.1667 35.5,43.5 Z"/></g>
<g><path style="opacity:1" fill="#3b5a3b" d="M 24.5,47.5 C 29.1585,47.0146 30.4919,48.848 28.5,53C 23.7282,53.8104 22.3948,51.9771 24.5,47.5 Z"/></g>
<g><path style="opacity:1" fill="#425c40" d="M 36.5,22.5 C 37.3764,22.3691 38.0431,22.7025 38.5,23.5C 38.95,26.7145 40.2834,29.3811 42.5,31.5C 42.5,34.5 42.5,37.5 42.5,40.5C 44.5,40.5 46.5,40.5 48.5,40.5C 46.7078,41.3091 44.7078,41.8091 42.5,42C 44.7078,42.1909 46.7078,42.6909 48.5,43.5C 48.5,48.1667 48.5,52.8333 48.5,57.5C 49.9187,58.4511 51.5853,58.7845 53.5,58.5C 53.2155,56.5853 53.5489,54.9187 54.5,53.5C 55.1216,56.7756 57.1216,58.1089 60.5,57.5C 60.5,53.1667 60.5,48.8333 60.5,44.5C 61.1667,44.5 61.8333,44.5 62.5,44.5C 60.4015,48.9799 61.7349,51.9799 66.5,53.5C 65.2243,54.6446 63.891,54.6446 62.5,53.5C 61.3162,55.467 61.6495,57.1336 63.5,58.5C 60.9407,58.1984 58.6074,58.5318 56.5,59.5C 53.091,59.2493 49.7577,59.5827 46.5,60.5C 44.4355,58.7386 42.2689,58.4053 40,59.5C 37.3333,58.8333 34.6667,58.1667 32,57.5C 30.0045,59.0504 27.8378,60.3838 25.5,61.5C 24.354,60.8551 23.354,60.0217 22.5,59C 21.2161,58.3162 20.0495,58.4829 19,59.5C 18.5831,58.244 17.7498,57.5774 16.5,57.5C 17.1098,56.609 17.4431,55.609 17.5,54.5C 18.1667,53.8333 18.8333,53.1667 19.5,52.5C 20.2026,54.7157 21.5359,56.549 23.5,58C 28.4634,59.0201 31.7968,57.1867 33.5,52.5C 34.1667,54.1667 34.8333,55.8333 35.5,57.5C 36.8333,57.5 38.1667,57.5 39.5,57.5C 39.5,55.8333 39.5,54.1667 39.5,52.5C 40.5,52.5 41.5,52.5 42.5,52.5C 42.5,54.1667 42.5,55.8333 42.5,57.5C 44.1667,57.5 45.8333,57.5 47.5,57.5C 47.5,52.8333 47.5,48.1667 47.5,43.5C 45.8333,43.5 44.1667,43.5 42.5,43.5C 42.5,45.1667 42.5,46.8333 42.5,48.5C 41.5,48.5 40.5,48.5 39.5,48.5C 39.5,46.8333 39.5,45.1667 39.5,43.5C 38.1667,43.5 36.8333,43.5 35.5,43.5C 34.8333,45.1667 34.1667,46.8333 33.5,48.5C 31.6477,44.2396 28.3143,42.5729 23.5,43.5C 25.2922,42.6909 27.2922,42.1909 29.5,42C 27.5273,41.5045 25.5273,41.3379 23.5,41.5C 23.5,40.1667 23.5,38.8333 23.5,37.5C 21.8333,37.5 20.1667,37.5 18.5,37.5C 24.7567,35.3218 27.09,30.9885 25.5,24.5C 26.9587,24.5674 28.2921,24.2341 29.5,23.5C 27.6346,29.0973 25.968,34.764 24.5,40.5C 27.2662,40.3303 29.9328,39.6636 32.5,38.5C 35.2746,39.9228 38.2746,40.5895 41.5,40.5C 40.4549,34.3187 38.7882,28.3187 36.5,22.5 Z"/></g>
<g><path style="opacity:1" fill="#7f967c" d="M 54.5,53.5 C 53.5489,54.9187 53.2155,56.5853 53.5,58.5C 51.5853,58.7845 49.9187,58.4511 48.5,57.5C 49.8333,57.5 51.1667,57.5 52.5,57.5C 52.2148,55.712 52.5481,54.0453 53.5,52.5C 54.1067,52.6236 54.44,52.9569 54.5,53.5 Z"/></g>
</svg>
