<?xml version="1.0" encoding="UTF-8"?>
<!DOCTYPE svg PUBLIC "-//W3C//DTD SVG 1.1//EN" "http://www.w3.org/Graphics/SVG/1.1/DTD/svg11.dtd">
<svg xmlns="http://www.w3.org/2000/svg" version="1.1" width="1080px" height="1080px" style="shape-rendering:geometricPrecision; text-rendering:geometricPrecision; image-rendering:optimizeQuality; fill-rule:evenodd; clip-rule:evenodd" xmlns:xlink="http://www.w3.org/1999/xlink">
<g><path style="opacity:1" fill="#fefefe" d="M -0.5,-0.5 C 359.5,-0.5 719.5,-0.5 1079.5,-0.5C 1079.5,359.5 1079.5,719.5 1079.5,1079.5C 719.5,1079.5 359.5,1079.5 -0.5,1079.5C -0.5,719.5 -0.5,359.5 -0.5,-0.5 Z"/></g>
<g><path style="opacity:1" fill="#131312" d="M 549.5,155.5 C 548.506,164.652 548.173,173.985 548.5,183.5C 550.167,183.5 551.833,183.5 553.5,183.5C 563.791,184.762 574.124,185.429 584.5,185.5C 584.333,161.831 584.5,138.164 585,114.5C 590.922,105.566 597.256,105.233 604,113.5C 604.167,125.847 604.667,138.18 605.5,150.5C 629.158,154.833 651.158,163.333 671.5,176C 674.572,178.951 677.739,181.784 681,184.5C 681.464,185.094 681.631,185.761 681.5,186.5C 679.735,187.461 677.735,187.795 675.5,187.5C 667.811,187.387 660.145,186.887 652.5,186C 638.963,176.314 623.963,169.814 607.5,166.5C 606.791,165.596 605.791,165.263 604.5,165.5C 604.175,173.019 604.508,180.352 605.5,187.5C 644.18,189.584 682.18,195.751 719.5,206C 752.61,218.213 782.61,235.546 809.5,258C 858.788,307.054 892.788,365.221 911.5,432.5C 905.927,432.227 900.594,433.227 895.5,435.5C 876.938,371.519 843.938,316.352 796.5,270C 758.741,235.723 714.408,215.056 663.5,208C 603.651,201.319 543.651,196.319 483.5,193C 450.793,190.851 418.46,186.185 386.5,179C 376.81,176.553 367.977,172.386 360,166.5C 354.495,159.027 355.662,152.86 363.5,148C 378.795,141.407 394.795,137.74 411.5,137C 429.153,135.974 446.819,135.474 464.5,135.5C 464.5,140.167 464.5,144.833 464.5,149.5C 441.018,148.843 417.684,150.343 394.5,154C 384.388,156.63 384.055,159.963 393.5,164C 419.543,169.714 445.877,173.547 472.5,175.5C 472.023,154.408 472.523,133.408 474,112.5C 479.667,105.833 485.333,105.833 491,112.5C 492.435,120.389 492.935,128.389 492.5,136.5C 501.823,137.068 511.156,137.401 520.5,137.5C 520.5,142.5 520.5,147.5 520.5,152.5C 511.219,151.173 501.885,150.507 492.5,150.5C 492.5,159.5 492.5,168.5 492.5,177.5C 503.101,179.1 513.767,180.1 524.5,180.5C 525.919,181.451 527.585,181.784 529.5,181.5C 529.5,149.167 529.5,116.833 529.5,84.5C 532.365,78.7316 537.032,76.8983 543.5,79C 545,80.5 546.5,82 548,83.5C 548.5,102.83 548.667,122.164 548.5,141.5C 557.854,142.336 567.187,143.336 576.5,144.5C 576.5,149.5 576.5,154.5 576.5,159.5C 567.514,158.085 558.514,156.752 549.5,155.5 Z"/></g>
<g><path style="opacity:1" fill="#41413f" d="M 529.5,84.5 C 529.5,116.833 529.5,149.167 529.5,181.5C 527.585,181.784 525.919,181.451 524.5,180.5C 525.833,180.5 527.167,180.5 528.5,180.5C 528.168,148.329 528.502,116.329 529.5,84.5 Z"/></g>
<g><path style="opacity:1" fill="#cbcbc9" d="M 549.5,155.5 C 549.5,164.5 549.5,173.5 549.5,182.5C 551.099,182.232 552.432,182.566 553.5,183.5C 551.833,183.5 550.167,183.5 548.5,183.5C 548.173,173.985 548.506,164.652 549.5,155.5 Z"/></g>
<g><path style="opacity:1" fill="#aeaeac" d="M 607.5,166.5 C 605.539,173.087 604.872,180.087 605.5,187.5C 604.508,180.352 604.175,173.019 604.5,165.5C 605.791,165.263 606.791,165.596 607.5,166.5 Z"/></g>
<g><path style="opacity:1" fill="#757575" d="M 681.5,186.5 C 682.289,186.783 682.956,187.283 683.5,188C 680.633,188.801 677.966,188.634 675.5,187.5C 677.735,187.795 679.735,187.461 681.5,186.5 Z"/></g>
<g><path style="opacity:1" fill="#121210" d="M 514.5,218.5 C 517.625,219.479 520.958,219.813 524.5,219.5C 524.5,223.5 524.5,227.5 524.5,231.5C 513.821,231.484 503.154,231.15 492.5,230.5C 492.334,238.84 492.5,247.173 493,255.5C 497.823,266.495 505.99,270.329 517.5,267C 523.582,264.422 527.249,259.922 528.5,253.5C 529.496,237.342 529.83,221.009 529.5,204.5C 530.5,204.5 531.5,204.5 532.5,204.5C 537.805,205.194 543.138,205.528 548.5,205.5C 548.5,210.5 548.5,215.5 548.5,220.5C 558.833,220.5 569.167,220.5 579.5,220.5C 579.5,224.5 579.5,228.5 579.5,232.5C 569.167,232.5 558.833,232.5 548.5,232.5C 548.175,240.352 548.508,248.018 549.5,255.5C 555.318,268.562 564.652,271.728 577.5,265C 581.502,262.161 583.835,258.327 584.5,253.5C 585.167,238.5 585.833,223.5 586.5,208.5C 592.484,209.074 598.484,209.407 604.5,209.5C 604.5,212.5 604.5,215.5 604.5,218.5C 619.858,217.851 635.025,215.851 650,212.5C 659.204,213.38 668.37,214.546 677.5,216C 668.595,220.524 659.262,223.857 649.5,226C 634.613,228.755 619.613,230.589 604.5,231.5C 604.667,256.502 604.5,281.502 604,306.5C 603.249,320.097 598.582,332.097 590,342.5C 583,348.833 576,355.167 569,361.5C 560.785,370.6 555.785,381.267 554,393.5C 553.213,409.213 553.713,424.879 555.5,440.5C 544.167,440.5 532.833,440.5 521.5,440.5C 524.505,424.236 525.005,407.902 523,391.5C 521.434,381.372 517.434,372.372 511,364.5C 501.643,356.142 492.643,347.476 484,338.5C 478.908,330.895 475.575,322.562 474,313.5C 472.538,275.868 472.038,238.201 472.5,200.5C 479.148,201.139 485.814,201.473 492.5,201.5C 492.5,206.5 492.5,211.5 492.5,216.5C 499.763,217.824 507.097,218.491 514.5,218.5 Z"/></g>
<g><path style="opacity:1" fill="#41413f" d="M 532.5,204.5 C 531.5,204.5 530.5,204.5 529.5,204.5C 529.83,221.009 529.496,237.342 528.5,253.5C 528.5,236.833 528.5,220.167 528.5,203.5C 530.099,203.232 531.432,203.566 532.5,204.5 Z"/></g>
<g><path style="opacity:1" fill="#494947" d="M 586.5,208.5 C 585.833,223.5 585.167,238.5 584.5,253.5C 584.167,238.152 584.501,222.819 585.5,207.5C 586.107,207.624 586.44,207.957 586.5,208.5 Z"/></g>
<g><path style="opacity:1" fill="#4f4f4e" d="M 514.5,218.5 C 518.167,218.5 521.833,218.5 525.5,218.5C 525.818,223.032 525.485,227.366 524.5,231.5C 524.5,227.5 524.5,223.5 524.5,219.5C 520.958,219.813 517.625,219.479 514.5,218.5 Z"/></g>
<g><path style="opacity:1" fill="#bebebd" d="M 579.5,232.5 C 569.681,233.494 559.681,233.827 549.5,233.5C 549.5,240.833 549.5,248.167 549.5,255.5C 548.508,248.018 548.175,240.352 548.5,232.5C 558.833,232.5 569.167,232.5 579.5,232.5 Z"/></g>
<g><path style="opacity:1" fill="#141412" d="M 375.5,198.5 C 388.912,198.114 402.245,198.948 415.5,201C 433.86,204.772 452.194,208.605 470.5,212.5C 470.5,217.167 470.5,221.833 470.5,226.5C 447.91,222.346 425.243,218.513 402.5,215C 374.786,211.929 349.452,218.262 326.5,234C 271.412,271.637 230.579,321.137 204,382.5C 192.778,395.279 182.778,408.946 174,423.5C 179.751,396.92 189.084,371.587 202,347.5C 234.064,288.103 279.564,241.936 338.5,209C 350.634,204.338 362.967,200.838 375.5,198.5 Z"/></g>
<g><path style="opacity:1" fill="#4a0f0b" d="M 483.5,291.5 C 488.823,290.834 494.323,290.501 500,290.5C 505.876,290.505 511.376,291.171 516.5,292.5C 516.167,292.5 515.833,292.5 515.5,292.5C 505.013,291.506 494.346,291.172 483.5,291.5 Z"/></g>
<g><path style="opacity:1" fill="#2a3f19" d="M 561.5,291.5 C 572.321,290.505 583.321,290.172 594.5,290.5C 594.826,298.684 594.492,306.684 593.5,314.5C 593.5,306.833 593.5,299.167 593.5,291.5C 584.833,291.5 576.167,291.5 567.5,291.5C 566.167,291.5 564.833,291.5 563.5,291.5C 562.833,291.5 562.167,291.5 561.5,291.5 Z"/></g>
<g><path style="opacity:1" fill="#fdfefc" d="M 554.5,291.5 C 554.5,299.167 554.5,306.833 554.5,314.5C 543.833,314.5 533.167,314.5 522.5,314.5C 522.5,306.833 522.5,299.167 522.5,291.5C 533.167,291.5 543.833,291.5 554.5,291.5 Z"/></g>
<g><path style="opacity:1" fill="#141412" d="M 435.5,293.5 C 437.341,298.574 438.341,304.074 438.5,310C 438.167,311.167 437.833,312.333 437.5,313.5C 410.049,326.551 385.383,343.551 363.5,364.5C 359.435,360.266 354.935,356.599 350,353.5C 351.237,350.224 353.403,347.391 356.5,345C 379.859,323.317 406.192,306.151 435.5,293.5 Z"/></g>
<g><path style="opacity:1" fill="#141412" d="M 638.5,294.5 C 677.387,310.784 710.387,335.117 737.5,367.5C 730.837,369.188 724.504,371.355 718.5,374C 695.6,348.576 668.6,329.076 637.5,315.5C 638.165,308.52 638.498,301.52 638.5,294.5 Z"/></g>
<g><path style="opacity:1" fill="#698b47" d="M 561.5,291.5 C 562.167,291.5 562.833,291.5 563.5,291.5C 562.878,294.455 563.211,297.455 564.5,300.5C 563.4,304.442 563.233,308.442 564,312.5C 564.561,313.022 565.228,313.355 566,313.5C 574.458,312.231 582.958,311.231 591.5,310.5C 592.74,304.514 592.74,298.514 591.5,292.5C 583.316,292.826 575.316,292.492 567.5,291.5C 576.167,291.5 584.833,291.5 593.5,291.5C 593.5,299.167 593.5,306.833 593.5,314.5C 582.833,314.5 572.167,314.5 561.5,314.5C 561.5,306.833 561.5,299.167 561.5,291.5 Z"/></g>
<g><path style="opacity:1" fill="#649236" d="M 563.5,291.5 C 564.833,291.5 566.167,291.5 567.5,291.5C 575.316,292.492 583.316,292.826 591.5,292.5C 592.74,298.514 592.74,304.514 591.5,310.5C 582.958,311.231 574.458,312.231 566,313.5C 565.228,313.355 564.561,313.022 564,312.5C 563.233,308.442 563.4,304.442 564.5,300.5C 563.211,297.455 562.878,294.455 563.5,291.5 Z"/></g>
<g><path style="opacity:1" fill="#7f1f1d" d="M 483.5,291.5 C 494.346,291.172 505.013,291.506 515.5,292.5C 515.833,292.5 516.167,292.5 516.5,292.5C 516.814,300.087 516.481,307.587 515.5,315C 504.839,315.5 494.172,315.667 483.5,315.5C 483.5,307.5 483.5,299.5 483.5,291.5 Z"/></g>
<g><path style="opacity:1" fill="#b31918" d="M 515.5,292.5 C 515.5,299.5 515.5,306.5 515.5,313.5C 505.167,313.5 494.833,313.5 484.5,313.5C 484.5,306.5 484.5,299.5 484.5,292.5C 494.833,292.5 505.167,292.5 515.5,292.5 Z"/></g>
<g><path style="opacity:1" fill="#5d5e5c" d="M 554.5,291.5 C 555.492,299.316 555.826,307.316 555.5,315.5C 544.321,315.828 533.321,315.495 522.5,314.5C 533.167,314.5 543.833,314.5 554.5,314.5C 554.5,306.833 554.5,299.167 554.5,291.5 Z"/></g>
<g><path style="opacity:1" fill="#060606" d="M 215.5,430.5 C 246.675,427.658 267.175,440.991 277,470.5C 285.872,507.805 280.872,543.139 262,576.5C 251.324,591.421 236.824,598.754 218.5,598.5C 199.174,599.114 182.174,593.281 167.5,581C 166.833,580.333 166.167,580.333 165.5,581C 164.349,590.422 164.182,599.922 165,609.5C 165.384,613.653 166.384,617.653 168,621.5C 170.795,625.255 172.628,629.422 173.5,634C 173.5,638.333 171.5,641.333 167.5,643C 158.099,644.552 152.266,640.718 150,631.5C 148.558,619.049 147.725,606.549 147.5,594C 149.408,559.498 151.242,524.998 153,490.5C 153.812,472.101 153.479,453.767 152,435.5C 161.064,430.849 167.398,433.516 171,443.5C 169.292,454.065 168.625,464.732 169,475.5C 174.962,464.403 181.795,453.903 189.5,444C 197.203,437.421 205.87,432.921 215.5,430.5 Z"/></g>
<g><path style="opacity:1" fill="#fdfdfd" d="M 217.5,443.5 C 229.289,441.462 239.789,444.129 249,451.5C 260.661,466.786 266.495,484.12 266.5,503.5C 266.547,526.174 261.38,547.508 251,567.5C 237.893,582.866 221.393,588.033 201.5,583C 189.751,579.973 181.418,572.973 176.5,562C 176.735,561.127 177.069,560.293 177.5,559.5C 175.815,556.411 173.481,554.077 170.5,552.5C 169.446,552.68 168.446,553.013 167.5,553.5C 163.534,516.624 173.534,484.124 197.5,456C 203.423,450.544 210.09,446.377 217.5,443.5 Z"/></g>
<g><path style="opacity:1" fill="#090909" d="M 522.5,461.5 C 535.543,461.371 541.376,467.704 540,480.5C 539.535,481.931 538.701,483.097 537.5,484C 528.791,487.555 521.958,485.388 517,477.5C 513.708,470.17 515.541,464.836 522.5,461.5 Z"/></g>
<g><path style="opacity:1" fill="#040404" d="M 573.5,468.5 C 577.273,468.263 580.94,468.763 584.5,470C 586.333,470.5 587.5,471.667 588,473.5C 587.252,492.491 586.419,511.491 585.5,530.5C 592.841,530.334 600.174,530.5 607.5,531C 611.659,535.903 611.159,540.403 606,544.5C 598.612,546.437 591.112,547.77 583.5,548.5C 583.333,570.836 583.5,593.169 584,615.5C 585.976,623.399 586.643,631.399 586,639.5C 578.311,645.985 572.978,644.318 570,634.5C 568.488,629.607 567.488,624.607 567,619.5C 566.5,596.502 566.333,573.502 566.5,550.5C 560.138,550.645 553.805,550.811 547.5,551C 541.878,545.699 542.211,540.699 548.5,536C 554.991,533.872 561.658,533.039 568.5,533.5C 569.168,516.151 570.168,498.818 571.5,481.5C 571.386,478.801 571.053,476.135 570.5,473.5C 571.092,471.577 572.092,469.911 573.5,468.5 Z"/></g>
<g><path style="opacity:1" fill="#080808" d="M 436.5,505.5 C 453.549,505.273 468.049,511.273 480,523.5C 486.228,531.732 489.061,541.065 488.5,551.5C 488.466,560.443 486.966,569.11 484,577.5C 483.5,578.667 482.667,579.5 481.5,580C 475.729,581.295 470.729,579.961 466.5,576C 474.274,559.233 474.441,542.399 467,525.5C 456.139,514.193 446.139,514.86 437,527.5C 424.071,549.764 427.571,568.93 447.5,585C 460.33,593.583 473.33,601.916 486.5,610C 496.851,616.128 498.184,623.794 490.5,633C 464.078,651.158 439.078,649.491 415.5,628C 413.295,625.46 410.795,623.293 408,621.5C 406.333,619.167 404.667,616.833 403,614.5C 401.943,610.114 403.443,606.947 407.5,605C 410.167,604.333 412.833,604.333 415.5,605C 417.491,610.98 421.157,615.646 426.5,619C 435.505,625.002 445.171,629.669 455.5,633C 460.167,633.667 464.833,633.667 469.5,633C 474.617,631.268 476.45,627.768 475,622.5C 473.542,620.04 471.709,617.873 469.5,616C 458.833,609.333 448.167,602.667 437.5,596C 414.521,579.395 407.354,557.562 416,530.5C 420.039,519.689 426.872,511.355 436.5,505.5 Z"/></g>
<g><path style="opacity:1" fill="#070707" d="M 335.5,506.5 C 351.782,507.559 364.949,514.559 375,527.5C 385.306,542.648 390.473,559.481 390.5,578C 390.435,597.858 384.935,616.025 374,632.5C 360.166,647.74 343.333,652.24 323.5,646C 309.171,639.322 300.338,628.155 297,612.5C 290.747,582.85 295.08,554.85 310,528.5C 316.256,518.4 324.756,511.066 335.5,506.5 Z"/></g>
<g><path style="opacity:1" fill="#070707" d="M 879.5,506.5 C 887.551,506.18 894.885,508.347 901.5,513C 923.454,528.745 933.787,550.245 932.5,577.5C 933.765,601.215 926.431,621.715 910.5,639C 898.179,648.001 884.512,650.667 869.5,647C 853.788,641.117 843.955,629.951 840,613.5C 832.821,581.236 838.155,551.236 856,523.5C 862.062,515.255 869.895,509.588 879.5,506.5 Z"/></g>
<g><path style="opacity:1" fill="#050505" d="M 742.5,522.5 C 741.181,529.344 741.181,536.344 742.5,543.5C 743.107,543.376 743.44,543.043 743.5,542.5C 748.144,535.894 752.311,528.894 756,521.5C 764.507,508.816 775.674,505.982 789.5,513C 803.912,519.746 812.745,530.913 816,546.5C 818.499,554.983 820.165,563.65 821,572.5C 821.667,595.833 821.667,619.167 821,642.5C 819.874,643.944 818.374,644.61 816.5,644.5C 813.298,643.901 810.298,642.734 807.5,641C 806.789,619.224 805.956,597.391 805,575.5C 804.255,559.434 800.588,544.1 794,529.5C 787.409,520.28 779.576,519.113 770.5,526C 751.52,547.092 741.853,571.925 741.5,600.5C 743.084,613.495 744.25,626.495 745,639.5C 736.032,644.521 730.365,641.855 728,631.5C 727.577,592.155 727.243,552.822 727,513.5C 731.017,507.096 736.017,506.096 742,510.5C 742.499,514.486 742.666,518.486 742.5,522.5 Z"/></g>
<g><path style="opacity:1" fill="#090909" d="M 651.5,510.5 C 673.948,510.298 690.448,519.965 701,539.5C 701.667,542.167 702.333,544.833 703,547.5C 703.667,581.833 703.667,616.167 703,650.5C 697.12,653.847 692.12,652.847 688,647.5C 687.83,641.804 687.33,636.138 686.5,630.5C 664.362,645.581 642.028,646.081 619.5,632C 608.523,623.036 606.69,612.536 614,600.5C 633.74,579.756 657.907,572.09 686.5,577.5C 688.432,564.449 687.432,551.616 683.5,539C 678.543,527.521 669.876,522.854 657.5,525C 647.612,530.227 640.445,538.06 636,548.5C 633.132,555.216 631.965,562.216 632.5,569.5C 621.941,568.086 618.108,562.086 621,551.5C 623.393,540.117 628.06,529.784 635,520.5C 639.427,515.211 644.927,511.878 651.5,510.5 Z"/></g>
<g><path style="opacity:1" fill="#0b0b0b" d="M 518.5,513.5 C 523.531,513.18 528.197,514.347 532.5,517C 534.594,518.255 535.594,520.088 535.5,522.5C 534.317,529.897 532.817,537.231 531,544.5C 530.333,572.167 530.333,599.833 531,627.5C 535.709,640.481 531.875,644.314 519.5,639C 517.623,636.749 516.123,634.249 515,631.5C 514.167,592.829 514.333,554.162 515.5,515.5C 516.739,515.058 517.739,514.391 518.5,513.5 Z"/></g>
<g><path style="opacity:1" fill="#fcfcfc" d="M 340.5,523.5 C 348.531,522.255 355.531,524.255 361.5,529.5C 367.331,536.468 371.165,544.468 373,553.5C 378.473,577.492 375.806,600.492 365,622.5C 355.797,635.682 343.631,639.516 328.5,634C 320.197,627.91 315.03,619.743 313,609.5C 307.971,586.693 310.304,564.693 320,543.5C 322.215,538.9 325.048,534.734 328.5,531C 332.093,527.711 336.093,525.211 340.5,523.5 Z"/></g>
<g><path style="opacity:1" fill="#fcfcfc" d="M 884.5,523.5 C 895.416,522.074 903.583,526.074 909,535.5C 921.6,563.795 921.6,592.128 909,620.5C 899.552,636.315 886.386,640.482 869.5,633C 861.387,625.275 856.554,615.775 855,604.5C 850.688,580.302 854.688,557.635 867,536.5C 871.392,530.071 877.225,525.738 884.5,523.5 Z"/></g>
<g><path style="opacity:1" fill="#7d7d7d" d="M 742.5,522.5 C 742.176,529.354 742.509,536.021 743.5,542.5C 743.44,543.043 743.107,543.376 742.5,543.5C 741.181,536.344 741.181,529.344 742.5,522.5 Z"/></g>
<g><path style="opacity:1" fill="#fbfbfb" d="M 655.5,588.5 C 664.235,588.124 672.902,588.624 681.5,590C 684,591.167 685.833,593 687,595.5C 688.348,605.973 684.848,614.473 676.5,621C 663.234,630.619 649.234,631.953 634.5,625C 628.023,618.394 626.856,610.894 631,602.5C 637.546,594.816 645.712,590.149 655.5,588.5 Z"/></g>
<g><path style="opacity:1" fill="#131312" d="M 787.5,668.5 C 789.861,668.674 792.194,669.007 794.5,669.5C 763.387,750.777 706.387,804.944 623.5,832C 516.018,859.433 424.518,832.933 349,752.5C 329.452,729.427 313.952,703.76 302.5,675.5C 309.468,674.503 316.468,674.17 323.5,674.5C 348.297,733.133 389.63,775.966 447.5,803C 532.451,837.486 613.118,829.486 689.5,779C 727.866,751.149 755.866,715.316 773.5,671.5C 778.536,671.698 783.203,670.698 787.5,668.5 Z"/></g>
<g><path style="opacity:1" fill="#141412" d="M 899.5,668.5 C 905.5,668.5 911.5,668.5 917.5,668.5C 889.913,774.554 829.247,855.721 735.5,912C 621.41,974.395 504.077,981.061 383.5,932C 288.599,888.267 220.599,818.433 179.5,722.5C 185.417,720.814 191.417,719.981 197.5,720C 239.937,815.105 309.27,882.438 405.5,922C 517.703,962.254 625.703,953.254 729.5,895C 816.059,842.096 872.726,766.596 899.5,668.5 Z"/></g>
</svg>
