<?xml version="1.0" standalone="no"?>
<!DOCTYPE svg PUBLIC "-//W3C//DTD SVG 20010904//EN"
 "http://www.w3.org/TR/2001/REC-SVG-20010904/DTD/svg10.dtd">
<svg version="1.0" xmlns="http://www.w3.org/2000/svg"
 width="1080.000000pt" height="1080.000000pt" viewBox="0 0 1080.000000 1080.000000"
 preserveAspectRatio="xMidYMid meet">

<g transform="translate(0.000000,1080.000000) scale(0.100000,-0.100000)"
fill="#000000" stroke="none">
<path d="M0 5400 l0 -5400 5400 0 5400 0 0 5400 0 5400 -5400 0 -5400 0 0
-5400z m5260 2202 c0 -11 -30 -52 -57 -80 -18 -18 -21 -27 -13 -48 6 -14 10
-45 10 -69 0 -49 16 -132 30 -154 7 -12 13 -13 34 -3 l26 12 -20 -28 c-19 -26
-19 -30 -5 -91 14 -57 14 -70 1 -115 -9 -28 -12 -54 -8 -58 13 -12 124 -68
136 -68 7 0 21 6 31 14 18 13 18 14 -4 49 -12 19 -29 38 -38 42 -15 5 -15 7
-3 15 18 12 33 13 26 2 -3 -5 5 -21 17 -36 l22 -28 28 22 c49 38 49 50 7 123
-38 64 -39 84 -6 71 11 -4 14 -13 10 -30 -6 -24 2 -37 45 -67 23 -16 25 -15
48 11 31 36 36 59 24 112 -10 43 -9 46 17 67 15 13 39 28 54 34 38 16 38 58
-1 101 -28 32 -32 33 -108 33 l-78 0 -5 -40 c-5 -36 -6 -37 -13 -15 -3 14 -7
42 -7 62 0 32 -4 38 -32 48 -54 18 -71 35 -62 62 l8 23 6 -25 c4 -16 23 -33
60 -52 51 -26 61 -28 136 -23 l80 5 42 -60 c24 -33 49 -60 56 -60 15 0 40 27
49 53 6 14 13 17 35 12 20 -4 33 -1 42 10 13 15 70 22 70 7 0 -8 -70 -32 -94
-32 -16 0 -156 -127 -156 -141 0 -17 57 -36 114 -38 l59 -3 -6 31 c-6 26 -4
29 7 19 8 -7 12 -17 9 -23 -3 -5 10 7 29 28 19 20 38 37 42 37 12 0 -13 -38
-54 -79 -35 -36 -47 -41 -85 -41 -35 0 -45 -4 -50 -20 -10 -32 -24 -23 -15 10
9 32 12 30 -62 45 -26 5 -36 -15 -35 -76 0 -54 -2 -58 -74 -148 -41 -50 -84
-110 -96 -132 -12 -23 -23 -35 -26 -27 -3 7 -2 -7 0 -32 7 -60 22 -82 82 -118
56 -35 52 -36 96 45 15 29 32 50 38 46 6 -3 7 -2 4 4 -12 19 16 83 39 89 12 3
34 19 48 35 14 16 32 29 39 30 127 8 203 73 148 128 -18 18 -18 19 17 35 24
12 32 13 25 4 -15 -19 -22 -128 -9 -129 107 -12 240 94 206 163 l-11 23 21
-24 c20 -23 23 -24 78 -12 73 15 100 29 104 53 2 15 8 12 31 -17 l28 -35 -25
10 c-16 6 -26 5 -28 -1 -2 -5 -32 -14 -66 -20 -73 -11 -107 -30 -128 -70 -26
-52 -18 -64 51 -70 68 -7 165 32 165 66 0 23 20 28 34 10 9 -13 22 -16 44 -13
45 6 29 -9 -17 -17 -21 -3 -48 -15 -60 -26 -20 -19 -20 -21 -5 -37 22 -21 5
-26 -30 -8 -24 12 -33 12 -62 0 -46 -19 -83 -18 -137 6 -37 17 -53 18 -93 11
-101 -20 -227 -52 -247 -63 -12 -7 -24 -12 -27 -11 -3 1 -7 -7 -7 -18 -2 -21
10 -25 97 -33 30 -3 75 -9 100 -15 25 -5 48 -6 53 -2 4 4 11 27 16 52 l8 44
13 -27 c11 -23 20 -28 49 -28 20 0 43 -5 51 -10 11 -7 7 -10 -17 -10 -29 0
-33 -3 -33 -25 0 -17 7 -29 23 -35 22 -9 22 -9 1 -9 -12 -1 -28 6 -35 15 -9
11 -23 14 -45 11 -18 -3 -59 1 -91 8 -118 29 -220 9 -258 -49 -15 -22 -16 -33
-7 -68 11 -43 5 -57 -24 -58 -24 0 -37 -49 -31 -116 4 -37 10 -71 15 -76 5 -5
75 -7 157 -6 l148 3 45 86 45 85 -41 41 c-52 51 -57 53 -109 38 -57 -17 -55
-2 2 19 25 10 45 23 45 28 0 6 3 9 6 6 3 -4 5 -9 4 -13 0 -4 30 -26 67 -51 53
-34 75 -42 98 -39 17 3 44 7 60 9 17 2 37 6 45 9 8 3 29 9 45 14 29 9 31 14
45 96 13 75 30 124 30 87 0 -7 7 -21 16 -31 15 -17 15 -20 -10 -50 -19 -23
-26 -41 -24 -63 3 -30 4 -31 48 -28 52 4 117 38 154 83 31 37 32 44 6 94 -21
41 -21 55 0 30 20 -24 69 -19 92 10 12 16 29 25 46 24 24 0 25 -1 7 -8 -45
-19 -70 -67 -48 -93 20 -23 8 -38 -26 -32 -24 5 -33 -1 -67 -41 -56 -67 -53
-77 30 -93 121 -24 176 6 176 95 0 30 4 42 11 37 11 -6 8 -40 -7 -91 -5 -18
-1 -25 17 -33 23 -10 22 -10 -4 -5 -23 5 -33 0 -49 -21 -23 -29 -29 -29 -134
2 -55 16 -69 16 -132 4 -38 -7 -82 -10 -96 -6 -34 8 -44 -15 -22 -49 9 -14 12
-25 7 -25 -13 0 -40 39 -37 54 2 6 1 8 -1 4 -3 -5 -30 -8 -62 -8 -68 0 -154
-38 -166 -73 -14 -40 -22 -98 -14 -103 5 -2 274 -4 599 -4 537 0 590 -1 590
-16 0 -15 -151 -16 -1870 -13 -1478 3 -1872 7 -1882 17 -9 9 -9 12 3 14 7 1
301 3 653 3 l639 0 13 45 c8 25 14 62 14 82 0 44 -21 59 -114 78 -61 12 -71
20 -143 105 -32 37 -34 37 -90 33 -78 -6 -117 -25 -121 -61 -4 -32 -17 -36
-25 -6 -5 19 -10 21 -44 14 -21 -4 -49 -9 -62 -11 -13 -3 -45 -16 -72 -29 -26
-14 -51 -25 -54 -25 -3 0 -26 20 -51 45 -43 45 -45 45 -112 45 -66 0 -68 -1
-86 -32 -23 -40 -56 -78 -68 -78 -5 0 -4 9 2 21 7 11 9 27 6 35 -6 16 -49 19
-77 4 -25 -14 -44 -3 -28 16 7 8 30 14 56 14 51 0 103 23 103 47 0 52 -23 89
-73 117 -45 25 -49 30 -32 36 11 4 22 3 23 -1 2 -5 10 -9 17 -9 8 0 27 -14 44
-32 25 -27 32 -30 45 -19 13 11 16 11 16 -2 0 -9 -4 -19 -10 -22 -12 -8 -13
-42 -1 -49 5 -3 41 -10 81 -16 44 -6 84 -19 102 -31 25 -18 39 -21 95 -16 81
6 89 13 75 69 -6 24 -14 58 -17 76 -6 27 -11 32 -34 32 -14 0 -36 -7 -48 -15
-20 -14 -22 -14 -25 12 -2 17 -10 27 -23 29 -11 2 -30 16 -43 31 -12 15 -27
34 -34 41 -6 9 -24 12 -44 10 -19 -2 -34 0 -34 4 0 4 18 8 40 8 34 0 47 -6 78
-39 31 -33 47 -41 88 -46 28 -4 60 -15 72 -24 20 -14 51 -97 54 -140 3 -32
148 14 148 47 0 7 -28 42 -62 76 -45 43 -76 87 -107 149 -38 75 -50 90 -86
107 -46 22 -124 27 -143 8 -18 -18 -15 3 3 23 13 14 22 15 55 7 22 -6 51 -7
66 -4 25 7 26 9 22 66 -3 64 0 71 20 40 10 -16 16 -18 38 -10 45 18 46 8 4
-37 -16 -17 -26 -33 -22 -35 4 -2 22 -33 41 -70 33 -68 53 -82 79 -56 16 16
15 4 -1 -30 -7 -15 -13 -31 -12 -37 2 -25 29 -57 63 -74 20 -10 47 -33 60 -50
31 -42 69 -43 85 -1 15 39 27 38 27 -2 0 -26 9 -42 43 -73 24 -22 55 -57 71
-78 38 -51 69 -65 161 -69 79 -3 80 -3 81 22 1 15 -9 35 -28 52 -17 15 -25 28
-18 28 27 0 50 -22 56 -55 6 -31 10 -35 38 -35 35 0 64 25 84 72 11 26 13 26
69 21 67 -7 121 -24 63 -20 -30 2 -35 -1 -33 -20 2 -19 0 -20 -27 -10 -28 10
-33 8 -70 -28 -32 -31 -40 -45 -35 -63 5 -22 5 -22 -24 -8 -37 20 -39 14 -31
-89 5 -65 3 -82 -10 -92 -8 -6 -12 -14 -9 -17 3 -4 129 -7 279 -8 l273 -1 20
24 c14 17 17 33 13 58 -7 46 -39 77 -92 90 -44 11 -44 12 -44 56 0 38 -6 52
-42 94 -25 29 -66 62 -98 78 -49 25 -66 28 -151 28 -58 0 -101 5 -110 12 -26
21 -63 24 -114 9 -38 -12 -51 -13 -57 -3 -5 8 -8 8 -8 1 0 -6 -23 -14 -51 -18
-39 -5 -57 -3 -76 9 -23 15 -24 22 -21 78 2 49 0 62 -12 63 -8 0 -22 2 -30 2
-8 1 -34 24 -57 51 l-43 50 35 -2 c31 -2 35 -5 35 -29 0 -33 10 -40 49 -32 28
6 31 10 31 43 0 40 -13 62 -45 79 -18 10 -18 12 10 13 17 1 36 2 43 2 6 -1 12
3 12 8 0 5 5 9 10 9 6 0 3 -11 -6 -25 -11 -17 -14 -35 -10 -60 6 -29 12 -36
44 -45 20 -5 45 -10 55 -10 10 0 15 -4 12 -10 -3 -5 -19 -10 -35 -10 -22 0
-33 -7 -42 -27 -8 -16 -13 -37 -13 -48 1 -11 -3 -26 -8 -33 -6 -7 -7 -15 -3
-19 3 -3 6 -1 6 5 0 7 9 3 20 -8 13 -13 33 -20 58 -20 43 0 51 5 76 43 18 29
18 29 32 8 11 -15 20 -18 37 -12 29 11 55 6 76 -13 18 -16 97 -22 116 -8 19
14 53 109 44 123 -8 12 -10 12 -18 0 -5 -8 -14 -10 -21 -6 -8 5 -11 4 -7 -2 7
-11 -34 -33 -62 -33 -21 0 -42 23 -59 63 -8 20 -18 27 -30 24 -9 -3 -30 -8
-47 -12 -27 -6 -28 -5 -15 9 8 8 27 17 42 20 22 4 35 -3 66 -36 45 -46 77 -46
88 0 4 15 12 34 18 42 9 13 9 13 -5 2 -14 -10 -23 -9 -52 8 -21 12 -66 24
-114 30 -129 14 -132 16 -131 61 0 47 -25 89 -55 90 -12 0 -35 3 -52 7 -16 3
-49 6 -72 7 -50 0 -56 12 -13 26 22 8 30 17 30 34 0 12 7 28 15 35 13 11 14 7
9 -33 l-6 -45 47 -7 c59 -9 70 0 56 52 -14 50 -50 84 -98 93 l-38 8 43 1 c35
1 45 5 49 21 9 33 20 23 27 -24 4 -24 12 -51 19 -60 11 -15 16 -12 53 23 22
22 53 43 70 46 25 6 23 2 -18 -24 -26 -17 -52 -40 -59 -52 -26 -50 19 -181 69
-200 15 -6 43 -8 63 -6 26 3 47 -2 70 -17 44 -27 159 -67 171 -59 13 7 3 100
-13 119 -6 7 -7 19 -3 26 6 10 5 11 -8 1 -18 -15 -63 3 -94 39 l-19 22 25 -17
c32 -22 56 -21 80 3 15 15 18 28 14 52 -14 80 -28 95 -86 90 -10 -1 -18 3 -18
8 0 6 6 10 14 10 26 0 27 18 5 45 -17 19 -32 25 -62 25 -41 0 -46 7 -11 13 10
2 27 7 36 12 12 5 28 -1 49 -19 49 -42 75 -43 109 -7 17 17 30 35 30 41 0 5 5
10 10 10 6 0 10 -3 10 -8z m-241 -229 c33 -19 42 -37 14 -26 -10 4 -31 15 -48
25 -39 24 -8 24 34 1z m316 -13 c4 -7 12 -7 25 0 37 20 39 9 5 -25 -19 -19
-35 -39 -35 -44 0 -5 -7 -12 -16 -15 -14 -5 -15 -4 -4 9 8 9 10 29 7 50 -5 33
5 47 18 25z m845 -52 c15 -20 18 -29 8 -26 -9 4 -21 -4 -32 -23 -17 -28 -17
-31 0 -57 l17 -27 -24 20 c-13 11 -25 20 -27 21 -2 1 5 19 14 40 19 43 18 41
9 67 -11 28 9 20 35 -15z m-1594 -93 c10 -8 15 -14 9 -14 -5 0 -19 6 -29 14
-11 8 -15 15 -10 15 6 0 19 -7 30 -15z m2032 -625 c17 0 0 -10 -47 -26 -61
-20 -81 -23 -110 -16 l-36 10 46 1 c29 1 51 7 59 16 7 9 19 14 27 11 9 -4 11
-1 7 6 -5 8 -2 9 10 5 10 -4 30 -7 44 -7z m-201 -26 c-3 -3 -12 -4 -19 -1 -8
3 -5 6 6 6 11 1 17 -2 13 -5z m-3592 -323 c89 -6 90 -6 87 -31 -2 -14 -21 -63
-42 -110 -21 -47 -68 -152 -105 -235 -95 -214 -159 -346 -182 -374 l-19 -23
-38 36 c-50 46 -47 62 36 231 54 113 63 138 63 186 0 72 -14 89 -74 89 -85 0
-163 -72 -196 -181 -23 -80 -38 -247 -32 -365 4 -93 10 -121 32 -168 31 -66
81 -110 142 -125 102 -26 181 32 258 188 49 101 49 101 86 101 30 0 37 -4 40
-22 2 -13 3 -136 1 -275 l-3 -252 -66 -7 c-97 -10 -349 2 -413 20 -94 26 -175
73 -226 129 -95 105 -129 227 -121 437 15 415 181 698 440 749 50 10 207 11
332 2z m1006 -23 c9 -17 13 -194 17 -664 l5 -641 -52 -7 c-29 -4 -91 -4 -137
0 l-84 7 0 166 c0 159 -13 327 -26 340 -10 10 -162 7 -173 -4 -6 -6 -4 -37 6
-85 9 -41 16 -127 17 -190 1 -104 -1 -120 -24 -165 l-25 -50 -110 -8 c-60 -4
-150 -6 -199 -5 l-90 3 46 55 c107 132 109 140 118 485 6 225 10 291 25 335
20 65 59 145 103 214 18 28 32 56 32 62 0 13 -54 23 -128 22 -24 0 -48 4 -53
9 -6 6 -9 37 -7 69 l3 59 310 5 c171 3 333 6 362 8 45 2 54 -1 64 -20z m993 0
c-4 -13 -9 -81 -10 -153 -1 -71 -2 -137 -3 -146 0 -9 -32 -61 -71 -115 -76
-107 -83 -133 -54 -202 14 -35 181 -600 192 -651 9 -42 -19 -51 -148 -51 -78
0 -121 4 -132 13 -21 16 -36 68 -99 335 -57 237 -59 240 -108 205 l-24 -16 4
-266 4 -266 -44 -3 c-28 -2 -47 1 -52 10 -11 17 -11 1289 0 1306 5 8 23 12 47
10 l39 -3 6 -70 c4 -38 7 -163 8 -277 1 -231 3 -237 60 -173 81 92 98 197 62
369 -12 56 -17 104 -13 108 10 10 258 55 311 57 30 1 33 -1 25 -21z m2910 -30
c3 -29 8 -85 11 -125 l5 -72 -37 -26 c-21 -14 -43 -25 -49 -25 -6 0 -18 -8
-26 -17 -13 -15 -17 -68 -22 -303 -10 -416 -28 -540 -99 -675 -63 -120 -211
-236 -356 -279 -54 -16 -251 -23 -284 -10 -13 5 -13 11 0 52 8 26 27 96 43
156 16 59 32 111 35 114 3 3 29 -7 58 -21 106 -54 219 -22 269 77 l15 29 -125
121 c-127 123 -186 199 -224 283 -56 130 -78 301 -55 446 7 49 10 90 5 93 -4
3 -30 8 -58 11 -61 7 -67 22 -54 122 l9 66 85 7 c181 13 430 16 430 4 0 -6
-24 -43 -54 -83 -30 -39 -64 -98 -76 -130 -59 -157 -34 -410 59 -608 44 -91
95 -165 115 -165 20 0 26 116 26 483 0 348 1 357 59 415 62 61 173 110 258
111 31 1 32 0 37 -51z m963 -393 c48 -669 58 -854 44 -868 -6 -6 -62 -13 -136
-15 -99 -4 -126 -2 -130 9 -3 8 -9 82 -15 164 -49 788 -60 944 -65 958 -17 42
-60 27 -106 -35 -83 -115 -98 -329 -41 -581 48 -211 57 -293 43 -378 -6 -39
-18 -84 -26 -99 -14 -28 -16 -28 -137 -35 -68 -4 -153 -5 -190 -3 l-66 3 57
86 c37 54 60 101 65 127 17 111 18 197 1 352 -23 220 -8 303 86 486 27 53 48
98 46 100 -2 2 -45 7 -95 10 -100 8 -102 9 -102 84 0 67 -11 64 312 71 161 3
322 5 358 5 l65 -1 32 -440z m-4467 415 c5 -8 9 -295 10 -652 0 -603 0 -639
-17 -646 -10 -4 -64 -7 -121 -7 -80 0 -105 3 -112 15 -6 9 -10 248 -10 596 0
499 -2 588 -16 633 -22 76 -14 81 149 78 82 -2 110 -6 117 -17z m1535 11 c6
-11 -145 -393 -239 -601 -35 -80 -71 -146 -79 -148 -25 -5 -77 47 -77 78 0 16
28 93 61 172 66 154 76 206 45 252 -12 20 -25 26 -52 26 -143 0 -224 -160
-224 -440 0 -216 52 -338 162 -384 48 -21 84 -20 133 3 59 26 96 75 140 184
39 94 41 97 71 97 17 0 36 -6 42 -12 5 -8 11 -121 13 -273 l4 -260 -40 -7
c-22 -4 -101 -7 -175 -7 -345 -2 -531 119 -586 378 -19 92 -18 346 2 452 29
157 108 319 193 397 42 39 115 79 168 91 51 12 430 13 438 2z m902 -76 c2 -44
12 -240 24 -435 11 -195 21 -454 22 -575 l2 -220 -124 -3 c-68 -1 -128 1 -133
6 -5 5 -15 116 -23 248 -17 279 -12 269 -115 259 -36 -4 -69 -11 -75 -16 -6
-6 -1 -59 14 -149 27 -159 25 -227 -11 -298 l-23 -47 -187 -3 c-123 -2 -188 1
-188 7 0 6 13 25 29 43 100 116 115 183 105 494 -6 204 -5 240 11 305 22 92
42 137 94 224 28 45 38 72 32 78 -6 6 -47 10 -91 9 -78 -1 -81 0 -90 24 -12
30 -13 94 -2 111 8 13 196 19 557 18 l170 0 2 -80z m-2397 -1710 c0 -38 69
-39 84 0 7 19 66 21 66 2 0 -24 -30 -56 -66 -67 -46 -15 -95 -6 -128 25 -37
35 -34 55 9 55 24 0 35 -5 35 -15z m-901 -311 c56 -119 99 -219 97 -223 -3 -4
-17 -7 -32 -6 -20 0 -32 8 -44 30 -16 28 -21 30 -86 33 -90 5 -168 -13 -191
-42 -19 -23 -73 -31 -73 -10 0 6 40 96 90 199 71 148 88 191 80 205 -15 28
-13 30 24 30 l33 0 102 -216z m3146 -6 c56 -119 100 -220 97 -223 -3 -3 -18
-5 -34 -5 -23 0 -32 7 -46 36 l-17 36 -100 -4 c-103 -5 -157 -22 -169 -53 -5
-15 -47 -17 -61 -3 -3 3 35 90 84 192 73 152 89 193 84 217 -6 29 -5 30 27 27
32 -3 34 -6 135 -220z m2097 14 c54 -114 99 -213 100 -221 2 -10 -7 -16 -25
-17 -23 -2 -32 4 -49 32 l-20 34 -76 0 c-98 -1 -147 -12 -181 -42 -26 -25 -66
-34 -76 -18 -3 5 36 91 86 192 76 154 89 188 84 215 -6 32 -5 33 27 33 l33 -1
97 -207z m-6490 117 c-2 -45 -1 -92 2 -104 10 -40 91 -56 167 -33 l39 11 0
104 0 103 35 0 35 0 -2 -217 -3 -218 -25 1 c-14 1 -28 2 -32 3 -5 0 -8 34 -8
75 l0 73 -92 -4 c-80 -4 -97 -2 -124 15 -56 36 -77 120 -58 235 6 33 10 37 38
37 l31 0 -3 -81z m2058 -80 c0 -95 4 -158 9 -154 5 3 62 75 127 160 111 145
120 155 151 155 l33 0 -2 -217 -3 -218 -25 0 -25 0 -5 165 -5 165 -56 -70
c-30 -38 -87 -113 -127 -165 -60 -81 -76 -96 -102 -98 l-30 -2 0 220 0 220 30
0 30 0 0 -161z m1115 116 c16 -22 39 -53 51 -69 l20 -28 53 71 c50 67 55 71
93 71 l39 0 -41 -57 c-22 -32 -55 -77 -71 -100 l-31 -41 81 -110 c45 -60 81
-115 81 -121 0 -19 -58 -12 -79 10 -11 12 -41 52 -68 90 -26 38 -51 69 -55 69
-4 0 -35 -37 -69 -82 -34 -46 -64 -85 -65 -87 -5 -6 -66 -11 -75 -6 -4 3 30
57 76 120 47 62 85 116 85 120 0 3 -29 46 -65 94 -36 49 -65 92 -65 96 0 3 17
5 37 3 30 -2 43 -11 68 -43z m2025 -39 l0 -83 104 -5 c57 -3 115 -3 130 -1 26
5 26 7 26 89 l0 84 30 0 30 0 -2 -217 -3 -218 -25 0 c-25 0 -25 2 -30 97 l-5
98 -110 4 c-60 3 -117 0 -127 -5 -14 -8 -18 -26 -20 -102 -3 -91 -3 -92 -28
-92 l-25 0 -3 218 -2 217 30 0 30 0 0 -84z m-2023 -767 c72 -27 103 -97 83
-186 -16 -72 -62 -113 -128 -113 -91 0 -147 57 -146 149 0 120 88 189 191 150z
m318 -124 c7 -119 10 -135 26 -140 43 -14 14 -25 -65 -25 -81 0 -119 12 -76
23 18 5 20 14 20 106 0 99 0 101 -27 115 l-28 14 30 12 c31 13 82 27 101 29 8
1 14 -42 19 -134z m339 104 c3 -17 6 -58 6 -90 0 -58 1 -60 30 -65 38 -8 43
-44 6 -44 -22 0 -25 -5 -28 -42 -3 -43 -3 -43 -45 -46 l-42 -3 -3 43 -3 43
-67 3 c-85 4 -86 12 -18 104 93 123 152 158 164 97z m-953 -8 c16 -16 29 -37
29 -46 0 -32 -33 -85 -71 -116 -22 -17 -39 -35 -39 -41 0 -15 90 -1 110 17 40
37 54 2 20 -52 l-20 -33 -97 0 c-135 0 -141 7 -72 72 65 62 87 107 71 143 -15
33 -56 42 -98 22 -39 -19 -50 -10 -28 22 21 30 48 40 112 40 46 1 58 -3 83
-28z"/>
<path d="M6128 7003 c7 -3 16 -2 19 1 4 3 -2 6 -13 5 -11 0 -14 -3 -6 -6z"/>
<path d="M3492 6049 c-58 -29 -96 -96 -116 -208 -9 -47 -16 -110 -16 -138 l0
-53 100 0 100 0 0 210 c0 161 -3 210 -12 210 -7 0 -32 -10 -56 -21z"/>
<path d="M6333 6044 c-32 -16 -70 -66 -91 -119 -26 -70 -44 -267 -24 -278 4
-2 49 -2 101 1 l93 5 -6 126 c-11 221 -17 281 -30 281 -6 0 -25 -8 -43 -16z"/>
<path d="M3204 4101 l-41 -89 86 6 c47 2 87 6 89 7 6 5 -78 165 -86 165 -4 0
-26 -40 -48 -89z"/>
<path d="M6350 4104 c-22 -47 -40 -87 -40 -88 0 -4 165 6 169 10 7 7 -72 164
-81 164 -5 0 -27 -39 -48 -86z"/>
<path d="M8465 4133 c-15 -32 -33 -72 -40 -89 l-14 -30 87 4 c48 2 88 5 89 7
5 3 -82 165 -89 165 -3 0 -19 -26 -33 -57z"/>
<path d="M5215 3436 c-24 -37 -18 -175 9 -205 43 -47 70 -9 70 94 -1 111 -42
168 -79 111z"/>
<path d="M5843 3377 c-11 -12 -26 -32 -32 -44 -11 -22 -10 -23 24 -23 26 0 35
4 36 18 0 9 2 27 3 40 4 32 -8 35 -31 9z"/>
</g>
</svg>
