<?xml version="1.0" standalone="no"?>
<!DOCTYPE svg PUBLIC "-//W3C//DTD SVG 20010904//EN"
 "http://www.w3.org/TR/2001/REC-SVG-20010904/DTD/svg10.dtd">
<svg version="1.0" xmlns="http://www.w3.org/2000/svg"
 width="1080.000000pt" height="1080.000000pt" viewBox="0 0 1080.000000 1080.000000"
 preserveAspectRatio="xMidYMid meet">

<g transform="translate(0.000000,1080.000000) scale(0.100000,-0.100000)"
fill="#000000" stroke="none">
<path d="M0 5400 l0 -5400 5400 0 5400 0 0 5400 0 5400 -5400 0 -5400 0 0
-5400z m6201 4121 c99 -13 279 -52 279 -61 0 -5 -33 -19 -72 -33 -40 -14 -165
-57 -278 -97 -113 -39 -261 -91 -330 -115 -69 -24 -191 -66 -271 -94 l-146
-51 -109 39 c-60 21 -301 105 -534 186 -234 81 -428 151 -433 155 -10 9 152
45 268 61 122 16 362 6 485 -20 52 -11 147 -38 210 -59 l115 -39 128 43 c137
46 234 70 337 83 88 11 270 12 351 2z m1180 -440 c75 -19 181 -62 207 -83 11
-10 7 -14 -25 -26 -70 -25 -422 -148 -908 -317 -264 -91 -506 -176 -538 -187
l-59 -21 -136 21 c-367 59 -726 56 -1078 -8 l-112 -20 -498 174 c-275 95 -619
215 -766 266 -148 51 -268 96 -268 100 0 9 119 63 185 84 67 21 167 36 240 36
138 0 136 0 1055 -320 710 -248 704 -246 742 -233 145 52 1385 482 1463 509
55 18 129 38 165 43 88 13 240 5 331 -18z m742 -550 c90 -23 123 -39 196 -94
l54 -40 -34 -13 c-68 -26 -1161 -404 -1169 -404 -4 0 -55 29 -113 64 -57 36
-133 79 -168 96 -45 23 -59 34 -48 40 8 4 178 65 379 135 201 70 417 145 480
168 200 71 290 82 423 48z m-5210 -2 c32 -5 113 -30 180 -54 67 -24 286 -101
487 -170 201 -70 371 -130 377 -134 8 -4 -11 -20 -50 -41 -34 -18 -108 -62
-165 -97 -56 -35 -108 -63 -114 -63 -6 0 -211 70 -457 156 -245 85 -507 176
-581 201 -74 25 -139 49 -144 54 -13 11 39 53 114 92 57 30 101 45 175 61 39
8 122 6 178 -5z m5773 -633 c29 -7 75 -26 103 -42 57 -31 138 -111 125 -124
-5 -4 -67 -28 -139 -53 -71 -25 -307 -107 -523 -182 -217 -75 -397 -135 -402
-133 -4 2 -56 56 -114 120 l-105 116 27 10 c170 62 835 291 853 295 50 9 126
6 175 -7z m-5976 -146 c473 -165 460 -161 460 -167 0 -2 -38 -46 -84 -96 -46
-51 -95 -104 -107 -119 l-24 -27 -165 59 c-91 32 -330 116 -532 186 -206 71
-368 133 -368 139 0 22 100 106 156 132 30 13 76 28 102 33 95 17 153 2 562
-140z m6423 -567 c55 -17 148 -97 167 -143 7 -17 11 -32 9 -34 -8 -6 -1022
-356 -1024 -354 -18 22 -132 265 -127 270 11 10 760 269 807 278 48 9 103 4
168 -17z m-6865 -136 c211 -74 385 -137 387 -139 5 -5 -126 -263 -136 -266 -5
-2 -60 14 -122 37 -61 22 -177 62 -257 90 -80 27 -230 79 -335 116 -104 37
-216 76 -247 87 -32 11 -58 25 -58 32 0 20 55 91 94 121 64 49 122 66 211 61
72 -4 120 -18 463 -139z m3378 13 c355 -46 730 -143 1087 -282 l127 -49 0
-200 c0 -109 -4 -199 -8 -199 -4 0 -34 27 -67 61 -258 262 -675 488 -1045 567
-163 35 -290 45 -500 39 -582 -16 -941 -189 -1063 -513 -19 -51 -22 -79 -22
-199 0 -127 2 -144 24 -187 46 -94 130 -161 265 -210 171 -63 338 -82 861
-103 215 -8 446 -20 515 -26 506 -42 819 -152 1012 -357 153 -163 222 -353
222 -617 0 -116 -3 -138 -27 -209 -131 -375 -414 -638 -836 -776 -205 -67
-441 -95 -715 -87 -212 7 -369 27 -666 87 -261 53 -780 185 -818 209 -8 5 -17
81 -27 242 -8 129 -15 244 -15 257 0 36 32 26 68 -20 54 -71 192 -207 277
-274 208 -162 463 -285 730 -353 218 -55 483 -79 679 -61 542 47 891 244 971
547 19 68 21 224 5 285 -55 206 -241 329 -575 382 -150 23 -287 34 -635 51
-374 18 -579 38 -753 71 -470 91 -723 290 -819 644 -20 75 -23 107 -23 275 1
222 9 265 85 420 103 209 281 363 549 471 137 56 339 107 481 123 58 6 119 13
135 15 64 9 377 -6 521 -24z m3772 -644 c68 -35 132 -113 132 -162 0 -23 2
-22 -185 -88 -771 -270 -840 -292 -847 -277 -16 36 -59 274 -51 281 9 8 135
53 523 187 251 86 280 94 328 88 29 -3 74 -16 100 -29z m-7578 -79 c135 -47
306 -107 380 -133 74 -26 136 -47 137 -48 1 -1 -6 -35 -17 -76 -10 -41 -24
-108 -31 -147 -7 -40 -15 -73 -19 -73 -3 0 -181 61 -395 136 -215 75 -445 155
-512 177 -136 46 -138 48 -104 115 26 49 76 96 131 122 81 37 148 26 430 -73z
m7790 -636 c0 -41 -128 -185 -260 -293 l-44 -37 49 -43 c100 -85 197 -183 225
-227 34 -51 40 -87 13 -76 -19 7 -655 228 -855 297 -65 22 -118 44 -118 48 0
4 159 62 353 129 193 68 413 144 487 171 74 27 138 49 143 49 4 1 7 -8 7 -18z
m-8180 -87 c135 -47 345 -120 467 -162 122 -42 219 -80 215 -84 -6 -6 -210
-79 -779 -276 -89 -31 -166 -53 -170 -48 -17 17 56 125 151 223 l98 103 -95
100 c-91 94 -137 157 -152 208 -4 15 -2 22 7 22 7 0 123 -39 258 -86z m852
-790 c5 -27 17 -91 29 -142 11 -52 19 -95 16 -98 -2 -2 -172 -63 -378 -136
-313 -110 -386 -132 -445 -136 -82 -5 -135 14 -196 66 -44 39 -87 131 -66 143
7 5 123 46 258 93 275 95 629 219 705 246 28 10 54 17 60 16 5 -1 13 -25 17
-52z m6686 -120 c246 -86 474 -165 507 -176 33 -12 62 -22 64 -24 13 -11 -37
-98 -78 -137 -71 -67 -159 -90 -246 -66 -60 17 -759 261 -767 268 -4 3 2 44
12 91 11 47 24 111 30 143 6 31 16 57 21 57 5 0 211 -70 457 -156z m-6403
-742 l64 -133 -27 -10 c-15 -6 -90 -32 -167 -59 -77 -27 -232 -81 -345 -120
-266 -93 -254 -90 -335 -90 -111 0 -207 54 -261 147 -15 24 -25 45 -23 47 2 2
119 43 259 92 140 49 365 127 500 175 135 48 251 86 258 85 7 0 41 -61 77
-134z m6365 -102 c195 -68 359 -127 364 -131 12 -11 -27 -70 -75 -114 -80 -72
-180 -97 -284 -72 -33 8 -152 47 -265 86 -113 40 -277 97 -365 128 -88 30
-161 56 -163 58 -1 1 27 63 64 138 l67 136 151 -53 c83 -30 311 -109 506 -176z
m-5949 -532 c29 -35 78 -89 108 -120 l54 -58 -29 -11 c-16 -6 -137 -48 -269
-94 -132 -46 -312 -109 -400 -140 -188 -66 -267 -77 -360 -51 -33 10 -79 28
-102 42 -49 28 -125 103 -120 118 2 6 156 64 343 129 186 64 420 146 519 182
99 35 185 64 191 65 6 0 35 -28 65 -62z m5122 -39 c309 -107 597 -208 720
-251 48 -17 87 -34 87 -38 0 -18 -116 -114 -167 -138 -52 -24 -69 -27 -163
-26 -83 0 -117 5 -160 21 -30 12 -219 79 -420 148 -201 70 -367 128 -369 130
-2 2 41 54 95 115 55 61 101 115 102 121 2 5 6 9 9 9 2 0 122 -41 266 -91z
m-4417 -579 c51 -33 127 -78 169 -101 42 -23 75 -42 73 -44 -2 -1 -82 -30
-178 -63 -96 -33 -312 -109 -480 -167 -377 -132 -386 -135 -490 -135 -94 0
-166 16 -244 54 -54 26 -135 90 -126 99 5 5 245 89 575 203 72 25 236 82 365
128 129 46 237 84 239 85 2 0 46 -26 97 -59z m4134 -180 c441 -153 528 -185
532 -194 5 -14 -113 -91 -179 -116 -44 -18 -85 -24 -173 -27 l-115 -4 -260 89
c-582 202 -790 274 -793 277 -1 1 46 30 105 63 60 33 135 78 168 100 l60 39
215 -74 c118 -42 316 -110 440 -153z m-2956 -275 c152 -26 332 -44 436 -46
l65 0 -65 -24 c-136 -49 -447 -158 -485 -170 -22 -8 -259 -90 -527 -183 -268
-94 -509 -175 -535 -180 -142 -30 -289 -23 -420 22 -65 22 -173 72 -173 80 0
2 19 11 43 19 183 65 515 180 922 321 264 92 496 173 515 181 19 8 46 12 59 9
13 -3 87 -16 165 -29z m1364 -29 c491 -170 652 -227 991 -345 206 -72 376
-133 378 -134 7 -8 -96 -57 -172 -83 -65 -22 -104 -28 -207 -32 -189 -7 -172
-11 -758 193 -366 128 -675 236 -929 323 l-163 57 143 7 c149 7 347 30 459 52
95 20 88 21 258 -38z m-408 -715 c607 -212 670 -234 670 -241 0 -9 -151 -38
-255 -50 -247 -27 -528 8 -786 99 l-82 29 -118 -39 c-303 -101 -589 -120 -893
-58 -56 11 -102 22 -105 24 -5 5 -1 7 239 89 107 37 346 121 530 186 184 65
342 117 350 115 8 -1 211 -71 450 -154z"/>
</g>
</svg>
