<?xml version="1.0" standalone="no"?>
<!DOCTYPE svg PUBLIC "-//W3C//DTD SVG 20010904//EN"
 "http://www.w3.org/TR/2001/REC-SVG-20010904/DTD/svg10.dtd">
<svg version="1.0" xmlns="http://www.w3.org/2000/svg"
 width="500.000000pt" height="500.000000pt" viewBox="0 0 500.000000 500.000000"
 preserveAspectRatio="xMidYMid meet">

<g transform="translate(0.000000,500.000000) scale(0.100000,-0.100000)"
fill="#000000" stroke="none">
<path d="M2960 3757 c-3 -3 -22 -8 -44 -11 -21 -4 -42 -8 -46 -11 -7 -4 -4
-68 5 -92 2 -6 1 -14 -3 -17 -3 -4 -6 -21 -6 -38 -1 -22 -6 -32 -19 -34 -31
-4 -33 -14 -8 -33 13 -10 21 -23 17 -30 -4 -6 -2 -11 4 -11 6 0 9 -4 5 -9 -3
-5 -1 -12 4 -15 5 -3 7 -15 4 -26 -4 -16 0 -20 17 -20 17 0 21 4 17 19 -3 14
-1 18 9 14 8 -3 14 -8 15 -12 5 -40 4 -51 -8 -56 -8 -2 -11 -10 -8 -16 4 -6 0
-9 -10 -7 -10 2 -20 -3 -22 -9 -3 -7 2 -13 11 -13 9 0 16 -4 16 -10 0 -5 -6
-7 -14 -4 -8 3 -16 -2 -18 -11 -3 -19 -73 -31 -83 -14 -4 5 -11 7 -16 4 -5 -4
-9 3 -9 14 0 12 -6 21 -13 21 -20 0 -28 -11 -18 -24 5 -6 5 -20 0 -31 -7 -19
-8 -19 -8 3 -1 13 -7 22 -16 22 -11 0 -15 -11 -15 -40 0 -22 5 -40 10 -40 14
0 13 -37 -2 -46 -7 -4 -8 -3 -4 5 4 7 -2 15 -16 20 -13 6 -17 10 -10 10 14 1
17 41 2 41 -5 0 -17 -17 -26 -37 -10 -20 -20 -31 -22 -25 -2 7 -14 10 -30 6
l-27 -5 28 16 c33 19 35 35 5 35 -32 0 -52 -15 -43 -31 6 -9 3 -11 -10 -6 -9
4 -23 2 -31 -4 -10 -8 -14 -3 -20 25 -3 20 -9 36 -13 36 -15 0 -21 -13 -11
-24 6 -8 2 -16 -11 -24 -17 -11 -19 -9 -19 13 0 14 -5 25 -10 25 -14 0 -25
-30 -14 -39 15 -11 15 -31 -1 -31 -8 0 -15 -6 -15 -14 0 -32 31 -27 43 7 3 9
14 16 24 16 17 -1 17 -2 1 -6 -17 -4 -26 -33 -10 -33 4 0 7 -15 7 -34 0 -23
-4 -32 -13 -29 -7 3 -19 0 -27 -7 -13 -11 -14 -10 -9 4 4 11 1 16 -11 16 -14
0 -15 3 -6 14 9 11 9 16 0 22 -7 4 -18 -1 -26 -11 -18 -25 -16 -35 5 -35 14 0
15 -2 2 -10 -9 -6 -17 -5 -21 2 -4 6 -11 8 -17 4 -6 -3 -14 -1 -17 4 -5 8 -14
5 -27 -7 -20 -18 -20 -17 -14 5 6 17 3 22 -9 22 -11 0 -15 -5 -12 -14 4 -10 1
-13 -8 -10 -8 3 -11 12 -8 20 3 9 -1 14 -12 14 -17 0 -17 -4 -1 -55 5 -15 4
-15 -5 3 -7 12 -16 22 -21 22 -14 0 -9 22 10 36 14 10 15 15 5 25 -15 15 -17
39 -4 39 5 0 8 -8 7 -17 0 -10 6 -18 14 -18 9 0 15 9 14 23 0 12 3 22 8 22 4
0 8 7 8 15 0 17 -9 19 -44 5 -16 -6 -27 -6 -31 0 -4 6 -1 10 5 10 7 0 9 8 5
20 -4 11 -2 20 4 20 6 0 11 5 11 11 0 11 -41 2 -50 -11 -3 -3 -13 -10 -24 -13
-10 -4 -16 -13 -12 -22 3 -8 1 -17 -5 -20 -5 -4 -7 -10 -4 -15 3 -4 -4 -10
-15 -13 -17 -4 -18 -3 -8 16 14 24 19 77 9 77 -4 0 -12 -5 -18 -11 -8 -8 -13
-8 -17 0 -5 7 -16 5 -34 -6 -23 -15 -25 -15 -14 -2 7 9 10 23 7 31 -3 8 1 20
8 27 12 9 15 8 13 -5 0 -9 5 -19 11 -21 9 -3 12 4 11 21 -3 29 -25 34 -58 14
-17 -11 -22 -10 -30 2 -11 18 -13 47 -2 36 4 -4 7 -13 7 -19 0 -15 11 -14 53
4 35 15 40 24 17 33 -8 3 -15 15 -15 26 0 12 -5 30 -10 41 -7 13 -7 19 0 19 5
0 10 -4 10 -10 0 -20 17 -9 43 27 18 25 27 32 27 20 0 -28 17 -19 22 12 4 28
3 28 -25 19 -16 -6 -31 -17 -34 -25 -3 -8 -12 -12 -19 -9 -38 15 -133 -65
-155 -129 -18 -54 -18 -197 -1 -203 10 -3 6 -12 -13 -32 -44 -46 -48 -185 -7
-239 39 -52 69 -80 95 -86 15 -4 30 -11 33 -16 3 -5 14 -9 25 -9 10 0 19 -4
19 -10 0 -5 9 -10 20 -10 12 0 31 -7 45 -16 13 -8 29 -14 37 -13 7 1 20 -1 28
-4 44 -19 143 -46 151 -41 5 3 9 1 9 -5 0 -11 354 -8 410 4 19 4 42 9 50 10 8
2 16 4 18 5 1 2 6 3 11 4 5 0 13 4 17 9 4 4 16 7 26 7 34 0 147 61 173 94 14
17 30 37 36 44 15 19 20 129 8 176 -6 22 -18 46 -27 53 -16 12 -16 14 0 26 16
13 38 66 52 130 4 17 2 35 -5 43 -8 10 -9 18 -2 25 24 24 -68 155 -127 179
-17 7 -31 20 -31 29 -3 33 3 117 11 158 5 28 3 48 -4 58 -6 9 -14 14 -16 12z
m-55 -55 c-3 -3 -11 0 -18 7 -9 10 -8 11 6 5 10 -3 15 -9 12 -12z m-6 -39 c0
-25 -1 -25 -8 -8 -5 11 -7 23 -4 28 8 14 13 7 12 -20z m-8 -66 c-10 -9 -11 -8
-5 6 3 10 9 15 12 12 3 -3 0 -11 -7 -18z m18 -59 c1 -5 -3 -8 -9 -8 -5 0 -10
12 -9 28 0 24 1 25 9 7 5 -11 9 -23 9 -27z m-3 -35 c-2 -9 -8 -19 -15 -21 -10
-3 -10 0 -2 17 14 25 20 27 17 4z m70 -69 c-3 -8 -1 -14 5 -14 6 0 4 -7 -5
-15 -21 -21 -23 -19 -21 18 3 40 3 39 16 32 6 -4 8 -13 5 -21z m-946 -4 c8
-16 8 -18 -4 -14 -17 6 -30 34 -16 34 5 0 14 -9 20 -20z m1090 -160 c0 -5 -2
-10 -4 -10 -3 0 -8 5 -11 10 -3 6 -1 10 4 10 6 0 11 -4 11 -10z m-1136 -15
c-4 -8 -8 -15 -10 -15 -2 0 -4 7 -4 15 0 8 4 15 10 15 5 0 7 -7 4 -15z m816 0
c0 -8 -2 -15 -4 -15 -2 0 -6 7 -10 15 -3 8 -1 15 4 15 6 0 10 -7 10 -15z m50
-6 c0 -5 -4 -9 -10 -9 -5 0 -10 7 -10 16 0 8 5 12 10 9 6 -3 10 -10 10 -16z
m-665 -32 c-5 -23 -2 -39 8 -48 26 -27 5 -53 -44 -54 -24 -1 -36 0 -26 2 9 3
17 11 17 20 0 10 -6 14 -20 10 -24 -6 -36 8 -14 17 33 13 52 7 47 -14 -4 -14
0 -20 10 -20 20 0 35 22 19 28 -13 4 -16 50 -6 76 10 27 15 18 9 -17z m581 15
c-10 -2 -22 0 -28 6 -6 6 0 7 19 4 21 -5 23 -7 9 -10z m-689 -11 c16 12 17 12
5 -2 -7 -9 -10 -23 -6 -32 3 -8 1 -18 -5 -22 -6 -3 -11 1 -11 9 0 21 -31 56
-43 49 -6 -4 -7 -1 -3 6 6 9 13 8 27 -5 16 -14 21 -15 36 -3z m704 -17 c-19
-8 -36 -12 -39 -9 -6 6 37 24 58 24 8 0 0 -6 -19 -15z m164 -24 c-3 -5 -12
-10 -18 -10 -7 0 -6 4 3 10 19 12 23 12 15 0z m-375 -10 c0 -5 -2 -10 -4 -10
-3 0 -8 5 -11 10 -3 6 -1 10 4 10 6 0 11 -4 11 -10z m105 0 c4 -6 1 -9 -7 -8
-7 2 -14 -4 -14 -12 -1 -8 -2 -21 -3 -27 0 -7 -6 -13 -12 -13 -11 0 -3 37 13
58 13 15 15 15 23 2z m296 -23 c-10 -9 -11 -8 -5 6 3 10 9 15 12 12 3 -3 0
-11 -7 -18z m-453 -14 c-6 -7 -14 -13 -19 -13 -5 0 -9 6 -9 13 0 7 9 13 19 13
15 0 17 -3 9 -13z m166 1 c3 -8 2 -12 -4 -9 -6 3 -10 10 -10 16 0 14 7 11 14
-7z m118 -16 c-8 -8 -9 -4 -5 13 4 13 8 18 11 10 2 -7 -1 -18 -6 -23z m-72 -3
c0 -8 -2 -15 -4 -15 -2 0 -6 7 -10 15 -3 8 -1 15 4 15 6 0 10 -7 10 -15z
m-108 -16 c10 -5 18 -17 18 -25 0 -13 -6 -15 -27 -9 -16 3 -29 11 -31 16 -2 5
-16 9 -30 9 -16 0 -22 3 -15 8 17 11 65 11 85 1z m-324 -70 c-21 -14 -26 -10
-21 11 4 16 8 18 20 9 11 -10 11 -14 1 -20z m312 17 c0 -11 -19 -15 -25 -6 -3
5 1 10 9 10 9 0 16 -2 16 -4z m-572 -13 c-10 -2 -18 -9 -18 -14 0 -6 -4 -7
-10 -4 -19 12 -10 25 18 24 16 -1 20 -3 10 -6z m-60 -39 c0 -15 -4 -22 -10
-16 -5 5 -6 16 -2 25 9 23 12 21 12 -9z m162 22 c0 -2 -7 -7 -16 -10 -8 -3
-12 -2 -9 4 6 10 25 14 25 6z m900 0 c0 -2 -9 -6 -20 -9 -11 -3 -18 -1 -14 4
5 9 34 13 34 5z m-990 -12 c0 -14 -30 -33 -45 -28 -14 6 -14 8 2 20 18 14 43
19 43 8z m138 -44 c6 0 12 6 15 13 4 10 7 10 18 0 9 -10 10 -13 1 -13 -7 0
-12 -7 -12 -15 0 -8 7 -15 15 -15 11 0 14 -7 9 -24 -4 -19 -1 -26 16 -31 30
-10 37 1 15 25 -14 15 -15 20 -4 20 10 1 8 6 -6 17 -17 14 -18 15 -2 9 15 -5
17 -2 12 15 -5 15 -4 19 4 15 6 -4 11 -15 11 -25 0 -10 8 -21 18 -25 9 -3 23
-9 30 -12 7 -3 12 1 12 11 0 11 -5 15 -15 11 -22 -8 -18 7 5 21 15 10 18 10
14 0 -6 -15 39 -71 49 -61 4 4 4 17 1 29 -3 13 0 26 6 30 9 5 10 1 6 -13 -10
-31 9 -35 53 -12 45 22 55 25 46 10 -7 -12 22 -26 33 -16 3 4 0 11 -8 16 -13
8 -12 10 3 10 19 0 22 -17 8 -40 -13 -20 -2 -34 15 -19 11 9 14 8 14 -5 0 -9
7 -16 15 -16 9 0 18 -7 21 -15 4 -8 13 -15 20 -15 8 0 17 -7 20 -15 4 -8 13
-15 21 -15 13 0 13 -3 3 -15 -17 -21 -25 -19 -38 11 -7 14 -16 23 -21 20 -5
-4 -11 0 -14 6 -2 7 -8 10 -12 5 -5 -4 -1 -13 8 -20 13 -10 16 -29 8 -54 -1
-2 -14 11 -30 27 -30 32 -51 39 -51 16 0 -8 -6 -16 -13 -19 -18 -7 -43 8 -29
17 14 8 -16 68 -31 63 -7 -3 -11 -10 -9 -16 1 -7 -7 -9 -23 -5 -15 4 -25 2
-25 -5 0 -6 4 -11 9 -11 15 0 22 -33 9 -42 -41 -26 -71 21 -35 54 10 9 16 22
12 28 -7 12 -45 -20 -45 -38 0 -5 -8 -16 -17 -23 -16 -12 -17 -12 -7 1 13 19
12 41 -1 38 -5 -2 -9 -6 -7 -10 3 -11 -26 -10 -30 0 -1 5 -16 12 -31 16 -24 6
-30 3 -34 -14 -3 -11 -10 -20 -15 -20 -6 0 -8 -10 -5 -22 6 -20 5 -20 -11 -5
-15 16 -15 18 3 31 16 12 17 16 6 30 -16 19 -38 21 -44 4 -4 -10 -7 -10 -18 0
-20 18 -39 15 -39 -8 0 -11 -4 -20 -9 -20 -5 0 -7 9 -4 20 4 15 0 20 -15 20
-12 0 -24 5 -27 10 -4 6 -12 7 -18 3 -7 -3 -3 3 7 15 22 25 36 28 36 8 0 -9 8
-12 26 -8 19 3 24 9 21 23 -4 15 -2 17 13 9 26 -14 40 -12 40 4 0 31 -69 31
-81 0 -4 -10 -8 -13 -8 -6 -2 29 18 49 44 45 19 -4 25 -1 25 13 1 17 2 17 19
-3 11 -13 24 -23 29 -23z m777 20 c3 -6 -1 -7 -9 -4 -18 7 -21 14 -7 14 6 0
13 -4 16 -10z m-956 -36 c2 -2 2 -7 -2 -10 -3 -3 -16 2 -29 11 l-23 17 25 -7
c14 -4 27 -9 29 -11z m710 -10 c6 4 11 2 11 -3 0 -6 -11 -10 -25 -9 -25 2 -31
9 -18 21 4 4 10 2 14 -4 4 -6 12 -8 18 -5z m51 -10 c0 -19 -7 -28 -30 -37 -37
-14 -40 -44 -5 -57 14 -5 25 -14 25 -20 0 -13 -17 -13 -25 0 -3 6 -20 10 -37
10 -22 0 -31 6 -35 21 -3 12 -11 18 -19 15 -8 -3 -14 1 -14 10 0 10 -6 14 -15
10 -9 -3 -15 0 -15 9 0 10 10 15 30 15 19 0 28 -4 25 -13 -7 -17 32 -41 41
-25 4 7 2 14 -4 16 -21 7 -13 23 11 22 52 -5 59 -1 53 25 -4 14 -2 25 4 25 5
0 10 -12 10 -26z m33 1 c-3 -9 -8 -14 -10 -11 -3 3 -2 9 2 15 9 16 15 13 8 -4z
m-215 -20 c-3 -3 -9 2 -12 12 -6 14 -5 15 5 6 7 -7 10 -15 7 -18z m249 3 c-3
-8 -6 -5 -6 6 -1 11 2 17 5 13 3 -3 4 -12 1 -19z m-58 -57 c8 -5 9 -11 3 -15
-6 -3 -13 -2 -17 4 -4 6 -11 8 -16 5 -5 -4 -9 -1 -9 4 0 13 20 14 39 2z m-506
-63 c-7 -14 -23 -9 -23 7 0 18 -16 20 -23 3 -4 -8 -6 -7 -6 4 -1 9 4 18 11 20
14 5 47 -23 41 -34z m607 26 c0 -2 -9 -4 -20 -4 -11 0 -20 4 -20 9 0 5 9 7 20
4 11 -3 20 -7 20 -9z m-720 -37 c0 -8 -3 -8 -11 0 -6 6 -19 9 -28 6 -13 -4
-13 -3 -2 5 16 12 41 5 41 -11z m557 17 c-3 -3 -12 -4 -19 -1 -8 3 -5 6 6 6
11 1 17 -2 13 -5z m-168 -31 c0 -25 -1 -26 -9 -8 -12 27 -12 35 0 35 6 0 10
-12 9 -27z m-239 13 c0 -3 -4 -8 -10 -11 -5 -3 -10 -1 -10 4 0 6 5 11 10 11 6
0 10 -2 10 -4z m200 -16 c0 -5 -5 -10 -11 -10 -5 0 -7 5 -4 10 3 6 8 10 11 10
2 0 4 -4 4 -10z"/>
<path d="M2594 3085 c22 -17 36 -19 36 -6 0 10 -24 21 -43 21 -7 0 -3 -7 7
-15z"/>
<path d="M2196 2892 c-3 -6 -1 -14 5 -17 15 -10 25 3 12 16 -7 7 -13 7 -17 1z"/>
<path d="M2337 2894 c-8 -8 1 -24 14 -24 5 0 9 7 9 15 0 15 -12 20 -23 9z"/>
<path d="M2400 2875 c0 -8 5 -15 10 -15 6 0 10 7 10 15 0 8 -4 15 -10 15 -5 0
-10 -7 -10 -15z"/>
<path d="M2542 2838 c6 -18 28 -21 28 -4 0 9 -7 16 -16 16 -9 0 -14 -5 -12
-12z"/>
<path d="M2370 2800 c0 -5 7 -10 15 -10 8 0 15 5 15 10 0 6 -7 10 -15 10 -8 0
-15 -4 -15 -10z"/>
<path d="M2416 3593 c-11 -11 -6 -23 9 -23 8 0 15 4 15 9 0 13 -16 22 -24 14z"/>
<path d="M2449 3585 c-1 -8 -2 -21 -3 -27 -1 -16 -25 -32 -33 -24 -4 3 -1 6 5
6 7 0 12 5 12 10 0 6 -7 10 -15 10 -8 0 -15 -4 -15 -10 0 -5 -6 -9 -12 -7 -7
1 -12 -4 -10 -10 1 -7 -5 -13 -13 -13 -9 0 -12 -6 -9 -17 5 -15 4 -15 -4 -3
-6 8 -8 18 -6 22 3 4 0 8 -5 8 -6 0 -11 -4 -11 -10 0 -5 -7 -7 -16 -3 -12 5
-15 -1 -12 -28 4 -31 9 -36 60 -54 39 -13 59 -26 63 -40 5 -17 7 -18 18 -5 9
11 35 15 92 17 44 1 94 7 110 14 17 7 33 12 37 11 15 -3 60 47 52 59 -4 8 -3
9 4 5 7 -4 12 -1 12 9 0 9 -4 13 -10 10 -5 -3 -10 -1 -10 5 0 6 -4 8 -10 5 -6
-4 -10 7 -10 25 0 34 -21 38 -26 6 -1 -10 -8 -24 -15 -30 -9 -8 -10 -8 -5 1 8
15 -10 27 -20 12 -4 -8 -9 -8 -13 -1 -4 6 -19 13 -34 16 -35 6 -47 14 -47 32
0 8 -4 14 -10 14 -5 0 -10 -8 -10 -17 0 -10 -5 -25 -11 -33 -8 -11 -9 -7 -5
18 4 25 2 32 -10 32 -10 0 -14 -6 -11 -14 3 -8 -2 -16 -14 -19 -16 -4 -19 -2
-14 14 4 11 2 19 -4 19 -6 0 -12 -7 -12 -15z m29 -60 c-3 -3 -9 2 -12 12 -6
14 -5 15 5 6 7 -7 10 -15 7 -18z m72 -35 c-20 -13 -47 -13 -55 0 -4 6 9 10 32
10 28 0 34 -3 23 -10z"/>
<path d="M2570 3590 c0 -5 8 -10 19 -10 10 0 24 -7 31 -15 7 -8 16 -15 21 -15
5 0 9 7 9 15 0 8 -9 15 -19 15 -11 0 -23 5 -26 10 -3 6 -13 10 -21 10 -8 0
-14 -4 -14 -10z"/>
<path d="M2335 3580 c-8 -13 14 -52 26 -44 7 4 6 10 0 18 -6 7 -8 15 -5 18 3
3 1 9 -5 12 -5 4 -12 2 -16 -4z"/>
<path d="M2370 3580 c0 -5 5 -10 10 -10 6 0 10 5 10 10 0 6 -4 10 -10 10 -5 0
-10 -4 -10 -10z"/>
<path d="M2290 3571 c0 -5 -3 -17 -7 -27 -4 -12 -2 -15 8 -12 8 3 13 11 12 17
-2 6 2 11 7 11 6 0 10 5 10 10 0 6 -7 10 -15 10 -8 0 -15 -4 -15 -9z"/>
<path d="M2215 3560 c-4 -6 -10 -8 -14 -5 -5 2 -16 -4 -26 -15 -13 -15 -15
-24 -8 -31 12 -12 36 -3 28 11 -3 4 2 13 9 19 10 8 16 9 21 1 3 -5 13 -10 22
-10 12 0 13 3 4 14 -10 12 -8 13 8 9 12 -3 21 -1 21 6 0 14 -57 15 -65 1z"/>
<path d="M2722 3558 c6 -18 28 -21 28 -4 0 9 -7 16 -16 16 -9 0 -14 -5 -12
-12z"/>
<path d="M2780 3546 c0 -8 -5 -16 -12 -18 -6 -2 -8 -10 -4 -16 10 -17 26 -15
26 3 0 8 5 15 10 15 6 0 10 7 10 15 0 8 -7 15 -15 15 -8 0 -15 -6 -15 -14z"/>
<path d="M2804 3504 c3 -9 9 -27 12 -40 6 -22 34 -35 34 -15 0 25 -24 71 -37
71 -10 0 -13 -6 -9 -16z"/>
<path d="M2270 3490 c0 -5 5 -10 10 -10 6 0 10 5 10 10 0 6 -4 10 -10 10 -5 0
-10 -4 -10 -10z"/>
<path d="M2102 3464 c4 -21 22 -23 26 -1 2 10 -3 17 -13 17 -10 0 -15 -6 -13
-16z"/>
<path d="M2080 3440 c0 -5 5 -10 10 -10 6 0 10 5 10 10 0 6 -4 10 -10 10 -5 0
-10 -4 -10 -10z"/>
<path d="M2737 3434 c-8 -8 1 -24 14 -24 5 0 9 7 9 15 0 15 -12 20 -23 9z"/>
<path d="M2070 3410 c0 -5 4 -10 9 -10 6 0 13 5 16 10 3 6 -1 10 -9 10 -9 0
-16 -4 -16 -10z"/>
<path d="M2120 3400 c0 -5 5 -10 10 -10 6 0 10 5 10 10 0 6 -4 10 -10 10 -5 0
-10 -4 -10 -10z"/>
<path d="M2652 3398 c6 -18 28 -21 28 -4 0 9 -7 16 -16 16 -9 0 -14 -5 -12
-12z"/>
<path d="M2790 3400 c0 -5 5 -10 10 -10 6 0 10 5 10 10 0 6 -4 10 -10 10 -5 0
-10 -4 -10 -10z"/>
<path d="M2592 3388 c-16 -16 -15 -38 2 -38 18 0 39 27 31 40 -8 13 -18 13
-33 -2z"/>
<path d="M2540 3374 c0 -8 5 -12 10 -9 6 3 10 10 10 16 0 5 -4 9 -10 9 -5 0
-10 -7 -10 -16z"/>
<path d="M2687 3383 c-12 -11 -8 -23 8 -23 8 0 15 7 15 15 0 16 -12 20 -23 8z"/>
<path d="M2758 3373 c-21 -5 -24 -33 -4 -33 7 0 16 9 19 20 3 11 4 19 4 19 -1
-1 -10 -3 -19 -6z"/>
<path d="M2385 3360 c-3 -5 1 -10 9 -10 9 0 16 5 16 10 0 6 -4 10 -9 10 -6 0
-13 -4 -16 -10z"/>
<path d="M2424 3359 c-10 -17 13 -36 27 -22 12 12 4 33 -11 33 -5 0 -12 -5
-16 -11z"/>
<path d="M2490 3354 c0 -17 22 -14 28 4 2 7 -3 12 -12 12 -9 0 -16 -7 -16 -16z"/>
<path d="M2100 3345 c0 -9 5 -15 11 -13 6 2 11 8 11 13 0 5 -5 11 -11 13 -6 2
-11 -4 -11 -13z"/>
<path d="M2340 3345 c0 -9 5 -15 11 -13 6 2 11 8 11 13 0 5 -5 11 -11 13 -6 2
-11 -4 -11 -13z"/>
<path d="M2150 3340 c0 -5 5 -10 10 -10 6 0 10 5 10 10 0 6 -4 10 -10 10 -5 0
-10 -4 -10 -10z"/>
<path d="M2652 3338 c-15 -15 -15 -35 -1 -40 8 -3 6 -10 -6 -21 -10 -10 -14
-24 -11 -34 6 -15 10 -13 31 12 17 19 22 32 15 40 -5 6 -7 21 -3 33 6 24 -6
29 -25 10z"/>
<path d="M2796 3330 c-17 -17 -17 -20 -3 -26 17 -6 47 16 47 35 0 17 -23 12
-44 -9z"/>
<path d="M2215 3330 c-7 -12 2 -30 16 -30 12 0 12 27 0 35 -5 3 -12 1 -16 -5z"/>
<path d="M2450 3325 c-10 -12 -10 -15 1 -15 10 0 10 -3 1 -12 -16 -16 -15 -38
2 -38 15 0 26 21 26 50 0 26 -15 33 -30 15z"/>
<path d="M2510 3325 c0 -8 7 -15 15 -15 8 0 15 7 15 15 0 8 -7 15 -15 15 -8 0
-15 -7 -15 -15z"/>
<path d="M2132 3318 c2 -8 -4 -12 -14 -10 -28 5 -21 -15 7 -22 44 -11 62 14
25 34 -16 8 -20 8 -18 -2z"/>
<path d="M2845 3320 c-8 -13 -1 -24 14 -19 6 3 7 10 2 18 -6 10 -10 10 -16 1z"/>
<path d="M2272 3309 c2 -6 8 -10 13 -10 5 0 11 4 13 10 2 6 -4 11 -13 11 -9 0
-15 -5 -13 -11z"/>
<path d="M2377 3305 c-8 -18 11 -31 25 -17 11 11 3 32 -12 32 -4 0 -10 -7 -13
-15z"/>
<path d="M2305 3290 c-3 -5 1 -10 9 -10 9 0 16 5 16 10 0 6 -4 10 -9 10 -6 0
-13 -4 -16 -10z"/>
<path d="M2571 3284 c-9 -11 -10 -19 -3 -26 13 -13 52 11 45 29 -7 17 -25 16
-42 -3z"/>
<path d="M2340 3275 c0 -9 5 -15 11 -13 6 2 11 8 11 13 0 5 -5 11 -11 13 -6 2
-11 -4 -11 -13z"/>
<path d="M2516 3283 c-12 -12 -6 -33 9 -33 8 0 15 6 15 14 0 17 -14 28 -24 19z"/>
<path d="M2250 3260 c0 -11 4 -20 9 -20 13 0 32 26 24 33 -13 14 -33 6 -33
-13z"/>
<path d="M2397 3273 c-12 -11 -8 -23 8 -23 8 0 15 7 15 15 0 16 -12 20 -23 8z"/>
<path d="M2306 3253 c-12 -12 -6 -33 9 -33 8 0 15 6 15 14 0 17 -14 28 -24 19z"/>
<path d="M2357 3253 c-13 -12 -7 -33 8 -33 8 0 15 9 15 20 0 20 -11 26 -23 13z"/>
<path d="M2545 3249 c-10 -15 3 -25 16 -12 7 7 7 13 1 17 -6 3 -14 1 -17 -5z"/>
<path d="M2324 3199 c-10 -17 13 -36 27 -22 12 12 4 33 -11 33 -5 0 -12 -5
-16 -11z"/>
<path d="M2372 3193 c4 -21 33 -25 33 -3 0 8 -8 16 -18 18 -14 3 -18 -1 -15
-15z"/>
<path d="M2276 3173 c-3 -10 -9 -24 -12 -30 -3 -8 1 -13 10 -13 15 0 36 29 36
49 0 18 -27 12 -34 -6z"/>
<path d="M2343 3150 c-3 -11 -14 -20 -25 -20 -11 0 -18 -5 -16 -12 6 -18 64
-17 60 1 -2 8 2 17 9 21 13 9 4 30 -13 30 -5 0 -12 -9 -15 -20z"/>
<path d="M2430 3121 c0 -12 6 -21 16 -21 9 0 14 7 12 17 -5 25 -28 28 -28 4z"/>
<path d="M645 2321 c-73 -45 -115 -116 -115 -196 0 -32 7 -49 33 -77 17 -20
43 -51 57 -68 15 -19 62 -51 118 -78 140 -70 144 -73 183 -103 47 -37 69 -84
69 -146 -1 -77 -18 -132 -58 -182 -46 -57 -55 -63 -120 -78 -45 -11 -58 -11
-82 2 -16 8 -43 17 -60 18 -31 4 -51 23 -106 102 -44 62 -37 160 11 179 25 9
74 7 96 -4 20 -11 26 -45 9 -55 -5 -3 -10 -19 -10 -36 0 -25 7 -33 46 -52 l46
-22 34 37 c27 30 34 46 34 77 0 44 -11 81 -32 102 -8 8 -24 28 -36 45 -19 28
-29 32 -86 39 -54 5 -73 3 -112 -14 -25 -12 -52 -21 -60 -21 -19 0 -68 -78
-84 -134 -58 -209 110 -366 395 -366 59 0 75 4 90 20 10 11 26 20 35 20 9 0
26 10 37 23 11 12 32 30 45 40 14 10 38 45 53 79 24 53 27 72 27 169 0 90 -4
116 -20 148 -30 57 -99 118 -162 142 -30 11 -76 38 -102 59 -25 22 -57 45 -71
51 -37 17 -87 91 -87 129 0 40 36 76 85 86 61 11 69 -14 23 -79 -20 -27 8 -69
52 -78 44 -10 76 10 95 55 25 60 -15 144 -81 172 -49 21 -152 18 -189 -5z"/>
<path d="M1263 1911 c-28 -4 -55 -9 -58 -13 -4 -4 0 -29 9 -56 10 -28 17 -67
17 -88 -1 -128 7 -322 14 -336 4 -10 14 -18 21 -18 8 0 19 -11 24 -25 5 -14
15 -25 22 -25 7 0 25 -7 40 -14 15 -8 63 -18 105 -21 76 -7 80 -6 147 29 105
54 122 100 127 351 0 11 5 58 10 103 10 86 3 117 -25 106 -7 -3 -24 0 -38 5
-20 8 -32 5 -57 -12 -32 -23 -37 -37 -21 -66 12 -23 23 -270 14 -317 -4 -20
-12 -34 -20 -34 -8 0 -19 -10 -25 -22 -29 -65 -158 -62 -201 4 -20 31 -31 117
-17 134 11 14 9 35 -10 109 -8 32 -7 45 5 63 12 19 13 30 5 54 -6 17 -8 42 -5
55 6 22 -9 46 -26 41 -3 0 -28 -4 -57 -7z"/>
<path d="M3372 1905 c-41 -18 -41 -53 0 -73 39 -18 73 -68 87 -127 8 -31 11
-108 10 -206 -3 -183 1 -194 64 -186 22 3 44 10 50 16 7 7 6 49 -3 138 -9 95
-10 138 -2 167 7 25 8 45 2 57 -14 26 21 81 65 102 32 15 39 15 70 3 27 -12
35 -21 35 -40 0 -16 -6 -26 -15 -26 -22 0 -55 -37 -55 -60 0 -21 41 -70 58
-70 17 0 85 60 115 101 43 59 40 102 -11 150 -54 51 -126 60 -203 26 -30 -13
-60 -31 -68 -40 -19 -24 -48 -21 -62 6 -20 38 -62 77 -83 77 -12 -1 -36 -7
-54 -15z"/>
<path d="M2117 1896 c-40 -11 -63 -28 -125 -93 -108 -113 -124 -154 -130 -340
-2 -78 -1 -150 3 -160 5 -10 8 -55 9 -101 1 -61 5 -85 16 -92 18 -11 67 -2 98
17 27 16 27 33 -1 153 -18 81 -17 284 2 320 8 14 32 53 54 87 51 77 95 99 202
97 110 -2 145 -27 178 -129 20 -62 15 -139 -10 -174 -11 -14 -22 -34 -26 -44
-9 -24 -91 -59 -138 -61 -27 0 -45 6 -63 23 -28 27 -32 51 -15 100 11 30 15
32 43 27 116 -22 123 -19 128 48 3 43 -6 51 -72 65 -95 20 -163 -14 -211 -104
-21 -39 -22 -45 -9 -90 13 -47 62 -115 82 -115 6 0 16 -7 22 -16 29 -39 197
-35 242 7 11 10 24 19 29 19 20 0 79 79 96 129 28 81 26 198 -5 259 -23 46
-95 122 -115 122 -5 0 -23 11 -39 25 -21 17 -41 25 -64 23 -18 0 -55 2 -83 5
-31 4 -68 1 -98 -7z"/>
<path d="M2897 1900 c-27 -5 -57 -16 -66 -24 -10 -9 -22 -16 -28 -16 -5 0 -22
-11 -37 -25 -15 -14 -31 -25 -36 -25 -5 0 -12 -10 -15 -22 -4 -13 -16 -33 -27
-45 -11 -11 -24 -38 -30 -60 -14 -53 -18 -152 -7 -158 5 -4 9 -21 9 -39 0 -19
7 -39 15 -46 8 -7 15 -20 15 -29 0 -9 27 -38 61 -65 60 -49 61 -49 134 -50 56
0 78 4 92 17 11 9 29 17 41 17 26 0 86 76 77 98 -3 8 2 23 11 33 25 27 20 61
-14 108 -51 70 -73 83 -139 78 -97 -6 -129 -35 -109 -97 13 -42 43 -50 71 -20
36 40 95 18 110 -41 8 -31 -35 -89 -67 -89 -10 0 -27 -4 -37 -10 -12 -6 -30
-6 -52 2 -55 18 -62 23 -74 57 -6 17 -15 35 -21 39 -24 16 -35 54 -30 109 3
32 5 62 5 66 1 4 16 23 34 42 17 18 40 45 50 59 19 27 71 46 127 46 70 0 171
-57 203 -115 18 -32 39 -232 26 -250 -4 -5 -10 -28 -13 -50 -10 -56 8 -76 71
-82 45 -5 52 -3 62 16 7 12 9 26 6 31 -3 5 -8 53 -10 107 -3 54 -7 125 -10
158 -6 63 -38 140 -80 188 -31 35 -104 72 -173 86 -59 12 -75 12 -145 1z"/>
<path d="M4185 1899 c-27 -4 -55 -15 -61 -23 -6 -9 -18 -16 -26 -16 -8 0 -27
-11 -42 -25 -15 -14 -31 -25 -36 -25 -5 0 -12 -10 -16 -22 -3 -13 -13 -30 -21
-39 -27 -32 -51 -116 -47 -166 9 -100 17 -135 30 -140 8 -3 14 -15 14 -27 0
-34 104 -112 161 -120 50 -7 132 7 137 23 2 6 14 11 27 11 32 0 88 67 80 97
-3 12 0 25 6 28 5 4 15 18 20 32 8 21 4 34 -25 78 -49 73 -74 87 -146 82 -77
-5 -110 -27 -110 -72 0 -34 21 -65 44 -65 7 0 21 9 31 20 20 22 62 26 86 7 9
-7 19 -26 23 -43 6 -25 2 -37 -19 -63 -15 -17 -36 -31 -47 -31 -10 0 -27 -4
-37 -10 -12 -6 -30 -6 -52 2 -55 18 -62 23 -74 57 -6 17 -15 35 -21 39 -27 17
-35 54 -28 119 5 54 12 70 38 98 17 18 39 44 49 58 31 47 128 60 207 29 91
-34 140 -95 140 -174 0 -26 5 -59 10 -73 7 -19 6 -43 -5 -85 -21 -82 -19 -105
11 -129 34 -27 90 -28 103 -2 6 10 8 21 5 23 -3 3 -6 79 -8 169 -3 177 -5 187
-68 275 -33 47 -103 85 -186 103 -59 12 -75 12 -147 0z"/>
<path d="M790 925 l0 -106 62 3 c50 2 63 6 66 21 3 14 -4 17 -42 17 -42 0 -46
2 -46 25 0 23 4 25 40 25 33 0 40 3 40 20 0 17 -7 20 -40 20 -33 0 -40 3 -40
20 0 17 7 20 40 20 33 0 40 3 40 20 0 18 -7 20 -60 20 l-60 0 0 -105z"/>
<path d="M1017 1023 c-17 -16 -5 -33 23 -33 l30 0 0 -85 c0 -78 2 -85 20 -85
17 0 19 8 22 83 3 81 3 82 31 85 19 2 27 9 27 23 0 17 -8 19 -73 19 -41 0 -77
-3 -80 -7z"/>
<path d="M1272 928 c3 -87 6 -103 20 -106 13 -3 17 6 20 40 3 43 3 43 46 46
l42 3 0 -45 c0 -39 3 -46 20 -46 19 0 20 7 20 105 0 98 -1 105 -20 105 -17 0
-20 -7 -20 -40 l0 -40 -46 0 c-37 0 -45 3 -43 18 4 45 -1 62 -21 62 -20 0 -21
-5 -18 -102z"/>
<path d="M1562 928 c3 -95 4 -103 23 -103 18 0 20 8 23 62 l3 62 39 -39 c25
-25 40 -49 40 -65 0 -18 5 -25 20 -25 19 0 20 7 20 105 0 98 -1 105 -20 105
-17 0 -20 -7 -20 -52 l0 -53 -49 53 c-73 79 -82 74 -79 -50z"/>
<path d="M1878 1001 c-29 -26 -33 -35 -32 -76 1 -67 36 -100 105 -100 67 0 99
33 99 101 0 95 -101 139 -172 75z m116 -33 c9 -12 16 -33 16 -45 0 -28 -33
-63 -60 -63 -28 0 -60 35 -60 67 0 58 72 86 104 41z"/>
<path d="M2368 1013 c-67 -42 -63 -144 7 -178 57 -26 122 -16 110 18 -5 12
-15 14 -41 10 -44 -7 -74 17 -74 62 0 44 29 68 74 63 35 -4 54 11 40 33 -9 15
-87 10 -116 -8z"/>
<path d="M2638 1012 c-54 -33 -60 -118 -12 -163 20 -19 37 -24 76 -24 66 0 98
33 98 101 0 87 -87 133 -162 86z m106 -44 c9 -12 16 -33 16 -45 0 -28 -33 -63
-60 -63 -28 0 -60 35 -60 67 0 58 72 86 104 41z"/>
<path d="M2929 1008 c0 -13 -4 -58 -8 -102 -5 -62 -4 -79 7 -83 22 -9 31 9 33
65 3 55 11 65 29 32 14 -26 35 -25 54 1 l15 22 5 -24 c3 -13 7 -40 8 -59 2
-27 7 -35 23 -35 22 0 22 6 10 138 -6 57 -9 67 -26 67 -10 0 -25 -13 -34 -29
-22 -44 -31 -45 -55 -6 -25 41 -60 48 -61 13z"/>
<path d="M3240 1027 c-3 -3 -4 -51 -2 -106 3 -92 5 -101 23 -101 16 0 19 7 19
40 0 38 2 40 30 40 56 0 89 61 56 105 -9 12 -30 19 -67 23 -30 2 -56 2 -59 -1z
m85 -62 c0 -13 -8 -21 -22 -23 -19 -3 -23 1 -23 23 0 22 4 26 23 23 14 -2 22
-10 22 -23z"/>
<path d="M3490 925 l0 -106 62 3 c50 2 63 6 66 21 3 14 -4 17 -42 17 l-46 0 0
85 c0 78 -2 85 -20 85 -19 0 -20 -7 -20 -105z"/>
<path d="M3722 928 l3 -103 60 0 c48 0 60 3 63 17 3 13 -6 17 -40 20 -36 2
-44 7 -46 26 -3 20 1 22 42 22 39 0 46 3 46 20 0 17 -7 20 -45 20 -38 0 -45 3
-45 20 0 17 7 20 45 20 38 0 45 3 45 20 0 18 -7 20 -65 20 l-66 0 3 -102z"/>
<path d="M3960 1024 c0 -3 14 -23 30 -44 17 -21 30 -43 30 -50 0 -7 -13 -29
-30 -50 -16 -21 -30 -43 -30 -49 0 -24 40 -9 67 26 l30 36 28 -36 c18 -24 36
-37 51 -37 13 0 24 3 24 6 0 3 -16 26 -35 51 -19 25 -35 49 -35 53 0 3 13 24
30 46 36 47 37 54 8 54 -14 0 -31 -12 -43 -30 -11 -16 -23 -30 -27 -30 -4 0
-16 14 -28 30 -14 19 -30 30 -46 30 -13 0 -24 -3 -24 -6z"/>
</g>
</svg>
