<?xml version="1.0" standalone="no"?>
<!DOCTYPE svg PUBLIC "-//W3C//DTD SVG 20010904//EN"
 "http://www.w3.org/TR/2001/REC-SVG-20010904/DTD/svg10.dtd">
<svg version="1.0" xmlns="http://www.w3.org/2000/svg"
 width="320.000000pt" height="320.000000pt" viewBox="0 0 320.000000 320.000000"
 preserveAspectRatio="xMidYMid meet">

<g transform="translate(0.000000,320.000000) scale(0.100000,-0.100000)"
fill="#000000" stroke="none">
<path d="M1265 2714 c-140 -16 -332 -49 -366 -62 -91 -36 -137 -126 -154 -302
-3 -36 -11 -92 -16 -125 -12 -66 -4 -477 12 -660 5 -60 19 -141 31 -178 28
-89 59 -121 135 -135 88 -17 936 -27 1109 -13 152 12 196 22 232 54 27 25 75
124 90 187 26 109 46 361 46 600 1 220 -1 255 -22 345 -29 127 -54 164 -134
199 -67 29 -247 68 -424 91 -137 18 -384 18 -539 -1z m538 -59 c64 -9 154 -61
187 -107 33 -46 32 -50 -20 -67 -30 -9 -58 -7 -162 14 -136 27 -239 67 -276
108 l-24 25 21 12 c42 22 178 30 274 15z m-688 -36 c-10 -29 -62 -114 -112
-180 -45 -60 -161 -179 -174 -179 -13 0 -22 68 -16 118 8 65 37 119 94 175 52
50 126 86 181 87 29 0 33 -3 27 -21z m332 5 c5 -15 -158 -180 -217 -221 -53
-36 -163 -92 -203 -104 -28 -8 -29 -7 -22 19 10 41 73 150 111 192 75 83 180
132 273 127 30 -1 56 -7 58 -13z m723 -44 c43 -22 72 -53 98 -106 42 -83 68
-243 42 -259 -20 -12 -161 118 -190 175 -18 36 -60 179 -60 206 0 12 8 14 38
8 20 -4 53 -15 72 -24z m-433 -125 c45 -14 85 -30 88 -36 12 -18 -23 -57 -61
-69 -54 -18 -336 -8 -386 13 -44 18 -46 25 -17 61 61 78 194 89 376 31z m231
-60 c103 -43 138 -140 113 -305 -15 -96 -24 -105 -62 -60 -85 101 -129 209
-129 317 0 72 8 77 78 48z m-678 -45 c0 -26 -104 -187 -179 -278 -33 -39 -98
-92 -114 -92 -3 0 -11 19 -17 41 -29 108 90 261 255 326 38 15 55 16 55 3z
m281 -70 c37 0 49 -4 49 -15 0 -8 5 -15 10 -15 6 0 10 4 10 10 0 18 139 -6
147 -26 3 -8 9 -11 14 -8 9 5 49 -54 48 -71 0 -5 -3 -4 -6 3 -7 17 -23 5 -23
-18 0 -20 -26 -34 -36 -19 -3 6 -3 22 1 36 6 24 5 25 -12 13 -15 -12 -16 -12
-5 0 16 19 15 31 -3 24 -8 -4 -15 -12 -15 -20 0 -8 -4 -14 -10 -14 -14 0 -13
4 10 45 21 37 9 49 -17 18 -14 -17 -14 -17 -10 2 4 19 -1 21 -37 20 -23 -1
-50 -5 -61 -8 -11 -4 -27 -2 -35 4 -13 9 -12 10 3 5 9 -3 17 0 17 5 0 7 -11 9
-27 5 -16 -3 -46 -8 -68 -11 l-40 -4 40 14 c34 11 35 13 10 10 -16 -2 -43 -4
-58 -4 -16 -1 -26 -5 -23 -10 3 -4 -14 -7 -37 -6 -23 1 -34 1 -24 -2 21 -5 18
-28 -4 -28 -20 0 -33 -25 -21 -37 8 -8 6 -20 -6 -42 -13 -25 -17 -28 -20 -13
-3 14 -10 17 -28 13 -17 -5 -26 -2 -31 10 -4 12 -8 13 -14 3 -5 -8 1 -22 17
-38 13 -13 22 -26 20 -29 -3 -2 -16 8 -29 22 -28 30 -42 34 -33 9 4 -9 1 -20
-6 -26 -9 -5 -3 -7 15 -3 34 8 34 1 1 -27 -21 -18 -27 -34 -30 -77 -10 -121
-8 -145 16 -206 4 -11 4 -29 -2 -40 -7 -13 -3 -12 14 6 14 14 28 32 31 40 6
13 4 -20 -5 -91 -1 -9 -8 -15 -15 -12 -17 7 -16 18 2 33 8 7 15 20 15 29 0 11
-7 7 -23 -13 -21 -26 -24 -27 -30 -11 -4 10 -2 24 4 31 9 11 9 13 -2 9 -10 -4
-19 14 -31 68 -22 90 -23 147 -4 147 9 0 12 10 10 29 -8 69 48 177 85 163 14
-5 14 -4 2 12 -9 11 -11 20 -4 27 12 12 40 2 47 -17 6 -16 -10 -19 -19 -4 -3
6 -11 10 -16 10 -6 0 -4 -7 5 -15 8 -8 26 -15 41 -15 25 0 25 1 10 16 -13 13
-14 19 -4 25 8 4 10 11 6 16 -5 4 -11 2 -15 -4 -4 -7 -13 -8 -20 -4 -10 6 -10
10 2 20 8 7 21 9 27 5 8 -4 9 -3 5 4 -4 7 -4 12 1 13 4 0 40 8 78 19 39 10 76
16 83 14 8 -2 36 -4 63 -4z m650 -69 c79 -82 86 -144 29 -281 -53 -128 -79
-136 -101 -32 -12 60 -15 307 -4 342 10 30 24 25 76 -29z m-1312 11 c29 -55
32 -224 5 -357 -9 -44 -74 -157 -87 -152 -25 8 -38 100 -34 237 5 151 14 189
57 249 33 45 45 50 59 23z m781 3 c0 -9 -6 -12 -15 -9 -8 4 -15 10 -15 15 0 5
7 9 15 9 8 0 15 -7 15 -15z m-40 -15 c0 -5 -5 -10 -11 -10 -5 0 -7 5 -4 10 3
6 8 10 11 10 2 0 4 -4 4 -10z m-225 -40 c3 -5 -1 -10 -10 -10 -9 0 -13 5 -10
10 3 6 8 10 10 10 2 0 7 -4 10 -10z m470 -112 c6 -59 -14 -56 -21 3 -2 19 -6
50 -9 69 l-4 35 14 -27 c9 -15 17 -51 20 -80z m-115 32 c0 -5 -4 -10 -10 -10
-5 0 -10 5 -10 10 0 6 5 10 10 10 6 0 10 -4 10 -10z m78 -39 c-4 -42 -2 -48
11 -44 13 4 13 3 2 -5 -8 -6 -9 -12 -3 -16 13 -8 0 -58 -16 -64 -8 -2 -11 21
-9 87 1 50 6 91 11 91 5 0 6 -22 4 -49z m-435 32 c-7 -2 -19 -2 -25 0 -7 3 -2
5 12 5 14 0 19 -2 13 -5z m506 -183 c-1 -99 -8 -126 -34 -138 -18 -8 -26 -8
-35 3 -9 11 -7 12 11 8 19 -5 21 -3 17 15 -4 13 -2 19 6 16 8 -3 11 19 10 77
-1 44 -5 83 -7 86 -3 2 0 19 6 36 l11 32 8 -35 c4 -19 7 -64 7 -100z m-677 63
c8 -62 -9 -61 -19 1 -3 22 -2 36 5 36 5 0 12 -17 14 -37z m-155 -111 c2 -106
-19 -257 -38 -277 -14 -14 -78 24 -94 56 -48 93 -1 271 87 333 35 25 43 5 45
-112z m1003 6 c36 -76 40 -160 11 -223 -37 -83 -62 -81 -102 8 -33 75 -34 198
-1 245 36 50 58 42 92 -30z m223 -92 c1 -98 -10 -136 -60 -209 -50 -73 -113
-81 -113 -14 0 55 40 199 67 247 15 25 40 58 57 73 26 25 30 27 39 11 5 -9 10
-58 10 -108z m-1059 96 c3 -5 -1 -9 -9 -9 -8 0 -12 4 -9 9 3 4 7 8 9 8 2 0 6
-4 9 -8z m511 -112 c3 -5 1 -10 -4 -10 -6 0 -11 5 -11 10 0 6 2 10 4 10 3 0 8
-4 11 -10z m127 -10 c-12 -11 -19 -26 -17 -33 3 -6 -5 -23 -16 -37 l-20 -25 5
25 c3 14 3 19 0 12 -3 -6 -9 -10 -14 -7 -4 3 -23 -2 -41 -10 -23 -10 -28 -14
-14 -15 15 0 16 -3 7 -12 -9 -9 -15 -9 -24 0 -15 15 -5 24 42 43 19 7 47 28
63 46 16 18 34 33 40 33 6 0 1 -9 -11 -20z m-50 -12 c-7 -7 -12 -8 -12 -2 0 6
3 14 7 17 3 4 9 5 12 2 2 -3 -1 -11 -7 -17z m-546 -82 c-6 -29 -6 -29 8 -11 9
11 16 25 16 32 0 7 7 10 15 7 13 -5 13 -8 0 -21 -19 -19 -21 -60 -2 -45 18 15
60 3 53 -15 -4 -10 -1 -11 12 -5 24 13 115 15 108 3 -7 -10 52 -27 61 -17 4 3
-3 6 -15 6 -11 0 -23 4 -27 9 -3 5 10 9 30 8 32 -2 54 -20 37 -31 -5 -3 -42
-4 -83 -3 -40 0 -66 3 -56 5 26 5 21 20 -7 18 -13 0 -22 -4 -19 -8 6 -10 -23
-10 -68 1 -42 10 -112 68 -101 85 4 6 7 14 8 19 1 4 2 10 3 13 0 4 8 1 17 -7
11 -9 14 -22 10 -43z m481 38 c-3 -3 -12 -4 -19 -1 -8 3 -5 6 6 6 11 1 17 -2
13 -5z m-147 -24 c0 -13 -7 -20 -20 -20 -13 0 -20 7 -20 20 0 13 7 20 20 20
13 0 20 -7 20 -20z m187 -17 c-15 -16 -17 -16 -17 -1 0 9 6 18 13 21 20 7 22
-2 4 -20z m-905 -49 c38 -25 92 -69 121 -98 49 -50 137 -169 137 -188 0 -15
-107 -8 -171 12 -90 27 -142 68 -178 142 -26 50 -31 73 -31 129 l0 69 27 -11
c15 -5 57 -30 95 -55z m788 56 c0 -5 -7 -10 -15 -10 -8 0 -15 5 -15 10 0 6 7
10 15 10 8 0 15 -4 15 -10z m-320 -10 c0 -5 -9 -10 -21 -10 -11 0 -17 5 -14
10 3 6 13 10 21 10 8 0 14 -4 14 -10z m380 -20 c0 -13 -38 -32 -50 -25 -6 3
-10 0 -11 -7 0 -10 -2 -10 -6 0 -2 6 -9 12 -14 12 -6 0 -8 -4 -5 -9 7 -11 -49
-25 -64 -16 -20 13 -9 25 23 25 18 0 42 7 53 15 21 16 74 20 74 5z m-561 -57
c116 -55 212 -160 236 -255 7 -28 6 -28 -39 -28 -70 0 -112 23 -192 104 -79
80 -114 138 -114 186 0 40 14 39 109 -7z m776 3 c46 -21 94 -61 84 -70 -16
-15 -158 -49 -226 -53 -70 -5 -87 -3 -127 17 -25 12 -46 25 -46 30 0 14 75 60
131 80 72 26 123 25 184 -4z m-355 -103 c63 -33 120 -100 120 -143 0 -23 -5
-29 -31 -34 -55 -11 -84 -7 -137 20 -53 26 -114 84 -157 147 -30 43 -25 46 75
41 57 -3 88 -10 130 -31z m610 -37 c0 -22 -40 -65 -78 -85 -62 -31 -163 -51
-260 -51 -101 0 -109 6 -72 52 43 56 175 96 318 97 71 1 92 -2 92 -13z"/>
<path d="M1766 2221 c-4 -6 -2 -11 4 -11 6 0 16 -11 22 -25 6 -14 15 -25 19
-25 15 0 17 29 3 47 -13 17 -14 17 -8 -2 5 -17 3 -17 -14 4 -13 16 -21 20 -26
12z"/>
<path d="M1181 1894 c0 -11 3 -14 6 -6 3 7 2 16 -1 19 -3 4 -6 -2 -5 -13z"/>
<path d="M1865 1700 c-3 -5 -1 -10 4 -10 6 0 11 5 11 10 0 6 -2 10 -4 10 -3 0
-8 -4 -11 -10z"/>
<path d="M1286 1665 c-3 -8 -1 -15 4 -15 6 0 10 7 10 15 0 8 -2 15 -4 15 -2 0
-6 -7 -10 -15z"/>
<path d="M1345 1600 c-3 -5 1 -10 10 -10 9 0 13 5 10 10 -3 6 -8 10 -10 10 -2
0 -7 -4 -10 -10z"/>
<path d="M1638 1583 c7 -3 16 -2 19 1 4 3 -2 6 -13 5 -11 0 -14 -3 -6 -6z"/>
<path d="M1263 1003 c-21 -4 -21 -6 -20 -221 l2 -217 41 -3 40 -3 -4 90 c-6
118 0 138 41 149 61 16 67 9 68 -87 2 -155 -1 -146 42 -149 l37 -3 0 120 c0
66 -4 131 -10 145 -16 42 -89 51 -162 21 -16 -6 -18 1 -18 79 0 93 2 90 -57
79z"/>
<path d="M1600 976 c-6 -8 -10 -25 -8 -38 4 -30 46 -38 65 -12 17 23 16 29 -3
48 -19 20 -38 20 -54 2z"/>
<path d="M354 926 c-28 -28 -34 -42 -34 -76 0 -47 26 -78 115 -134 57 -36 68
-65 33 -90 -31 -22 -56 -20 -105 9 l-43 24 0 -34 c0 -29 6 -37 33 -52 17 -9
55 -17 82 -17 65 0 110 29 126 84 21 68 -13 116 -118 169 -51 25 -63 55 -34
84 21 21 25 21 121 -4 10 -3 16 5 18 23 4 35 -25 48 -105 48 -49 0 -59 -4 -89
-34z"/>
<path d="M1872 763 l3 -198 75 -3 c130 -5 190 34 190 124 0 29 -7 43 -34 67
l-33 30 23 35 c28 41 30 59 8 91 -25 35 -75 51 -159 51 l-75 0 2 -197z m156
124 c13 -10 16 -45 6 -71 -4 -10 -18 -16 -40 -16 -32 0 -34 2 -35 35 -1 19 -2
41 -3 48 -3 26 40 29 72 4z m14 -164 c41 -37 10 -103 -49 -103 l-33 0 0 60 0
60 32 0 c17 0 40 -7 50 -17z"/>
<path d="M653 862 l-33 -3 0 -125 c0 -125 0 -126 29 -155 35 -34 78 -38 131
-11 33 16 36 16 50 -1 20 -24 86 -13 73 12 -4 9 -10 76 -13 149 -3 72 -8 132
-12 132 -5 0 -23 0 -40 0 l-33 0 0 -112 0 -112 -37 -14 c-61 -23 -68 -11 -68
124 0 62 -3 114 -7 116 -5 2 -23 2 -40 0z"/>
<path d="M1623 862 l-33 -3 0 -150 0 -149 40 0 40 0 0 149 c0 83 -3 151 -7
153 -5 2 -23 2 -40 0z"/>
<path d="M998 842 c-36 -21 -47 -72 -24 -107 9 -13 38 -34 66 -46 61 -26 77
-43 60 -64 -16 -19 -53 -19 -91 0 -35 19 -49 13 -49 -20 0 -18 9 -27 45 -40
83 -32 164 5 167 77 2 47 -17 69 -89 102 -39 19 -53 31 -51 44 4 21 67 29 98
12 17 -9 22 -7 30 16 14 36 1 44 -75 44 -39 0 -70 -7 -87 -18z"/>
<path d="M2268 845 c-31 -17 -63 -67 -73 -112 -10 -48 11 -107 49 -141 46 -40
84 -47 146 -27 108 36 143 178 65 261 -30 32 -36 34 -96 34 -36 -1 -76 -7 -91
-15z m122 -55 c16 -16 20 -33 20 -80 0 -47 -4 -64 -20 -80 -28 -28 -76 -26
-96 5 -21 32 -20 119 1 151 19 30 67 32 95 4z"/>
<path d="M2526 848 c4 -7 22 -31 39 -53 43 -53 57 -83 48 -98 -4 -6 -26 -37
-50 -69 -24 -31 -43 -59 -43 -62 0 -3 16 -6 35 -6 31 0 40 6 67 45 18 25 35
45 38 45 3 0 19 -20 34 -45 26 -41 33 -45 67 -45 22 0 39 4 39 8 0 4 -20 37
-45 72 -25 35 -45 69 -45 75 0 6 25 41 55 78 l55 67 -37 0 c-33 0 -44 -6 -78
-46 l-40 -46 -29 46 c-27 43 -31 46 -73 46 -33 0 -42 -3 -37 -12z"/>
</g>
</svg>
