<?xml version="1.0" standalone="no"?>
<!DOCTYPE svg PUBLIC "-//W3C//DTD SVG 20010904//EN"
 "http://www.w3.org/TR/2001/REC-SVG-20010904/DTD/svg10.dtd">
<svg version="1.0" xmlns="http://www.w3.org/2000/svg"
 width="796.000000pt" height="796.000000pt" viewBox="0 0 796.000000 796.000000"
 preserveAspectRatio="xMidYMid meet">

<g transform="translate(0.000000,796.000000) scale(0.100000,-0.100000)"
fill="#000000" stroke="none">
<path d="M0 3980 l0 -3980 3980 0 3980 0 0 3980 0 3980 -3980 0 -3980 0 0
-3980z m2720 1500 c0 -5 -4 -10 -9 -10 -6 0 -13 5 -16 10 -3 6 1 10 9 10 9 0
16 -4 16 -10z m648 -62 c24 -23 39 -44 33 -46 -23 -8 -120 78 -121 106 0 17
27 -1 88 -60z m-804 1 c55 -61 57 -84 16 -160 -56 -105 -328 -360 -441 -415
-173 -84 -187 -60 -29 50 54 37 105 78 113 90 21 32 28 59 18 75 -7 11 -25 6
-92 -29 -46 -23 -99 -53 -117 -67 -36 -27 -122 -149 -122 -174 0 -9 11 -29 25
-45 14 -16 25 -33 25 -37 0 -4 10 -11 23 -16 20 -8 51 -1 122 29 11 5 38 14
60 21 22 6 57 18 78 25 20 8 53 14 73 14 43 0 77 17 156 78 33 26 85 66 115
90 54 42 73 50 73 33 0 -9 -68 -125 -102 -174 -11 -15 -18 -37 -16 -50 2 -18
12 -23 48 -30 118 -20 138 -20 204 2 85 28 126 27 192 -5 50 -24 84 -26 84 -7
0 5 -18 33 -40 62 -27 36 -39 60 -34 70 24 56 19 71 -50 136 -69 65 -76 78
-50 93 27 15 12 43 -51 92 -78 60 -105 107 -105 183 0 31 4 57 9 57 5 0 18
-15 29 -34 42 -71 143 -186 164 -186 22 0 22 -1 -7 100 -16 55 -9 100 15 100
10 0 167 -114 230 -167 19 -17 54 -42 78 -57 23 -14 42 -33 42 -41 0 -13 -16
-14 -109 -9 l-109 7 -41 -33 c-22 -18 -41 -38 -41 -44 1 -6 44 -56 97 -111
l96 -100 -7 -71 c-6 -76 -2 -86 42 -97 18 -4 33 7 79 59 55 62 161 149 233
191 43 25 156 66 230 83 30 7 113 13 184 13 171 1 166 6 166 -185 l0 -140 -22
7 c-134 41 -218 45 -315 13 -56 -18 -79 -33 -129 -82 -79 -80 -104 -152 -104
-306 0 -232 91 -364 278 -406 69 -15 83 -15 166 -1 50 8 98 18 107 22 13 5 19
-2 27 -27 15 -47 34 -167 28 -177 -3 -4 -22 -12 -43 -18 -186 -54 -400 -41
-546 33 -111 57 -210 171 -245 283 -39 124 -42 148 -42 294 l0 146 -55 60
c-32 33 -79 71 -107 85 -49 25 -60 26 -212 26 -104 0 -182 5 -221 15 -76 17
-482 20 -605 3 -75 -10 -92 -9 -138 6 -121 41 -121 137 1 260 63 63 127 140
152 183 25 42 45 50 45 18 0 -14 6 -25 13 -25 6 0 53 37 102 83 50 45 106 94
125 109 29 21 33 29 22 39 -10 11 -18 10 -45 -3 -46 -23 -67 -29 -67 -18 0 5
10 15 23 21 12 7 33 23 47 36 55 54 122 103 140 103 10 0 39 -23 64 -51z m284
40 c-2 -6 -8 -10 -13 -10 -5 0 -11 4 -13 10 -2 6 4 11 13 11 9 0 15 -5 13 -11z
m918 -36 c21 -13 30 -14 45 -5 24 16 45 3 82 -49 32 -45 23 -51 -22 -13 -34
28 -58 29 -75 1 -9 -15 -1 -27 52 -79 57 -56 61 -62 47 -78 -25 -28 -18 -44
40 -85 51 -37 53 -40 29 -43 -31 -4 -132 76 -218 173 -72 81 -84 128 -43 169
31 31 31 31 63 9z m-1491 -82 c-3 -6 -11 -11 -17 -11 -6 0 -6 6 2 15 14 17 26
13 15 -4z m1225 -51 c0 -4 9 -10 19 -13 23 -6 49 -47 30 -47 -11 0 -79 66 -79
76 0 2 7 1 15 -2 8 -4 15 -10 15 -14z m545 -70 c32 -33 56 -62 53 -65 -6 -6
-39 24 -102 93 -52 56 -14 34 49 -28z m-377 -71 c41 -27 42 -49 1 -49 -56 0
-97 39 -84 81 6 19 8 19 28 4 12 -8 37 -25 55 -36z m1359 -221 c6 -12 148
-495 204 -698 24 -86 35 -125 49 -175 6 -19 15 -51 20 -70 6 -19 15 -51 20
-70 6 -19 14 -50 19 -67 6 -18 14 -49 19 -68 5 -19 12 -45 16 -57 l7 -23 -136
0 -135 0 -11 28 c-11 27 -27 85 -56 197 -9 33 -20 66 -25 73 -8 9 -53 12 -164
12 -151 0 -155 -1 -164 -22 -9 -20 -49 -169 -69 -253 l-7 -30 -132 -3 c-89 -2
-132 1 -132 8 0 6 9 41 20 78 12 37 25 83 31 102 8 31 180 647 210 755 6 22
15 51 19 65 4 14 13 43 19 65 35 127 42 150 54 157 21 14 315 10 324 -4z m649
4 c6 -4 26 -63 44 -132 18 -69 48 -181 67 -250 38 -142 105 -417 123 -503 6
-31 16 -55 21 -52 5 4 9 13 9 21 0 22 66 296 108 449 10 39 43 158 72 265 30
107 58 198 64 202 6 4 63 8 126 8 63 0 120 -4 126 -8 7 -5 -10 -74 -53 -212
-35 -113 -75 -243 -89 -290 -15 -47 -34 -110 -44 -140 -10 -30 -25 -80 -34
-110 -27 -87 -136 -443 -142 -463 -5 -16 -19 -17 -157 -15 l-151 3 -14 45 c-8
25 -17 59 -22 75 -5 17 -23 77 -40 135 -17 58 -36 119 -40 135 -19 65 -29 101
-39 135 -5 19 -28 98 -51 175 -23 77 -45 154 -50 170 -24 86 -100 337 -105
344 -3 5 3 12 12 14 30 8 247 7 259 -1z m1672 -109 l3 -113 -221 0 -220 0 0
-135 0 -135 208 -2 207 -3 3 -104 c2 -77 -1 -107 -10 -113 -7 -4 -102 -8 -211
-8 l-198 0 3 -142 3 -143 233 -3 232 -2 0 -110 0 -110 -362 2 -363 3 -3 609
c-2 481 0 611 10 618 7 4 164 7 348 5 l335 -2 3 -112z m-6518 -240 c17 -5 21
-12 18 -42 l-3 -36 -62 -3 -63 -3 -2 -192 -3 -192 -50 0 -50 0 -5 190 -5 190
-60 5 -60 5 -3 37 c-2 28 1 37 15 41 27 6 308 7 333 0z m385 -38 l0 -40 -90
-5 -90 -5 0 -45 0 -45 85 -5 85 -5 3 -37 c4 -43 -3 -46 -108 -50 l-65 -3 0
-50 0 -50 75 -3 c115 -3 120 -6 120 -52 l0 -40 -150 0 -150 0 0 234 c0 215 1
235 18 239 9 3 73 4 142 3 l125 -1 0 -40z m396 36 c14 -1 34 -7 44 -15 17 -12
17 -17 5 -45 -13 -32 -13 -32 -69 -25 -46 5 -65 2 -103 -16 -39 -18 -50 -30
-64 -66 -19 -50 -14 -119 11 -158 27 -41 79 -59 152 -53 34 2 63 4 63 3 0 0 4
-16 9 -34 9 -30 7 -33 -21 -48 -40 -21 -157 -15 -211 11 -83 39 -127 111 -127
206 0 69 18 118 62 164 47 52 133 85 203 79 11 -1 32 -3 46 -3z m252 0 c15 -1
17 -12 17 -91 l0 -90 90 0 89 0 3 92 3 93 43 0 c24 0 47 -2 53 -5 6 -4 8 -97
7 -236 l-3 -229 -52 -3 -52 -3 -3 98 -3 98 -85 0 -85 0 -5 -95 -5 -95 -50 0
-50 0 -3 225 c-1 123 0 230 2 236 3 7 19 11 38 10 18 -2 41 -4 51 -5z m546 0
c14 -9 79 -120 129 -221 46 -94 48 -90 44 71 l-4 149 51 0 51 0 -2 -232 -3
-233 -51 -3 c-59 -3 -52 -11 -134 143 -61 112 -80 152 -80 165 0 5 -4 10 -10
10 -6 0 -10 -60 -10 -161 l0 -160 -47 3 -48 3 -3 232 c-2 214 -1 232 15 236
31 8 88 7 102 -2z m721 -25 c33 -16 54 -36 78 -76 29 -49 32 -62 32 -131 0
-75 -6 -95 -44 -152 -28 -42 -121 -87 -179 -87 -156 -1 -263 139 -226 293 22
94 75 149 167 172 59 15 115 9 172 -19z m-2505 -516 c3 -5 -7 -12 -22 -16 -38
-9 -53 -23 -53 -48 0 -28 18 -46 46 -46 32 0 40 -18 12 -25 -79 -20 -126 67
-68 125 21 21 74 27 85 10z m132 -60 c13 -36 23 -66 23 -67 0 -11 -35 1 -46
15 -11 14 -16 15 -31 4 -53 -36 -61 -28 -37 40 35 101 58 103 91 8z m151 58
c21 -21 13 -48 -18 -66 -19 -11 -30 -25 -30 -38 0 -21 -22 -38 -34 -27 -8 9
-8 128 1 136 11 12 68 8 81 -5z m122 2 c0 -6 -10 -14 -21 -19 -21 -7 -21 -8
11 -38 37 -34 36 -58 -4 -72 -27 -11 -69 -3 -60 10 3 5 14 9 25 9 27 0 24 25
-6 44 -29 19 -31 33 -8 58 17 19 63 25 63 8z m100 -51 c4 -39 9 -54 20 -54 11
0 16 15 20 55 4 42 9 56 23 58 27 5 25 -98 -3 -123 -25 -23 -67 -22 -85 1 -15
19 -21 105 -8 118 16 16 28 -4 33 -55z m148 -2 c3 -53 5 -57 27 -57 13 0 27
-4 30 -10 8 -13 -39 -24 -70 -16 -24 6 -25 10 -25 77 0 62 2 70 18 67 13 -2
18 -15 20 -61z m177 48 c0 -5 -12 -12 -27 -15 -30 -5 -26 -21 7 -35 19 -7 19
-8 -5 -14 -14 -4 -26 -15 -28 -24 -3 -13 4 -17 28 -17 21 0 30 -4 28 -12 -5
-16 -41 -22 -74 -14 -22 6 -24 11 -24 77 l0 70 48 -3 c26 -2 47 -7 47 -13z
m133 -18 c5 -38 36 -33 40 6 3 20 8 27 20 25 13 -2 18 -16 20 -62 2 -32 1 -65
-2 -72 -8 -22 -35 -5 -38 24 -2 19 -9 27 -23 27 -14 0 -19 -6 -17 -19 5 -28
-5 -46 -23 -40 -11 5 -15 22 -15 76 0 61 2 69 18 66 10 -2 18 -14 20 -31z
m237 8 c41 -40 29 -95 -23 -113 -87 -30 -146 56 -80 118 30 27 73 26 103 -5z
m145 15 c0 -5 -9 -14 -20 -20 -16 -8 -20 -21 -20 -60 0 -42 -3 -50 -18 -50
-15 0 -18 6 -14 30 6 44 -5 77 -29 83 -12 3 -18 10 -14 16 8 14 115 15 115 1z
m113 -5 c-1 -5 -11 -11 -23 -13 -26 -4 -26 -32 0 -32 11 0 20 -4 20 -9 0 -5
-9 -11 -20 -14 -29 -8 -26 -37 4 -37 27 0 43 -15 23 -22 -6 -3 -28 -4 -47 -4
l-35 1 -3 73 -3 73 43 -3 c24 -2 42 -7 41 -13z m77 -29 c0 -60 8 -76 36 -76
27 0 32 -17 9 -26 -8 -4 -31 -3 -50 0 l-35 7 0 63 c0 65 4 76 27 76 9 0 13
-14 13 -44z m231 34 c21 -12 26 -45 8 -56 -8 -4 -8 -9 0 -17 18 -18 13 -35
-14 -53 -16 -10 -34 -14 -50 -10 -24 6 -25 10 -25 76 l0 70 31 0 c17 0 39 -5
50 -10z m99 -59 c0 -50 -4 -70 -14 -74 -22 -9 -26 2 -26 68 0 64 4 75 27 75 9
0 13 -18 13 -69z m110 58 c0 -6 -9 -13 -20 -16 -27 -7 -25 -17 5 -37 34 -22
33 -59 -1 -75 -27 -12 -64 -7 -64 10 0 5 11 9 25 9 16 0 25 6 25 15 0 9 -11
21 -25 27 -27 12 -34 45 -13 66 15 15 68 16 68 1z m80 -19 c4 -18 14 -26 32
-28 23 -3 27 1 30 25 2 17 9 28 18 28 12 0 16 -15 18 -67 2 -43 -1 -68 -8 -68
-5 0 -13 -1 -17 -2 -5 -1 -10 11 -13 28 -4 23 -10 29 -30 29 -20 0 -26 -6 -30
-30 -3 -16 -9 -29 -13 -27 -4 1 -11 2 -17 2 -6 0 -10 30 -10 71 0 61 2 70 17
67 9 -2 20 -14 23 -28z m164 4 l7 -26 20 26 c11 14 27 26 35 26 18 0 18 -14
-1 -30 -21 -17 -19 -47 6 -81 20 -29 20 -29 1 -29 -11 0 -29 12 -41 28 l-20
27 -7 -31 c-4 -23 -11 -30 -23 -27 -14 3 -17 16 -15 66 2 79 1 77 18 77 8 0
17 -12 20 -26z m201 16 c4 -6 -7 -13 -24 -16 -38 -8 -40 -21 -3 -36 l27 -11
-25 -6 c-35 -9 -39 -39 -5 -43 14 -2 27 -7 28 -13 3 -13 -37 -19 -69 -11 -22
6 -24 11 -24 76 l0 70 44 0 c25 0 48 -5 51 -10z m65 -9 c0 -30 16 -33 30 -6 7
14 22 25 32 25 19 0 24 -15 8 -25 -28 -17 -29 -43 -5 -79 31 -45 14 -57 -25
-18 -30 31 -40 31 -40 0 0 -11 -7 -18 -20 -18 -18 0 -20 7 -20 63 0 35 3 67 7
70 13 14 33 6 33 -12z"/>
<path d="M4847 4696 c-4 -11 -19 -69 -32 -130 -14 -61 -37 -163 -53 -226 -21
-81 -26 -117 -18 -122 15 -10 208 -10 223 0 10 6 8 24 -8 78 -11 38 -24 87
-29 109 -7 36 -23 102 -50 205 -5 19 -12 51 -17 70 -7 29 -10 32 -16 16z"/>
<path d="M2959 4485 c-59 -32 -82 -158 -43 -226 11 -18 35 -42 53 -53 31 -18
37 -18 75 -5 25 9 49 27 63 48 44 65 25 192 -36 238 -22 17 -80 16 -112 -2z"/>
<path d="M700 3980 c0 -5 5 -10 10 -10 6 0 10 5 10 10 0 6 -4 10 -10 10 -5 0
-10 -4 -10 -10z"/>
<path d="M860 4005 c0 -8 5 -15 10 -15 6 0 10 7 10 15 0 8 -4 15 -10 15 -5 0
-10 -7 -10 -15z"/>
<path d="M1740 4006 c-28 -35 11 -93 48 -70 21 14 28 64 10 75 -20 13 -44 11
-58 -5z"/>
<path d="M2350 4009 c0 -5 5 -7 10 -4 6 3 10 8 10 11 0 2 -4 4 -10 4 -5 0 -10
-5 -10 -11z"/>
<path d="M2350 3945 c0 -8 5 -15 10 -15 6 0 10 7 10 15 0 8 -4 15 -10 15 -5 0
-10 -7 -10 -15z"/>
</g>
</svg>
