<?xml version="1.0" standalone="no"?>
<!DOCTYPE svg PUBLIC "-//W3C//DTD SVG 20010904//EN"
 "http://www.w3.org/TR/2001/REC-SVG-20010904/DTD/svg10.dtd">
<svg version="1.0" xmlns="http://www.w3.org/2000/svg"
 width="1080.000000pt" height="1080.000000pt" viewBox="0 0 1080.000000 1080.000000"
 preserveAspectRatio="xMidYMid meet">

<g transform="translate(0.000000,1080.000000) scale(0.100000,-0.100000)"
fill="#000000" stroke="none">
<path d="M4594 7999 c-63 -62 -112 -114 -110 -116 1 -2 29 9 61 23 38 17 82
29 126 32 60 4 75 1 123 -22 33 -16 74 -48 100 -78 l44 -50 12 38 c18 58 46
99 75 112 38 17 114 14 160 -7 68 -31 128 -114 111 -156 -4 -12 -12 -11 -42
10 -40 27 -70 31 -108 14 -60 -28 -73 -142 -21 -186 34 -30 107 -31 153 -3 81
49 111 213 60 320 -52 107 -96 134 -238 144 -88 6 -227 19 -344 32 l-48 5
-114 -112z"/>
<path d="M5780 8088 c-157 -13 -235 -24 -259 -36 -105 -52 -160 -189 -126
-316 27 -101 74 -146 155 -146 52 0 76 13 96 52 21 40 13 102 -16 133 -33 35
-73 40 -123 16 -56 -27 -57 -27 -57 9 0 38 59 106 115 131 22 10 63 19 92 19
44 0 58 -5 87 -30 21 -19 41 -50 51 -79 l16 -48 62 61 c47 47 74 66 110 76 64
17 153 8 223 -24 31 -14 59 -26 63 -26 3 0 -47 52 -112 115 -66 63 -126 114
-135 114 -10 -1 -118 -10 -242 -21z"/>
<path d="M6219 7840 c-137 -35 -262 -127 -322 -238 -34 -63 -88 -222 -76 -222
20 0 137 43 197 72 83 41 171 127 211 206 30 60 66 174 59 191 -2 4 -33 0 -69
-9z"/>
<path d="M4460 7839 c0 -27 42 -150 65 -192 62 -111 171 -194 316 -242 41 -13
80 -25 86 -25 21 0 -53 189 -103 262 -64 94 -164 164 -279 194 -62 17 -85 17
-85 3z"/>
<path d="M6342 7768 c25 -58 31 -88 31 -143 1 -87 -21 -133 -93 -198 -52 -47
-59 -57 -37 -57 7 0 36 -11 64 -25 55 -28 83 -69 83 -122 0 -82 -74 -194 -139
-208 -46 -10 -55 1 -31 39 25 42 26 103 1 135 -15 20 -30 25 -78 29 -52 4 -63
1 -88 -20 -24 -21 -28 -32 -29 -79 0 -43 5 -62 23 -88 64 -90 248 -105 365
-31 74 47 92 98 106 300 6 91 14 197 17 236 l6 72 -116 117 -116 117 31 -74z"/>
<path d="M4307 7711 c-96 -96 -107 -111 -102 -137 8 -49 24 -233 31 -353 7
-105 10 -117 38 -160 47 -70 125 -106 231 -106 142 0 215 55 215 163 0 74 -28
102 -102 102 -64 0 -92 -17 -108 -66 -11 -32 -9 -41 13 -85 28 -52 23 -65 -20
-54 -100 25 -172 176 -128 268 12 26 31 43 68 62 28 14 57 25 64 25 7 0 13 5
13 10 0 6 -4 10 -8 10 -17 0 -93 83 -114 124 -31 61 -29 162 5 244 14 34 22
62 19 62 -4 0 -56 -49 -115 -109z"/>
<path d="M5220 7354 c-50 -51 -89 -75 -140 -83 -30 -6 -35 -11 -41 -41 -8 -51
-25 -78 -87 -142 -31 -32 -53 -58 -49 -58 4 0 46 11 93 25 106 31 126 31 189
1 63 -29 80 -48 66 -74 -10 -19 -7 -20 49 -24 l60 -3 0 58 0 59 -30 -7 c-27
-6 -32 -2 -60 41 -37 58 -40 121 -10 216 30 97 26 100 -40 32z"/>
<path d="M5470 7393 c0 -5 9 -37 20 -71 30 -95 27 -158 -10 -216 -28 -43 -33
-47 -60 -41 l-30 7 0 -59 0 -58 58 3 c58 4 58 4 54 32 -4 25 2 32 49 59 66 38
103 39 206 6 43 -14 82 -25 88 -25 5 0 -16 26 -47 58 -54 54 -97 127 -98 165
0 12 -8 17 -25 17 -38 0 -95 33 -145 84 -42 44 -60 55 -60 39z"/>
<path d="M5035 7006 c-46 -14 -125 -64 -125 -78 0 -13 38 -44 82 -68 44 -23
130 -27 147 -6 16 19 -5 34 -75 55 l-58 17 61 16 c33 10 66 24 73 33 11 13 7
17 -23 30 -20 8 -38 15 -39 14 -2 0 -21 -6 -43 -13z"/>
<path d="M5610 6995 c-10 -12 -6 -18 20 -33 17 -11 50 -23 73 -27 l42 -7 -61
-19 c-106 -33 -110 -69 -8 -69 51 0 119 33 153 74 17 20 20 16 -54 60 -65 40
-141 49 -165 21z"/>
<path d="M4412 6885 c-65 -20 -116 -60 -144 -113 -21 -39 -27 -67 -32 -157 -4
-60 -13 -168 -21 -240 l-14 -130 107 -107 c58 -59 108 -105 110 -103 3 2 -6
30 -19 62 -17 42 -23 78 -23 128 0 85 27 139 100 204 40 35 44 42 28 47 -126
43 -165 105 -134 213 22 77 119 165 163 148 15 -6 14 -11 -8 -53 -30 -57 -31
-70 -5 -111 36 -60 146 -66 185 -10 9 13 15 44 15 78 0 52 -3 60 -37 93 -63
61 -174 82 -271 51z"/>
<path d="M5294 6893 c-49 -4 -50 -5 -46 -33 3 -24 -2 -32 -38 -56 -60 -40
-133 -43 -227 -10 -40 14 -73 22 -73 17 0 -4 21 -27 46 -51 50 -49 83 -109 84
-152 0 -23 5 -28 24 -28 43 0 98 -31 158 -87 32 -31 58 -52 58 -47 0 5 -9 41
-20 79 -29 103 -27 161 10 219 28 43 33 47 60 41 l30 -7 0 61 c0 34 -3 60 -7
59 -5 -1 -31 -3 -59 -5z"/>
<path d="M5390 6837 l0 -57 32 2 c28 3 35 -2 61 -44 35 -57 38 -113 8 -208
-12 -36 -21 -71 -21 -79 0 -8 27 12 60 43 58 56 111 86 149 86 14 0 21 9 26
33 12 52 34 89 88 144 28 29 49 54 46 56 -2 2 -35 -6 -74 -19 -85 -28 -147
-29 -200 -5 -51 23 -69 44 -63 75 5 23 2 25 -54 28 l-58 3 0 -58z"/>
<path d="M6149 6885 c-109 -35 -163 -156 -101 -227 40 -47 144 -43 176 7 22
33 20 91 -4 131 -42 68 39 56 103 -16 86 -95 89 -208 9 -264 -21 -14 -52 -29
-70 -32 -17 -4 -32 -9 -32 -11 0 -3 23 -25 50 -50 107 -96 124 -210 55 -362
l-26 -56 117 117 117 116 -17 234 c-21 280 -18 262 -54 318 -56 88 -207 132
-323 95z"/>
<path d="M4845 6445 c-107 -41 -130 -53 -192 -99 -91 -69 -147 -154 -178 -273
-22 -85 -24 -83 48 -67 136 31 256 116 321 226 15 26 43 90 62 143 39 109 39
109 -61 70z"/>
<path d="M5847 6366 c45 -132 109 -221 203 -283 64 -43 169 -83 217 -83 22 0
24 3 18 33 -9 43 -40 128 -65 177 -30 58 -125 147 -194 182 -56 28 -188 78
-207 78 -5 0 8 -47 28 -104z"/>
<path d="M5139 6245 c-59 -32 -64 -146 -9 -185 36 -26 90 -26 123 0 35 28 47
25 47 -10 0 -38 -59 -106 -115 -131 -23 -11 -64 -19 -96 -19 -51 0 -60 3 -88
32 -18 18 -39 54 -49 80 l-17 47 -44 -51 c-96 -109 -207 -125 -376 -53 -36 15
-29 5 75 -100 l115 -116 60 5 c33 3 146 13 250 22 164 14 196 19 231 40 110
63 151 237 88 370 -32 67 -133 103 -195 69z"/>
<path d="M5490 6247 c-112 -52 -139 -251 -52 -380 37 -54 93 -83 177 -91 39
-3 151 -13 249 -22 l179 -16 108 108 c60 60 109 113 109 118 0 4 -6 4 -12 -2
-25 -20 -138 -52 -184 -52 -82 0 -124 19 -192 86 -62 62 -62 62 -68 36 -11
-47 -48 -103 -76 -118 -100 -52 -278 38 -278 140 0 31 6 32 45 6 33 -22 85
-26 117 -9 23 12 48 66 48 103 0 83 -88 131 -170 93z"/>
<path d="M9503 5998 c-145 -72 -318 -281 -544 -658 -212 -355 -487 -962 -463
-1025 7 -18 42 -26 87 -18 30 4 38 11 43 32 14 63 49 132 97 193 85 107 118
141 126 132 4 -5 13 -29 20 -54 30 -107 166 -282 245 -315 19 -8 51 -15 69
-15 51 0 148 54 225 125 39 36 73 65 76 65 3 0 6 -27 6 -59 0 -82 21 -107 88
-105 33 1 62 10 89 27 54 34 145 137 201 227 l47 75 7 -85 c10 -138 33 -186
102 -220 102 -49 211 -2 328 141 53 64 118 160 118 172 0 23 -33 -3 -85 -66
-88 -106 -172 -184 -211 -197 -42 -14 -78 4 -96 48 -32 79 -26 314 12 428 15
44 31 71 52 88 35 27 32 41 -22 81 -51 38 -143 36 -229 -5 -113 -54 -254 -218
-349 -405 -44 -87 -153 -183 -241 -213 -46 -16 -124 -15 -164 2 -54 22 -122
120 -141 201 -4 17 -9 37 -12 47 -4 13 5 17 48 23 95 13 257 108 319 187 76
98 62 238 -26 238 -39 0 -126 -44 -193 -97 -26 -20 -127 -115 -224 -212 -98
-96 -180 -172 -183 -169 -4 4 14 55 39 115 l46 108 92 70 c321 246 639 568
766 778 50 83 85 192 79 246 -11 102 -117 132 -244 69z m156 -74 c20 -15 23
-23 19 -68 -10 -118 -112 -266 -354 -512 -158 -161 -230 -224 -352 -316 -83
-62 -92 -66 -92 -42 0 40 130 315 217 459 133 219 349 430 492 481 46 17 43
17 70 -2z m-379 -989 c0 -69 -113 -183 -220 -222 -45 -16 -127 -17 -136 -1
-11 17 226 245 279 268 38 17 43 18 59 3 10 -9 18 -30 18 -48z m745 -12 c-21
-86 -188 -369 -267 -453 -89 -95 -145 -116 -168 -61 -25 62 22 190 117 316
110 146 211 224 292 225 31 0 33 -2 26 -27z"/>
<path d="M1540 5935 c-8 -2 -49 -9 -90 -15 -371 -59 -821 -276 -1042 -502
-149 -153 -165 -309 -39 -405 112 -87 417 -118 599 -61 68 21 112 44 112 59 0
14 -82 11 -199 -8 -58 -9 -155 -16 -216 -17 -140 0 -213 20 -267 74 -34 33
-38 43 -38 87 0 41 7 61 38 109 114 175 537 441 883 554 156 51 235 65 364 65
104 -1 127 -4 173 -24 203 -91 201 -352 -8 -839 -126 -294 -262 -555 -354
-674 -48 -64 -58 -86 -50 -111 15 -48 63 -50 97 -4 14 17 62 93 107 167 229
377 451 670 695 916 213 216 345 281 390 194 47 -91 -21 -401 -157 -710 -49
-111 -135 -294 -184 -392 -73 -145 -71 -178 7 -193 42 -8 40 -10 149 155 114
173 194 277 385 500 115 135 372 392 452 454 75 56 183 109 207 100 39 -15 10
-128 -89 -344 -223 -483 -296 -776 -230 -914 38 -79 148 -96 260 -41 56 27 89
58 100 93 10 34 -16 28 -87 -18 -99 -64 -158 -65 -184 -4 -18 42 -17 81 1 169
27 130 85 294 201 572 121 291 144 362 144 455 0 46 -5 62 -24 85 -86 99 -323
-61 -782 -530 -123 -126 -224 -224 -224 -218 0 6 13 43 29 83 86 219 132 410
132 556 0 95 -3 111 -28 161 -38 75 -69 96 -142 95 -127 -2 -269 -116 -521
-419 -208 -250 -214 -255 -159 -137 100 215 150 393 153 542 1 96 -1 110 -27
162 -61 124 -188 179 -412 177 -60 -1 -117 -3 -125 -4z"/>
<path d="M5739 5684 c-45 -23 -109 -44 -201 -64 -240 -52 -362 -115 -499 -257
-98 -101 -142 -157 -219 -273 -101 -154 -198 -369 -225 -497 -7 -34 -31 -56
-102 -92 -50 -25 -167 -30 -197 -8 -17 13 -16 17 14 77 106 210 119 380 36
477 -27 30 -39 36 -83 40 -127 13 -252 -127 -256 -288 l-2 -63 -35 -9 c-19 -5
-95 -27 -168 -49 -74 -22 -136 -37 -139 -34 -3 3 20 65 51 138 31 73 56 139
56 146 0 28 -77 4 -112 -34 -9 -11 -26 -53 -38 -94 -31 -107 -91 -260 -145
-375 -32 -67 -45 -105 -41 -121 7 -28 17 -29 55 -9 32 16 65 80 101 191 13 40
30 81 39 92 16 20 213 85 298 98 l42 6 -44 -86 c-72 -143 -83 -272 -28 -316
73 -57 217 1 313 125 31 41 48 54 59 49 77 -33 156 -28 247 16 24 12 47 21 51
21 4 -1 6 -17 5 -35 -7 -75 35 -159 83 -168 35 -7 40 6 13 42 -21 28 -21 35
-11 94 20 117 191 424 293 526 80 80 142 85 156 14 9 -48 -2 -170 -21 -245
-51 -197 -211 -422 -344 -486 -47 -22 -64 -25 -120 -20 -36 2 -72 6 -80 8 -28
7 -24 -30 4 -41 72 -27 205 -1 300 58 59 37 165 147 217 227 140 213 225 538
162 622 -27 36 -85 42 -147 15 -62 -27 -158 -121 -243 -236 -40 -56 -80 -110
-89 -121 -25 -33 32 113 77 195 187 344 307 473 473 508 28 6 101 16 162 22
131 12 216 36 293 82 60 36 77 62 82 123 4 52 -9 53 -93 9z m-1492 -669 c12
-8 31 -41 43 -73 30 -79 24 -204 -14 -317 -15 -44 -31 -84 -36 -89 -21 -21
-140 113 -140 160 0 34 66 102 105 110 59 11 37 53 -28 56 -20 1 -47 -6 -61
-15 -39 -26 -48 -22 -40 21 22 120 106 193 171 147z m-108 -467 l73 -67 -27
-35 c-35 -46 -107 -104 -144 -117 -21 -8 -36 -7 -52 1 -20 11 -21 18 -16 71 5
58 72 223 87 217 4 -2 40 -33 79 -70z"/>
<path d="M7276 5425 c-3 -8 -3 -28 0 -44 9 -43 -12 -93 -49 -118 -45 -31 -129
-30 -317 2 -325 55 -478 55 -596 -1 -76 -36 -113 -70 -140 -129 -22 -47 -32
-124 -17 -138 14 -15 33 18 33 58 0 63 33 105 105 135 55 23 73 25 205 25 99
0 167 -6 215 -17 361 -85 433 -88 505 -15 60 61 87 138 81 235 -1 25 -16 29
-25 7z"/>
<path d="M7914 5398 c-14 -22 -8 -112 9 -145 36 -68 104 -98 211 -91 49 3 89
13 129 32 61 29 179 123 197 157 20 36 -16 21 -77 -32 -32 -28 -74 -59 -94
-69 -51 -27 -130 -38 -191 -29 -66 11 -113 54 -137 130 -18 55 -33 70 -47 47z"/>
<path d="M5605 5038 c-69 -25 -158 -104 -222 -198 -96 -142 -135 -273 -113
-383 25 -132 103 -183 240 -157 65 12 197 74 263 125 27 20 47 30 47 23 0 -10
-39 -123 -43 -123 0 0 5 -10 11 -22 17 -32 35 -20 78 50 83 137 309 441 368
496 20 19 27 21 31 10 3 -8 -6 -86 -20 -172 -28 -178 -41 -322 -31 -361 5 -20
12 -26 34 -26 37 0 68 34 130 145 28 50 66 111 84 136 33 46 105 129 112 129
2 0 6 -60 9 -132 3 -95 10 -147 23 -182 49 -127 158 -118 316 25 l66 59 7 -37
c10 -54 30 -88 72 -120 33 -25 43 -28 112 -27 96 2 184 36 300 118 44 31 82
56 85 56 2 0 7 -18 11 -41 10 -58 44 -93 87 -92 69 2 142 63 236 196 30 43 56
76 59 73 3 -2 -2 -29 -11 -59 -31 -107 -17 -215 36 -264 71 -67 182 -52 313
41 108 78 270 280 263 329 -2 18 -18 4 -84 -78 -148 -183 -255 -265 -343 -265
-53 0 -69 7 -86 41 -36 69 -6 179 117 422 76 152 79 160 63 183 -8 13 -27 27
-41 30 -33 8 -58 -15 -94 -86 -44 -87 -152 -261 -214 -344 -54 -73 -124 -136
-153 -136 -30 0 -53 39 -53 90 0 59 25 125 91 242 27 48 50 92 51 99 2 6 -9
15 -24 19 -69 20 -159 -99 -202 -264 -18 -67 -30 -83 -103 -138 -148 -109
-304 -148 -358 -88 -21 23 -30 99 -20 165 5 38 12 50 37 63 85 46 160 103 224
169 108 110 138 190 92 248 -20 25 -25 27 -74 22 -98 -10 -192 -82 -279 -211
-67 -101 -92 -156 -110 -243 -12 -55 -21 -74 -57 -111 -119 -124 -223 -135
-244 -27 -3 20 -4 76 0 125 3 50 9 130 12 179 6 83 5 90 -15 100 -50 27 -102
-24 -294 -291 -62 -86 -78 -99 -71 -56 2 13 18 119 34 235 34 234 32 253 -19
253 -38 0 -70 -27 -138 -118 -32 -42 -63 -84 -70 -92 -7 -8 -52 -68 -100 -134
-48 -65 -89 -113 -91 -108 -2 6 17 73 42 149 57 174 82 270 73 279 -4 4 -25 1
-46 -6 -46 -15 -64 -44 -80 -134 -21 -116 -72 -281 -94 -305 -37 -39 -140
-109 -212 -142 -90 -42 -180 -47 -218 -10 -15 13 -28 40 -32 61 -7 40 10 153
23 158 41 14 151 92 221 158 84 79 141 163 141 207 0 26 -27 74 -45 81 -24 9
-75 6 -110 -6z m63 -99 c7 -60 -63 -156 -172 -236 -95 -70 -100 -56 -23 78 69
121 131 191 166 187 20 -2 27 -9 29 -29z m1720 -12 c4 -49 -20 -88 -108 -171
-68 -64 -126 -103 -137 -92 -16 15 125 247 173 285 42 33 68 25 72 -22z"/>
<path d="M4760 3575 c0 -47 93 -76 149 -45 30 15 46 49 31 64 -8 8 -16 4 -32
-16 -27 -39 -90 -40 -114 -3 -21 32 -34 32 -34 0z"/>
<path d="M3950 3390 c0 -88 32 -141 98 -159 33 -10 112 5 112 20 0 5 4 9 10 9
5 0 10 -33 12 -72 2 -60 6 -73 21 -76 16 -3 17 10 17 168 0 158 -1 171 -17
168 -15 -3 -19 -16 -21 -70 -3 -61 -6 -69 -33 -92 -34 -29 -76 -33 -118 -12
-36 19 -51 55 -51 121 0 42 -4 55 -15 55 -12 0 -15 -13 -15 -60z"/>
<path d="M4366 3426 c-51 -31 -75 -77 -76 -146 0 -67 22 -108 79 -146 35 -23
48 -26 99 -22 41 3 67 11 87 26 35 28 43 28 47 0 5 -38 33 -28 35 12 4 91 -10
192 -31 223 -53 79 -159 102 -240 53z m169 -26 c121 -75 56 -269 -86 -257
-104 9 -162 115 -114 208 34 66 134 90 200 49z"/>
<path d="M4690 3345 c0 -118 11 -154 59 -199 40 -38 120 -47 172 -21 19 10 37
23 41 29 4 6 11 -1 17 -17 23 -61 31 -26 31 143 0 144 -2 170 -15 170 -12 0
-15 -19 -15 -107 0 -89 -3 -114 -20 -140 -37 -62 -116 -81 -178 -43 -48 29
-62 72 -62 190 0 82 -3 100 -15 100 -12 0 -15 -18 -15 -105z"/>
<path d="M5070 3441 c0 -5 6 -16 13 -23 20 -21 93 -112 101 -126 5 -8 -15 -41
-53 -89 -34 -41 -61 -79 -61 -84 0 -24 31 -2 85 61 33 39 63 69 66 67 3 -1 32
-32 63 -69 32 -38 61 -68 66 -68 25 0 13 24 -45 94 l-65 78 42 50 c91 106 91
107 73 115 -12 4 -25 -4 -43 -28 -15 -19 -43 -51 -62 -72 l-35 -37 -58 70
c-53 63 -87 87 -87 61z"/>
<path d="M5521 3429 c-47 -28 -68 -56 -81 -107 -20 -82 30 -177 107 -203 54
-17 126 -7 168 25 l35 27 0 -31 c0 -25 4 -31 18 -28 15 3 17 16 18 98 2 128
-24 188 -98 226 -41 21 -127 18 -167 -7z m166 -31 c80 -55 84 -157 8 -228 -22
-21 -36 -25 -86 -25 -54 0 -61 3 -95 36 -91 91 -31 239 95 239 30 0 56 -7 78
-22z"/>
<path d="M5840 3280 c0 -144 2 -170 15 -170 12 0 15 15 15 75 l0 75 110 0 109
0 3 -72 c2 -46 7 -73 16 -76 9 -3 12 35 12 168 0 133 -3 171 -12 168 -9 -3
-14 -30 -16 -77 l-3 -72 -107 3 -107 3 -3 73 c-2 55 -6 72 -17 72 -13 0 -15
-28 -15 -170z"/>
<path d="M6270 3428 c-91 -62 -110 -168 -47 -252 53 -69 165 -87 234 -38 39
27 41 27 45 0 2 -13 10 -23 18 -23 18 0 25 70 15 162 -7 71 -33 115 -84 150
-47 32 -135 32 -181 1z m164 -27 c43 -28 66 -70 66 -119 0 -110 -112 -176
-208 -122 -126 71 -76 260 68 260 27 0 56 -8 74 -19z"/>
</g>
</svg>
