<?xml version="1.0" standalone="no"?>
<!DOCTYPE svg PUBLIC "-//W3C//DTD SVG 20010904//EN"
 "http://www.w3.org/TR/2001/REC-SVG-20010904/DTD/svg10.dtd">
<svg version="1.0" xmlns="http://www.w3.org/2000/svg"
 width="2835.000000pt" height="2835.000000pt" viewBox="0 0 2835.000000 2835.000000"
 preserveAspectRatio="xMidYMid meet">

<g transform="translate(0.000000,2835.000000) scale(0.100000,-0.100000)"
fill="#fff" stroke="#053527">
<path d="M11995 25424 c-182 -20 -673 -137 -1085 -260 -652 -195 -1223 -424
-1860 -745 -1905 -959 -3518 -2460 -4617 -4294 -444 -740 -762 -1432 -1034
-2245 -304 -912 -477 -1775 -555 -2775 -22 -282 -30 -1070 -15 -1372 50 -978
213 -1900 496 -2812 646 -2080 1902 -3956 3590 -5363 1667 -1389 3700 -2276
5825 -2542 547 -69 766 -81 1445 -81 642 1 775 7 1255 61 3343 373 6327 2195
8195 5004 506 762 904 1546 1215 2400 330 903 548 1886 634 2855 56 625 60
1312 10 1940 -185 2339 -1095 4565 -2604 6370 -383 458 -881 961 -1335 1350
-1327 1136 -2914 1958 -4596 2380 -478 120 -654 146 -868 126 -370 -34 -677
-177 -936 -436 -220 -220 -359 -473 -427 -776 -20 -89 -23 -131 -23 -299 0
-214 10 -287 66 -460 46 -143 112 -266 266 -502 77 -117 174 -269 215 -338
408 -684 663 -1357 710 -1876 37 -414 -106 -883 -375 -1223 -179 -225 -380
-386 -639 -511 -499 -241 -1069 -239 -1563 5 -205 101 -348 207 -511 378 -132
138 -219 263 -303 432 -243 490 -252 951 -30 1616 164 492 396 950 771 1521
200 305 258 432 310 672 28 133 31 404 5 543 -103 559 -507 1021 -1039 1192
-54 17 -137 38 -185 47 -87 15 -330 26 -408 18z m8041 -7935 c57 -27 155 -133
190 -206 27 -54 29 -67 29 -173 0 -88 -5 -134 -22 -197 -30 -108 -107 -288
-182 -424 -111 -200 -327 -517 -342 -501 -11 11 -65 286 -89 448 -71 496 -33
830 112 971 100 97 211 128 304 82z m-4856 -230 c0 -6 -97 -336 -214 -733
-118 -396 -303 -1018 -410 -1381 -107 -363 -245 -824 -306 -1025 -61 -201
-233 -777 -381 -1280 -149 -503 -345 -1167 -436 -1475 -91 -308 -183 -621
-205 -695 -95 -325 -116 -515 -70 -615 46 -100 103 -135 222 -135 167 0 385
125 523 298 47 59 57 81 86 182 34 118 1226 3439 1240 3453 4 4 311 6 683 5
l676 -3 -49 -135 c-26 -74 -125 -351 -219 -615 -747 -2089 -941 -2641 -983
-2795 -26 -95 -31 -134 -32 -225 0 -99 2 -114 25 -155 46 -82 175 -130 298
-110 111 18 266 86 377 165 86 61 196 181 270 293 57 88 63 103 70 167 19 186
95 543 170 795 18 63 196 640 394 1283 199 642 361 1172 361 1177 0 6 -71 10
-190 10 -104 0 -190 1 -190 3 0 1 44 147 99 322 l99 320 195 3 196 2 9 33 c40
139 486 1594 491 1600 4 4 300 6 658 5 l650 -3 -39 -130 c-21 -71 -95 -321
-163 -555 -114 -391 -264 -891 -280 -932 -7 -17 13 -18 325 -18 l332 0 -5 -22
c-4 -13 -48 -159 -99 -325 l-93 -303 -327 0 c-302 0 -327 -1 -332 -17 -67
-227 -711 -2350 -751 -2478 -123 -391 -184 -676 -192 -905 -8 -221 23 -334
110 -404 34 -27 47 -31 115 -34 212 -10 420 154 752 593 156 208 392 575 554
866 l48 87 77 -24 c42 -13 95 -29 119 -35 23 -6 45 -15 48 -20 7 -12 -225
-470 -336 -664 -254 -442 -523 -819 -807 -1130 -328 -359 -569 -531 -837 -595
-225 -54 -483 -25 -677 77 -265 138 -443 444 -493 846 l-11 90 -76 -104 c-354
-482 -819 -801 -1318 -906 -170 -36 -381 -38 -514 -5 -339 84 -517 304 -543
668 l-7 91 -60 -71 c-163 -191 -411 -401 -601 -510 -247 -140 -536 -218 -742
-202 -204 17 -376 86 -485 195 -164 165 -231 376 -231 731 -1 245 35 468 128
808 41 151 960 3207 974 3240 5 12 18 22 27 22 37 0 260 82 377 138 327 157
570 361 754 635 190 281 284 587 284 922 0 162 -12 256 -52 411 -71 268 -211
517 -412 729 l-90 95 64 210 63 210 657 0 c476 0 658 -3 658 -11z m-3155 -63
c704 -86 1100 -234 1445 -538 259 -229 417 -487 481 -789 31 -144 31 -361 0
-506 -59 -279 -190 -513 -405 -720 -253 -245 -578 -400 -966 -460 -233 -36
-686 -16 -895 38 -225 60 -475 240 -627 454 -82 115 -207 390 -186 410 3 4 30
-1 59 -9 174 -50 393 -60 562 -25 472 95 814 387 891 761 30 146 14 268 -55
408 -59 119 -186 245 -314 312 -113 59 -234 99 -400 134 -113 24 -153 28 -310
28 -137 1 -200 -4 -265 -17 -252 -54 -497 -178 -726 -369 -381 -317 -685 -891
-786 -1483 -32 -189 -31 -522 1 -715 84 -496 337 -947 697 -1241 157 -128 400
-266 616 -350 49 -19 88 -39 88 -46 0 -7 -5 -35 -11 -63 l-11 -50 -123 0
c-478 0 -998 -110 -1390 -295 -432 -203 -856 -528 -1115 -855 -327 -412 -504
-830 -582 -1375 -20 -137 -16 -534 5 -660 68 -389 205 -672 442 -911 188 -191
385 -290 661 -335 109 -18 375 -15 504 5 405 63 846 278 1309 640 195 152 356
298 632 576 l276 278 26 -99 c15 -55 42 -135 61 -178 l34 -79 -75 -84 c-523
-582 -1200 -1095 -1783 -1352 -339 -149 -673 -241 -1010 -276 -136 -15 -476
-15 -610 0 -486 53 -833 197 -1166 483 -443 381 -705 901 -780 1548 -22 195
-15 595 14 784 129 835 517 1510 1147 1996 343 265 770 432 1228 481 64 7 117
15 117 18 0 3 -29 22 -65 43 -225 131 -407 329 -514 558 -48 103 -103 280
-127 414 -26 142 -27 514 -1 668 47 276 130 533 262 804 187 385 362 637 650
932 313 320 595 529 975 720 439 220 914 360 1360 400 150 14 599 6 755 -13z
m9611 -546 c236 -61 392 -202 470 -425 26 -72 28 -93 28 -215 0 -122 -2 -143
-27 -215 -38 -109 -95 -201 -171 -279 -69 -70 -133 -108 -223 -131 -105 -28
-202 -18 -473 46 -268 63 -336 72 -500 67 -128 -5 -156 -9 -241 -36 -237 -78
-454 -267 -654 -570 -26 -40 -49 -71 -51 -70 -5 6 27 174 55 293 161 664 510
1168 971 1400 116 58 245 104 360 129 110 23 114 23 251 25 97 1 144 -4 205
-19z m-5278 -826 c206 -41 408 -196 497 -379 89 -184 86 -402 -8 -595 -34 -70
-57 -101 -132 -175 -101 -101 -183 -153 -300 -192 -69 -22 -98 -26 -205 -27
-147 0 -215 15 -339 75 -96 47 -216 154 -278 247 -150 226 -146 547 10 765
165 231 461 341 755 281z m-3180 -7429 c97 -43 172 -135 202 -243 18 -69 14
-208 -9 -282 -38 -119 -132 -212 -249 -246 -75 -22 -218 -15 -285 15 -70 30
-149 110 -182 182 -74 165 -43 373 73 492 84 87 168 118 303 113 67 -3 99 -9
147 -31z m-1375 13 c3 -7 51 -125 107 -263 57 -137 110 -271 120 -297 l16 -46
79 191 c43 106 101 245 128 310 l49 117 89 0 89 0 0 -400 0 -400 -65 0 -65 0
-1 323 c0 281 -2 317 -14 282 -7 -22 -65 -166 -128 -320 l-116 -280 -47 0 -48
0 -108 260 c-60 143 -120 292 -133 330 l-24 70 -1 -332 0 -333 -60 0 -60 0 0
393 c0 217 3 397 7 400 12 13 181 8 186 -5z m2227 -19 c0 -24 -47 -98 -211
-332 -116 -166 -214 -307 -216 -314 -4 -10 40 -13 211 -13 l217 0 -3 -52 -3
-53 -310 0 -310 0 -3 25 c-2 19 52 102 217 335 l220 310 -200 3 -199 2 0 60 0
60 295 0 295 0 0 -31z m700 0 c0 -23 -48 -98 -210 -330 -116 -165 -213 -306
-216 -314 -5 -13 23 -15 210 -15 l217 0 -3 -52 -3 -53 -310 0 -310 0 -3 25
c-2 19 51 101 217 335 l219 310 -199 3 -199 2 0 60 0 60 295 0 295 0 0 -31z
m527 -6 c33 -81 283 -744 283 -753 0 -6 -31 -10 -69 -10 l-69 0 -34 93 -34 92
-166 3 -166 2 -32 -95 -33 -95 -73 0 c-72 0 -73 0 -65 23 5 12 67 175 139 362
71 187 137 357 145 378 l16 37 71 0 71 0 16 -37z m791 8 c68 -31 107 -76 121
-142 24 -109 -21 -206 -119 -254 -19 -10 -37 -19 -38 -20 -2 -2 14 -20 36 -39
31 -28 181 -258 200 -308 2 -4 -30 -8 -71 -8 l-74 0 -76 128 c-92 158 -118
182 -193 182 l-54 0 0 -155 0 -156 -67 3 -68 3 -3 385 c-1 212 0 391 3 399 4
11 38 12 178 9 153 -4 178 -7 225 -27z m737 -31 l0 -55 -152 -3 -153 -3 0
-109 0 -110 140 0 140 0 0 -55 0 -55 -140 0 -141 0 3 -117 3 -118 158 -3 157
-3 0 -54 0 -55 -225 0 -225 0 0 400 0 400 218 -2 217 -3 0 -55z m267 -282 l3
-343 158 -3 157 -3 0 -54 0 -55 -225 0 -225 0 0 400 0 400 65 0 65 0 2 -342z
m548 -3 l0 -345 161 0 160 0 -3 -52 -3 -53 -222 -3 -223 -2 0 400 0 400 65 0
65 0 0 -345z m835 328 c3 -10 69 -182 145 -383 76 -201 142 -373 145 -382 6
-16 0 -18 -66 -18 l-74 0 -34 95 -33 95 -166 -2 -166 -3 -32 -90 -32 -90 -71
-3 c-39 -2 -71 0 -71 3 0 5 248 660 287 758 l15 37 73 0 c60 0 74 -3 80 -17z"/>
<path d="M12893 8285 c-54 -27 -95 -77 -119 -142 -18 -52 -18 -198 1 -254 73
-215 376 -223 454 -13 25 67 28 196 6 270 -18 62 -67 121 -119 145 -62 28
-159 25 -223 -6z"/>
<path d="M15160 8279 c0 -9 -27 -92 -60 -184 -33 -92 -60 -170 -60 -172 0 -1
56 -3 125 -3 69 0 125 4 125 8 0 17 -129 366 -130 351z"/>
<path d="M15780 8175 l0 -135 71 0 c123 0 179 46 179 145 0 91 -47 125 -175
125 l-75 0 0 -135z"/>
<path d="M18289 8107 l-66 -187 128 0 128 0 -55 158 c-31 86 -59 170 -63 187
-6 25 -16 2 -72 -158z"/>
</g>
</svg>
