<?xml version="1.0" encoding="UTF-8"?>
<!DOCTYPE svg PUBLIC "-//W3C//DTD SVG 1.1//EN" "http://www.w3.org/Graphics/SVG/1.1/DTD/svg11.dtd">
<svg xmlns="http://www.w3.org/2000/svg" version="1.1" width="50px" height="50px" style="shape-rendering:geometricPrecision; text-rendering:geometricPrecision; image-rendering:optimizeQuality; fill-rule:evenodd; clip-rule:evenodd" xmlns:xlink="http://www.w3.org/1999/xlink">
<g><path fill="#fff" d="M 8.5,2.5 C 10.1992,2.33982 11.8659,2.50649 13.5,3C 15.8333,6.66667 18.1667,10.3333 20.5,14C 19.782,15.9874 18.782,17.8208 17.5,19.5C 20.5,24.5 24.5,28.5 29.5,31.5C 31.8671,29.6048 34.5337,29.1048 37.5,30C 40.4185,31.7088 43.2518,33.5421 46,35.5C 46.1324,44.0303 41.9658,47.5303 33.5,46C 21.125,39.6272 11.2917,30.4606 4,18.5C 0.834241,11.6461 2.33424,6.31274 8.5,2.5 Z M 9.5,5.5 C 16.2907,8.89685 17.624,13.7302 13.5,20C 18,25.8333 23.1667,31 29,35.5C 34.7301,31.4198 39.5634,32.4198 43.5,38.5C 41.6741,42.5182 38.6741,44.0182 34.5,43C 25.4751,37.9786 17.6417,31.4786 11,23.5C 8.49452,19.989 6.66118,16.1557 5.5,12C 6.20538,9.45824 7.53871,7.29158 9.5,5.5 Z"/></g>
</svg>
